<?xml version="1.0" encoding="UTF-8" standalone="no"?>
<svg
   xmlns:dc="http://purl.org/dc/elements/1.1/"
   xmlns:cc="http://creativecommons.org/ns#"
   xmlns:rdf="http://www.w3.org/1999/02/22-rdf-syntax-ns#"
   xmlns:svg="http://www.w3.org/2000/svg"
   xmlns="http://www.w3.org/2000/svg"
   xmlns:xlink="http://www.w3.org/1999/xlink"
   xmlns:sodipodi="http://sodipodi.sourceforge.net/DTD/sodipodi-0.dtd"
   xmlns:inkscape="http://www.inkscape.org/namespaces/inkscape"
   viewBox="0 0 1025.704 1246.084"
   id="svg2"
   version="1.1"
   inkscape:version="0.48.2 r9819"
   width="100%"
   height="100%"
   sodipodi:docname="floor_3.svg">
  <metadata
     id="metadata50">
    <rdf:RDF>
      <cc:Work
         rdf:about="">
        <dc:format>image/svg+xml</dc:format>
        <dc:type
           rdf:resource="http://purl.org/dc/dcmitype/StillImage" />
      </cc:Work>
    </rdf:RDF>
  </metadata>
  <defs
     id="defs48" />
  <sodipodi:namedview
     pagecolor="#ffffff"
     bordercolor="#666666"
     borderopacity="1"
     objecttolerance="10"
     gridtolerance="10"
     guidetolerance="10"
     inkscape:pageopacity="0"
     inkscape:pageshadow="2"
     inkscape:window-width="640"
     inkscape:window-height="480"
     id="namedview46"
     showgrid="false"
     fit-margin-top="0"
     fit-margin-left="0"
     fit-margin-right="0"
     fit-margin-bottom="0"
     inkscape:zoom="0.092637576"
     inkscape:cx="929.08102"
     inkscape:cy="811.26845"
     inkscape:window-x="0"
     inkscape:window-y="0"
     inkscape:window-maximized="0"
     inkscape:current-layer="svg2" />
  <g
     id="g4"
     transform="translate(-970.796,-757.144)">
    <defs
       id="defs6">
      <path
         id="a"
         d="M -1439.374,732.806 V 581.958 l -393.877,2.272 -404.001,109 -113.744,63.931 108.914,194.762 114.208,-63.617 72,115.5 227,-61 h 153.5 V 732.84 z"
         inkscape:connector-curvature="0" />
    </defs>
    <clipPath
       id="b">
      <use
         xlink:href="#a"
         overflow="visible"
         id="use10"
         style="overflow:visible"
         x="0"
         y="0"
         width="3799.7539"
         height="2383.9189" />
    </clipPath>
    <g
       clip-path="url(#b)"
       id="g12"
       style="fill:#f9cc0f">
      <path
         d="M -794.888,-842.518 22.485,1251.719 2.971,1259.335 -814.402,-834.902 z m 65.052,-25.385 817.373,2094.237 -19.516,7.617 -817.373,-2094.237 z m 458.601,-178.964 817.372,2094.236 -19.514,7.616 -817.372,-2094.236 z m -131.184,51.193 817.372,2094.236 -19.514,7.616 -817.372,-2094.236 z m 196.235,-76.579 817.373,2094.237 -19.515,7.617 -817.373,-2094.237 z m -130.1,50.77 817.373,2094.237 -19.514,7.616 -817.373,-2094.237 z m 196.234,-76.578 817.372,2094.236 -19.515,7.617 -817.372,-2094.236 z m 65.051,-25.386 817.372,2094.236 -19.515,7.617 -817.372,-2094.236 z m -523.654,204.351 817.373,2094.237 -19.514,7.616 -817.373,-2094.237 z m -131.183,51.193 817.373,2094.237 -19.516,7.617 -817.373,-2094.237 z m 196.233,-76.579 817.373,2094.237 -19.514,7.616 -817.373,-2094.237 z m -130.1,50.771 817.372,2094.236 -19.514,7.616 -817.372,-2094.236 z m 196.236,-76.579 817.372,2094.236 -19.516,7.617 -817.372,-2094.236 z m -327.421,127.772 817.373,2094.237 -19.514,7.616 -817.373,-2094.237 z m 65.052,-25.385 817.373,2094.237 -19.516,7.617 -817.373,-2094.237 z m 458.601,-178.964 817.372,2094.236 -19.514,7.616 -817.372,-2094.236 z m -131.184,51.193 817.372,2094.236 -19.514,7.616 -817.372,-2094.236 z m 196.235,-76.579 817.373,2094.237 -19.515,7.617 -817.373,-2094.237 z m -130.1,50.77 817.373,2094.237 -19.514,7.616 -817.373,-2094.237 z m 196.234,-76.578 817.372,2094.236 -19.515,7.617 -817.372,-2094.236 z m 65.051,-25.386 817.372,2094.236 -19.515,7.617 -817.372,-2094.236 z m -523.654,204.351 817.373,2094.237 -19.514,7.616 -817.373,-2094.237 z m -131.183,51.193 817.373,2094.237 -19.516,7.617 -817.373,-2094.237 z m 196.233,-76.579 817.373,2094.237 -19.514,7.616 -817.373,-2094.237 z m -130.1,50.771 817.372,2094.236 -19.514,7.616 -817.372,-2094.236 z m 196.236,-76.579 817.372,2094.236 -19.516,7.617 -817.372,-2094.236 z"
         id="path14"
         inkscape:connector-curvature="0" />
    </g>
    <defs
       id="defs16">
      <path
         id="c"
         d="m -1546.25,1065.229 h 287.624 v 358.721 h -287.624 z"
         inkscape:connector-curvature="0" />
    </defs>
    <clipPath
       id="d">
      <use
         xlink:href="#c"
         overflow="visible"
         id="use20"
         style="overflow:visible"
         x="0"
         y="0"
         width="3799.7539"
         height="2383.9189" />
    </clipPath>
    <g
       clip-path="url(#d)"
       id="g22"
       style="fill:#f9cc0f">
      <path
         d="M -748.256,-295.177 69.117,1799.06 49.601,1806.677 -767.772,-287.56 z m 65.049,-25.385 817.373,2094.237 -19.516,7.617 -817.373,-2094.237 z m -130.1,50.771 817.373,2094.237 -19.515,7.617 -817.373,-2094.237 z m 196.234,-76.578 817.372,2094.236 -19.514,7.616 -817.372,-2094.236 z m 65.05,-25.384 817.373,2094.237 -19.514,7.616 -817.373,-2094.237 z m 458.604,-178.967 817.373,2094.238 -19.516,7.617 -817.373,-2094.238 z m -131.186,51.195 817.372,2094.236 -19.514,7.616 -817.372,-2094.236 z m 196.236,-76.58 817.373,2094.237 -19.515,7.617 -817.373,-2094.237 z m -130.1,50.771 817.373,2094.237 -19.515,7.617 -817.373,-2094.237 z m 196.233,-76.579 817.372,2094.236 -19.514,7.616 L 18.25,-594.297 z m 65.05,-25.385 817.372,2094.236 -19.514,7.616 L 83.3,-619.682 z m -523.652,204.349 817.373,2094.237 -19.516,7.617 -817.373,-2094.237 z m -131.185,51.196 817.373,2094.237 -19.514,7.616 -817.373,-2094.237 z m 196.235,-76.579 817.372,2094.236 -19.514,7.616 -817.372,-2094.236 z m -130.102,50.769 817.372,2094.236 -19.514,7.616 -817.372,-2094.236 z m 196.236,-76.578 817.372,2094.236 -19.515,7.617 -817.372,-2094.236 z M -748.256,-295.177 69.117,1799.06 49.601,1806.677 -767.772,-287.56 z m 65.049,-25.385 817.373,2094.237 -19.516,7.617 -817.373,-2094.237 z m -130.1,50.771 817.373,2094.237 -19.515,7.617 -817.373,-2094.237 z m 196.234,-76.578 817.372,2094.236 -19.514,7.616 -817.372,-2094.236 z m 65.05,-25.384 817.373,2094.237 -19.514,7.616 -817.373,-2094.237 z m 458.604,-178.967 817.373,2094.238 -19.516,7.617 -817.373,-2094.238 z m -131.186,51.195 817.372,2094.236 -19.514,7.616 -817.372,-2094.236 z m 196.236,-76.58 817.373,2094.237 -19.515,7.617 -817.373,-2094.237 z m -130.1,50.771 817.373,2094.237 -19.515,7.617 -817.373,-2094.237 z m 196.233,-76.579 817.372,2094.236 -19.514,7.616 L 18.25,-594.297 z m 65.05,-25.385 817.372,2094.236 -19.514,7.616 L 83.3,-619.682 z m -523.652,204.349 817.373,2094.237 -19.516,7.617 -817.373,-2094.237 z m -131.185,51.196 817.373,2094.237 -19.514,7.616 -817.373,-2094.237 z m 196.235,-76.579 817.372,2094.236 -19.514,7.616 -817.372,-2094.236 z m -130.102,50.769 817.372,2094.236 -19.514,7.616 -817.372,-2094.236 z m 196.236,-76.578 817.372,2094.236 -19.515,7.617 -817.372,-2094.236 z"
         id="path24"
         inkscape:connector-curvature="0" />
    </g>
  </g>
  <g
     id="g26"
     transform="translate(-970.796,-757.144)">
    <defs
       id="defs28">
      <path
         id="e"
         d="m 1996.5,1561.548 -99.576,-178.5 -49.128,27.18 -165,-302 170.782,-95.207 -141.404,-255.877 -741.378,416.084 152.957,830 261.043,-95 213.356,-120.918 233.59,-132.387 z"
         inkscape:connector-curvature="0" />
    </defs>
    <clipPath
       id="f">
      <use
         xlink:href="#e"
         overflow="visible"
         id="use32"
         style="overflow:visible"
         x="0"
         y="0"
         width="3799.7539"
         height="2383.9189" />
    </clipPath>
    <g
       clip-path="url(#f)"
       id="g34"
       style="fill:#f9cc0f">
      <path
         d="m 2392.05,70.868 817.372,2094.236 -19.515,7.617 L 2372.535,78.485 z m -131.184,51.193 817.373,2094.237 -19.516,7.617 L 2241.35,129.678 z M 2457.1,45.484 3274.472,2139.72 3254.958,2147.336 2437.586,53.1 z m -130.1,50.769 817.372,2094.236 -19.516,7.617 L 2307.484,103.87 z m 196.233,-76.578 817.373,2094.238 -19.514,7.616 L 2503.719,27.291 z m 65.05,-25.384 817.373,2094.237 -19.516,7.617 L 2568.767,1.908 z m -523.652,204.35 817.372,2094.234 -19.515,7.617 -817.372,-2094.234 z m -131.185,51.192 817.373,2094.237 -19.516,7.617 L 1913.93,257.45 z m 196.235,-76.578 817.372,2094.235 -19.515,7.617 -817.372,-2094.235 z m -130.1,50.771 817.372,2094.235 -19.516,7.617 -817.372,-2094.235 z m 196.234,-76.579 817.372,2094.236 -19.515,7.617 L 2176.3,155.064 z m 851.073,-332.122 817.372,2094.236 -19.515,7.617 -817.372,-2094.236 z m -131.184,51.194 817.372,2094.236 -19.514,7.616 -817.372,-2094.236 z m 196.235,-76.581 817.373,2094.238 -19.515,7.617 -817.373,-2094.238 z m -130.102,50.772 817.373,2094.238 -19.514,7.616 -817.373,-2094.238 z m 196.233,-76.578 817.373,2094.237 -19.515,7.617 -817.373,-2094.237 z m 65.051,-25.386 817.372,2094.236 -19.515,7.617 -817.372,-2094.236 z m -523.653,204.351 817.372,2094.236 -19.514,7.616 -817.372,-2094.236 z m -131.185,51.194 817.373,2094.237 -19.516,7.617 L 2568.767,1.908 z m 196.234,-76.579 817.373,2094.237 -19.514,7.616 -817.373,-2094.237 z m -130.097,50.771 817.372,2094.236 -19.514,7.616 -817.372,-2094.236 z m 196.233,-76.579 817.373,2094.237 -19.516,7.617 -817.373,-2094.237 z m -1768.278,690.05 817.373,2094.237 -19.516,7.617 L 1062.859,589.571 z M 951.189,633.147 1768.562,2727.384 1749.048,2735 931.675,640.763 z m 196.237,-76.577 817.372,2094.236 -19.514,7.616 -817.372,-2094.236 z m -130.101,50.769 817.373,2094.237 -19.516,7.617 L 997.809,614.956 z m 196.234,-76.577 817.372,2094.236 -19.515,7.617 -817.372,-2094.236 z m 65.049,-25.386 817.373,2094.237 -19.514,7.616 -817.373,-2094.237 z m -523.651,204.35 817.373,2094.238 -19.516,7.617 L 735.441,717.343 z m -131.185,51.193 817.372,2094.236 -19.515,7.617 L 604.257,768.536 z m 196.236,-76.577 817.372,2094.236 -19.515,7.617 L 800.493,691.959 z m -130.101,50.769 817.372,2094.236 -19.514,7.616 L 670.393,742.727 z m 196.234,-76.577 817.372,2094.236 -19.514,7.616 L 866.627,666.15 z m 851.071,-332.122 817.372,2094.236 -19.515,7.617 -817.372,-2094.236 z m -131.184,51.193 817.372,2094.236 -19.515,7.617 -817.372,-2094.236 z m 196.235,-76.577 817.372,2094.236 -19.514,7.616 -817.372,-2094.236 z m -130.101,50.768 817.372,2094.236 -19.515,7.617 -817.372,-2094.236 z m 196.234,-76.579 817.373,2094.238 -19.514,7.616 -817.373,-2094.238 z m 65.05,-25.384 817.373,2094.237 -19.516,7.617 L 1913.93,257.45 z m -523.652,204.351 817.372,2094.234 -19.515,7.617 -817.372,-2094.234 z m -131.186,51.192 817.373,2094.237 -19.514,7.616 -817.373,-2094.237 z m 196.236,-76.577 817.372,2094.236 -19.515,7.617 -817.372,-2094.236 z m -130.1,50.769 817.373,2094.238 -19.516,7.617 -817.373,-2094.238 z m 196.234,-76.577 817.372,2094.236 -19.514,7.616 -817.372,-2094.236 z m 851.072,-332.123 817.372,2094.236 -19.515,7.617 L 2372.535,78.485 z m -131.184,51.193 817.373,2094.237 -19.516,7.617 L 2241.35,129.678 z M 2457.1,45.484 3274.472,2139.72 3254.958,2147.336 2437.586,53.1 z m -130.1,50.769 817.372,2094.236 -19.516,7.617 L 2307.484,103.87 z m 196.233,-76.578 817.373,2094.238 -19.514,7.616 L 2503.719,27.291 z m 65.05,-25.384 817.373,2094.237 -19.516,7.617 L 2568.767,1.908 z m -523.652,204.35 817.372,2094.234 -19.515,7.617 -817.372,-2094.234 z m -131.185,51.192 817.373,2094.237 -19.516,7.617 L 1913.93,257.45 z m 196.235,-76.578 817.372,2094.235 -19.515,7.617 -817.372,-2094.235 z m -130.1,50.771 817.372,2094.235 -19.516,7.617 -817.372,-2094.235 z m 196.234,-76.579 817.372,2094.236 -19.515,7.617 L 2176.3,155.064 z m 851.073,-332.122 817.372,2094.236 -19.515,7.617 -817.372,-2094.236 z m -131.184,51.194 817.372,2094.236 -19.514,7.616 -817.372,-2094.236 z m 196.235,-76.581 817.373,2094.238 -19.515,7.617 -817.373,-2094.238 z m -130.102,50.772 817.373,2094.238 -19.514,7.616 -817.373,-2094.238 z m 196.233,-76.578 817.373,2094.237 -19.515,7.617 -817.373,-2094.237 z m 65.051,-25.386 817.372,2094.236 -19.515,7.617 -817.372,-2094.236 z m -523.653,204.351 817.372,2094.236 -19.514,7.616 -817.372,-2094.236 z m -131.185,51.194 817.373,2094.237 -19.516,7.617 L 2568.767,1.908 z m 196.234,-76.579 817.373,2094.237 -19.514,7.616 -817.373,-2094.237 z m -130.097,50.771 817.372,2094.236 -19.514,7.616 -817.372,-2094.236 z m 196.233,-76.579 817.373,2094.237 -19.516,7.617 -817.373,-2094.237 z m -1768.278,690.05 817.373,2094.237 -19.516,7.617 L 1062.859,589.571 z M 951.189,633.147 1768.562,2727.384 1749.048,2735 931.675,640.763 z m 196.237,-76.577 817.372,2094.236 -19.514,7.616 -817.372,-2094.236 z m -130.101,50.769 817.373,2094.237 -19.516,7.617 L 997.809,614.956 z m 196.234,-76.577 817.372,2094.236 -19.515,7.617 -817.372,-2094.236 z m 65.049,-25.386 817.373,2094.237 -19.514,7.616 -817.373,-2094.237 z m -523.651,204.35 817.373,2094.238 -19.516,7.617 L 735.441,717.343 z m -131.185,51.193 817.372,2094.236 -19.515,7.617 L 604.257,768.536 z m 196.236,-76.577 817.372,2094.236 -19.515,7.617 L 800.493,691.959 z m -130.101,50.769 817.372,2094.236 -19.514,7.616 L 670.393,742.727 z m 196.234,-76.577 817.372,2094.236 -19.514,7.616 L 866.627,666.15 z m 851.071,-332.122 817.372,2094.236 -19.515,7.617 -817.372,-2094.236 z m -131.184,51.193 817.372,2094.236 -19.515,7.617 -817.372,-2094.236 z m 196.235,-76.577 817.372,2094.236 -19.514,7.616 -817.372,-2094.236 z m -130.101,50.768 817.372,2094.236 -19.515,7.617 -817.372,-2094.236 z m 196.234,-76.579 817.373,2094.238 -19.514,7.616 -817.373,-2094.238 z m 65.05,-25.384 817.373,2094.237 -19.516,7.617 L 1913.93,257.45 z m -523.652,204.351 817.372,2094.234 -19.515,7.617 -817.372,-2094.234 z m -131.186,51.192 817.373,2094.237 -19.514,7.616 -817.373,-2094.237 z m 196.236,-76.577 817.372,2094.236 -19.515,7.617 -817.372,-2094.236 z m -130.1,50.769 817.373,2094.238 -19.516,7.617 -817.373,-2094.238 z m 196.234,-76.577 817.372,2094.236 -19.514,7.616 -817.372,-2094.236 z"
         id="path36"
         inkscape:connector-curvature="0" />
    </g>
  </g>
  <g
     id="g38"
     transform="translate(-970.796,-757.144)">
    <path
       stroke-miterlimit="10"
       d="m 1856.349,1011.476 -173.553,96.752 165,302 62.878,-35.424"
       id="path40"
       inkscape:connector-curvature="0"
       style="fill:none;stroke:#f7f4ec;stroke-width:20;stroke-miterlimit:10" />
    <path
       d="m 1947.896,1182.404 -94.318,-169.383 -170.782,95.207 165,302 48.917,-27.559 -72.484,-129.931 123.667,-70.334"
       id="path42"
       inkscape:connector-curvature="0"
       style="fill:#f9cc0f" />
  </g>
  <path
     d="m 939.454,340.441 c 0.267,0.461 0.323,0.971 0.175,1.53 l -7.46,27.839 12.075,3.235 c 1.061,0.284 1.857,0.887 2.391,1.809 0.531,0.921 0.654,1.914 0.371,2.975 -0.285,1.062 -0.889,1.859 -1.809,2.392 l -23.816,13.75 c -0.922,0.532 -1.914,0.655 -2.975,0.371 -1.062,-0.285 -1.86,-0.888 -2.393,-1.81 l -13.75,-23.815 c -0.531,-0.921 -0.654,-1.913 -0.371,-2.976 0.285,-1.062 0.888,-1.858 1.81,-2.391 0.921,-0.532 1.913,-0.655 2.976,-0.371 l 12.074,3.235 7.461,-27.839 c 0.148,-0.558 0.453,-0.971 0.914,-1.238 0.461,-0.266 0.971,-0.323 1.531,-0.174 l 9.559,2.561 c 0.558,0.152 0.971,0.457 1.237,0.917 z m 15,-69.901 13.75,23.816 c 0.532,0.922 0.655,1.914 0.372,2.976 -0.285,1.062 -0.889,1.859 -1.811,2.391 -0.922,0.532 -1.913,0.657 -2.975,0.371 l -12.074,-3.235 -7.46,27.839 c -0.149,0.559 -0.456,0.972 -0.915,1.237 -0.461,0.266 -0.973,0.324 -1.531,0.174 l -9.559,-2.562 c -0.559,-0.149 -0.971,-0.455 -1.236,-0.916 -0.266,-0.46 -0.325,-0.97 -0.176,-1.53 l 7.46,-27.839 -12.075,-3.235 c -1.062,-0.284 -1.857,-0.887 -2.391,-1.809 -0.531,-0.921 -0.656,-1.913 -0.371,-2.975 0.284,-1.062 0.887,-1.859 1.809,-2.391 l 23.816,-13.75 c 0.922,-0.532 1.913,-0.655 2.976,-0.372 1.062,0.286 1.859,0.889 2.391,1.81 z"
     id="path44"
     inkscape:connector-curvature="0"
     style="fill:#0a3e60" />
</svg>
