<?xml version="1.0" encoding="UTF-8" standalone="no"?>
<svg
   xmlns:dc="http://purl.org/dc/elements/1.1/"
   xmlns:cc="http://creativecommons.org/ns#"
   xmlns:rdf="http://www.w3.org/1999/02/22-rdf-syntax-ns#"
   xmlns:svg="http://www.w3.org/2000/svg"
   xmlns="http://www.w3.org/2000/svg"
   xmlns:xlink="http://www.w3.org/1999/xlink"
   xmlns:sodipodi="http://sodipodi.sourceforge.net/DTD/sodipodi-0.dtd"
   xmlns:inkscape="http://www.inkscape.org/namespaces/inkscape"
   viewBox="0 0 1795.002 1246.082"
   id="svg2"
   version="1.1"
   inkscape:version="0.48.2 r9819"
   width="100%"
   height="100%"
   sodipodi:docname="floor_9.svg">
  <metadata
     id="metadata42">
    <rdf:RDF>
      <cc:Work
         rdf:about="">
        <dc:format>image/svg+xml</dc:format>
        <dc:type
           rdf:resource="http://purl.org/dc/dcmitype/StillImage" />
      </cc:Work>
    </rdf:RDF>
  </metadata>
  <sodipodi:namedview
     pagecolor="#ffffff"
     bordercolor="#666666"
     borderopacity="1"
     objecttolerance="10"
     gridtolerance="10"
     guidetolerance="10"
     inkscape:pageopacity="0"
     inkscape:pageshadow="2"
     inkscape:window-width="640"
     inkscape:window-height="480"
     id="namedview40"
     showgrid="false"
     fit-margin-top="0"
     fit-margin-left="0"
     fit-margin-right="0"
     fit-margin-bottom="0"
     inkscape:zoom="0.092637576"
     inkscape:cx="929.08102"
     inkscape:cy="811.26845"
     inkscape:window-x="0"
     inkscape:window-y="0"
     inkscape:window-maximized="0"
     inkscape:current-layer="svg2" />
  <path
     d="M 152.957,1246.082 414,1151.083 1035.914,803.096 879.365,544.03 l 250.514,-139.039 140,-36.244 H 1545 v -61.664 h 211 l 0,-64 v -28 h 39 v -45 h -39 V 32.082998 h -51 V 243.521 l -298,2.562 -1.002,62 h -137 l 0,-124 -234.002,67 L 919.328,320.415 740.297,-2.0650498e-6 -0.004,416.083 z"
     id="path4"
     inkscape:connector-curvature="0"
     style="fill:#f9cc0f" />
  <defs
     id="defs6">
    <path
       id="a"
       d="m 2515.101,1125.893 h -274.426 l -140,36.244 -250.514,139.039 152.473,256.867 234.625,-134.094 278.537,0 z"
       inkscape:connector-curvature="0" />
  </defs>
  <clipPath
     id="b">
    <use
       xlink:href="#a"
       overflow="visible"
       id="use10"
       style="overflow:visible"
       x="0"
       y="0"
       width="3799.7539"
       height="2383.9189" />
  </clipPath>
  <path
     d="m 2566.754,-31.864 817.372,2094.236 -19.514,7.616 L 2547.24,-24.248 z m -131.186,51.191 817.372,2094.235 -19.516,7.617 L 2416.052,26.944 z m 196.236,-76.577 817.372,2094.236 -19.514,7.616 L 2612.29,-49.634 z m -130.102,50.77 817.373,2094.237 -19.516,7.617 L 2482.186,1.137 z m 196.233,-76.577 817.373,2094.237 -19.514,7.616 -817.373,-2094.237 z m 65.052,-25.386 817.373,2094.237 -19.516,7.617 -817.373,-2094.237 z m -523.653,204.35 817.372,2094.234 -19.514,7.616 L 2219.82,103.523 z m -131.187,51.193 817.373,2094.237 -19.514,7.616 -817.373,-2094.237 z m 196.236,-76.578 817.372,2094.234 -19.514,7.616 L 2284.869,78.138 z m -130.1,50.769 817.372,2094.235 -19.516,7.617 -817.372,-2094.235 z m 196.235,-76.577 817.372,2094.234 -19.515,7.617 L 2351.003,52.331 z m 851.073,-332.122 817.373,2094.237 -19.514,7.616 -817.373,-2094.237 z m -131.184,51.194 817.372,2094.235 -19.515,7.617 -817.372,-2094.235 z m 196.234,-76.58 817.373,2094.237 -19.514,7.616 -817.373,-2094.237 z m -130.1,50.772 817.373,2094.237 -19.514,7.616 -817.373,-2094.237 z m 196.231,-76.58 817.372,2094.236 -19.515,7.617 -817.372,-2094.236 z m 65.051,-25.385 817.372,2094.236 -19.516,7.617 -817.372,-2094.236 z m -523.651,204.351 817.372,2094.236 -19.513,7.616 -817.372,-2094.236 z m -131.185,51.193 817.373,2094.237 -19.516,7.617 -817.373,-2094.237 z m 196.232,-76.578 817.372,2094.236 -19.514,7.616 -817.372,-2094.236 z m -130.097,50.77 817.372,2094.234 -19.515,7.617 -817.372,-2094.234 z m 196.233,-76.579 817.372,2094.236 -19.516,7.617 -817.372,-2094.236 z m -1768.277,690.05 817.371,2094.233 -19.516,7.617 -817.371,-2094.233 z m -131.186,51.194 817.371,2094.233 -19.514,7.616 L 1106.378,538.03 z m 196.237,-76.578 817.371,2094.232 -19.515,7.617 -817.371,-2094.232 z m -130.101,50.77 817.371,2094.233 -19.516,7.617 -817.371,-2094.233 z m 196.234,-76.578 817.372,2094.234 -19.514,7.616 -817.372,-2094.234 z m 65.05,-25.386 817.372,2094.235 -19.514,7.616 -817.372,-2094.235 z m -523.654,204.35 817.372,2094.235 -19.516,7.617 L 910.142,614.609 z m -131.184,51.195 817.372,2094.235 -19.515,7.617 L 778.959,665.804 z m 196.234,-76.579 817.371,2094.233 -19.515,7.617 L 975.193,589.225 z m -130.1,50.769 817.372,2094.235 -19.515,7.617 L 845.093,639.994 z m 196.236,-76.576 817.371,2094.232 -19.514,7.616 L 1041.33,563.417 z m 851.07,-332.123 817.372,2094.235 -19.516,7.617 -817.372,-2094.235 z m -131.184,51.193 817.372,2094.234 -19.515,7.617 -817.372,-2094.234 z m 196.236,-76.578 817.372,2094.236 -19.514,7.616 -817.372,-2094.236 z m -130.102,50.77 817.373,2094.237 -19.514,7.616 L 1827.35,256.679 z m 196.235,-76.578 817.373,2094.237 -19.514,7.616 -817.373,-2094.237 z m 65.048,-25.385 817.373,2094.237 -19.514,7.616 -817.373,-2094.237 z m -523.65,204.351 817.371,2094.232 -19.514,7.616 -817.371,-2094.232 z m -131.185,51.191 817.372,2094.235 -19.514,7.616 -817.372,-2094.235 z m 196.234,-76.578 817.373,2094.237 -19.516,7.617 L 1630.03,333.681 z m -130.1,50.77 817.372,2094.235 -19.516,7.617 L 1499.93,384.451 z m 196.234,-76.576 817.372,2094.234 -19.514,7.616 -817.372,-2094.234 z m 851.074,-332.122 817.372,2094.236 -19.514,7.616 L 2547.24,-24.248 z m -131.186,51.191 817.372,2094.235 -19.516,7.617 L 2416.052,26.944 z m 196.236,-76.577 817.372,2094.236 -19.514,7.616 L 2612.29,-49.634 z m -130.102,50.77 817.373,2094.237 -19.516,7.617 L 2482.186,1.137 z m 196.233,-76.577 817.373,2094.237 -19.514,7.616 -817.373,-2094.237 z m 65.052,-25.386 817.373,2094.237 -19.516,7.617 -817.373,-2094.237 z m -523.653,204.35 817.372,2094.234 -19.514,7.616 L 2219.82,103.523 z m -131.187,51.193 817.373,2094.237 -19.514,7.616 -817.373,-2094.237 z m 196.236,-76.578 817.372,2094.234 -19.514,7.616 L 2284.869,78.138 z m -130.1,50.769 817.372,2094.235 -19.516,7.617 -817.372,-2094.235 z m 196.235,-76.577 817.372,2094.234 -19.515,7.617 L 2351.003,52.331 z m 851.073,-332.122 817.373,2094.237 -19.514,7.616 -817.373,-2094.237 z m -131.184,51.194 817.372,2094.235 -19.515,7.617 -817.372,-2094.235 z m 196.234,-76.58 817.373,2094.237 -19.514,7.616 -817.373,-2094.237 z m -130.1,50.772 817.373,2094.237 -19.514,7.616 -817.373,-2094.237 z m 196.231,-76.58 817.372,2094.236 -19.515,7.617 -817.372,-2094.236 z m 65.051,-25.385 817.372,2094.236 -19.516,7.617 -817.372,-2094.236 z m -523.651,204.351 817.372,2094.236 -19.513,7.616 -817.372,-2094.236 z m -131.185,51.193 817.373,2094.237 -19.516,7.617 -817.373,-2094.237 z m 196.232,-76.578 817.372,2094.236 -19.514,7.616 -817.372,-2094.236 z m -130.097,50.77 817.372,2094.234 -19.515,7.617 -817.372,-2094.234 z m 196.233,-76.579 817.372,2094.236 -19.516,7.617 -817.372,-2094.236 z m -1768.277,690.05 817.371,2094.233 -19.516,7.617 -817.371,-2094.233 z m -131.186,51.194 817.371,2094.233 -19.514,7.616 L 1106.378,538.03 z m 196.237,-76.578 817.371,2094.232 -19.515,7.617 -817.371,-2094.232 z m -130.101,50.77 817.371,2094.233 -19.516,7.617 -817.371,-2094.233 z m 196.234,-76.578 817.372,2094.234 -19.514,7.616 -817.372,-2094.234 z m 65.05,-25.386 817.372,2094.235 -19.514,7.616 -817.372,-2094.235 z m -523.654,204.35 817.372,2094.235 -19.516,7.617 L 910.142,614.609 z m -131.184,51.195 817.372,2094.235 -19.515,7.617 L 778.959,665.804 z m 196.234,-76.579 817.371,2094.233 -19.515,7.617 L 975.193,589.225 z m -130.1,50.769 817.372,2094.235 -19.515,7.617 L 845.093,639.994 z m 196.236,-76.576 817.371,2094.232 -19.514,7.616 L 1041.33,563.417 z m 851.07,-332.123 817.372,2094.235 -19.516,7.617 -817.372,-2094.235 z m -131.184,51.193 817.372,2094.234 -19.515,7.617 -817.372,-2094.234 z m 196.236,-76.578 817.372,2094.236 -19.514,7.616 -817.372,-2094.236 z m -130.102,50.77 817.373,2094.237 -19.514,7.616 L 1827.35,256.679 z m 196.235,-76.578 817.373,2094.237 -19.514,7.616 -817.373,-2094.237 z m 65.048,-25.385 817.373,2094.237 -19.514,7.616 -817.373,-2094.237 z m -523.65,204.351 817.371,2094.232 -19.514,7.616 -817.371,-2094.232 z m -131.185,51.191 817.372,2094.235 -19.514,7.616 -817.372,-2094.235 z m 196.234,-76.578 817.373,2094.237 -19.516,7.617 L 1630.03,333.681 z m -130.1,50.77 817.372,2094.235 -19.516,7.617 L 1499.93,384.451 z m 196.234,-76.576 817.372,2094.234 -19.514,7.616 -817.372,-2094.234 z"
     clip-path="url(#b)"
     id="path12"
     inkscape:connector-curvature="0"
     style="fill:#f9cc0f"
     transform="translate(-970.796,-757.146)" />
  <g
     id="g14"
     style="fill:#0a3e60"
     transform="translate(-970.796,-757.146)">
    <path
       d="m 2240.22,1017.474 c 0.266,0.461 0.324,0.972 0.174,1.53 l -7.459,27.839 12.074,3.235 c 1.062,0.284 1.859,0.888 2.391,1.81 0.532,0.921 0.656,1.913 0.372,2.975 -0.285,1.062 -0.888,1.859 -1.81,2.392 l -23.815,13.75 c -0.922,0.532 -1.914,0.655 -2.976,0.371 -1.062,-0.285 -1.859,-0.888 -2.391,-1.81 l -13.75,-23.815 c -0.532,-0.921 -0.656,-1.913 -0.371,-2.976 0.284,-1.062 0.887,-1.858 1.809,-2.391 0.922,-0.533 1.914,-0.655 2.975,-0.371 l 12.076,3.234 7.459,-27.838 c 0.15,-0.559 0.455,-0.972 0.916,-1.238 0.46,-0.266 0.971,-0.323 1.529,-0.174 l 9.559,2.561 c 0.558,0.151 0.972,0.456 1.238,0.916 z m 15,-69.901 13.75,23.815 c 0.533,0.923 0.656,1.914 0.371,2.976 -0.285,1.062 -0.888,1.859 -1.809,2.391 -0.922,0.533 -1.914,0.657 -2.976,0.371 l -12.075,-3.234 -7.459,27.839 c -0.15,0.559 -0.455,0.972 -0.916,1.237 -0.461,0.265 -0.971,0.324 -1.529,0.174 l -9.56,-2.561 c -0.559,-0.149 -0.971,-0.455 -1.237,-0.916 -0.266,-0.461 -0.324,-0.971 -0.174,-1.53 l 7.459,-27.839 -12.074,-3.235 c -1.062,-0.284 -1.859,-0.887 -2.392,-1.81 -0.532,-0.921 -0.656,-1.912 -0.371,-2.975 0.284,-1.062 0.888,-1.859 1.81,-2.391 l 23.814,-13.75 c 0.922,-0.532 1.914,-0.656 2.977,-0.372 1.062,0.286 1.859,0.888 2.391,1.81 z m -858.081,307.013 c 2.662,0.714 4.687,2.27 6.07,4.666 1.384,2.397 1.719,4.928 1.006,7.59 -0.714,2.663 -2.269,4.687 -4.666,6.071 -2.397,1.384 -4.927,1.72 -7.59,1.006 -2.663,-0.713 -4.687,-2.269 -6.07,-4.666 -1.384,-2.396 -1.719,-4.927 -1.005,-7.59 0.713,-2.662 2.268,-4.688 4.665,-6.07 2.397,-1.385 4.927,-1.72 7.59,-1.007 z m 40.01,26.31 c 0.595,1.031 0.739,2.115 0.436,3.254 -0.307,1.139 -0.975,2.005 -2.005,2.601 -1.313,0.759 -2.665,0.8 -4.053,0.123 l -16.388,-8.116 -1.739,1.004 2.946,5.104 18.723,10.377 c 0.456,0.252 0.816,0.611 1.085,1.074 0.388,0.671 0.477,1.393 0.271,2.164 -0.207,0.773 -0.646,1.353 -1.316,1.739 l -7.422,4.286 6.071,10.516 c 0.685,1.186 0.847,2.449 0.487,3.791 -0.36,1.342 -1.133,2.355 -2.317,3.04 l -6.187,3.571 c -1.186,0.686 -2.449,0.848 -3.791,0.488 -1.341,-0.359 -2.354,-1.133 -3.039,-2.318 l -6.071,-10.516 -7.423,4.286 c -0.67,0.388 -1.391,0.478 -2.164,0.271 -0.771,-0.207 -1.352,-0.646 -1.738,-1.316 -0.268,-0.463 -0.397,-0.956 -0.389,-1.477 l 0.375,-21.404 -2.946,-5.104 -1.74,1.005 -1.164,18.252 c -0.108,1.54 -0.818,2.688 -2.133,3.448 -1.031,0.595 -2.116,0.74 -3.254,0.436 -1.139,-0.305 -2.005,-0.973 -2.601,-2.004 -0.432,-0.748 -0.62,-1.55 -0.564,-2.407 l 1.326,-20.561 c 0.288,-3.844 1.761,-6.532 4.415,-8.065 l 14.847,-8.572 c 2.653,-1.533 5.719,-1.464 9.191,0.207 l 18.469,9.132 c 0.769,0.379 1.371,0.942 1.802,1.691 z m 49.051,-46.47 9.285,16.083 c 0.596,1.031 0.74,2.116 0.436,3.255 -0.304,1.139 -0.974,2.005 -2.004,2.601 -1.031,0.595 -2.116,0.74 -3.254,0.436 -1.139,-0.305 -2.006,-0.973 -2.601,-2.005 l -7.857,-13.608 -2.475,1.429 20.357,35.26 c 0.685,1.186 0.847,2.449 0.487,3.791 -0.359,1.341 -1.132,2.354 -2.316,3.039 -1.187,0.685 -2.449,0.847 -3.792,0.487 -1.341,-0.359 -2.354,-1.132 -3.038,-2.316 l -10.357,-17.939 -2.475,1.428 10.357,17.939 c 0.684,1.186 0.847,2.449 0.487,3.791 -0.36,1.342 -1.132,2.355 -2.317,3.039 -1.186,0.686 -2.449,0.848 -3.791,0.488 -1.342,-0.36 -2.355,-1.133 -3.039,-2.317 l -20.357,-35.26 -2.475,1.429 7.857,13.609 c 0.596,1.031 0.74,2.115 0.436,3.254 -0.304,1.139 -0.974,2.006 -2.004,2.601 -1.031,0.595 -2.115,0.74 -3.254,0.435 -1.139,-0.304 -2.006,-0.972 -2.601,-2.004 l -9.286,-16.083 c -1.189,-2.062 -1.48,-4.23 -0.87,-6.508 0.61,-2.276 1.945,-4.011 4.008,-5.201 l 24.743,-14.287 c 2.062,-1.19 4.23,-1.48 6.508,-0.871 2.278,0.607 4.011,1.943 5.202,4.005 z m -27.205,-15.557 c 2.662,0.714 4.687,2.269 6.07,4.665 1.384,2.397 1.719,4.928 1.006,7.591 -0.714,2.663 -2.27,4.687 -4.666,6.07 -2.396,1.383 -4.928,1.72 -7.59,1.006 -2.662,-0.713 -4.687,-2.269 -6.07,-4.665 -1.384,-2.397 -1.719,-4.928 -1.006,-7.591 0.713,-2.662 2.27,-4.687 4.666,-6.07 2.397,-1.385 4.927,-1.72 7.59,-1.006 z m -120.019,127.48 c 3.154,5.465 3.914,11.246 2.281,17.345 -1.635,6.099 -5.184,10.726 -10.647,13.881 -5.463,3.155 -11.245,3.915 -17.343,2.281 -6.1,-1.634 -10.725,-5.183 -13.88,-10.646 -2.157,-3.737 -3.159,-7.885 -3.007,-12.44 0.02,-0.321 0.152,-1.952 0.396,-4.895 0.242,-2.941 0.422,-5.639 0.533,-8.093 0.113,-2.453 0.071,-5.487 -0.126,-9.103 -0.197,-3.616 -0.626,-6.83 -1.289,-9.644 -0.214,-0.907 -0.126,-1.766 0.267,-2.576 0.391,-0.81 0.92,-1.409 1.592,-1.796 0.67,-0.387 1.46,-0.551 2.37,-0.492 0.91,0.059 1.69,0.415 2.345,1.069 2.105,1.98 4.674,3.96 7.706,5.938 3.032,1.979 5.639,3.532 7.82,4.66 2.181,1.13 4.606,2.324 7.274,3.584 2.67,1.26 4.148,1.961 4.438,2.104 3.977,2.067 7.066,5.009 9.27,8.823 z m -16.938,16.379 c -0.535,-0.928 -1.307,-1.668 -2.312,-2.221 -0.041,-0.011 -0.408,-0.186 -1.102,-0.524 -0.694,-0.338 -1.307,-0.638 -1.835,-0.899 -0.529,-0.262 -1.179,-0.643 -1.948,-1.144 -0.771,-0.5 -1.417,-0.994 -1.939,-1.483 -0.342,-0.353 -0.731,-0.402 -1.169,-0.15 -0.438,0.254 -0.591,0.617 -0.454,1.088 0.161,0.697 0.266,1.504 0.314,2.421 0.049,0.918 0.054,1.671 0.016,2.26 l -0.137,2.038 c -0.055,0.771 -0.088,1.176 -0.098,1.216 -0.025,1.149 0.23,2.187 0.768,3.114 0.789,1.366 1.945,2.254 3.469,2.662 1.525,0.408 2.97,0.219 4.336,-0.57 1.366,-0.789 2.254,-1.945 2.662,-3.471 0.408,-1.526 0.218,-2.97 -0.571,-4.337 z m 682.691,-304.025 c 7.922,4.526 14.216,10.828 18.881,18.908 4.665,8.081 6.977,16.683 6.934,25.805 -0.042,9.124 -2.326,17.646 -6.851,25.567 -4.525,7.922 -10.827,14.216 -18.907,18.881 -8.081,4.666 -16.684,6.977 -25.806,6.934 -9.122,-0.041 -17.646,-2.325 -25.567,-6.851 -7.922,-4.523 -14.215,-10.827 -18.881,-18.907 -4.665,-8.08 -6.977,-16.682 -6.934,-25.806 0.042,-9.121 2.326,-17.645 6.851,-25.567 4.524,-7.92 10.827,-14.215 18.908,-18.88 8.08,-4.665 16.682,-6.976 25.805,-6.935 9.122,0.044 17.646,2.328 25.567,6.851 z m -32.164,16.212 -5.356,-9.279 c -0.312,-0.541 -0.743,-0.886 -1.292,-1.032 -0.549,-0.147 -1.094,-0.064 -1.636,0.248 l -11.134,6.429 c -0.543,0.312 -0.886,0.742 -1.033,1.292 -0.146,0.549 -0.064,1.094 0.248,1.635 l 5.357,9.279 c 0.312,0.542 0.743,0.886 1.292,1.032 0.549,0.146 1.093,0.064 1.636,-0.248 l 11.134,-6.429 c 0.542,-0.312 0.886,-0.743 1.033,-1.292 0.147,-0.549 0.065,-1.094 -0.249,-1.635 z m 37.424,47.676 -5.357,-9.279 c -0.312,-0.541 -0.742,-0.885 -1.292,-1.032 -0.549,-0.147 -1.095,-0.064 -1.636,0.248 l -5.566,3.214 -17.144,-29.691 c -0.312,-0.541 -0.743,-0.886 -1.291,-1.033 -0.55,-0.146 -1.095,-0.064 -1.636,0.248 l -18.558,10.715 c -0.542,0.312 -0.886,0.743 -1.033,1.292 -0.146,0.549 -0.063,1.095 0.249,1.635 l 5.357,9.279 c 0.312,0.542 0.742,0.886 1.291,1.032 0.549,0.147 1.094,0.064 1.636,-0.248 l 5.567,-3.214 10.714,18.558 -5.567,3.214 c -0.542,0.313 -0.885,0.743 -1.033,1.292 -0.146,0.549 -0.062,1.095 0.249,1.636 l 5.357,9.278 c 0.312,0.542 0.743,0.886 1.292,1.033 0.549,0.146 1.093,0.064 1.635,-0.249 l 25.98,-15 c 0.541,-0.312 0.886,-0.743 1.033,-1.292 0.147,-0.549 0.066,-1.094 -0.247,-1.636 z M 1808.224,990.88 c 4.574,1.226 8.043,3.888 10.41,7.985 2.365,4.099 2.937,8.435 1.711,13.009 -1.226,4.573 -3.888,8.043 -7.985,10.41 l -2.475,1.429 0.714,1.237 c 1.37,2.371 1.694,4.898 0.976,7.581 -0.719,2.684 -2.264,4.71 -4.636,6.079 l -27.217,15.716 c -2.371,1.37 -4.897,1.694 -7.581,0.976 -2.684,-0.718 -4.709,-2.264 -6.079,-4.635 l -16.428,-28.456 c -0.387,-0.67 -0.478,-1.391 -0.27,-2.164 0.207,-0.771 0.645,-1.352 1.314,-1.738 l 44.538,-25.718 c 4.098,-2.365 8.434,-2.937 13.008,-1.711 z m -44.202,79.11 69.279,-40.004 c 1.578,2.732 1.958,5.623 1.141,8.672 -0.816,3.05 -2.592,5.363 -5.323,6.94 l -49.485,28.574 c -2.732,1.578 -5.623,1.958 -8.672,1.141 -3.049,-0.816 -5.362,-2.59 -6.94,-5.323 z m 48.059,-60.331 c 0.61,-2.276 0.32,-4.445 -0.871,-6.508 -1.189,-2.062 -2.924,-3.397 -5.2,-4.008 -2.276,-0.609 -4.446,-0.32 -6.507,0.871 l -2.475,1.429 8.57,14.847 2.475,-1.43 c 2.063,-1.19 3.399,-2.923 4.008,-5.201 z"
       id="path16"
       inkscape:connector-curvature="0" />
  </g>
  <g
     stroke-miterlimit="10"
     id="g18"
     style="fill:none;stroke:#f7f4ec;stroke-miterlimit:10"
     transform="translate(-970.796,-757.146)">
    <path
       d="m 1399.538,1663.881 105.934,185.924 m -308.422,-546.096 100.859,179.402"
       id="path20"
       inkscape:connector-curvature="0"
       style="stroke-width:9" />
    <g
       id="g22"
       style="stroke-width:9">
      <path
         d="m 1579.239,1443.625 2.977,5.21 m 6.006,10.51 141.141,246.995 m 3.003,5.255 2.977,5.21"
         id="path24"
         inkscape:connector-curvature="0" />
    </g>
    <path
       d="m 1081.438,1099.006 87.239,154.234"
       id="path26"
       inkscape:connector-curvature="0"
       style="stroke-width:9" />
    <g
       id="g28"
       style="stroke-width:9">
      <path
         d="m 1540.093,846.3 2.902,5.251 m 5.604,10.137 75.647,136.86 m 2.802,5.069 2.902,5.251"
         id="path30"
         inkscape:connector-curvature="0" />
    </g>
    <path
       d="m 1332.112,1542.559 36.795,65.447"
       id="path32"
       inkscape:connector-curvature="0"
       style="stroke-width:9" />
    <path
       d="m 2523.675,1125.893 h -283 l -140,36.244 -250.514,139.039 160.514,265.629"
       id="path34"
       inkscape:connector-curvature="0"
       style="stroke-width:20" />
  </g>
  <g
     id="g36"
     style="fill:#0a3e60"
     transform="translate(-970.796,-757.146)">
    <path
       d="m 1756.201,1497.563 c 4.219,7.307 5.897,13.611 5.034,18.914 -0.863,5.302 -4.256,9.662 -10.176,13.08 -2.249,1.299 -3.943,2.096 -5.08,2.392 l -2.886,-4.999 c 1.749,-0.445 3.386,-1.108 4.907,-1.987 4.025,-2.324 6.404,-5.14 7.133,-8.448 0.729,-3.307 -0.152,-7.332 -2.641,-12.074 l -0.305,0.176 c -0.119,2.099 -0.689,3.895 -1.711,5.386 -1.022,1.492 -2.48,2.785 -4.375,3.879 -3.281,1.895 -6.451,2.36 -9.511,1.397 -3.06,-0.962 -5.619,-3.229 -7.68,-6.797 -2.236,-3.873 -2.929,-7.584 -2.079,-11.131 0.85,-3.547 3.153,-6.404 6.908,-8.572 2.639,-1.523 5.31,-2.208 8.015,-2.056 2.704,0.152 5.294,1.144 7.771,2.972 2.479,1.829 4.704,4.451 6.676,7.868 z m -19.502,-3.896 c -2.063,1.192 -3.257,2.777 -3.58,4.757 -0.323,1.98 0.218,4.187 1.624,6.623 1.221,2.114 2.691,3.481 4.414,4.099 1.722,0.619 3.623,0.328 5.703,-0.873 2.013,-1.162 3.357,-2.739 4.034,-4.731 0.677,-1.992 0.552,-3.791 -0.376,-5.398 -0.869,-1.505 -1.975,-2.745 -3.314,-3.719 -1.339,-0.974 -2.755,-1.539 -4.243,-1.694 -1.488,-0.158 -2.909,0.155 -4.262,0.936 z m 50.78,-10.542 c 3.721,6.444 5.447,11.83 5.183,16.155 -0.264,4.325 -2.529,7.719 -6.792,10.18 -4.127,2.383 -8.188,2.574 -12.186,0.573 -3.996,-2 -7.796,-6.121 -11.399,-12.362 -3.779,-6.546 -5.529,-11.969 -5.249,-16.27 0.279,-4.299 2.543,-7.676 6.789,-10.127 4.144,-2.393 8.219,-2.58 12.225,-0.562 4.006,2.017 7.816,6.154 11.429,12.413 z m -19.156,11.06 c 2.92,5.058 5.525,8.369 7.815,9.933 2.29,1.565 4.577,1.688 6.86,0.369 2.283,-1.319 3.319,-3.382 3.107,-6.191 -0.213,-2.809 -1.76,-6.708 -4.641,-11.698 -2.871,-4.973 -5.478,-8.266 -7.818,-9.881 -2.342,-1.613 -4.654,-1.762 -6.938,-0.443 -2.284,1.319 -3.314,3.369 -3.096,6.152 0.222,2.781 1.791,6.701 4.711,11.759 z m 59.524,-9.637 -25.143,14.517 -2.607,-4.517 4.013,-15.139 c 1.155,-4.522 1.844,-7.654 2.067,-9.396 0.225,-1.742 0.24,-3.268 0.047,-4.577 -0.192,-1.31 -0.64,-2.573 -1.343,-3.792 -0.967,-1.674 -2.231,-2.703 -3.795,-3.086 -1.564,-0.383 -3.232,-0.062 -5.009,0.963 -1.42,0.82 -2.644,1.877 -3.668,3.167 -1.025,1.292 -2.014,3.125 -2.965,5.501 l -5.492,-2.072 c 1.057,-2.934 2.349,-5.326 3.873,-7.176 1.525,-1.851 3.389,-3.411 5.587,-4.681 3.45,-1.992 6.736,-2.688 9.856,-2.088 3.121,0.601 5.561,2.423 7.318,5.468 0.967,1.674 1.584,3.438 1.853,5.289 0.269,1.853 0.243,3.937 -0.077,6.253 -0.32,2.316 -1.141,5.671 -2.461,10.064 l -2.842,9.962 0.146,0.254 17.609,-10.166 3.033,5.252 z m -315.568,153.389 c 4.219,7.308 5.896,13.612 5.034,18.914 -0.863,5.302 -4.256,9.662 -10.176,13.08 -2.25,1.299 -3.943,2.096 -5.08,2.392 l -2.886,-4.998 c 1.749,-0.446 3.386,-1.108 4.907,-1.987 4.025,-2.324 6.403,-5.141 7.133,-8.448 0.729,-3.308 -0.152,-7.332 -2.641,-12.074 l -0.305,0.176 c -0.12,2.099 -0.69,3.894 -1.712,5.386 -1.022,1.492 -2.479,2.785 -4.374,3.879 -3.281,1.895 -6.451,2.36 -9.511,1.397 -3.06,-0.963 -5.619,-3.229 -7.68,-6.798 -2.236,-3.873 -2.93,-7.583 -2.079,-11.131 0.85,-3.546 3.152,-6.403 6.908,-8.571 2.639,-1.523 5.31,-2.209 8.014,-2.057 2.705,0.153 5.295,1.144 7.771,2.973 2.48,1.827 4.705,4.451 6.677,7.867 z m -19.503,-3.896 c -2.063,1.191 -3.256,2.776 -3.58,4.757 -0.322,1.979 0.219,4.187 1.625,6.622 1.221,2.114 2.691,3.481 4.414,4.1 1.721,0.618 3.623,0.327 5.703,-0.874 2.013,-1.162 3.357,-2.738 4.034,-4.73 0.677,-1.992 0.552,-3.792 -0.376,-5.398 -0.869,-1.506 -1.975,-2.745 -3.314,-3.72 -1.341,-0.974 -2.755,-1.538 -4.243,-1.694 -1.489,-0.157 -2.909,0.156 -4.263,0.937 z m 50.782,-10.543 c 3.721,6.444 5.447,11.83 5.183,16.155 -0.266,4.326 -2.529,7.719 -6.792,10.18 -4.127,2.383 -8.189,2.574 -12.186,0.574 -3.997,-2 -7.797,-6.121 -11.4,-12.363 -3.779,-6.546 -5.528,-11.969 -5.248,-16.269 0.279,-4.3 2.542,-7.676 6.788,-10.127 4.144,-2.393 8.22,-2.581 12.226,-0.563 4.006,2.018 7.815,6.155 11.429,12.413 z m -19.157,11.06 c 2.92,5.059 5.525,8.369 7.815,9.934 2.29,1.565 4.577,1.688 6.86,0.369 2.283,-1.319 3.318,-3.382 3.107,-6.191 -0.213,-2.809 -1.76,-6.709 -4.641,-11.699 -2.871,-4.973 -5.478,-8.266 -7.818,-9.88 -2.342,-1.614 -4.654,-1.762 -6.938,-0.443 -2.284,1.319 -3.315,3.369 -3.096,6.151 0.221,2.782 1.791,6.702 4.711,11.759 z m 41.635,-37.4 c 1.357,2.352 1.803,4.704 1.336,7.06 -0.467,2.356 -1.787,4.522 -3.962,6.499 l 0.117,0.203 c 3.192,-1.347 5.96,-1.71 8.302,-1.089 2.344,0.621 4.223,2.157 5.639,4.609 2.061,3.569 2.391,7.05 0.988,10.441 -1.402,3.393 -4.43,6.431 -9.08,9.116 -4.111,2.373 -7.964,3.707 -11.561,4.001 l -3.062,-5.303 c 2.022,-0.129 4.034,-0.49 6.038,-1.084 2.004,-0.592 3.817,-1.357 5.441,-2.295 2.875,-1.66 4.716,-3.434 5.521,-5.319 0.805,-1.886 0.563,-3.945 -0.726,-6.179 -1.143,-1.979 -2.769,-2.979 -4.879,-3.001 -2.11,-0.022 -4.849,0.938 -8.214,2.882 l -3.223,1.86 -2.798,-4.847 3.272,-1.889 c 5.92,-3.418 7.699,-7.174 5.336,-11.268 -0.918,-1.59 -2.143,-2.518 -3.672,-2.785 -1.529,-0.267 -3.301,0.181 -5.314,1.343 -1.404,0.811 -2.643,1.791 -3.715,2.94 -1.073,1.149 -2.166,2.812 -3.277,4.987 l -5.32,-2.477 c 1.955,-4.466 5.182,-7.998 9.681,-10.596 3.738,-2.158 7.12,-3.039 10.146,-2.644 3.026,0.401 5.355,2.01 6.986,4.835 z m -298.527,183.592 c 4.219,7.307 5.896,13.611 5.033,18.913 -0.862,5.303 -4.254,9.662 -10.174,13.08 -2.25,1.299 -3.943,2.097 -5.081,2.393 l -2.886,-4.999 c 1.75,-0.446 3.386,-1.108 4.908,-1.987 4.025,-2.324 6.402,-5.141 7.132,-8.448 0.73,-3.307 -0.151,-7.332 -2.642,-12.074 l -0.304,0.176 c -0.12,2.099 -0.69,3.894 -1.712,5.386 -1.022,1.492 -2.48,2.785 -4.373,3.879 -3.283,1.895 -6.453,2.36 -9.512,1.397 -3.059,-0.962 -5.619,-3.229 -7.68,-6.798 -2.236,-3.873 -2.93,-7.583 -2.079,-11.13 0.851,-3.547 3.153,-6.404 6.908,-8.572 2.639,-1.523 5.31,-2.208 8.015,-2.056 2.704,0.152 5.295,1.144 7.771,2.972 2.479,1.828 4.703,4.451 6.676,7.868 z m -19.502,-3.896 c -2.064,1.192 -3.257,2.777 -3.58,4.757 -0.323,1.98 0.219,4.187 1.625,6.623 1.221,2.114 2.691,3.48 4.413,4.099 1.722,0.619 3.622,0.327 5.703,-0.874 2.013,-1.162 3.358,-2.738 4.034,-4.73 0.678,-1.992 0.552,-3.791 -0.376,-5.398 -0.869,-1.506 -1.974,-2.745 -3.314,-3.719 -1.341,-0.975 -2.755,-1.539 -4.243,-1.695 -1.489,-0.157 -2.909,0.155 -4.262,0.937 z m 50.78,-10.542 c 3.721,6.444 5.448,11.83 5.183,16.154 -0.266,4.326 -2.529,7.719 -6.791,10.18 -4.128,2.383 -8.189,2.574 -12.186,0.574 -3.997,-2 -7.797,-6.121 -11.4,-12.363 -3.779,-6.545 -5.529,-11.969 -5.249,-16.269 0.28,-4.3 2.542,-7.676 6.788,-10.127 4.145,-2.393 8.22,-2.58 12.227,-0.563 4.005,2.017 7.815,6.155 11.428,12.414 z m -19.155,11.058 c 2.92,5.059 5.524,8.369 7.814,9.934 2.291,1.564 4.577,1.688 6.861,0.369 2.283,-1.318 3.318,-3.382 3.105,-6.191 -0.213,-2.809 -1.758,-6.709 -4.639,-11.699 -2.871,-4.973 -5.479,-8.266 -7.819,-9.88 -2.341,-1.613 -4.653,-1.762 -6.937,-0.443 -2.284,1.318 -3.316,3.369 -3.097,6.151 0.222,2.783 1.792,6.702 4.712,11.759 z m 56.17,-18.491 -4.998,2.886 4.672,8.094 -5.811,3.354 -4.672,-8.093 -16.949,9.785 -2.65,-4.593 2.797,-34.294 5.811,-3.354 13.945,24.154 4.998,-2.887 2.857,4.948 z m -13.666,1.292 -5.375,-9.311 c -1.914,-3.315 -3.396,-6.079 -4.449,-8.291 l -0.203,0.117 c 0.172,1.39 0.209,3.172 0.111,5.348 l -1.475,18.715 11.391,-6.578 z M 1102.472,1477.72 c 4.219,7.308 5.896,13.612 5.033,18.914 -0.863,5.303 -4.254,9.662 -10.174,13.08 -2.25,1.299 -3.943,2.096 -5.081,2.393 l -2.886,-4.999 c 1.75,-0.446 3.386,-1.108 4.908,-1.987 4.025,-2.324 6.402,-5.141 7.132,-8.448 0.73,-3.307 -0.151,-7.332 -2.642,-12.074 l -0.304,0.176 c -0.12,2.099 -0.69,3.894 -1.712,5.386 -1.022,1.492 -2.48,2.785 -4.374,3.879 -3.282,1.895 -6.452,2.36 -9.511,1.397 -3.059,-0.963 -5.619,-3.229 -7.68,-6.798 -2.236,-3.873 -2.93,-7.583 -2.079,-11.13 0.851,-3.547 3.153,-6.404 6.908,-8.572 2.639,-1.523 5.31,-2.208 8.015,-2.057 2.704,0.153 5.295,1.144 7.771,2.973 2.476,1.829 4.703,4.451 6.676,7.867 z m -19.502,-3.896 c -2.064,1.191 -3.257,2.776 -3.58,4.757 -0.324,1.979 0.219,4.187 1.625,6.622 1.221,2.114 2.691,3.481 4.413,4.1 1.722,0.619 3.622,0.327 5.703,-0.874 2.013,-1.162 3.358,-2.738 4.034,-4.73 0.677,-1.992 0.551,-3.792 -0.377,-5.398 -0.869,-1.506 -1.973,-2.745 -3.313,-3.72 -1.341,-0.974 -2.755,-1.538 -4.243,-1.694 -1.489,-0.157 -2.909,0.156 -4.262,0.937 z m 50.78,-10.542 c 3.721,6.443 5.448,11.829 5.183,16.154 -0.266,4.326 -2.529,7.719 -6.791,10.18 -4.128,2.383 -8.189,2.574 -12.186,0.574 -3.997,-2 -7.797,-6.121 -11.4,-12.363 -3.779,-6.545 -5.529,-11.969 -5.249,-16.269 0.28,-4.3 2.542,-7.676 6.788,-10.127 4.145,-2.393 8.22,-2.58 12.226,-0.563 4.006,2.018 7.816,6.155 11.429,12.414 z m -19.156,11.059 c 2.92,5.059 5.525,8.369 7.815,9.934 2.291,1.564 4.577,1.688 6.861,0.369 2.283,-1.318 3.318,-3.382 3.105,-6.191 -0.213,-2.809 -1.758,-6.709 -4.639,-11.699 -2.871,-4.973 -5.479,-8.266 -7.819,-9.88 -2.341,-1.613 -4.653,-1.762 -6.937,-0.443 -2.284,1.318 -3.316,3.369 -3.097,6.151 0.221,2.782 1.791,6.702 4.711,11.759 z m 33.591,-25.55 c 3.738,-2.158 7.27,-2.878 10.594,-2.158 3.324,0.719 5.974,2.787 7.946,6.204 2.285,3.958 2.83,7.765 1.637,11.419 -1.194,3.655 -4.074,6.801 -8.642,9.438 -4.145,2.394 -7.785,3.604 -10.925,3.636 l -3.12,-5.404 c 1.819,-0.013 3.738,-0.32 5.76,-0.924 2.02,-0.602 3.791,-1.343 5.312,-2.222 2.689,-1.553 4.39,-3.335 5.101,-5.347 0.71,-2.011 0.397,-4.176 -0.94,-6.493 -2.559,-4.431 -6.664,-5.017 -12.312,-1.755 -0.795,0.459 -1.73,1.106 -2.805,1.94 -1.074,0.835 -1.992,1.607 -2.754,2.317 l -3.572,-0.034 -9.039,-18.937 19.283,-11.133 3.061,5.303 -14.029,8.102 4.465,9.668 c 0.533,-0.443 1.188,-0.979 1.965,-1.608 0.773,-0.628 1.779,-1.299 3.014,-2.012 z m 514.499,-546.08 c 4.219,7.307 5.897,13.611 5.034,18.913 -0.863,5.303 -4.255,9.662 -10.176,13.08 -2.249,1.299 -3.943,2.097 -5.08,2.393 l -2.886,-4.998 c 1.75,-0.446 3.386,-1.109 4.908,-1.988 4.024,-2.324 6.403,-5.14 7.132,-8.447 0.729,-3.309 -0.152,-7.332 -2.641,-12.075 l -0.305,0.176 c -0.119,2.099 -0.689,3.895 -1.711,5.386 -1.021,1.492 -2.48,2.785 -4.375,3.879 -3.281,1.895 -6.451,2.36 -9.511,1.397 -3.06,-0.962 -5.619,-3.229 -7.68,-6.798 -2.236,-3.873 -2.929,-7.583 -2.079,-11.13 0.85,-3.546 3.153,-6.404 6.908,-8.572 2.639,-1.523 5.31,-2.208 8.015,-2.056 2.704,0.152 5.294,1.144 7.771,2.972 2.478,1.828 4.703,4.451 6.676,7.868 z m -19.502,-3.897 c -2.063,1.192 -3.257,2.777 -3.58,4.757 -0.323,1.98 0.219,4.187 1.625,6.623 1.221,2.114 2.691,3.48 4.413,4.099 1.722,0.619 3.623,0.327 5.703,-0.874 2.014,-1.162 3.357,-2.738 4.035,-4.73 0.676,-1.992 0.551,-3.791 -0.377,-5.398 -0.869,-1.506 -1.975,-2.745 -3.314,-3.719 -1.34,-0.975 -2.755,-1.539 -4.242,-1.695 -1.49,-0.156 -2.911,0.156 -4.263,0.937 z m 50.78,-10.542 c 3.721,6.444 5.447,11.83 5.183,16.154 -0.265,4.326 -2.529,7.719 -6.792,10.18 -4.127,2.383 -8.188,2.574 -12.186,0.574 -3.996,-2 -7.796,-6.121 -11.399,-12.362 -3.779,-6.546 -5.529,-11.969 -5.249,-16.27 0.279,-4.3 2.543,-7.676 6.789,-10.127 4.144,-2.393 8.219,-2.58 12.225,-0.563 4.005,2.018 7.816,6.156 11.429,12.414 z m -19.156,11.06 c 2.92,5.058 5.525,8.368 7.815,9.933 2.29,1.565 4.577,1.688 6.86,0.369 2.283,-1.319 3.319,-3.382 3.107,-6.191 -0.213,-2.809 -1.76,-6.709 -4.641,-11.698 -2.871,-4.974 -5.478,-8.267 -7.818,-9.881 -2.342,-1.613 -4.654,-1.762 -6.938,-0.443 -2.284,1.319 -3.314,3.369 -3.096,6.151 0.221,2.782 1.791,6.702 4.711,11.76 z m 38.591,2.448 -3.689,-40.258 -19.282,11.133 -3.032,-5.252 25.65,-14.81 2.402,4.161 4.396,41.305 -6.445,3.721 z m -363.345,181.303 c 4.219,7.308 5.896,13.612 5.033,18.914 -0.863,5.302 -4.255,9.662 -10.176,13.08 -2.249,1.299 -3.943,2.096 -5.08,2.392 l -2.885,-4.998 c 1.749,-0.446 3.385,-1.108 4.907,-1.987 4.025,-2.324 6.403,-5.141 7.132,-8.448 0.729,-3.307 -0.151,-7.332 -2.641,-12.074 l -0.305,0.176 c -0.119,2.099 -0.689,3.894 -1.711,5.386 -1.022,1.492 -2.48,2.785 -4.375,3.879 -3.281,1.895 -6.451,2.36 -9.511,1.397 -3.06,-0.963 -5.618,-3.229 -7.679,-6.798 -2.236,-3.873 -2.93,-7.583 -2.08,-11.131 0.85,-3.546 3.153,-6.403 6.908,-8.571 2.639,-1.523 5.311,-2.209 8.015,-2.057 2.704,0.153 5.295,1.144 7.771,2.973 2.479,1.828 4.704,4.451 6.677,7.867 z m -19.503,-3.895 c -2.063,1.191 -3.257,2.776 -3.58,4.757 -0.323,1.979 0.219,4.187 1.625,6.622 1.221,2.114 2.691,3.481 4.413,4.1 1.722,0.619 3.623,0.327 5.703,-0.874 2.014,-1.162 3.357,-2.739 4.035,-4.73 0.676,-1.992 0.551,-3.792 -0.377,-5.398 -0.869,-1.506 -1.975,-2.745 -3.314,-3.72 -1.34,-0.974 -2.754,-1.538 -4.242,-1.694 -1.49,-0.157 -2.91,0.155 -4.263,0.937 z m 50.78,-10.543 c 3.721,6.444 5.447,11.83 5.184,16.155 -0.266,4.326 -2.529,7.719 -6.793,10.18 -4.127,2.383 -8.188,2.574 -12.186,0.574 -3.996,-2 -7.796,-6.121 -11.399,-12.363 -3.779,-6.546 -5.528,-11.969 -5.249,-16.269 0.279,-4.3 2.543,-7.676 6.789,-10.127 4.144,-2.393 8.219,-2.581 12.225,-0.563 4.006,2.017 7.816,6.155 11.429,12.413 z m -19.156,11.059 c 2.92,5.059 5.525,8.369 7.816,9.934 2.289,1.564 4.576,1.688 6.859,0.369 2.284,-1.318 3.319,-3.383 3.107,-6.191 -0.213,-2.809 -1.76,-6.709 -4.641,-11.699 -2.871,-4.973 -5.477,-8.266 -7.818,-9.88 -2.341,-1.614 -4.653,-1.762 -6.938,-0.443 -2.283,1.318 -3.314,3.369 -3.096,6.151 0.222,2.782 1.791,6.702 4.711,11.759 z m 25.355,-10.985 c -8.379,-14.513 -6.656,-25.182 5.167,-32.008 1.86,-1.074 3.517,-1.839 4.968,-2.294 l 2.871,4.973 c -1.5,0.371 -3.096,1.044 -4.787,2.021 -3.975,2.295 -6.346,5.085 -7.11,8.368 -0.766,3.283 0.124,7.325 2.67,12.125 l 0.305,-0.176 c 0,-1.829 0.507,-3.535 1.511,-5.118 1.003,-1.582 2.478,-2.936 4.422,-4.059 3.366,-1.942 6.584,-2.425 9.652,-1.445 3.07,0.979 5.625,3.237 7.666,6.772 2.246,3.891 2.934,7.592 2.064,11.104 -0.87,3.513 -3.183,6.354 -6.938,8.521 -2.656,1.533 -5.334,2.228 -8.033,2.083 -2.699,-0.144 -5.283,-1.133 -7.751,-2.967 -2.468,-1.834 -4.694,-4.466 -6.677,-7.9 z m 19.518,3.922 c 2.046,-1.182 3.242,-2.752 3.589,-4.711 0.347,-1.959 -0.188,-4.165 -1.604,-6.618 -1.23,-2.131 -2.717,-3.505 -4.461,-4.122 -1.743,-0.617 -3.655,-0.325 -5.736,0.876 -1.285,0.742 -2.311,1.701 -3.075,2.875 -0.765,1.175 -1.186,2.421 -1.259,3.737 -0.074,1.317 0.177,2.476 0.753,3.473 1.377,2.385 3.184,4.021 5.42,4.905 2.235,0.885 4.359,0.747 6.373,-0.415 z"
       id="path38"
       inkscape:connector-curvature="0" />
  </g>
</svg>
