<?xml version="1.0" encoding="UTF-8" standalone="no"?>
<svg
   xmlns:dc="http://purl.org/dc/elements/1.1/"
   xmlns:cc="http://creativecommons.org/ns#"
   xmlns:rdf="http://www.w3.org/1999/02/22-rdf-syntax-ns#"
   xmlns:svg="http://www.w3.org/2000/svg"
   xmlns="http://www.w3.org/2000/svg"
   xmlns:xlink="http://www.w3.org/1999/xlink"
   xmlns:sodipodi="http://sodipodi.sourceforge.net/DTD/sodipodi-0.dtd"
   xmlns:inkscape="http://www.inkscape.org/namespaces/inkscape"
   viewBox="0 0 1731.8369 845.71997"
   id="svg2"
   version="1.1"
   inkscape:version="0.48.2 r9819"
   width="100%"
   height="100%"
   sodipodi:docname="floor_6.svg">
  <metadata
     id="metadata116">
    <rdf:RDF>
      <cc:Work
         rdf:about="">
        <dc:format>image/svg+xml</dc:format>
        <dc:type
           rdf:resource="http://purl.org/dc/dcmitype/StillImage" />
      </cc:Work>
    </rdf:RDF>
  </metadata>
  <defs
     id="defs114" />
  <sodipodi:namedview
     pagecolor="#ffffff"
     bordercolor="#666666"
     borderopacity="1"
     objecttolerance="10"
     gridtolerance="10"
     guidetolerance="10"
     inkscape:pageopacity="0"
     inkscape:pageshadow="2"
     inkscape:window-width="640"
     inkscape:window-height="480"
     id="namedview112"
     showgrid="false"
     fit-margin-top="0"
     fit-margin-left="0"
     fit-margin-right="0"
     fit-margin-bottom="0"
     inkscape:zoom="0.065504658"
     inkscape:cx="1116.8381"
     inkscape:cy="828.2233"
     inkscape:window-x="0"
     inkscape:window-y="0"
     inkscape:window-maximized="0"
     inkscape:current-layer="svg2" />
  <path
     d="M 1455.595,845.017 748.28098,845.72 V 487 h -277.002 L 298.92298,535.328 57.237975,674.761 -2.4955606e-5,571.246 238.27898,432 l 235.668,-68.333 h 129.344 V 6 L 1451.281,0 1731.837,47.928 z"
     id="path16"
     inkscape:connector-curvature="0"
     style="fill:#f9cc0f" />
  <g
     id="g18"
     transform="translate(-1767.517,-578.229)">
    <path
       d="m 1806.767,1215.41 c 0.266,0.462 0.324,0.973 0.174,1.53 l -7.459,27.839 12.074,3.235 c 1.062,0.284 1.859,0.888 2.391,1.81 0.533,0.921 0.656,1.913 0.372,2.975 -0.285,1.062 -0.888,1.859 -1.81,2.392 l -23.814,13.75 c -0.924,0.532 -1.914,0.655 -2.977,0.371 -1.062,-0.285 -1.859,-0.888 -2.391,-1.81 l -13.75,-23.815 c -0.531,-0.921 -0.656,-1.913 -0.371,-2.976 0.285,-1.061 0.887,-1.858 1.809,-2.391 0.922,-0.533 1.914,-0.655 2.976,-0.371 l 12.075,3.235 7.459,-27.839 c 0.15,-0.559 0.455,-0.972 0.916,-1.238 0.459,-0.266 0.971,-0.323 1.529,-0.174 l 9.559,2.562 c 0.558,0.151 0.972,0.456 1.238,0.915 z m 15,-69.9 13.75,23.816 c 0.533,0.922 0.656,1.913 0.371,2.975 -0.284,1.062 -0.887,1.859 -1.809,2.392 -0.922,0.533 -1.914,0.656 -2.977,0.371 l -12.074,-3.235 -7.459,27.839 c -0.15,0.56 -0.455,0.972 -0.916,1.237 -0.461,0.265 -0.971,0.324 -1.529,0.175 l -9.559,-2.562 c -0.561,-0.149 -0.973,-0.455 -1.238,-0.916 -0.266,-0.46 -0.324,-0.971 -0.174,-1.529 l 7.459,-27.84 -12.074,-3.234 c -1.062,-0.284 -1.859,-0.888 -2.392,-1.81 -0.532,-0.921 -0.655,-1.913 -0.371,-2.976 0.284,-1.061 0.888,-1.858 1.81,-2.391 l 23.814,-13.75 c 0.922,-0.532 1.914,-0.655 2.977,-0.371 1.062,0.285 1.859,0.888 2.391,1.809 z"
       id="path20"
       inkscape:connector-curvature="0"
       style="fill:#0a3e60" />
    <g
       id="g22"
       style="fill:#0a3e60">
      <path
         d="m 2844.544,921.519 c 2.662,0.714 4.688,2.269 6.07,4.666 1.385,2.396 1.719,4.927 1.006,7.59 -0.713,2.663 -2.269,4.687 -4.666,6.07 -2.396,1.384 -4.927,1.72 -7.59,1.006 -2.662,-0.713 -4.686,-2.269 -6.07,-4.665 -1.383,-2.397 -1.719,-4.927 -1.005,-7.591 0.713,-2.662 2.269,-4.687 4.665,-6.07 2.398,-1.385 4.928,-1.719 7.59,-1.006 z m 40.011,26.308 c 0.595,1.031 0.739,2.116 0.436,3.254 -0.306,1.139 -0.974,2.005 -2.005,2.601 -1.313,0.759 -2.665,0.801 -4.053,0.124 l -16.387,-8.117 -1.74,1.005 2.947,5.104 18.723,10.376 c 0.455,0.253 0.816,0.611 1.084,1.075 0.388,0.671 0.477,1.392 0.271,2.164 -0.207,0.772 -0.646,1.352 -1.315,1.739 l -7.422,4.286 6.07,10.516 c 0.685,1.186 0.848,2.449 0.487,3.791 -0.359,1.342 -1.132,2.355 -2.317,3.039 l -6.186,3.572 c -1.186,0.685 -2.449,0.847 -3.791,0.487 -1.342,-0.36 -2.355,-1.132 -3.039,-2.317 l -6.072,-10.516 -7.422,4.286 c -0.67,0.387 -1.392,0.477 -2.164,0.27 -0.771,-0.206 -1.352,-0.645 -1.738,-1.315 -0.269,-0.464 -0.398,-0.956 -0.39,-1.477 l 0.376,-21.404 -2.947,-5.104 -1.74,1.005 -1.164,18.251 c -0.107,1.54 -0.818,2.689 -2.133,3.448 -1.031,0.596 -2.115,0.741 -3.254,0.436 -1.139,-0.305 -2.004,-0.973 -2.6,-2.004 -0.432,-0.747 -0.621,-1.55 -0.564,-2.406 l 1.325,-20.562 c 0.288,-3.843 1.761,-6.532 4.415,-8.065 l 14.848,-8.572 c 2.652,-1.533 5.718,-1.463 9.191,0.208 l 18.469,9.131 c 0.768,0.38 1.37,0.944 1.801,1.691 z m 49.05,-46.469 9.286,16.083 c 0.595,1.031 0.74,2.116 0.436,3.254 -0.306,1.139 -0.975,2.006 -2.004,2.601 -1.031,0.596 -2.117,0.741 -3.254,0.436 -1.139,-0.305 -2.006,-0.973 -2.602,-2.004 l -7.857,-13.609 -2.475,1.429 20.357,35.26 c 0.685,1.185 0.848,2.449 0.488,3.791 -0.359,1.342 -1.133,2.355 -2.317,3.04 -1.187,0.685 -2.449,0.847 -3.792,0.487 -1.34,-0.359 -2.354,-1.132 -3.038,-2.317 l -10.356,-17.939 -2.475,1.429 10.357,17.939 c 0.684,1.185 0.846,2.449 0.486,3.791 -0.36,1.342 -1.132,2.354 -2.316,3.039 -1.187,0.685 -2.45,0.848 -3.791,0.488 -1.342,-0.359 -2.355,-1.132 -3.039,-2.318 l -20.357,-35.26 -2.475,1.429 7.857,13.609 c 0.595,1.031 0.74,2.116 0.436,3.254 -0.306,1.139 -0.975,2.006 -2.004,2.601 -1.031,0.596 -2.116,0.741 -3.254,0.436 -1.139,-0.305 -2.006,-0.973 -2.602,-2.004 l -9.285,-16.083 c -1.19,-2.062 -1.48,-4.231 -0.871,-6.509 0.61,-2.276 1.945,-4.01 4.008,-5.201 l 24.744,-14.288 c 2.061,-1.19 4.23,-1.48 6.508,-0.871 2.278,0.61 4.011,1.945 5.201,4.007 z m -27.204,-15.557 c 2.662,0.714 4.686,2.269 6.07,4.666 1.383,2.397 1.719,4.928 1.006,7.59 -0.715,2.663 -2.27,4.687 -4.666,6.071 -2.397,1.384 -4.928,1.72 -7.59,1.006 -2.663,-0.713 -4.688,-2.269 -6.07,-4.666 -1.385,-2.397 -1.719,-4.927 -1.006,-7.59 0.713,-2.663 2.269,-4.687 4.666,-6.071 2.397,-1.384 4.926,-1.719 7.59,-1.006 z"
         id="path24"
         inkscape:connector-curvature="0" />
    </g>
    <path
       d="m 3058.962,944.567 c 3.155,5.464 3.915,11.246 2.281,17.344 -1.634,6.099 -5.183,10.726 -10.646,13.881 -5.465,3.155 -11.246,3.915 -17.344,2.281 -6.099,-1.633 -10.725,-5.182 -13.879,-10.646 -2.158,-3.737 -3.16,-7.885 -3.008,-12.44 0.021,-0.321 0.153,-1.952 0.396,-4.895 0.243,-2.941 0.422,-5.638 0.534,-8.093 0.112,-2.453 0.071,-5.487 -0.126,-9.103 -0.197,-3.616 -0.627,-6.83 -1.289,-9.644 -0.215,-0.907 -0.127,-1.766 0.266,-2.576 0.391,-0.81 0.921,-1.409 1.592,-1.796 0.67,-0.387 1.461,-0.551 2.371,-0.492 0.91,0.059 1.69,0.415 2.344,1.069 2.105,1.98 4.674,3.96 7.707,5.938 3.031,1.979 5.639,3.532 7.82,4.66 2.18,1.13 4.605,2.324 7.274,3.584 2.669,1.26 4.147,1.961 4.437,2.104 3.978,2.068 7.068,5.01 9.27,8.824 z m -16.938,16.378 c -0.535,-0.928 -1.307,-1.668 -2.312,-2.221 -0.041,-0.01 -0.408,-0.185 -1.102,-0.524 l -1.834,-0.899 c -0.529,-0.262 -1.18,-0.643 -1.949,-1.144 -0.771,-0.5 -1.416,-0.994 -1.938,-1.483 -0.342,-0.353 -0.731,-0.402 -1.169,-0.15 -0.439,0.253 -0.591,0.616 -0.455,1.087 0.162,0.698 0.267,1.504 0.315,2.421 0.048,0.918 0.054,1.671 0.016,2.26 l -0.138,2.038 c -0.054,0.771 -0.087,1.176 -0.098,1.216 -0.024,1.149 0.231,2.187 0.768,3.114 0.789,1.366 1.945,2.253 3.47,2.662 1.524,0.408 2.97,0.218 4.336,-0.571 1.366,-0.789 2.253,-1.945 2.661,-3.47 0.409,-1.524 0.218,-2.969 -0.571,-4.336 z m -553.212,-52.288 c 7.921,4.526 14.215,10.828 18.881,18.908 4.664,8.081 6.976,16.683 6.934,25.805 -0.043,9.124 -2.326,17.646 -6.852,25.567 -4.525,7.922 -10.826,14.216 -18.906,18.881 -8.082,4.666 -16.684,6.977 -25.807,6.934 -9.122,-0.042 -17.645,-2.326 -25.566,-6.851 -7.922,-4.523 -14.215,-10.827 -18.881,-18.907 -4.666,-8.08 -6.977,-16.682 -6.934,-25.806 0.041,-9.121 2.326,-17.645 6.85,-25.567 4.525,-7.921 10.828,-14.215 18.908,-18.88 8.08,-4.665 16.682,-6.976 25.805,-6.935 9.122,0.044 17.646,2.328 25.568,6.851 z m -32.165,16.212 -5.357,-9.279 c -0.312,-0.541 -0.742,-0.886 -1.291,-1.032 -0.549,-0.147 -1.095,-0.064 -1.637,0.248 l -11.134,6.428 c -0.542,0.313 -0.886,0.743 -1.032,1.292 -0.146,0.549 -0.064,1.094 0.248,1.635 l 5.357,9.279 c 0.312,0.542 0.742,0.885 1.291,1.032 0.549,0.147 1.094,0.064 1.636,-0.248 l 11.134,-6.429 c 0.542,-0.312 0.887,-0.743 1.033,-1.292 0.146,-0.549 0.065,-1.092 -0.248,-1.634 z m 37.424,47.676 -5.357,-9.279 c -0.312,-0.541 -0.743,-0.885 -1.293,-1.033 -0.549,-0.147 -1.094,-0.064 -1.635,0.248 l -5.567,3.214 -17.144,-29.692 c -0.312,-0.541 -0.742,-0.885 -1.291,-1.033 -0.549,-0.146 -1.094,-0.064 -1.636,0.249 l -18.558,10.714 c -0.542,0.312 -0.885,0.743 -1.033,1.292 -0.146,0.549 -0.062,1.094 0.25,1.635 l 5.356,9.279 c 0.313,0.542 0.743,0.885 1.292,1.032 0.549,0.147 1.093,0.065 1.635,-0.248 l 5.567,-3.214 10.714,18.558 -5.566,3.214 c -0.543,0.313 -0.886,0.743 -1.033,1.292 -0.146,0.549 -0.063,1.095 0.248,1.636 l 5.357,9.278 c 0.312,0.542 0.744,0.886 1.292,1.033 0.55,0.146 1.093,0.064 1.636,-0.249 l 25.98,-15 c 0.541,-0.312 0.885,-0.743 1.033,-1.292 0.148,-0.548 0.066,-1.092 -0.247,-1.634 z"
       id="path26"
       inkscape:connector-curvature="0"
       style="fill:#0a3e60" />
  </g>
  <g
     id="g28"
     transform="translate(-1767.517,-578.229)">
    <g
       stroke-miterlimit="10"
       id="g30"
       style="fill:none;stroke:#f7f4ec;stroke-width:9;stroke-miterlimit:10">
      <path
         d="m 2800.868,1084.154 v 6"
         id="path32"
         inkscape:connector-curvature="0" />
      <path
         d="m 2800.868,1101.987 v 301.734"
         id="path34"
         inkscape:connector-curvature="0"
         style="stroke-dasharray:11.8327, 11.8327" />
      <path
         d="m 2800.868,1409.637 v 6"
         id="path36"
         inkscape:connector-curvature="0" />
    </g>
    <g
       stroke-miterlimit="10"
       id="g38"
       style="fill:none;stroke:#f7f4ec;stroke-width:9;stroke-miterlimit:10">
      <path
         d="m 3078.354,1084.154 v 6"
         id="path40"
         inkscape:connector-curvature="0" />
      <path
         d="m 3078.354,1101.987 v 301.734"
         id="path42"
         inkscape:connector-curvature="0"
         style="stroke-dasharray:11.8327, 11.8327" />
      <path
         d="m 3078.354,1409.637 v 6"
         id="path44"
         inkscape:connector-curvature="0" />
    </g>
    <g
       stroke-miterlimit="10"
       id="g46"
       style="fill:none;stroke:#f7f4ec;stroke-width:9;stroke-miterlimit:10">
      <path
         d="m 3118.405,588.167 v 6"
         id="path48"
         inkscape:connector-curvature="0" />
      <path
         d="M 3118.405,605.993 V 741.994"
         id="path50"
         inkscape:connector-curvature="0"
         style="stroke-dasharray:11.8262, 11.8262" />
      <path
         d="m 3118.405,747.907 v 6"
         id="path52"
         inkscape:connector-curvature="0" />
    </g>
    <g
       stroke-miterlimit="10"
       id="g54"
       style="fill:none;stroke:#f7f4ec;stroke-width:9;stroke-miterlimit:10">
      <path
         d="m 3425.151,825.296 -5.925,-0.938"
         id="path56"
         inkscape:connector-curvature="0" />
      <path
         d="M 3407.116,822.441 3243.642,796.565"
         id="path58"
         inkscape:connector-curvature="0"
         style="stroke-dasharray:12.2599, 12.2599" />
      <path
         d="m 3237.587,795.607 -5.926,-0.938"
         id="path60"
         inkscape:connector-curvature="0" />
    </g>
    <g
       stroke-miterlimit="10"
       id="g62"
       style="fill:none;stroke:#f7f4ec;stroke-width:9;stroke-miterlimit:10">
      <path
         d="m 3340.157,1071.482 -5.926,-0.938"
         id="path64"
         inkscape:connector-curvature="0" />
      <path
         d="M 3323.091,1068.781 3217.265,1052.03"
         id="path66"
         inkscape:connector-curvature="0"
         style="stroke-dasharray:11.2783, 11.2783" />
      <path
         d="m 3211.694,1051.149 -5.925,-0.938"
         id="path68"
         inkscape:connector-curvature="0" />
    </g>
  </g>
  <g
     id="g70"
     transform="translate(-1767.517,-578.229)">
    <g
       id="g72"
       style="fill:#0a3e60">
      <path
         d="m 2615.768,1289.066 c -8.379,-14.513 -6.657,-25.182 5.167,-32.008 1.86,-1.074 3.516,-1.839 4.968,-2.294 l 2.871,4.974 c -1.501,0.37 -3.097,1.043 -4.788,2.02 -3.975,2.295 -6.346,5.084 -7.11,8.367 -0.765,3.284 0.124,7.326 2.671,12.126 l 0.305,-0.176 c 0,-1.829 0.507,-3.535 1.51,-5.118 1.003,-1.582 2.478,-2.936 4.423,-4.059 3.366,-1.943 6.583,-2.425 9.652,-1.445 3.069,0.98 5.624,3.236 7.665,6.771 2.246,3.891 2.934,7.593 2.064,11.105 -0.87,3.513 -3.182,6.354 -6.938,8.521 -2.655,1.533 -5.333,2.228 -8.032,2.083 -2.7,-0.144 -5.284,-1.133 -7.752,-2.967 -2.468,-1.831 -4.694,-4.466 -6.676,-7.9 z m 19.516,3.922 c 2.047,-1.182 3.243,-2.752 3.59,-4.711 0.346,-1.959 -0.189,-4.165 -1.605,-6.618 -1.23,-2.131 -2.717,-3.505 -4.461,-4.122 -1.742,-0.617 -3.654,-0.326 -5.735,0.875 -1.286,0.742 -2.312,1.701 -3.076,2.876 -0.764,1.175 -1.185,2.421 -1.259,3.737 -0.074,1.317 0.178,2.475 0.754,3.473 1.377,2.385 3.184,4.021 5.42,4.905 2.235,0.886 4.359,0.747 6.372,-0.415 z m 33.604,-38.244 c 3.721,6.444 5.447,11.83 5.183,16.155 -0.264,4.325 -2.529,7.719 -6.792,10.18 -4.127,2.383 -8.189,2.574 -12.186,0.573 -3.996,-2 -7.797,-6.121 -11.4,-12.362 -3.779,-6.546 -5.528,-11.969 -5.248,-16.269 0.279,-4.3 2.543,-7.676 6.788,-10.127 4.145,-2.393 8.22,-2.58 12.226,-0.563 4.006,2.017 7.815,6.155 11.429,12.413 z m -19.157,11.06 c 2.92,5.058 5.525,8.369 7.815,9.933 2.29,1.565 4.577,1.688 6.86,0.369 2.283,-1.319 3.319,-3.381 3.107,-6.191 -0.213,-2.809 -1.76,-6.708 -4.641,-11.698 -2.871,-4.973 -5.478,-8.266 -7.818,-9.88 -2.342,-1.613 -4.654,-1.762 -6.938,-0.443 -2.284,1.319 -3.315,3.369 -3.096,6.151 0.219,2.782 1.792,6.701 4.711,11.759 z m 25.356,-10.986 c -8.379,-14.513 -6.656,-25.182 5.167,-32.008 1.86,-1.074 3.517,-1.839 4.968,-2.294 l 2.871,4.974 c -1.5,0.37 -3.096,1.043 -4.787,2.02 -3.975,2.295 -6.346,5.084 -7.111,8.367 -0.766,3.284 0.125,7.326 2.671,12.126 l 0.304,-0.176 c 0,-1.829 0.508,-3.535 1.512,-5.118 1.002,-1.582 2.477,-2.936 4.422,-4.059 3.365,-1.943 6.584,-2.425 9.652,-1.445 3.069,0.979 5.625,3.236 7.666,6.771 2.246,3.891 2.934,7.593 2.063,11.105 -0.871,3.512 -3.183,6.354 -6.937,8.521 -2.656,1.533 -5.334,2.228 -8.033,2.083 -2.699,-0.144 -5.283,-1.133 -7.752,-2.967 -2.468,-1.831 -4.694,-4.466 -6.676,-7.9 z m 19.517,3.922 c 2.046,-1.182 3.242,-2.752 3.589,-4.711 0.346,-1.959 -0.188,-4.165 -1.604,-6.618 -1.23,-2.131 -2.718,-3.505 -4.461,-4.122 -1.744,-0.617 -3.655,-0.326 -5.736,0.875 -1.285,0.742 -2.311,1.701 -3.076,2.876 -0.765,1.175 -1.185,2.421 -1.258,3.737 -0.074,1.317 0.176,2.475 0.752,3.473 1.377,2.385 3.184,4.021 5.421,4.905 2.236,0.886 4.36,0.747 6.373,-0.415 z"
         id="path74"
         inkscape:connector-curvature="0" />
    </g>
    <g
       id="g76"
       style="fill:#0a3e60">
      <path
         d="m 2893.737,1289.661 c -8.379,-14.513 -6.656,-25.183 5.167,-32.009 1.86,-1.074 3.517,-1.838 4.968,-2.293 l 2.871,4.973 c -1.5,0.371 -3.096,1.044 -4.787,2.021 -3.975,2.295 -6.346,5.084 -7.111,8.367 -0.765,3.284 0.125,7.326 2.671,12.126 l 0.305,-0.176 c 0,-1.83 0.507,-3.535 1.511,-5.118 1.002,-1.583 2.477,-2.936 4.422,-4.059 3.366,-1.943 6.584,-2.425 9.652,-1.446 3.07,0.98 5.625,3.237 7.666,6.772 2.246,3.891 2.934,7.593 2.064,11.105 -0.87,3.513 -3.183,6.354 -6.938,8.521 -2.656,1.533 -5.334,2.228 -8.033,2.083 -2.699,-0.144 -5.283,-1.133 -7.751,-2.967 -2.468,-1.834 -4.694,-4.466 -6.677,-7.9 z m 19.518,3.921 c 2.046,-1.182 3.242,-2.752 3.589,-4.711 0.347,-1.959 -0.188,-4.164 -1.604,-6.617 -1.23,-2.131 -2.717,-3.506 -4.461,-4.123 -1.743,-0.617 -3.655,-0.325 -5.736,0.876 -1.285,0.742 -2.311,1.701 -3.075,2.876 -0.764,1.175 -1.186,2.421 -1.259,3.737 -0.074,1.317 0.177,2.475 0.753,3.473 1.377,2.385 3.184,4.021 5.42,4.905 2.236,0.884 4.359,0.746 6.373,-0.416 z m 33.603,-38.243 c 3.721,6.444 5.447,11.83 5.182,16.155 -0.265,4.325 -2.529,7.719 -6.791,10.18 -4.127,2.383 -8.189,2.574 -12.186,0.573 -3.996,-2 -7.797,-6.121 -11.4,-12.362 -3.779,-6.546 -5.529,-11.969 -5.248,-16.27 0.279,-4.299 2.542,-7.676 6.788,-10.127 4.144,-2.393 8.22,-2.58 12.226,-0.562 4.006,2.016 7.816,6.154 11.429,12.413 z m -19.156,11.059 c 2.92,5.058 5.525,8.369 7.814,9.933 2.291,1.565 4.578,1.688 6.861,0.369 2.283,-1.319 3.318,-3.382 3.106,-6.191 -0.213,-2.809 -1.759,-6.708 -4.64,-11.698 -2.871,-4.973 -5.479,-8.266 -7.818,-9.881 -2.342,-1.613 -4.654,-1.762 -6.938,-0.443 -2.284,1.319 -3.315,3.369 -3.096,6.152 0.221,2.782 1.791,6.702 4.711,11.759 z m 33.59,-25.55 c 3.738,-2.158 7.27,-2.877 10.595,-2.158 3.324,0.72 5.974,2.787 7.946,6.204 2.285,3.958 2.83,7.765 1.637,11.42 -1.194,3.655 -4.074,6.801 -8.642,9.438 -4.145,2.393 -7.786,3.604 -10.925,3.635 l -3.121,-5.404 c 1.82,-0.013 3.739,-0.32 5.76,-0.923 2.02,-0.603 3.791,-1.344 5.313,-2.223 2.689,-1.553 4.39,-3.334 5.101,-5.346 0.71,-2.012 0.396,-4.176 -0.941,-6.493 -2.559,-4.432 -6.663,-5.017 -12.312,-1.755 -0.795,0.459 -1.729,1.105 -2.804,1.939 -1.074,0.835 -1.993,1.607 -2.755,2.318 l -3.572,-0.035 -9.038,-18.936 19.282,-11.133 3.062,5.303 -14.031,8.101 4.465,9.668 c 0.533,-0.443 1.188,-0.979 1.965,-1.607 0.775,-0.629 1.781,-1.3 3.015,-2.013 z"
         id="path78"
         inkscape:connector-curvature="0" />
    </g>
    <g
       id="g80"
       style="fill:#0a3e60">
      <path
         d="m 3144.498,1279.675 c -8.379,-14.513 -6.657,-25.183 5.167,-32.009 1.86,-1.074 3.516,-1.838 4.968,-2.293 l 2.871,4.973 c -1.501,0.371 -3.097,1.044 -4.788,2.021 -3.975,2.295 -6.346,5.084 -7.11,8.368 -0.765,3.283 0.124,7.325 2.671,12.125 l 0.305,-0.176 c 0,-1.829 0.507,-3.535 1.51,-5.118 1.003,-1.582 2.478,-2.936 4.423,-4.059 3.366,-1.943 6.583,-2.425 9.652,-1.445 3.069,0.98 5.624,3.237 7.665,6.771 2.246,3.891 2.934,7.593 2.064,11.105 -0.87,3.512 -3.182,6.354 -6.938,8.521 -2.655,1.533 -5.333,2.228 -8.032,2.083 -2.7,-0.144 -5.284,-1.133 -7.751,-2.967 -2.469,-1.833 -4.695,-4.466 -6.677,-7.9 z m 19.517,3.921 c 2.047,-1.181 3.243,-2.752 3.59,-4.711 0.346,-1.958 -0.189,-4.164 -1.605,-6.617 -1.23,-2.131 -2.717,-3.505 -4.461,-4.123 -1.742,-0.617 -3.654,-0.324 -5.735,0.877 -1.285,0.742 -2.312,1.701 -3.075,2.875 -0.766,1.175 -1.186,2.421 -1.26,3.737 -0.074,1.317 0.178,2.475 0.754,3.473 1.377,2.385 3.184,4.021 5.42,4.905 2.236,0.884 4.358,0.747 6.372,-0.416 z m 33.603,-38.243 c 3.721,6.444 5.447,11.83 5.183,16.155 -0.265,4.326 -2.529,7.719 -6.792,10.18 -4.127,2.383 -8.188,2.574 -12.186,0.574 -3.996,-2 -7.796,-6.121 -11.399,-12.363 -3.779,-6.546 -5.529,-11.969 -5.249,-16.27 0.279,-4.299 2.543,-7.675 6.789,-10.127 4.144,-2.393 8.219,-2.58 12.225,-0.562 4.006,2.018 7.816,6.155 11.429,12.413 z m -19.156,11.059 c 2.92,5.058 5.525,8.369 7.815,9.934 2.29,1.565 4.577,1.688 6.86,0.369 2.283,-1.319 3.319,-3.383 3.107,-6.191 -0.213,-2.809 -1.76,-6.709 -4.641,-11.699 -2.871,-4.973 -5.478,-8.266 -7.818,-9.88 -2.342,-1.614 -4.654,-1.762 -6.938,-0.443 -2.284,1.319 -3.314,3.368 -3.096,6.151 0.222,2.782 1.791,6.702 4.711,11.759 z m 56.17,-18.492 -4.998,2.886 4.674,8.094 -5.811,3.354 -4.674,-8.094 -16.947,9.785 -2.652,-4.592 2.799,-34.295 5.811,-3.354 13.945,24.154 4.998,-2.886 2.855,4.948 z m -13.664,1.293 -5.377,-9.312 c -1.914,-3.315 -3.396,-6.079 -4.447,-8.291 l -0.203,0.117 c 0.17,1.39 0.207,3.173 0.111,5.349 l -1.477,18.714 11.393,-6.577 z"
         id="path82"
         inkscape:connector-curvature="0" />
    </g>
    <g
       id="g84"
       style="fill:#0a3e60">
      <path
         d="m 3220.419,951.83 c -8.379,-14.513 -6.657,-25.183 5.166,-32.009 1.861,-1.074 3.517,-1.838 4.969,-2.293 l 2.871,4.973 c -1.501,0.37 -3.098,1.044 -4.788,2.02 -3.976,2.295 -6.346,5.084 -7.11,8.368 -0.766,3.284 0.124,7.326 2.67,12.125 l 0.305,-0.176 c 0,-1.829 0.508,-3.535 1.511,-5.118 1.003,-1.583 2.478,-2.936 4.423,-4.059 3.365,-1.943 6.583,-2.425 9.652,-1.446 3.068,0.98 5.623,3.237 7.664,6.772 2.246,3.891 2.934,7.592 2.064,11.105 -0.869,3.513 -3.182,6.354 -6.938,8.521 -2.654,1.533 -5.332,2.228 -8.031,2.083 -2.701,-0.144 -5.284,-1.133 -7.752,-2.967 -2.469,-1.832 -4.694,-4.465 -6.676,-7.899 z m 19.516,3.921 c 2.047,-1.181 3.244,-2.752 3.59,-4.711 0.346,-1.958 -0.188,-4.164 -1.604,-6.617 -1.23,-2.131 -2.718,-3.506 -4.461,-4.123 -1.743,-0.617 -3.655,-0.325 -5.735,0.876 -1.286,0.742 -2.312,1.701 -3.076,2.875 -0.766,1.175 -1.186,2.421 -1.26,3.738 -0.073,1.317 0.178,2.475 0.754,3.472 1.377,2.385 3.184,4.02 5.42,4.905 2.236,0.885 4.359,0.748 6.372,-0.415 z m 33.603,-38.243 c 3.721,6.444 5.448,11.83 5.184,16.155 -0.266,4.326 -2.529,7.719 -6.793,10.18 -4.127,2.383 -8.188,2.574 -12.185,0.574 -3.997,-2 -7.797,-6.121 -11.4,-12.362 -3.779,-6.546 -5.528,-11.969 -5.249,-16.27 0.279,-4.3 2.543,-7.675 6.789,-10.127 4.145,-2.393 8.219,-2.58 12.225,-0.563 4.006,2.016 7.816,6.155 11.429,12.413 z m -19.156,11.059 c 2.92,5.058 5.525,8.368 7.816,9.933 2.289,1.565 4.576,1.688 6.859,0.369 2.284,-1.318 3.32,-3.382 3.107,-6.191 -0.213,-2.809 -1.759,-6.708 -4.64,-11.698 -2.871,-4.973 -5.478,-8.266 -7.819,-9.88 -2.341,-1.614 -4.653,-1.762 -6.938,-0.443 -2.283,1.318 -3.314,3.369 -3.096,6.151 0.223,2.782 1.791,6.702 4.711,11.759 z m 41.635,-37.4 c 1.357,2.351 1.803,4.705 1.336,7.06 -0.467,2.355 -1.787,4.522 -3.961,6.499 l 0.117,0.203 c 3.191,-1.346 5.959,-1.709 8.303,-1.089 2.342,0.621 4.222,2.158 5.638,4.61 2.061,3.569 2.39,7.05 0.987,10.441 -1.403,3.391 -4.428,6.43 -9.08,9.116 -4.11,2.373 -7.963,3.707 -11.56,4.001 l -3.062,-5.303 c 2.021,-0.13 4.035,-0.491 6.038,-1.084 2.003,-0.593 3.817,-1.358 5.44,-2.296 2.876,-1.66 4.717,-3.433 5.521,-5.319 0.807,-1.886 0.564,-3.945 -0.725,-6.178 -1.143,-1.979 -2.77,-2.979 -4.879,-3.002 -2.11,-0.021 -4.85,0.939 -8.215,2.882 l -3.223,1.86 -2.797,-4.846 3.272,-1.89 c 5.921,-3.418 7.698,-7.173 5.335,-11.267 -0.918,-1.59 -2.142,-2.519 -3.672,-2.786 -1.529,-0.267 -3.301,0.181 -5.313,1.343 -1.404,0.811 -2.642,1.791 -3.716,2.94 -1.072,1.15 -2.164,2.812 -3.277,4.987 l -5.319,-2.477 c 1.954,-4.466 5.181,-7.998 9.681,-10.596 3.738,-2.158 7.119,-3.039 10.145,-2.643 3.026,0.396 5.355,2.01 6.986,4.834 z"
         id="path86"
         inkscape:connector-curvature="0" />
    </g>
    <g
       id="g88"
       style="fill:#0a3e60">
      <path
         d="m 3262.344,731.135 c -8.379,-14.513 -6.657,-25.182 5.167,-32.008 1.86,-1.074 3.517,-1.839 4.968,-2.293 l 2.871,4.973 c -1.5,0.37 -3.097,1.043 -4.788,2.02 -3.975,2.295 -6.346,5.085 -7.109,8.368 -0.766,3.283 0.123,7.326 2.67,12.125 l 0.305,-0.176 c 0,-1.829 0.507,-3.535 1.51,-5.118 1.004,-1.583 2.479,-2.936 4.423,-4.059 3.366,-1.943 6.583,-2.425 9.652,-1.446 3.069,0.98 5.624,3.237 7.665,6.772 2.246,3.891 2.934,7.592 2.064,11.104 -0.869,3.513 -3.182,6.354 -6.938,8.521 -2.655,1.533 -5.333,2.228 -8.032,2.084 -2.7,-0.144 -5.284,-1.133 -7.751,-2.967 -2.469,-1.832 -4.695,-4.466 -6.677,-7.9 z m 19.516,3.922 c 2.047,-1.182 3.244,-2.752 3.59,-4.711 0.346,-1.959 -0.189,-4.165 -1.605,-6.617 -1.23,-2.132 -2.717,-3.506 -4.461,-4.123 -1.742,-0.617 -3.654,-0.325 -5.735,0.876 -1.285,0.742 -2.312,1.701 -3.075,2.875 -0.766,1.175 -1.186,2.421 -1.26,3.738 -0.074,1.317 0.178,2.475 0.754,3.472 1.377,2.385 3.184,4.021 5.42,4.905 2.236,0.885 4.36,0.747 6.372,-0.415 z m 33.604,-38.244 c 3.721,6.445 5.447,11.83 5.184,16.155 -0.266,4.326 -2.53,7.719 -6.793,10.18 -4.127,2.383 -8.188,2.574 -12.186,0.574 -3.996,-2 -7.796,-6.121 -11.399,-12.363 -3.779,-6.546 -5.528,-11.969 -5.249,-16.269 0.279,-4.3 2.543,-7.676 6.789,-10.127 4.144,-2.393 8.219,-2.58 12.225,-0.563 4.005,2.017 7.816,6.155 11.429,12.413 z m -19.156,11.06 c 2.92,5.058 5.525,8.369 7.815,9.933 2.29,1.564 4.577,1.688 6.86,0.369 2.283,-1.319 3.319,-3.382 3.107,-6.191 -0.213,-2.809 -1.76,-6.708 -4.641,-11.699 -2.871,-4.973 -5.478,-8.266 -7.818,-9.88 -2.342,-1.613 -4.654,-1.762 -6.938,-0.443 -2.284,1.319 -3.314,3.369 -3.096,6.151 0.221,2.782 1.791,6.702 4.711,11.76 z m 59.523,-9.637 -25.143,14.517 -2.607,-4.516 4.014,-15.139 c 1.154,-4.523 1.843,-7.655 2.066,-9.397 0.225,-1.742 0.24,-3.267 0.047,-4.577 -0.192,-1.31 -0.64,-2.574 -1.343,-3.792 -0.967,-1.675 -2.231,-2.703 -3.795,-3.086 -1.564,-0.383 -3.232,-0.062 -5.009,0.963 -1.42,0.82 -2.644,1.876 -3.668,3.167 -1.025,1.292 -2.014,3.125 -2.965,5.5 l -5.492,-2.073 c 1.057,-2.933 2.349,-5.325 3.874,-7.176 1.524,-1.85 3.388,-3.41 5.586,-4.68 3.45,-1.992 6.736,-2.688 9.856,-2.088 3.121,0.6 5.561,2.423 7.318,5.467 0.967,1.674 1.584,3.438 1.853,5.29 0.269,1.853 0.243,3.937 -0.077,6.253 -0.32,2.316 -1.141,5.671 -2.461,10.064 l -2.841,9.962 0.146,0.253 17.608,-10.166 3.033,5.254 z"
         id="path90"
         inkscape:connector-curvature="0" />
    </g>
    <g
       id="g92"
       style="fill:#0a3e60">
      <path
         d="m 2844.105,702.754 c -8.379,-14.513 -6.657,-25.182 5.167,-32.008 1.86,-1.074 3.516,-1.839 4.968,-2.294 l 2.871,4.973 c -1.501,0.371 -3.097,1.043 -4.788,2.02 -3.975,2.295 -6.346,5.084 -7.11,8.368 -0.765,3.284 0.124,7.326 2.671,12.125 l 0.305,-0.176 c 0,-1.829 0.507,-3.535 1.51,-5.118 1.003,-1.582 2.478,-2.936 4.423,-4.059 3.366,-1.943 6.583,-2.425 9.652,-1.445 3.069,0.98 5.624,3.237 7.665,6.772 2.246,3.891 2.934,7.592 2.064,11.105 -0.87,3.513 -3.182,6.354 -6.938,8.521 -2.655,1.533 -5.333,2.228 -8.032,2.083 -2.7,-0.144 -5.284,-1.133 -7.752,-2.967 -2.468,-1.832 -4.693,-4.466 -6.676,-7.9 z m 19.517,3.922 c 2.047,-1.182 3.243,-2.752 3.59,-4.711 0.346,-1.959 -0.189,-4.165 -1.605,-6.618 -1.23,-2.131 -2.717,-3.505 -4.461,-4.123 -1.742,-0.617 -3.654,-0.326 -5.735,0.875 -1.286,0.742 -2.312,1.701 -3.075,2.875 -0.766,1.175 -1.186,2.421 -1.26,3.737 -0.074,1.317 0.178,2.475 0.754,3.473 1.377,2.385 3.184,4.021 5.42,4.905 2.235,0.888 4.358,0.749 6.372,-0.413 z m 33.604,-38.244 c 3.721,6.445 5.447,11.83 5.183,16.155 -0.265,4.326 -2.529,7.719 -6.792,10.18 -4.127,2.383 -8.189,2.574 -12.186,0.574 -3.996,-2 -7.797,-6.121 -11.4,-12.363 -3.779,-6.546 -5.528,-11.969 -5.248,-16.269 0.279,-4.3 2.543,-7.676 6.789,-10.127 4.144,-2.393 8.219,-2.581 12.225,-0.563 4.005,2.017 7.815,6.155 11.429,12.413 z m -19.157,11.059 c 2.92,5.058 5.525,8.369 7.815,9.934 2.29,1.565 4.577,1.688 6.86,0.369 2.283,-1.319 3.319,-3.382 3.107,-6.191 -0.213,-2.809 -1.76,-6.709 -4.641,-11.699 -2.871,-4.973 -5.478,-8.266 -7.818,-9.88 -2.342,-1.614 -4.654,-1.762 -6.938,-0.443 -2.284,1.319 -3.315,3.369 -3.096,6.151 0.219,2.782 1.791,6.703 4.711,11.759 z m 51.887,-5.227 -5.963,3.442 -13.828,-23.951 c -1.65,-2.858 -2.891,-5.164 -3.723,-6.917 -0.154,0.631 -0.373,1.355 -0.656,2.172 -0.284,0.818 -1.284,3.47 -3.001,7.957 l -5.177,-2.052 5.959,-14.875 4.973,-2.871 21.416,37.095 z"
         id="path94"
         inkscape:connector-curvature="0" />
    </g>
    <g
       id="g96"
       style="fill:#0a3e60">
      <path
         d="m 2462.089,713.257 c -8.379,-14.513 -6.657,-25.182 5.166,-32.008 1.861,-1.074 3.518,-1.839 4.969,-2.294 l 2.871,4.973 c -1.5,0.371 -3.098,1.043 -4.788,2.02 -3.975,2.295 -6.345,5.084 -7.11,8.368 -0.766,3.284 0.124,7.326 2.67,12.125 l 0.305,-0.176 c 0,-1.829 0.508,-3.535 1.511,-5.118 1.003,-1.582 2.478,-2.936 4.423,-4.059 3.365,-1.943 6.583,-2.425 9.652,-1.445 3.068,0.979 5.623,3.237 7.664,6.772 2.246,3.891 2.935,7.592 2.064,11.105 -0.869,3.513 -3.182,6.354 -6.937,8.521 -2.655,1.533 -5.333,2.228 -8.032,2.083 -2.7,-0.144 -5.284,-1.133 -7.752,-2.967 -2.469,-1.832 -4.694,-4.466 -6.676,-7.9 z m 19.516,3.922 c 2.046,-1.182 3.243,-2.752 3.589,-4.711 0.346,-1.959 -0.188,-4.165 -1.604,-6.618 -1.23,-2.131 -2.718,-3.505 -4.46,-4.123 -1.744,-0.617 -3.656,-0.326 -5.736,0.875 -1.285,0.742 -2.312,1.701 -3.076,2.875 -0.766,1.175 -1.186,2.421 -1.259,3.737 -0.074,1.317 0.177,2.475 0.753,3.473 1.377,2.385 3.184,4.021 5.42,4.905 2.236,0.887 4.361,0.749 6.373,-0.413 z m 33.603,-38.244 c 3.721,6.445 5.448,11.83 5.184,16.155 -0.266,4.326 -2.529,7.719 -6.792,10.18 -4.128,2.383 -8.188,2.574 -12.186,0.574 -3.997,-2 -7.796,-6.121 -11.399,-12.363 -3.779,-6.546 -5.529,-11.969 -5.25,-16.269 0.28,-4.3 2.543,-7.676 6.789,-10.127 4.145,-2.393 8.219,-2.581 12.226,-0.563 4.006,2.017 7.815,6.155 11.428,12.413 z m -19.155,11.059 c 2.92,5.058 5.524,8.369 7.815,9.934 2.29,1.564 4.576,1.688 6.86,0.369 2.283,-1.318 3.319,-3.382 3.106,-6.191 -0.213,-2.809 -1.759,-6.709 -4.64,-11.699 -2.871,-4.973 -5.478,-8.266 -7.819,-9.88 -2.341,-1.614 -4.653,-1.762 -6.937,-0.443 -2.284,1.318 -3.315,3.369 -3.097,6.151 0.222,2.782 1.792,6.703 4.712,11.759 z m 48.815,-28.183 c 3.721,6.445 5.448,11.83 5.184,16.155 -0.266,4.326 -2.529,7.719 -6.793,10.18 -4.127,2.383 -8.188,2.574 -12.186,0.574 -3.996,-2 -7.796,-6.121 -11.399,-12.363 -3.779,-6.546 -5.528,-11.969 -5.249,-16.269 0.279,-4.3 2.543,-7.676 6.789,-10.127 4.144,-2.393 8.219,-2.581 12.225,-0.563 4.006,2.017 7.816,6.155 11.429,12.413 z m -19.156,11.059 c 2.92,5.058 5.525,8.369 7.816,9.934 2.289,1.564 4.576,1.688 6.859,0.369 2.284,-1.318 3.32,-3.382 3.107,-6.191 -0.213,-2.809 -1.76,-6.709 -4.641,-11.699 -2.871,-4.973 -5.477,-8.266 -7.818,-9.88 -2.341,-1.614 -4.653,-1.762 -6.938,-0.443 -2.283,1.318 -3.314,3.369 -3.096,6.151 0.222,2.782 1.791,6.702 4.711,11.759 z"
         id="path98"
         inkscape:connector-curvature="0" />
    </g>
  </g>
  <g
     id="g100"
     transform="translate(-1767.517,-578.229)">
    <defs
       id="defs102">
      <path
         id="c"
         d="m 2497.101,3842.192 h -274.426 l -140,36.245 -250.514,139.039 152.473,256.867 234.625,-134.094 278.537,0 z"
         inkscape:connector-curvature="0" />
    </defs>
    <clipPath
       id="d">
      <use
         xlink:href="#c"
         overflow="visible"
         id="use106"
         style="overflow:visible"
         x="0"
         y="0"
         width="3799.7539"
         height="2383.9189" />
    </clipPath>
    <g
       clip-path="url(#d)"
       id="g108"
       style="fill:#f9cc0f">
      <path
         d="m 3334.681,2377.78 817.372,2094.236 -19.515,7.617 -817.372,-2094.236 z m 65.052,-25.386 817.372,2094.236 -19.516,7.617 -817.372,-2094.236 z m -65.052,25.386 817.372,2094.236 -19.515,7.617 -817.372,-2094.236 z m 65.052,-25.386 817.372,2094.236 -19.516,7.617 -817.372,-2094.236 z"
         id="path110"
         inkscape:connector-curvature="0" />
    </g>
  </g>
</svg>
