<?xml version="1.0" encoding="UTF-8" standalone="no"?>
<svg
   xmlns:dc="http://purl.org/dc/elements/1.1/"
   xmlns:cc="http://creativecommons.org/ns#"
   xmlns:rdf="http://www.w3.org/1999/02/22-rdf-syntax-ns#"
   xmlns:svg="http://www.w3.org/2000/svg"
   xmlns="http://www.w3.org/2000/svg"
   xmlns:xlink="http://www.w3.org/1999/xlink"
   xmlns:sodipodi="http://sodipodi.sourceforge.net/DTD/sodipodi-0.dtd"
   xmlns:inkscape="http://www.inkscape.org/namespaces/inkscape"
   viewBox="0 0 1788.302 923.27799"
   id="svg2"
   version="1.1"
   inkscape:version="0.48.2 r9819"
   width="100%"
   height="100%"
   sodipodi:docname="floor_4.svg">
  <metadata
     id="metadata84">
    <rdf:RDF>
      <cc:Work
         rdf:about="">
        <dc:format>image/svg+xml</dc:format>
        <dc:type
           rdf:resource="http://purl.org/dc/dcmitype/StillImage" />
      </cc:Work>
    </rdf:RDF>
  </metadata>
  <defs
     id="defs82" />
  <sodipodi:namedview
     pagecolor="#ffffff"
     bordercolor="#666666"
     borderopacity="1"
     objecttolerance="10"
     gridtolerance="10"
     guidetolerance="10"
     inkscape:pageopacity="0"
     inkscape:pageshadow="2"
     inkscape:window-width="640"
     inkscape:window-height="480"
     id="namedview80"
     showgrid="false"
     fit-margin-top="0"
     fit-margin-left="0"
     fit-margin-right="0"
     fit-margin-bottom="0"
     inkscape:zoom="0.092637576"
     inkscape:cx="1052.4065"
     inkscape:cy="663.7813"
     inkscape:window-x="0"
     inkscape:window-y="0"
     inkscape:window-maximized="0"
     inkscape:current-layer="svg2" />
  <path
     d="m 1507.746,77.556936 -989.99998,6 L 113.744,192.55694 0,256.48894 l 174.83,312.63 -123.668,70.334 61.754,111.679 242.47302,-138.247 172.355,-48.327 h 277.002 v 358.72 l 707.31398,-0.702 276.242,-797.09 -280.556,-47.929004 z M 1121.312,500.41794 H 904.76102 v -216.921 H 1121.312 v 216.921 z"
     id="path16"
     inkscape:connector-curvature="0"
     style="fill:#f9cc0f" />
  <g
     id="g18"
     transform="translate(-1711.051,-500.67306)">
    <defs
       id="defs20">
      <path
         id="c"
         d="m 2615.812,784.874 v 216.217 h 216.551 V 784.17 z"
         inkscape:connector-curvature="0" />
    </defs>
    <clipPath
       id="d">
      <use
         xlink:href="#c"
         overflow="visible"
         id="use24"
         style="overflow:visible"
         x="0"
         y="0"
         width="3799.7539"
         height="2383.9199" />
    </clipPath>
    <g
       clip-path="url(#d)"
       id="g26"
       style="fill:#f9cc0f">
      <path
         d="m 2748.074,-319.056 817.372,2094.236 -19.514,7.616 L 2728.56,-311.44 z m -131.185,51.194 817.373,2094.237 -19.516,7.617 -817.373,-2094.237 z m 196.235,-76.579 817.373,2094.238 -19.514,7.616 -817.373,-2094.238 z m -130.102,50.77 817.373,2094.237 -19.516,7.617 -817.373,-2094.237 z m 196.234,-76.578 817.373,2094.237 -19.514,7.616 -817.373,-2094.237 z m 65.051,-25.385 817.373,2094.237 -19.516,7.617 -817.373,-2094.237 z m -523.651,204.351 817.372,2094.236 -19.514,7.616 -817.372,-2094.236 z m -131.188,51.192 817.373,2094.237 -19.514,7.616 -817.373,-2094.237 z m 196.237,-76.577 817.372,2094.236 -19.514,7.616 -817.372,-2094.236 z m -130.1,50.769 817.373,2094.237 -19.516,7.617 -817.373,-2094.237 z m 196.233,-76.578 817.372,2094.235 -19.514,7.616 -817.372,-2094.235 z m 851.074,-332.121 817.373,2094.237 -19.514,7.616 -817.373,-2094.237 z m -131.184,51.193 817.372,2094.236 -19.514,7.616 -817.372,-2094.236 z m 196.235,-76.58 817.373,2094.237 -19.514,7.616 -817.373,-2094.237 z m -130.101,50.771 817.373,2094.237 -19.514,7.616 -817.373,-2094.237 z m 196.229,-76.577 817.373,2094.237 -19.514,7.616 -817.373,-2094.237 z m 65.052,-25.387 817.373,2094.237 -19.516,7.617 -817.373,-2094.237 z m -523.65,204.35 817.373,2094.238 -19.514,7.616 -817.373,-2094.238 z m -131.186,51.194 817.373,2094.237 -19.516,7.617 -817.373,-2094.237 z m 196.233,-76.578 817.372,2094.236 -19.514,7.616 -817.372,-2094.236 z m -130.097,50.77 817.373,2094.237 -19.514,7.616 -817.373,-2094.237 z m 196.234,-76.578 817.372,2094.236 -19.516,7.617 -817.372,-2094.236 z m -1768.278,690.05 817.373,2094.237 -19.516,7.617 -817.373,-2094.237 z m -131.186,51.194 817.373,2094.237 -19.514,7.616 L 1287.699,250.84 z m 196.236,-76.578 817.373,2094.237 -19.514,7.616 -817.373,-2094.237 z m -130.1,50.77 817.373,2094.237 -19.516,7.617 -817.373,-2094.237 z m 196.234,-76.578 817.373,2094.237 -19.514,7.616 -817.373,-2094.237 z m 65.049,-25.386 817.373,2094.238 -19.514,7.616 -817.373,-2094.238 z m -523.652,204.35 817.373,2094.237 -19.516,7.617 -817.373,-2094.237 z m -131.185,51.193 817.373,2094.237 -19.516,7.617 L 960.279,378.612 z m 196.236,-76.577 817.372,2094.236 -19.515,7.617 -817.372,-2094.236 z m -130.102,50.77 817.373,2094.237 -19.514,7.616 -817.373,-2094.237 z m 196.236,-76.578 817.373,2094.237 -19.514,7.616 -817.373,-2094.237 z m 851.07,-332.123 817.373,2094.237 -19.516,7.617 -817.373,-2094.237 z m -131.183,51.194 817.373,2094.237 -19.514,7.616 L 1942.538,-4.703 z m 196.235,-76.578 817.373,2094.238 -19.514,7.616 -817.373,-2094.238 z m -130.103,50.77 817.373,2094.237 -19.514,7.616 L 2008.67,-30.511 z m 196.236,-76.579 817.373,2094.237 -19.514,7.616 -817.373,-2094.237 z m 65.048,-25.385 817.373,2094.237 -19.514,7.616 -817.373,-2094.237 z m -523.65,204.351 817.372,2094.236 -19.514,7.616 L 1746.304,71.876 z m -131.186,51.192 817.373,2094.238 -19.514,7.616 -817.373,-2094.238 z m 196.235,-76.578 817.373,2094.237 -19.516,7.617 L 1811.351,46.491 z m -130.099,50.77 817.373,2094.237 -19.516,7.617 L 1681.252,97.261 z m 196.234,-76.577 817.373,2094.237 -19.514,7.616 L 1877.488,20.683 z m 851.072,-332.123 817.372,2094.236 -19.514,7.616 L 2728.56,-311.44 z m -131.185,51.194 817.373,2094.237 -19.516,7.617 -817.373,-2094.237 z m 196.235,-76.579 817.373,2094.238 -19.514,7.616 -817.373,-2094.238 z m -130.102,50.77 817.373,2094.237 -19.516,7.617 -817.373,-2094.237 z m 196.234,-76.578 817.373,2094.237 -19.514,7.616 -817.373,-2094.237 z m 65.051,-25.385 817.373,2094.237 -19.516,7.617 -817.373,-2094.237 z m -523.651,204.351 817.372,2094.236 -19.514,7.616 -817.372,-2094.236 z m -131.188,51.192 817.373,2094.237 -19.514,7.616 -817.373,-2094.237 z m 196.237,-76.577 817.372,2094.236 -19.514,7.616 -817.372,-2094.236 z m -130.1,50.769 817.373,2094.237 -19.516,7.617 -817.373,-2094.237 z m 196.233,-76.578 817.372,2094.235 -19.514,7.616 -817.372,-2094.235 z m 851.074,-332.121 817.373,2094.237 -19.514,7.616 -817.373,-2094.237 z m -131.184,51.193 817.372,2094.236 -19.514,7.616 -817.372,-2094.236 z m 196.235,-76.58 817.373,2094.237 -19.514,7.616 -817.373,-2094.237 z m -130.101,50.771 817.373,2094.237 -19.514,7.616 -817.373,-2094.237 z m 196.229,-76.577 817.373,2094.237 -19.514,7.616 -817.373,-2094.237 z m 65.052,-25.387 817.373,2094.237 -19.516,7.617 -817.373,-2094.237 z m -523.65,204.35 817.373,2094.238 -19.514,7.616 -817.373,-2094.238 z m -131.186,51.194 817.373,2094.237 -19.516,7.617 -817.373,-2094.237 z m 196.233,-76.578 817.372,2094.236 -19.514,7.616 -817.372,-2094.236 z m -130.097,50.77 817.373,2094.237 -19.514,7.616 -817.373,-2094.237 z m 196.234,-76.578 817.372,2094.236 -19.516,7.617 -817.372,-2094.236 z m -1768.278,690.05 817.373,2094.237 -19.516,7.617 -817.373,-2094.237 z m -131.186,51.194 817.373,2094.237 -19.514,7.616 L 1287.699,250.84 z m 196.236,-76.578 817.373,2094.237 -19.514,7.616 -817.373,-2094.237 z m -130.1,50.77 817.373,2094.237 -19.516,7.617 -817.373,-2094.237 z m 196.234,-76.578 817.373,2094.237 -19.514,7.616 -817.373,-2094.237 z m 65.049,-25.386 817.373,2094.238 -19.514,7.616 -817.373,-2094.238 z m -523.652,204.35 817.373,2094.237 -19.516,7.617 -817.373,-2094.237 z m -131.185,51.193 817.373,2094.237 -19.516,7.617 L 960.279,378.612 z m 196.236,-76.577 817.372,2094.236 -19.515,7.617 -817.372,-2094.236 z m -130.102,50.77 817.373,2094.237 -19.514,7.616 -817.373,-2094.237 z m 196.236,-76.578 817.373,2094.237 -19.514,7.616 -817.373,-2094.237 z m 851.07,-332.123 817.373,2094.237 -19.516,7.617 -817.373,-2094.237 z m -131.183,51.194 817.373,2094.237 -19.514,7.616 L 1942.538,-4.703 z m 196.235,-76.578 817.373,2094.238 -19.514,7.616 -817.373,-2094.238 z m -130.103,50.77 817.373,2094.237 -19.514,7.616 L 2008.67,-30.511 z m 196.236,-76.579 817.373,2094.237 -19.514,7.616 -817.373,-2094.237 z m 65.048,-25.385 817.373,2094.237 -19.514,7.616 -817.373,-2094.237 z m -523.65,204.351 817.372,2094.236 -19.514,7.616 L 1746.304,71.876 z m -131.186,51.192 817.373,2094.238 -19.514,7.616 -817.373,-2094.238 z m 196.235,-76.578 817.373,2094.237 -19.516,7.617 L 1811.351,46.491 z m -130.099,50.77 817.373,2094.237 -19.516,7.617 L 1681.252,97.261 z m 196.234,-76.577 817.373,2094.237 -19.514,7.616 L 1877.488,20.683 z"
         id="path28"
         inkscape:connector-curvature="0" />
    </g>
  </g>
  <g
     id="g30"
     transform="translate(-1711.051,-500.67306)">
    <g
       id="g32"
       style="fill:#0a3e60">
      <path
         d="m 2042.885,868.743 -6.064,3.501 -18.413,-31.893 -10.91,6.299 -3.003,-5.201 27.884,-16.099 3.003,5.201 -10.91,6.299 18.413,31.893 z m 45.846,-26.47 -6.089,3.516 -9.654,-16.72 -17.1,9.873 9.652,16.72 -6.063,3.501 -21.416,-37.094 6.063,-3.501 8.76,15.172 17.102,-9.873 -8.76,-15.172 6.089,-3.516 21.416,37.094 z m 30.751,-17.753 -20.982,12.114 -21.416,-37.094 20.982,-12.114 2.959,5.125 -14.919,8.613 5.83,10.098 13.979,-8.071 2.93,5.074 -13.979,8.071 6.724,11.646 14.918,-8.613 2.974,5.151 z m 0.1,-49.516 11.012,-6.357 c 5.107,-2.949 9.229,-4.336 12.363,-4.161 3.134,0.175 5.629,1.869 7.484,5.083 1.25,2.165 1.732,4.289 1.445,6.371 -0.285,2.082 -1.371,3.915 -3.253,5.498 l 0.146,0.253 c 2.888,-1.013 5.362,-1.151 7.425,-0.413 2.061,0.738 3.805,2.342 5.23,4.812 1.924,3.332 2.267,6.613 1.029,9.841 -1.236,3.229 -3.927,6.04 -8.07,8.432 l -13.396,7.734 -21.415,-37.093 z m 14.911,11.823 5.835,-3.369 c 2.537,-1.465 4.158,-2.936 4.861,-4.413 0.703,-1.477 0.498,-3.18 -0.615,-5.108 -1.006,-1.742 -2.363,-2.638 -4.072,-2.688 -1.71,-0.051 -3.935,0.715 -6.675,2.297 l -5.252,3.032 5.918,10.249 z m 2.842,4.923 6.782,11.747 6.444,-3.721 c 2.537,-1.465 4.173,-3.057 4.905,-4.777 0.732,-1.719 0.492,-3.628 -0.719,-5.726 -1.113,-1.928 -2.598,-2.976 -4.454,-3.145 -1.856,-0.168 -4.13,0.524 -6.819,2.077 l -6.139,3.545 z m 37.966,0.543 -21.416,-37.094 6.063,-3.501 21.416,37.094 -6.063,3.501 z m 19.414,-38.035 13.649,-7.881 10.752,18.623 c -1.812,2.017 -3.659,3.771 -5.538,5.261 -1.879,1.49 -4.012,2.925 -6.396,4.302 -5.616,3.243 -10.905,4.081 -15.869,2.514 -4.963,-1.565 -9.193,-5.376 -12.689,-11.432 -3.447,-5.971 -4.428,-11.635 -2.942,-16.992 1.486,-5.357 5.238,-9.773 11.261,-13.25 3.873,-2.236 7.973,-3.611 12.301,-4.125 l 0.783,6.28 c -3.812,0.352 -7.223,1.396 -10.234,3.134 -3.957,2.285 -6.369,5.336 -7.233,9.15 -0.865,3.815 -0.052,7.878 2.438,12.192 2.617,4.533 5.643,7.381 9.076,8.544 3.435,1.164 7.097,0.623 10.988,-1.624 1.961,-1.133 3.918,-2.589 5.867,-4.369 l -5.523,-9.565 -7.688,4.438 -3.003,-5.2 z m -92.074,149.694 c 1.904,3.298 2.205,6.575 0.904,9.829 -1.301,3.254 -4.049,6.093 -8.244,8.515 -4.194,2.422 -8.004,3.753 -11.428,3.994 l -3.311,-5.734 c 2.149,-0.181 4.309,-0.593 6.475,-1.235 2.167,-0.642 4.07,-1.437 5.711,-2.384 2.402,-1.386 3.91,-2.866 4.525,-4.438 0.613,-1.573 0.477,-3.128 -0.412,-4.668 -0.801,-1.387 -2.004,-2.26 -3.609,-2.618 -1.605,-0.358 -4.43,-0.25 -8.473,0.324 -4.174,0.584 -7.463,0.396 -9.865,-0.562 -2.402,-0.958 -4.316,-2.672 -5.742,-5.142 -1.787,-3.096 -2.094,-6.166 -0.92,-9.212 1.173,-3.045 3.612,-5.638 7.316,-7.776 3.553,-2.051 7.537,-3.313 11.953,-3.789 l 0.928,6.061 c -4.099,0.518 -7.442,1.522 -10.03,3.017 -1.962,1.133 -3.204,2.42 -3.726,3.859 -0.521,1.44 -0.377,2.862 0.434,4.267 0.557,0.964 1.235,1.671 2.037,2.122 0.801,0.451 1.843,0.712 3.125,0.784 1.281,0.072 3.42,-0.091 6.415,-0.49 3.378,-0.439 5.983,-0.534 7.819,-0.286 1.834,0.249 3.404,0.82 4.709,1.713 1.305,0.893 2.442,2.174 3.409,3.849 z m 22.613,-34.133 c 2.236,3.874 2.682,7.575 1.336,11.104 -1.346,3.529 -4.361,6.645 -9.047,9.35 l -3.855,2.227 8.012,13.879 -6.063,3.501 -21.416,-37.094 10.682,-6.167 c 4.634,-2.676 8.653,-3.733 12.056,-3.172 3.4,0.561 6.166,2.686 8.295,6.372 z m -14.512,17.58 3.223,-1.86 c 3.111,-1.796 5.083,-3.656 5.913,-5.579 0.829,-1.922 0.581,-4.033 -0.747,-6.334 -1.23,-2.131 -2.801,-3.345 -4.708,-3.642 -1.909,-0.297 -4.241,0.351 -6.997,1.942 l -4.213,2.432 7.529,13.041 z m 59.875,-9.263 -9.652,-8.163 -14.182,8.188 2.318,12.396 -6.394,3.691 -7.626,-45.259 6.598,-3.809 35.382,29.233 -6.444,3.723 z m -14.267,-12.467 -9.307,-8.091 c -0.645,-0.53 -1.61,-1.393 -2.898,-2.589 -1.288,-1.195 -2.213,-2.083 -2.771,-2.662 0.744,2.344 1.389,5.005 1.936,7.982 l 2.232,11.6 10.808,-6.24 z m 22.67,-35.618 c -3.485,2.012 -5.513,4.829 -6.082,8.451 -0.57,3.622 0.399,7.606 2.909,11.954 2.627,4.55 5.574,7.438 8.841,8.664 3.268,1.226 6.72,0.789 10.357,-1.311 1.572,-0.908 3.004,-1.943 4.295,-3.105 1.291,-1.163 2.59,-2.448 3.896,-3.856 l 3.004,5.201 c -2.275,2.779 -5.256,5.233 -8.943,7.362 -5.43,3.135 -10.549,3.897 -15.357,2.287 -4.809,-1.61 -8.98,-5.477 -12.516,-11.6 -2.227,-3.856 -3.469,-7.639 -3.727,-11.347 -0.258,-3.708 0.506,-7.103 2.289,-10.185 1.784,-3.082 4.478,-5.664 8.08,-7.744 3.789,-2.188 7.75,-3.414 11.881,-3.679 l 0.733,6.309 c -1.594,0.131 -3.218,0.375 -4.872,0.732 -1.654,0.356 -3.25,0.979 -4.788,1.867 z m 56.853,10.409 -20.982,12.114 -21.416,-37.094 20.982,-12.114 2.959,5.125 -14.918,8.613 5.83,10.098 13.98,-8.071 2.93,5.075 -13.98,8.071 6.724,11.646 14.919,-8.613 2.972,5.15 z"
         id="path34"
         inkscape:connector-curvature="0" />
    </g>
    <g
       id="g36"
       style="fill:#0a3e60">
      <path
         d="m 3000.133,1166.076 -0.992,-21.992 6.598,-3.809 0.754,29.842 8.305,14.386 -6.089,3.516 -8.188,-14.183 -25.533,-15.807 6.598,-3.809 18.547,11.856 z m 54.113,-29.145 c 3.486,6.039 4.687,11.604 3.601,16.696 -1.085,5.093 -4.394,9.235 -9.925,12.429 -5.599,3.232 -10.859,4.054 -15.78,2.463 -4.921,-1.59 -9.149,-5.447 -12.685,-11.57 -3.535,-6.123 -4.74,-11.696 -3.615,-16.721 1.125,-5.024 4.486,-9.153 10.085,-12.386 5.515,-3.184 10.738,-3.978 15.673,-2.384 4.934,1.593 9.15,5.418 12.646,11.473 z m -28.315,16.347 c 2.637,4.567 5.558,7.498 8.765,8.793 3.205,1.295 6.619,0.898 10.238,-1.192 3.603,-2.08 5.647,-4.817 6.136,-8.211 0.487,-3.394 -0.603,-7.399 -3.269,-12.018 -2.627,-4.55 -5.527,-7.475 -8.703,-8.777 -3.176,-1.301 -6.565,-0.912 -10.168,1.168 -3.637,2.1 -5.703,4.859 -6.197,8.28 -0.494,3.421 0.571,7.408 3.198,11.957 z m 54.679,-56.23 13.857,24.002 c 1.582,2.74 2.378,5.478 2.39,8.211 0.01,2.734 -0.776,5.297 -2.361,7.689 -1.584,2.392 -3.924,4.481 -7.02,6.269 -4.602,2.656 -8.882,3.504 -12.842,2.543 -3.96,-0.961 -7.171,-3.573 -9.632,-7.836 l -13.799,-23.9 6.089,-3.516 13.551,23.469 c 1.768,3.062 3.781,4.91 6.042,5.544 2.261,0.634 4.862,0.102 7.806,-1.597 5.717,-3.301 6.842,-7.954 3.375,-13.958 l -13.52,-23.418 6.064,-3.502 z m 43.718,24.218 -6.064,3.501 -18.412,-31.893 -10.91,6.299 -3.003,-5.201 27.884,-16.099 3.003,5.201 -10.91,6.299 18.412,31.893 z m 45.848,-26.47 -6.09,3.516 -9.653,-16.72 -17.101,9.873 9.653,16.72 -6.063,3.501 -21.416,-37.094 6.063,-3.501 8.76,15.173 17.101,-9.873 -8.76,-15.173 6.09,-3.516 21.416,37.094 z m -90.48,135.377 -26.539,15.322 -2.432,-4.212 2.718,-38.477 -18.191,10.503 -3.004,-5.201 25.524,-14.736 2.461,4.263 -2.823,38.47 19.283,-11.133 3.003,5.201 z m 28.767,-41.405 c 3.486,6.038 4.688,11.604 3.602,16.696 -1.086,5.092 -4.395,9.235 -9.926,12.428 -5.599,3.232 -10.858,4.053 -15.779,2.463 -4.922,-1.59 -9.15,-5.447 -12.686,-11.57 -3.536,-6.123 -4.74,-11.697 -3.615,-16.722 1.125,-5.024 4.486,-9.153 10.085,-12.386 5.515,-3.184 10.739,-3.978 15.673,-2.384 4.934,1.595 9.15,5.419 12.646,11.475 z m -28.315,16.347 c 2.637,4.567 5.558,7.498 8.764,8.793 3.205,1.295 6.619,0.898 10.238,-1.192 3.604,-2.08 5.648,-4.817 6.136,-8.211 0.488,-3.394 -0.602,-7.399 -3.268,-12.017 -2.627,-4.55 -5.528,-7.476 -8.704,-8.777 -3.176,-1.301 -6.564,-0.912 -10.168,1.168 -3.637,2.1 -5.702,4.86 -6.197,8.28 -0.494,3.421 0.572,7.406 3.199,11.956 z m 77.922,-20.191 -7.434,4.292 -35.309,-19.026 -0.203,0.117 1.079,1.576 c 2.054,3.009 3.832,5.816 5.336,8.421 l 11.133,19.283 -5.506,3.179 -21.416,-37.094 7.358,-4.248 35.169,18.903 0.152,-0.088 c -0.259,-0.369 -1.144,-1.747 -2.657,-4.133 -1.512,-2.386 -2.664,-4.264 -3.455,-5.634 l -11.221,-19.435 5.557,-3.208 21.417,37.095 z m 30.776,-17.769 -20.982,12.114 -21.416,-37.094 20.982,-12.114 2.959,5.125 -14.918,8.613 5.83,10.098 13.98,-8.071 2.93,5.074 -13.98,8.071 6.724,11.646 14.919,-8.613 2.972,5.151 z"
         id="path38"
         inkscape:connector-curvature="0" />
    </g>
  </g>
  <g
     id="g40"
     transform="translate(-1711.051,-500.67306)">
    <path
       d="m 2770.107,784.171 m 230,0"
       id="path42"
       inkscape:connector-curvature="0"
       style="fill:none" />
    <path
       stroke-miterlimit="10"
       d="m 2615.02,784.874 m 0,218.086 m 224.869,-218.086 m -224.869,0 m 389.908,-56.912 -1.584,-222.789 m 1.584,501.387 -1.584,-222.789"
       id="path44"
       inkscape:connector-curvature="0"
       style="fill:none;stroke:#f7f4ec;stroke-width:9;stroke-miterlimit:10" />
    <g
       stroke-miterlimit="10"
       id="g46"
       style="fill:none;stroke:#f7f4ec;stroke-width:9;stroke-miterlimit:10">
      <path
         d="m 2610.02,781.608 -0.047,-6"
         id="path48"
         inkscape:connector-curvature="0" />
      <path
         d="m 2609.886,764.2 -1.361,-176.828"
         id="path50"
         inkscape:connector-curvature="0"
         style="stroke-dasharray:11.4086, 11.4086" />
      <path
         d="m 2608.482,581.668 -0.046,-6"
         id="path52"
         inkscape:connector-curvature="0" />
    </g>
    <path
       stroke-miterlimit="10"
       d="m 2839.889,1002.96 m -224.869,0 m 224.869,-218.086 m 0,218.086"
       id="path54"
       inkscape:connector-curvature="0"
       style="fill:none;stroke:#f7f4ec;stroke-width:9;stroke-miterlimit:10" />
    <path
       stroke-miterlimit="10"
       d="m 2615.812,784.17 h 216.551 v 216.921 h -216.551 z"
       id="path56"
       inkscape:connector-curvature="0"
       style="fill:none;stroke:#f7f4ec;stroke-width:20;stroke-miterlimit:10" />
  </g>
  <g
     id="g58"
     transform="translate(-1711.051,-500.67306)">
    <path
       d="m 1796.019,1209.278 c 0.267,0.461 0.323,0.972 0.175,1.529 l -7.46,27.839 12.075,3.235 c 1.061,0.285 1.857,0.888 2.391,1.81 0.531,0.921 0.654,1.913 0.371,2.976 -0.285,1.062 -0.889,1.859 -1.809,2.391 l -23.816,13.75 c -0.922,0.533 -1.914,0.655 -2.975,0.371 -1.062,-0.284 -1.86,-0.888 -2.393,-1.809 l -13.75,-23.816 c -0.531,-0.921 -0.654,-1.913 -0.371,-2.975 0.285,-1.061 0.888,-1.859 1.81,-2.391 0.921,-0.532 1.913,-0.655 2.976,-0.371 l 12.074,3.235 7.461,-27.839 c 0.148,-0.559 0.453,-0.972 0.914,-1.237 0.461,-0.265 0.971,-0.324 1.531,-0.175 l 9.559,2.562 c 0.558,0.15 0.971,0.455 1.237,0.915 z m 15,-69.901 13.75,23.816 c 0.532,0.922 0.655,1.914 0.372,2.975 -0.285,1.063 -0.889,1.859 -1.811,2.392 -0.922,0.533 -1.913,0.656 -2.975,0.371 l -12.074,-3.235 -7.46,27.839 c -0.149,0.56 -0.456,0.972 -0.915,1.237 -0.461,0.267 -0.973,0.325 -1.531,0.175 l -9.559,-2.562 c -0.559,-0.149 -0.971,-0.455 -1.236,-0.916 -0.266,-0.46 -0.325,-0.97 -0.176,-1.529 l 7.46,-27.839 -12.075,-3.235 c -1.062,-0.284 -1.857,-0.888 -2.391,-1.81 -0.531,-0.921 -0.656,-1.913 -0.371,-2.975 0.284,-1.061 0.887,-1.859 1.809,-2.391 l 23.816,-13.75 c 0.922,-0.532 1.913,-0.655 2.976,-0.371 1.061,0.285 1.858,0.887 2.391,1.808 z M 2532.761,859.78 c 7.921,4.526 14.216,10.828 18.881,18.908 4.665,8.081 6.976,16.683 6.935,25.805 -0.043,9.124 -2.327,17.646 -6.852,25.567 -4.525,7.922 -10.827,14.216 -18.907,18.881 -8.081,4.666 -16.684,6.977 -25.806,6.934 -9.123,-0.042 -17.646,-2.326 -25.566,-6.851 -7.922,-4.523 -14.216,-10.827 -18.882,-18.907 -4.665,-8.08 -6.976,-16.682 -6.934,-25.806 0.042,-9.121 2.326,-17.645 6.851,-25.567 4.525,-7.921 10.827,-14.215 18.908,-18.88 8.08,-4.665 16.682,-6.976 25.805,-6.935 9.121,0.044 17.645,2.328 25.567,6.851 z m -32.163,16.212 -5.357,-9.279 c -0.312,-0.541 -0.743,-0.886 -1.292,-1.032 -0.549,-0.147 -1.095,-0.064 -1.636,0.248 l -11.135,6.428 c -0.541,0.313 -0.885,0.743 -1.032,1.292 -0.146,0.549 -0.063,1.094 0.248,1.635 l 5.357,9.279 c 0.312,0.542 0.743,0.885 1.292,1.032 0.549,0.147 1.094,0.064 1.635,-0.248 l 11.135,-6.429 c 0.541,-0.312 0.886,-0.743 1.033,-1.292 0.146,-0.548 0.064,-1.092 -0.248,-1.634 z m 37.423,47.676 -5.357,-9.279 c -0.312,-0.541 -0.743,-0.885 -1.292,-1.033 -0.549,-0.147 -1.094,-0.064 -1.635,0.248 l -5.568,3.214 -17.143,-29.692 c -0.312,-0.541 -0.742,-0.885 -1.291,-1.033 -0.549,-0.146 -1.095,-0.064 -1.637,0.249 l -18.557,10.714 c -0.543,0.312 -0.886,0.743 -1.033,1.292 -0.146,0.549 -0.063,1.094 0.249,1.635 l 5.356,9.279 c 0.313,0.542 0.744,0.885 1.292,1.032 0.549,0.147 1.093,0.065 1.636,-0.248 l 5.566,-3.214 10.715,18.558 -5.566,3.214 c -0.543,0.313 -0.887,0.743 -1.033,1.292 -0.146,0.549 -0.064,1.095 0.248,1.636 l 5.357,9.278 c 0.312,0.542 0.743,0.886 1.291,1.033 0.55,0.146 1.094,0.064 1.637,-0.249 l 25.98,-15 c 0.541,-0.312 0.885,-0.743 1.032,-1.292 0.148,-0.548 0.065,-1.092 -0.247,-1.634 z"
       id="path60"
       inkscape:connector-curvature="0"
       style="fill:#0a3e60" />
    <g
       id="g62"
       style="fill:#0a3e60">
      <path
         d="m 2871.507,874.531 c 2.662,0.714 4.687,2.27 6.07,4.666 1.384,2.397 1.719,4.928 1.006,7.59 -0.714,2.664 -2.269,4.687 -4.666,6.071 -2.397,1.384 -4.927,1.72 -7.59,1.006 -2.663,-0.713 -4.687,-2.269 -6.07,-4.666 -1.384,-2.396 -1.719,-4.927 -1.005,-7.59 0.713,-2.663 2.268,-4.687 4.665,-6.071 2.397,-1.384 4.927,-1.719 7.59,-1.006 z m 40.011,26.309 c 0.595,1.031 0.739,2.116 0.436,3.254 -0.307,1.139 -0.975,2.005 -2.005,2.601 -1.313,0.759 -2.665,0.8 -4.053,0.123 l -16.388,-8.116 -1.739,1.004 2.946,5.104 18.723,10.376 c 0.456,0.252 0.816,0.611 1.085,1.075 0.388,0.67 0.477,1.392 0.271,2.164 -0.207,0.773 -0.646,1.353 -1.316,1.739 l -7.422,4.286 6.071,10.516 c 0.685,1.185 0.847,2.449 0.487,3.791 -0.359,1.341 -1.133,2.355 -2.317,3.04 l -6.187,3.571 c -1.186,0.685 -2.449,0.848 -3.791,0.488 -1.341,-0.36 -2.354,-1.133 -3.039,-2.318 l -6.071,-10.516 -7.423,4.286 c -0.67,0.387 -1.391,0.478 -2.164,0.271 -0.771,-0.207 -1.352,-0.646 -1.738,-1.316 -0.268,-0.464 -0.397,-0.957 -0.389,-1.477 l 0.375,-21.404 -2.946,-5.104 -1.74,1.004 -1.164,18.252 c -0.108,1.54 -0.818,2.688 -2.133,3.448 -1.031,0.595 -2.116,0.74 -3.254,0.435 -1.139,-0.305 -2.005,-0.972 -2.601,-2.003 -0.432,-0.748 -0.62,-1.55 -0.564,-2.407 l 1.326,-20.561 c 0.288,-3.844 1.761,-6.533 4.415,-8.066 l 14.847,-8.572 c 2.653,-1.533 5.719,-1.463 9.191,0.208 l 18.469,9.132 c 0.768,0.381 1.37,0.945 1.802,1.692 z m 49.05,-46.469 9.285,16.083 c 0.596,1.032 0.74,2.116 0.436,3.255 -0.304,1.139 -0.974,2.005 -2.004,2.6 -1.031,0.595 -2.116,0.741 -3.254,0.436 -1.139,-0.304 -2.006,-0.973 -2.601,-2.004 l -7.857,-13.608 -2.475,1.429 20.357,35.26 c 0.685,1.186 0.847,2.449 0.487,3.791 -0.359,1.341 -1.132,2.354 -2.316,3.039 -1.187,0.685 -2.449,0.847 -3.792,0.488 -1.341,-0.359 -2.354,-1.132 -3.038,-2.317 l -10.357,-17.939 -2.475,1.428 10.357,17.939 c 0.684,1.186 0.847,2.449 0.487,3.791 -0.36,1.342 -1.132,2.355 -2.317,3.04 -1.186,0.685 -2.449,0.847 -3.791,0.488 -1.342,-0.359 -2.355,-1.132 -3.039,-2.317 l -20.357,-35.26 -2.475,1.429 7.857,13.609 c 0.596,1.032 0.74,2.116 0.436,3.254 -0.305,1.139 -0.974,2.005 -2.004,2.601 -1.031,0.595 -2.115,0.74 -3.254,0.435 -1.139,-0.304 -2.006,-0.972 -2.601,-2.004 l -9.286,-16.083 c -1.189,-2.062 -1.48,-4.23 -0.87,-6.508 0.61,-2.276 1.945,-4.011 4.008,-5.201 l 24.743,-14.287 c 2.062,-1.19 4.23,-1.48 6.508,-0.871 2.279,0.607 4.011,1.942 5.202,4.004 z m -27.205,-15.557 c 2.662,0.714 4.687,2.269 6.07,4.666 1.383,2.397 1.719,4.927 1.006,7.59 -0.714,2.663 -2.27,4.686 -4.666,6.07 -2.396,1.384 -4.928,1.72 -7.59,1.006 -2.662,-0.713 -4.687,-2.269 -6.07,-4.666 -1.383,-2.397 -1.719,-4.927 -1.006,-7.59 0.713,-2.662 2.27,-4.687 4.666,-6.07 2.397,-1.384 4.927,-1.719 7.59,-1.006 z"
         id="path64"
         inkscape:connector-curvature="0" />
    </g>
    <path
       d="M 2966.162,800.6"
       id="path66"
       inkscape:connector-curvature="0"
       style="fill:none" />
  </g>
  <g
     id="g68"
     transform="translate(-1711.051,-500.67306)">
    <defs
       id="defs70">
      <path
         id="e"
         d="m 2515.099,3737.243 h -274.426 l -168,36.912 -228.763,141.838 143.763,255.6 249.584,-136.293 278.536,-7.61 z"
         inkscape:connector-curvature="0" />
    </defs>
    <clipPath
       id="f">
      <use
         xlink:href="#e"
         overflow="visible"
         id="use74"
         style="overflow:visible"
         x="0"
         y="0"
         width="3799.7539"
         height="2383.9199" />
    </clipPath>
    <g
       clip-path="url(#f)"
       id="g76"
       style="fill:#f9cc0f">
      <path
         d="m 3221.504,2324.024 817.373,2094.238 -19.514,7.616 L 3201.99,2331.64 z m -131.181,51.194 817.372,2094.236 -19.516,7.617 -817.372,-2094.236 z m 196.229,-76.58 817.373,2094.237 -19.515,7.617 -817.373,-2094.237 z m -130.1,50.771 817.373,2094.238 -19.514,7.616 -817.373,-2094.238 z m 196.231,-76.581 817.372,2094.236 -19.514,7.616 -817.372,-2094.236 z m 65.052,-25.384 817.372,2094.235 -19.516,7.617 -817.372,-2094.235 z m -196.231,76.58 817.373,2094.238 -19.514,7.616 L 3201.99,2331.64 z m -131.181,51.194 817.372,2094.236 -19.516,7.617 -817.372,-2094.236 z m 196.229,-76.58 817.373,2094.237 -19.515,7.617 -817.373,-2094.237 z m -130.1,50.771 817.373,2094.238 -19.514,7.616 -817.373,-2094.238 z m 196.231,-76.581 817.372,2094.236 -19.514,7.616 -817.372,-2094.236 z m 65.052,-25.384 817.372,2094.235 -19.516,7.617 -817.372,-2094.235 z"
         id="path78"
         inkscape:connector-curvature="0" />
    </g>
  </g>
</svg>
