<?xml version="1.0" encoding="UTF-8" standalone="no"?>
<svg
   xmlns:dc="http://purl.org/dc/elements/1.1/"
   xmlns:cc="http://creativecommons.org/ns#"
   xmlns:rdf="http://www.w3.org/1999/02/22-rdf-syntax-ns#"
   xmlns:svg="http://www.w3.org/2000/svg"
   xmlns="http://www.w3.org/2000/svg"
   xmlns:xlink="http://www.w3.org/1999/xlink"
   xmlns:sodipodi="http://sodipodi.sourceforge.net/DTD/sodipodi-0.dtd"
   xmlns:inkscape="http://www.inkscape.org/namespaces/inkscape"
   viewBox="0 0 1326.018 1246.082"
   id="svg2"
   version="1.1"
   inkscape:version="0.48.2 r9819"
   width="100%"
   height="100%"
   sodipodi:docname="floor_1.svg">
  <metadata
     id="metadata80">
    <rdf:RDF>
      <cc:Work
         rdf:about="">
        <dc:format>image/svg+xml</dc:format>
        <dc:type
           rdf:resource="http://purl.org/dc/dcmitype/StillImage" />
      </cc:Work>
    </rdf:RDF>
  </metadata>
  <defs
     id="defs78" />
  <sodipodi:namedview
     pagecolor="#ffffff"
     bordercolor="#666666"
     borderopacity="1"
     objecttolerance="10"
     gridtolerance="10"
     guidetolerance="10"
     inkscape:pageopacity="0"
     inkscape:pageshadow="2"
     inkscape:window-width="640"
     inkscape:window-height="480"
     id="namedview76"
     showgrid="false"
     fit-margin-top="0"
     fit-margin-left="0"
     fit-margin-right="0"
     fit-margin-bottom="0"
     inkscape:zoom="0.092637576"
     inkscape:cx="929.081"
     inkscape:cy="-52.311975"
     inkscape:window-x="0"
     inkscape:window-y="0"
     inkscape:window-maximized="0"
     inkscape:current-layer="svg2" />
  <g
     id="g4"
     transform="translate(-970.79602,-757.146)">
    <defs
       id="defs6">
      <path
         id="a"
         d="m 1099.005,1101.169 -128.209,72.059 152.957,830 261.043,-95 123.135,-68.613 -240.877,-438.108 z"
         inkscape:connector-curvature="0" />
    </defs>
    <clipPath
       id="b">
      <use
         xlink:href="#a"
         overflow="visible"
         id="use10"
         style="overflow:visible"
         x="0"
         y="0"
         width="3799.7539"
         height="2383.9189" />
    </clipPath>
    <g
       clip-path="url(#b)"
       id="g12"
       style="fill:#f9cc0f">
      <path
         d="m 2392.051,70.869 817.372,2094.234 -19.514,7.616 L 2372.537,78.485 z m -131.186,51.192 817.371,2094.233 -19.516,7.617 -817.371,-2094.233 z m 196.236,-76.577 817.372,2094.236 -19.514,7.616 L 2437.587,53.1 z m -130.102,50.77 817.372,2094.234 -19.516,7.617 -817.372,-2094.234 z m 196.234,-76.578 817.372,2094.235 -19.514,7.616 L 2503.719,27.292 z m 65.051,-25.384 817.372,2094.234 -19.516,7.617 L 2568.768,1.909 z m -523.652,204.349 817.371,2094.232 -19.514,7.616 -817.371,-2094.232 z m -131.187,51.192 817.371,2094.233 -19.514,7.616 -817.371,-2094.233 z m 196.237,-76.577 817.371,2094.232 -19.514,7.616 -817.371,-2094.232 z m -130.101,50.769 817.371,2094.232 -19.516,7.617 -817.371,-2094.232 z m 196.234,-76.578 817.37,2094.23 -19.514,7.616 -817.37,-2094.23 z m 851.073,-332.121 817.372,2094.236 -19.514,7.616 -817.372,-2094.236 z m -131.184,51.194 817.372,2094.234 -19.515,7.617 -817.372,-2094.234 z m 196.234,-76.579 817.372,2094.236 -19.514,7.616 -817.372,-2094.236 z m -130.101,50.771 817.372,2094.234 -19.514,7.616 -817.372,-2094.234 z m 196.233,-76.58 817.372,2094.236 -19.515,7.617 -817.372,-2094.236 z m 65.051,-25.385 817.373,2094.237 -19.516,7.617 -817.373,-2094.237 z m -523.651,204.35 817.372,2094.236 -19.513,7.616 -817.372,-2094.236 z m -131.186,51.195 817.372,2094.234 -19.516,7.617 L 2568.768,1.909 z m 196.234,-76.579 817.372,2094.235 -19.514,7.616 -817.372,-2094.235 z m -130.098,50.77 817.372,2094.234 -19.515,7.617 L 2634.905,-23.9 z m 196.233,-76.579 817.372,2094.235 -19.516,7.617 -817.372,-2094.235 z m -1768.277,690.05 817.371,2094.231 -19.517,7.617 -817.371,-2094.231 z m -131.188,51.193 817.372,2094.234 -19.515,7.617 L 931.673,640.764 z m 196.238,-76.577 817.37,2094.23 -19.515,7.617 -817.37,-2094.23 z m -130.101,50.768 817.371,2094.231 -19.517,7.617 L 997.808,614.955 z m 196.235,-76.575 817.371,2094.232 -19.514,7.616 -817.371,-2094.232 z m 65.048,-25.387 817.371,2094.233 -19.514,7.616 -817.371,-2094.233 z m -523.652,204.349 817.372,2094.235 -19.516,7.617 L 735.44,717.342 z m -131.185,51.194 817.371,2094.233 -19.515,7.617 L 604.256,768.536 z m 196.235,-76.578 817.371,2094.233 -19.514,7.616 L 800.492,691.957 z m -130.101,50.77 817.371,2094.233 -19.514,7.616 L 670.391,742.727 z m 196.235,-76.577 817.371,2094.233 -19.514,7.616 L 866.626,666.15 z m 851.072,-332.123 817.371,2094.233 -19.516,7.617 -817.371,-2094.233 z m -131.184,51.194 817.37,2094.23 -19.515,7.617 -817.37,-2094.23 z m 196.235,-76.578 817.371,2094.233 -19.514,7.616 -817.371,-2094.233 z m -130.103,50.769 817.371,2094.233 -19.514,7.616 -817.371,-2094.233 z m 196.236,-76.577 817.372,2094.235 -19.514,7.616 -817.372,-2094.235 z m 65.049,-25.386 817.371,2094.233 -19.514,7.616 -817.371,-2094.233 z m -523.65,204.35 817.37,2094.23 -19.514,7.616 -817.37,-2094.23 z m -131.187,51.193 817.371,2094.233 -19.514,7.616 -817.371,-2094.233 z m 196.235,-76.578 817.371,2094.232 -19.516,7.617 -817.371,-2094.232 z m -130.099,50.769 817.371,2094.233 -19.516,7.617 -817.371,-2094.233 z m 196.234,-76.576 817.37,2094.23 -19.514,7.616 -817.37,-2094.23 z m 851.073,-332.122 817.372,2094.234 -19.514,7.616 L 2372.537,78.485 z m -131.186,51.192 817.371,2094.233 -19.516,7.617 -817.371,-2094.233 z m 196.236,-76.577 817.372,2094.236 -19.514,7.616 L 2437.587,53.1 z m -130.102,50.77 817.372,2094.234 -19.516,7.617 -817.372,-2094.234 z m 196.234,-76.578 817.372,2094.235 -19.514,7.616 L 2503.719,27.292 z m 65.051,-25.384 817.372,2094.234 -19.516,7.617 L 2568.768,1.909 z m -523.652,204.349 817.371,2094.232 -19.514,7.616 -817.371,-2094.232 z m -131.187,51.192 817.371,2094.233 -19.514,7.616 -817.371,-2094.233 z m 196.237,-76.577 817.371,2094.232 -19.514,7.616 -817.371,-2094.232 z m -130.101,50.769 817.371,2094.232 -19.516,7.617 -817.371,-2094.232 z m 196.234,-76.578 817.37,2094.23 -19.514,7.616 -817.37,-2094.23 z m 851.073,-332.121 817.372,2094.236 -19.514,7.616 -817.372,-2094.236 z m -131.184,51.194 817.372,2094.234 -19.515,7.617 -817.372,-2094.234 z m 196.234,-76.579 817.372,2094.236 -19.514,7.616 -817.372,-2094.236 z m -130.101,50.771 817.372,2094.234 -19.514,7.616 -817.372,-2094.234 z m 196.233,-76.58 817.372,2094.236 -19.515,7.617 -817.372,-2094.236 z m 65.051,-25.385 817.373,2094.237 -19.516,7.617 -817.373,-2094.237 z m -523.651,204.35 817.372,2094.236 -19.513,7.616 -817.372,-2094.236 z m -131.186,51.195 817.372,2094.234 -19.516,7.617 L 2568.768,1.909 z m 196.234,-76.579 817.372,2094.235 -19.514,7.616 -817.372,-2094.235 z m -130.098,50.77 817.372,2094.234 -19.515,7.617 L 2634.905,-23.9 z m 196.233,-76.579 817.372,2094.235 -19.516,7.617 -817.372,-2094.235 z m -1768.277,690.05 817.371,2094.231 -19.517,7.617 -817.371,-2094.231 z m -131.188,51.193 817.372,2094.234 -19.515,7.617 L 931.673,640.764 z m 196.238,-76.577 817.37,2094.23 -19.515,7.617 -817.37,-2094.23 z m -130.101,50.768 817.371,2094.231 -19.517,7.617 L 997.808,614.955 z m 196.235,-76.575 817.371,2094.232 -19.514,7.616 -817.371,-2094.232 z m 65.048,-25.387 817.371,2094.233 -19.514,7.616 -817.371,-2094.233 z m -523.652,204.349 817.372,2094.235 -19.516,7.617 L 735.44,717.342 z m -131.185,51.194 817.371,2094.233 -19.515,7.617 L 604.256,768.536 z m 196.235,-76.578 817.371,2094.233 -19.514,7.616 L 800.492,691.957 z m -130.101,50.77 817.371,2094.233 -19.514,7.616 L 670.391,742.727 z m 196.235,-76.577 817.371,2094.233 -19.514,7.616 L 866.626,666.15 z m 851.072,-332.123 817.371,2094.233 -19.516,7.617 -817.371,-2094.233 z m -131.184,51.194 817.37,2094.23 -19.515,7.617 -817.37,-2094.23 z m 196.235,-76.578 817.371,2094.233 -19.514,7.616 -817.371,-2094.233 z m -130.103,50.769 817.371,2094.233 -19.514,7.616 -817.371,-2094.233 z m 196.236,-76.577 817.372,2094.235 -19.514,7.616 -817.372,-2094.235 z m 65.049,-25.386 817.371,2094.233 -19.514,7.616 -817.371,-2094.233 z m -523.65,204.35 817.37,2094.23 -19.514,7.616 -817.37,-2094.23 z m -131.187,51.193 817.371,2094.233 -19.514,7.616 -817.371,-2094.233 z m 196.235,-76.578 817.371,2094.232 -19.516,7.617 -817.371,-2094.232 z m -130.099,50.769 817.371,2094.233 -19.516,7.617 -817.371,-2094.233 z m 196.234,-76.576 817.37,2094.23 -19.514,7.616 -817.37,-2094.23 z"
         id="path14"
         inkscape:connector-curvature="0" />
    </g>
  </g>
  <path
     d="M 1025.705,804.402 537.13498,1083.66 128.20898,344.023 740.30098,0 l 236.8,425.255 -123.668,70.336 z"
     id="path16"
     inkscape:connector-curvature="0"
     style="fill:#f9cc0f" />
  <g
     id="g18"
     transform="translate(-970.79602,-757.146)">
    <path
       d="m 1836.254,1315.862 -118.616,68.485 -67.114,-116.241 118.616,-68.485 z"
       id="path20"
       inkscape:connector-curvature="0"
       style="fill:none" />
    <path
       d="m 1752.071,1252.092 c 7.921,4.525 14.215,10.828 18.88,18.908 4.665,8.081 6.977,16.683 6.935,25.805 -0.043,9.124 -2.327,17.647 -6.852,25.568 -4.525,7.921 -10.827,14.215 -18.907,18.88 -8.081,4.666 -16.683,6.976 -25.806,6.934 -9.122,-0.042 -17.646,-2.325 -25.566,-6.851 -7.922,-4.524 -14.216,-10.827 -18.881,-18.908 -4.666,-8.08 -6.977,-16.681 -6.934,-25.805 0.041,-9.122 2.325,-17.645 6.85,-25.567 4.525,-7.921 10.827,-14.215 18.908,-18.881 8.08,-4.665 16.682,-6.976 25.805,-6.934 9.123,0.043 17.646,2.327 25.568,6.851 z m -32.164,16.211 -5.357,-9.278 c -0.312,-0.541 -0.743,-0.886 -1.291,-1.033 -0.55,-0.147 -1.095,-0.064 -1.637,0.249 l -11.134,6.428 c -0.542,0.313 -0.886,0.743 -1.032,1.292 -0.147,0.549 -0.064,1.095 0.248,1.636 l 5.356,9.278 c 0.313,0.542 0.743,0.886 1.292,1.033 0.549,0.147 1.094,0.065 1.636,-0.248 l 11.134,-6.428 c 0.542,-0.312 0.887,-0.743 1.033,-1.292 0.147,-0.551 0.065,-1.095 -0.248,-1.637 z m 37.423,47.676 -5.357,-9.279 c -0.312,-0.541 -0.742,-0.886 -1.292,-1.033 -0.549,-0.147 -1.094,-0.064 -1.635,0.248 l -5.567,3.214 -17.144,-29.692 c -0.312,-0.541 -0.742,-0.886 -1.291,-1.032 -0.549,-0.147 -1.094,-0.064 -1.636,0.248 l -18.558,10.714 c -0.542,0.313 -0.885,0.744 -1.033,1.292 -0.146,0.548 -0.063,1.094 0.248,1.635 l 5.357,9.279 c 0.313,0.542 0.744,0.885 1.293,1.033 0.549,0.146 1.093,0.064 1.635,-0.249 l 5.567,-3.214 10.714,18.558 -5.566,3.214 c -0.543,0.313 -0.886,0.744 -1.033,1.292 -0.146,0.549 -0.064,1.094 0.248,1.635 l 5.357,9.279 c 0.312,0.542 0.743,0.885 1.292,1.032 0.549,0.147 1.093,0.064 1.636,-0.248 l 25.98,-15 c 0.541,-0.312 0.885,-0.743 1.033,-1.292 0.148,-0.548 0.065,-1.092 -0.248,-1.634 z"
       id="path22"
       inkscape:connector-curvature="0"
       style="fill:#0a3e60" />
    <path
       d="m 2296.814,1044.13 -355.908,205.49 -91.496,-158.47 355.908,-205.49 z"
       id="path24"
       inkscape:connector-curvature="0"
       style="fill:none" />
    <path
       d="m 1923.181,1126.287 c 0.266,0.461 0.323,0.971 0.174,1.53 l -7.459,27.839 12.074,3.235 c 1.061,0.284 1.858,0.887 2.391,1.809 0.531,0.921 0.655,1.914 0.371,2.975 -0.285,1.062 -0.888,1.859 -1.809,2.392 l -23.816,13.75 c -0.922,0.532 -1.914,0.655 -2.975,0.371 -1.062,-0.285 -1.859,-0.888 -2.392,-1.81 l -13.75,-23.815 c -0.532,-0.921 -0.655,-1.913 -0.371,-2.976 0.284,-1.062 0.888,-1.858 1.81,-2.391 0.921,-0.532 1.913,-0.655 2.975,-0.371 l 12.075,3.235 7.46,-27.839 c 0.149,-0.558 0.454,-0.971 0.915,-1.238 0.46,-0.266 0.971,-0.323 1.53,-0.174 l 9.559,2.561 c 0.558,0.151 0.972,0.456 1.238,0.917 z m 15,-69.901 13.75,23.815 c 0.532,0.922 0.655,1.914 0.371,2.976 -0.285,1.062 -0.889,1.859 -1.81,2.391 -0.922,0.532 -1.913,0.657 -2.976,0.371 l -12.074,-3.235 -7.459,27.839 c -0.15,0.559 -0.456,0.972 -0.916,1.237 -0.461,0.266 -0.972,0.324 -1.53,0.174 l -9.56,-2.562 c -0.559,-0.149 -0.971,-0.455 -1.236,-0.916 -0.266,-0.46 -0.324,-0.97 -0.175,-1.53 l 7.46,-27.839 -12.075,-3.235 c -1.062,-0.284 -1.858,-0.887 -2.392,-1.809 -0.531,-0.921 -0.656,-1.913 -0.371,-2.975 0.285,-1.062 0.888,-1.859 1.81,-2.391 l 23.815,-13.75 c 0.922,-0.532 1.914,-0.655 2.977,-0.372 1.061,0.286 1.858,0.889 2.391,1.811 z"
       id="path26"
       inkscape:connector-curvature="0"
       style="fill:#0a3e60" />
    <path
       d="m 1440.044,1383.52 206.521,-119.253 -66.746,-115.61 -206.523,119.254 z"
       id="path28"
       inkscape:connector-curvature="0"
       style="fill:none" />
    <path
       d="m 1407.275,1255.459 c 2.662,0.714 4.687,2.27 6.07,4.666 1.384,2.397 1.719,4.928 1.006,7.59 -0.714,2.664 -2.269,4.687 -4.665,6.071 -2.397,1.384 -4.928,1.72 -7.59,1.006 -2.663,-0.713 -4.688,-2.269 -6.07,-4.666 -1.385,-2.397 -1.72,-4.927 -1.006,-7.59 0.713,-2.663 2.269,-4.687 4.666,-6.071 2.397,-1.384 4.926,-1.719 7.589,-1.006 z m 40.009,26.31 c 0.596,1.031 0.741,2.116 0.436,3.254 -0.305,1.139 -0.973,2.005 -2.003,2.601 -1.314,0.759 -2.665,0.8 -4.053,0.123 l -16.388,-8.116 -1.739,1.005 2.946,5.104 18.723,10.376 c 0.455,0.253 0.816,0.611 1.085,1.075 0.388,0.67 0.477,1.392 0.27,2.164 -0.206,0.773 -0.646,1.352 -1.315,1.739 l -7.423,4.286 6.071,10.517 c 0.685,1.185 0.848,2.449 0.488,3.791 -0.359,1.341 -1.133,2.355 -2.317,3.04 l -6.187,3.571 c -1.186,0.685 -2.449,0.848 -3.79,0.488 -1.342,-0.359 -2.354,-1.132 -3.039,-2.318 l -6.071,-10.516 -7.423,4.286 c -0.671,0.387 -1.392,0.477 -2.163,0.27 -0.773,-0.206 -1.352,-0.645 -1.739,-1.315 -0.269,-0.464 -0.397,-0.956 -0.39,-1.477 l 0.375,-21.404 -2.946,-5.104 -1.739,1.005 -1.164,18.251 c -0.107,1.541 -0.818,2.689 -2.133,3.448 -1.031,0.596 -2.116,0.741 -3.254,0.436 -1.139,-0.305 -2.005,-0.973 -2.601,-2.004 -0.432,-0.747 -0.62,-1.55 -0.564,-2.406 l 1.325,-20.561 c 0.289,-3.843 1.761,-6.533 4.416,-8.066 l 14.845,-8.571 c 2.654,-1.533 5.719,-1.463 9.192,0.208 l 18.469,9.131 c 0.769,0.377 1.37,0.941 1.8,1.689 z m 49.051,-46.469 9.285,16.083 c 0.596,1.032 0.74,2.116 0.436,3.254 -0.305,1.139 -0.974,2.005 -2.004,2.601 -1.031,0.595 -2.115,0.741 -3.254,0.436 -1.139,-0.305 -2.006,-0.973 -2.601,-2.004 l -7.857,-13.609 -2.474,1.429 20.357,35.26 c 0.684,1.186 0.847,2.449 0.487,3.791 -0.359,1.341 -1.132,2.354 -2.317,3.039 -1.185,0.685 -2.449,0.847 -3.791,0.487 -1.342,-0.359 -2.355,-1.132 -3.039,-2.317 l -10.357,-17.939 -2.474,1.429 10.356,17.939 c 0.685,1.186 0.848,2.449 0.488,3.791 -0.36,1.342 -1.133,2.355 -2.317,3.039 -1.187,0.685 -2.45,0.848 -3.792,0.488 -1.341,-0.36 -2.354,-1.133 -3.038,-2.318 l -20.357,-35.26 -2.474,1.429 7.857,13.609 c 0.595,1.031 0.739,2.116 0.435,3.254 -0.305,1.139 -0.974,2.006 -2.004,2.601 -1.031,0.596 -2.116,0.741 -3.254,0.436 -1.138,-0.305 -2.005,-0.973 -2.601,-2.004 l -9.285,-16.083 c -1.19,-2.062 -1.48,-4.231 -0.871,-6.509 0.61,-2.276 1.945,-4.01 4.008,-5.201 l 24.742,-14.287 c 2.062,-1.19 4.23,-1.48 6.508,-0.871 2.278,0.61 4.011,1.945 5.202,4.007 z m -27.205,-15.557 c 2.663,0.714 4.687,2.269 6.07,4.666 1.383,2.397 1.719,4.927 1.006,7.59 -0.713,2.663 -2.269,4.686 -4.666,6.07 -2.396,1.384 -4.927,1.72 -7.589,1.006 -2.663,-0.713 -4.687,-2.269 -6.069,-4.666 -1.385,-2.397 -1.721,-4.927 -1.007,-7.59 0.713,-2.663 2.269,-4.687 4.665,-6.071 2.398,-1.384 4.928,-1.718 7.59,-1.005 z"
       id="path30"
       inkscape:connector-curvature="0"
       style="fill:#0a3e60" />
    <path
       d="m 1341.229,1445.559 206.524,-119.252 -66.748,-115.61 -206.524,119.252 z"
       id="path32"
       inkscape:connector-curvature="0"
       style="fill:none" />
    <path
       d="m 1337.858,1348.284 c 3.156,5.465 3.916,11.246 2.281,17.345 -1.633,6.098 -5.182,10.725 -10.646,13.88 -5.463,3.155 -11.244,3.916 -17.342,2.281 -6.1,-1.633 -10.725,-5.182 -13.88,-10.646 -2.157,-3.737 -3.16,-7.884 -3.007,-12.44 0.02,-0.321 0.152,-1.952 0.396,-4.895 0.242,-2.94 0.422,-5.638 0.533,-8.093 0.113,-2.453 0.071,-5.487 -0.127,-9.103 -0.197,-3.615 -0.627,-6.829 -1.288,-9.643 -0.215,-0.907 -0.126,-1.766 0.265,-2.576 0.392,-0.81 0.922,-1.409 1.592,-1.796 0.67,-0.387 1.461,-0.551 2.371,-0.492 0.91,0.059 1.691,0.415 2.344,1.069 2.105,1.98 4.675,3.959 7.707,5.937 3.032,1.979 5.639,3.532 7.82,4.661 2.182,1.13 4.605,2.324 7.275,3.583 2.668,1.26 4.146,1.961 4.436,2.104 3.979,2.068 7.069,5.01 9.27,8.824 z m -16.935,16.379 c -0.537,-0.928 -1.308,-1.668 -2.314,-2.221 -0.041,-0.01 -0.408,-0.185 -1.102,-0.524 -0.693,-0.338 -1.305,-0.638 -1.833,-0.9 -0.53,-0.262 -1.179,-0.642 -1.949,-1.143 -0.77,-0.501 -1.417,-0.995 -1.938,-1.484 -0.342,-0.353 -0.731,-0.403 -1.17,-0.15 -0.439,0.253 -0.59,0.616 -0.453,1.087 0.16,0.698 0.266,1.505 0.314,2.421 0.048,0.917 0.053,1.67 0.016,2.259 l -0.137,2.038 c -0.055,0.771 -0.088,1.176 -0.098,1.216 -0.025,1.149 0.23,2.187 0.767,3.114 0.788,1.367 1.945,2.254 3.47,2.662 1.525,0.409 2.969,0.219 4.336,-0.57 1.365,-0.789 2.254,-1.945 2.662,-3.471 0.407,-1.523 0.218,-2.968 -0.571,-4.334 z"
       id="path34"
       inkscape:connector-curvature="0"
       style="fill:#0a3e60" />
  </g>
  <g
     stroke-miterlimit="10"
     id="g36"
     style="fill:none;stroke:#f7f4ec;stroke-miterlimit:10"
     transform="translate(-970.79602,-757.146)">
    <path
       d="m 1650.599,960.005 134.011,-75.322 m -149.935,149.175 -375,211.945 m 41.875,-94.146 -73.375,-133.851 m 376.765,-32.078 -74.931,-130.922"
       id="path38"
       inkscape:connector-curvature="0"
       style="stroke-width:9" />
    <path
       d="m 1099.005,1101.169 408.926,739.637"
       id="path40"
       inkscape:connector-curvature="0"
       style="stroke-width:20" />
  </g>
  <g
     id="g42"
     transform="translate(-970.79602,-757.146)">
    <g
       id="g44"
       style="fill:#0a3e60">
      <path
         d="m 1544.532,1647.173 -5.962,3.442 -13.828,-23.951 c -1.65,-2.858 -2.893,-5.164 -3.724,-6.917 -0.154,0.631 -0.373,1.355 -0.656,2.172 -0.284,0.818 -1.283,3.47 -3.001,7.957 l -5.177,-2.052 5.959,-14.875 4.973,-2.871 21.416,37.095 z m 26.589,-40.08 c 3.721,6.445 5.448,11.83 5.183,16.155 -0.265,4.326 -2.529,7.719 -6.791,10.18 -4.128,2.383 -8.189,2.574 -12.186,0.574 -3.997,-2 -7.797,-6.121 -11.4,-12.363 -3.779,-6.546 -5.529,-11.969 -5.249,-16.269 0.28,-4.3 2.543,-7.676 6.789,-10.127 4.144,-2.393 8.219,-2.58 12.225,-0.563 4.006,2.017 7.817,6.155 11.429,12.413 z m -19.156,11.059 c 2.921,5.058 5.526,8.369 7.815,9.933 2.291,1.565 4.577,1.688 6.861,0.369 2.283,-1.318 3.318,-3.382 3.106,-6.191 -0.213,-2.809 -1.759,-6.709 -4.64,-11.699 -2.871,-4.973 -5.479,-8.266 -7.819,-9.88 -2.341,-1.614 -4.653,-1.762 -6.937,-0.443 -2.284,1.318 -3.315,3.369 -3.097,6.151 0.222,2.783 1.792,6.703 4.711,11.76 z m 59.524,-9.636 -25.144,14.517 -2.607,-4.516 4.013,-15.138 c 1.155,-4.523 1.844,-7.655 2.068,-9.397 0.224,-1.741 0.239,-3.267 0.047,-4.577 -0.193,-1.31 -0.641,-2.574 -1.344,-3.792 -0.967,-1.675 -2.231,-2.703 -3.795,-3.086 -1.562,-0.383 -3.232,-0.062 -5.008,0.963 -1.421,0.82 -2.645,1.876 -3.669,3.167 -1.025,1.292 -2.014,3.125 -2.965,5.5 l -5.493,-2.072 c 1.059,-2.933 2.35,-5.325 3.875,-7.176 1.525,-1.85 3.388,-3.41 5.586,-4.68 3.451,-1.992 6.736,-2.688 9.857,-2.088 3.12,0.6 5.56,2.423 7.317,5.467 0.967,1.675 1.584,3.438 1.853,5.29 0.27,1.852 0.243,3.936 -0.077,6.252 -0.32,2.316 -1.141,5.671 -2.461,10.064 l -2.841,9.962 0.146,0.254 17.608,-10.166 3.034,5.252 z"
         id="path46"
         inkscape:connector-curvature="0" />
    </g>
    <g
       id="g48"
       style="fill:#0a3e60">
      <path
         d="m 1749.532,1529.268 -5.963,3.442 -13.828,-23.951 c -1.649,-2.858 -2.891,-5.164 -3.723,-6.917 -0.154,0.631 -0.373,1.355 -0.656,2.172 -0.283,0.818 -1.283,3.47 -3,7.957 l -5.178,-2.052 5.959,-14.874 4.973,-2.871 21.416,37.094 z m 26.59,-40.08 c 3.721,6.444 5.447,11.83 5.182,16.155 -0.265,4.326 -2.529,7.719 -6.791,10.18 -4.127,2.383 -8.189,2.574 -12.186,0.574 -3.996,-2 -7.797,-6.121 -11.4,-12.362 -3.779,-6.546 -5.528,-11.969 -5.248,-16.27 0.279,-4.3 2.541,-7.675 6.787,-10.127 4.145,-2.393 8.221,-2.58 12.227,-0.563 4.006,2.017 7.816,6.154 11.429,12.413 z m -19.156,11.059 c 2.92,5.058 5.525,8.368 7.814,9.933 2.291,1.565 4.578,1.688 6.861,0.369 2.283,-1.319 3.318,-3.382 3.107,-6.191 -0.213,-2.809 -1.76,-6.708 -4.641,-11.698 -2.871,-4.973 -5.478,-8.266 -7.818,-9.88 -2.342,-1.614 -4.654,-1.762 -6.938,-0.443 -2.284,1.319 -3.316,3.369 -3.096,6.151 0.221,2.782 1.791,6.701 4.711,11.759 z m 51.887,-5.227 -5.963,3.442 -13.828,-23.951 c -1.65,-2.858 -2.891,-5.164 -3.723,-6.917 -0.154,0.631 -0.373,1.355 -0.656,2.172 -0.285,0.818 -1.284,3.47 -3.002,7.957 l -5.176,-2.052 5.959,-14.874 4.973,-2.871 21.416,37.094 z"
         id="path50"
         inkscape:connector-curvature="0" />
    </g>
    <g
       id="g52"
       style="fill:#0a3e60">
      <path
         d="m 1640.558,897.088 -5.963,3.442 -13.828,-23.951 c -1.65,-2.858 -2.892,-5.164 -3.723,-6.917 -0.154,0.631 -0.373,1.355 -0.657,2.173 -0.284,0.818 -1.284,3.47 -3.001,7.957 l -5.176,-2.052 5.959,-14.875 4.973,-2.871 21.416,37.094 z m 26.588,-40.08 c 3.721,6.444 5.449,11.83 5.184,16.155 -0.265,4.325 -2.529,7.719 -6.792,10.18 -4.127,2.383 -8.188,2.574 -12.185,0.573 -3.997,-2 -7.797,-6.121 -11.4,-12.362 -3.779,-6.546 -5.529,-11.969 -5.249,-16.27 0.279,-4.299 2.542,-7.675 6.788,-10.127 4.145,-2.393 8.219,-2.58 12.226,-0.562 4.006,2.016 7.814,6.155 11.428,12.413 z m -19.156,11.059 c 2.92,5.058 5.525,8.369 7.815,9.933 2.29,1.565 4.577,1.688 6.86,0.369 2.284,-1.318 3.319,-3.382 3.106,-6.191 -0.213,-2.809 -1.758,-6.708 -4.639,-11.698 -2.871,-4.973 -5.479,-8.266 -7.819,-9.88 -2.341,-1.614 -4.653,-1.762 -6.938,-0.443 -2.283,1.318 -3.315,3.369 -3.096,6.152 0.222,2.781 1.791,6.701 4.711,11.758 z m 25.22,-39.932 c 3.518,-2.031 6.768,-2.83 9.746,-2.396 2.979,0.434 5.25,2.004 6.812,4.71 2.197,3.806 1.662,8.152 -1.605,13.039 3.748,-0.225 6.699,0.112 8.854,1.011 2.153,0.899 3.802,2.338 4.944,4.316 1.768,3.062 2.059,6.164 0.874,9.307 -1.185,3.143 -3.698,5.822 -7.537,8.039 -4.026,2.324 -7.645,3.263 -10.856,2.817 -3.213,-0.446 -5.73,-2.25 -7.557,-5.414 -1.191,-2.063 -1.685,-4.254 -1.479,-6.572 0.207,-2.318 1.259,-4.882 3.155,-7.691 -3.048,-0.044 -5.489,-0.541 -7.321,-1.49 -1.834,-0.949 -3.293,-2.362 -4.377,-4.239 -1.553,-2.689 -1.733,-5.444 -0.541,-8.263 1.193,-2.82 3.488,-5.211 6.888,-7.174 z m 2.601,4.622 c -1.691,0.977 -2.812,2.182 -3.36,3.614 -0.548,1.433 -0.407,2.868 0.423,4.306 0.508,0.88 1.147,1.559 1.921,2.038 0.771,0.479 1.678,0.796 2.715,0.953 1.037,0.157 2.632,0.145 4.782,-0.038 1.513,-2.068 2.401,-3.839 2.667,-5.312 0.266,-1.473 0.018,-2.869 -0.744,-4.188 -0.83,-1.438 -2.006,-2.274 -3.529,-2.511 -1.526,-0.238 -3.15,0.142 -4.875,1.138 z m 6.666,27.307 c 1.016,1.76 2.422,2.769 4.218,3.028 1.796,0.26 3.752,-0.221 5.866,-1.441 2.182,-1.26 3.587,-2.742 4.216,-4.446 0.627,-1.705 0.443,-3.42 -0.553,-5.146 -0.791,-1.37 -2.071,-2.299 -3.842,-2.788 -1.771,-0.488 -4.068,-0.561 -6.891,-0.216 l -0.926,0.095 c -1.667,2.27 -2.652,4.276 -2.953,6.018 -0.302,1.742 -0.014,3.374 0.865,4.896 z"
         id="path54"
         inkscape:connector-curvature="0" />
    </g>
    <g
       id="g56"
       style="fill:#0a3e60">
      <path
         d="m 1393.261,1040.354 -5.963,3.442 -13.828,-23.951 c -1.65,-2.858 -2.892,-5.164 -3.723,-6.917 -0.155,0.631 -0.373,1.355 -0.657,2.173 -0.284,0.818 -1.284,3.47 -3.001,7.957 l -5.176,-2.052 5.959,-14.875 4.973,-2.871 21.416,37.094 z m 26.588,-40.08 c 3.721,6.444 5.449,11.83 5.184,16.155 -0.265,4.325 -2.529,7.719 -6.792,10.18 -4.127,2.383 -8.188,2.574 -12.186,0.574 -3.996,-2 -7.796,-6.121 -11.399,-12.363 -3.779,-6.546 -5.529,-11.969 -5.25,-16.269 0.28,-4.299 2.543,-7.675 6.789,-10.127 4.145,-2.393 8.219,-2.581 12.226,-0.563 4.006,2.017 7.814,6.156 11.428,12.413 z m -19.156,11.06 c 2.92,5.058 5.524,8.369 7.815,9.933 2.29,1.565 4.577,1.688 6.86,0.369 2.284,-1.318 3.319,-3.382 3.106,-6.191 -0.213,-2.809 -1.759,-6.708 -4.64,-11.699 -2.871,-4.973 -5.478,-8.266 -7.818,-9.88 -2.34,-1.614 -4.653,-1.762 -6.938,-0.443 -2.283,1.318 -3.315,3.369 -3.096,6.151 0.222,2.782 1.791,6.703 4.711,11.76 z m 38.592,2.448 -3.689,-40.258 -19.282,11.133 -3.033,-5.252 25.651,-14.81 2.402,4.161 4.396,41.305 -6.445,3.721 z"
         id="path58"
         inkscape:connector-curvature="0" />
    </g>
    <path
       d="m 1279.126,1155.524 -92.154,53.207 -44.384,-76.872 92.154,-53.207 z"
       id="path60"
       inkscape:connector-curvature="0"
       style="fill:none" />
    <path
       d="m 1186.758,1158.986 -5.962,3.442 -13.828,-23.951 c -1.65,-2.858 -2.893,-5.164 -3.723,-6.917 -0.156,0.631 -0.375,1.355 -0.658,2.172 -0.283,0.818 -1.283,3.47 -3,7.957 l -5.177,-2.052 5.958,-14.875 4.974,-2.871 21.416,37.095 z m 26.589,-40.081 c 3.721,6.445 5.447,11.83 5.183,16.155 -0.265,4.326 -2.529,7.719 -6.792,10.18 -4.127,2.383 -8.188,2.574 -12.186,0.574 -3.996,-2 -7.796,-6.121 -11.399,-12.363 -3.779,-6.546 -5.529,-11.969 -5.249,-16.269 0.279,-4.3 2.543,-7.676 6.789,-10.127 4.144,-2.393 8.219,-2.581 12.225,-0.563 4.005,2.018 7.815,6.155 11.429,12.413 z m -19.157,11.06 c 2.92,5.058 5.525,8.369 7.815,9.934 2.29,1.565 4.577,1.688 6.86,0.369 2.283,-1.319 3.319,-3.382 3.107,-6.191 -0.213,-2.809 -1.76,-6.709 -4.641,-11.699 -2.871,-4.973 -5.478,-8.266 -7.818,-9.88 -2.342,-1.614 -4.654,-1.762 -6.938,-0.443 -2.284,1.319 -3.314,3.369 -3.096,6.151 0.222,2.782 1.792,6.702 4.711,11.759 z m 25.356,-10.986 c -8.379,-14.513 -6.656,-25.182 5.167,-32.008 1.86,-1.074 3.517,-1.839 4.968,-2.294 l 2.871,4.974 c -1.5,0.37 -3.096,1.043 -4.787,2.02 -3.975,2.295 -6.346,5.084 -7.111,8.368 -0.766,3.283 0.125,7.325 2.671,12.125 l 0.305,-0.176 c 0,-1.829 0.507,-3.535 1.511,-5.118 1.002,-1.582 2.477,-2.936 4.422,-4.059 3.366,-1.943 6.584,-2.425 9.652,-1.445 3.069,0.979 5.625,3.237 7.666,6.772 2.246,3.891 2.934,7.592 2.064,11.105 -0.871,3.513 -3.184,6.354 -6.938,8.521 -2.656,1.533 -5.334,2.228 -8.033,2.083 -2.699,-0.144 -5.283,-1.133 -7.752,-2.967 -2.468,-1.833 -4.694,-4.466 -6.676,-7.901 z m 19.517,3.922 c 2.046,-1.182 3.242,-2.752 3.589,-4.711 0.346,-1.959 -0.188,-4.165 -1.604,-6.618 -1.23,-2.131 -2.718,-3.505 -4.461,-4.123 -1.743,-0.618 -3.655,-0.325 -5.736,0.876 -1.285,0.742 -2.311,1.701 -3.076,2.875 -0.765,1.175 -1.185,2.421 -1.258,3.737 -0.074,1.317 0.177,2.475 0.753,3.473 1.377,2.385 3.184,4.021 5.42,4.905 2.236,0.887 4.36,0.748 6.373,-0.414 z"
       id="path62"
       inkscape:connector-curvature="0"
       style="fill:#0a3e60" />
  </g>
</svg>
