<?xml version="1.0" encoding="UTF-8" standalone="no"?>
<svg
   xmlns:dc="http://purl.org/dc/elements/1.1/"
   xmlns:cc="http://creativecommons.org/ns#"
   xmlns:rdf="http://www.w3.org/1999/02/22-rdf-syntax-ns#"
   xmlns:svg="http://www.w3.org/2000/svg"
   xmlns="http://www.w3.org/2000/svg"
   xmlns:xlink="http://www.w3.org/1999/xlink"
   xmlns:sodipodi="http://sodipodi.sourceforge.net/DTD/sodipodi-0.dtd"
   xmlns:inkscape="http://www.inkscape.org/namespaces/inkscape"
   viewBox="0 0 1025.704 1246.084"
   id="svg2"
   version="1.1"
   inkscape:version="0.48.2 r9819"
   width="100%"
   height="100%"
   sodipodi:docname="floor_5.svg">
  <metadata
     id="metadata54">
    <rdf:RDF>
      <cc:Work
         rdf:about="">
        <dc:format>image/svg+xml</dc:format>
        <dc:type
           rdf:resource="http://purl.org/dc/dcmitype/StillImage" />
      </cc:Work>
    </rdf:RDF>
  </metadata>
  <defs
     id="defs52" />
  <sodipodi:namedview
     pagecolor="#ffffff"
     bordercolor="#666666"
     borderopacity="1"
     objecttolerance="10"
     gridtolerance="10"
     guidetolerance="10"
     inkscape:pageopacity="0"
     inkscape:pageshadow="2"
     inkscape:window-width="640"
     inkscape:window-height="480"
     id="namedview50"
     showgrid="false"
     fit-margin-top="0"
     fit-margin-left="0"
     fit-margin-right="0"
     fit-margin-bottom="0"
     inkscape:zoom="0.092637576"
     inkscape:cx="929.08102"
     inkscape:cy="811.26945"
     inkscape:window-x="0"
     inkscape:window-y="0"
     inkscape:window-maximized="0"
     inkscape:current-layer="svg2" />
  <path
     d="M 1025.704,804.404 913.911,866.761 747.878,555.66 364.621,775.207 128.741,343.744 740.3,-2.0650497e-6 977.101,425.259 853.433,495.593 z"
     id="path4"
     inkscape:connector-curvature="0"
     style="fill:#f9cc0f" />
  <g
     id="g6"
     transform="translate(-970.796,-757.145)">
    <defs
       id="defs8">
      <path
         id="a"
         d="m 1099.505,1100.889 -128.709,72.34 152.957,830 261.043,-95 499.911,-283.323 -166.033,-312.101 -383.257,219.547 z"
         inkscape:connector-curvature="0" />
    </defs>
    <clipPath
       id="b">
      <use
         xlink:href="#a"
         overflow="visible"
         id="use12"
         style="overflow:visible"
         x="0"
         y="0"
         width="3799.7539"
         height="2383.9189" />
    </clipPath>
    <g
       clip-path="url(#b)"
       id="g14"
       style="fill:#f9cc0f">
      <path
         d="m 1529.383,394.115 817.372,2094.236 -19.515,7.617 -817.372,-2094.236 z m -131.185,51.193 817.373,2094.237 -19.516,7.617 -817.373,-2094.237 z m 196.235,-76.578 817.372,2094.236 -19.514,7.616 -817.372,-2094.236 z m -130.1,50.769 817.372,2094.236 -19.516,7.617 -817.372,-2094.236 z m 196.232,-76.579 817.373,2094.238 -19.514,7.616 -817.373,-2094.238 z m 65.051,-25.384 817.373,2094.237 -19.516,7.617 L 1706.1,325.153 z m -523.652,204.35 817.372,2094.234 -19.515,7.617 -817.372,-2094.234 z m -131.185,51.192 817.373,2094.237 -19.516,7.617 -817.373,-2094.237 z m 196.234,-76.578 817.372,2094.235 -19.515,7.617 -817.372,-2094.235 z m -130.099,50.771 817.372,2094.235 -19.516,7.617 -817.372,-2094.235 z m 196.233,-76.578 817.372,2094.236 -19.515,7.617 L 1313.632,478.31 z m 851.073,-332.122 817.372,2094.236 -19.515,7.617 -817.372,-2094.236 z m -131.184,51.194 817.372,2094.236 -19.514,7.616 -817.372,-2094.236 z m 196.235,-76.58 817.373,2094.238 -19.515,7.617 -817.373,-2094.238 z m -130.101,50.771 817.373,2094.238 -19.514,7.616 -817.373,-2094.238 z m 196.232,-76.579 817.373,2094.237 -19.515,7.617 L 2295.887,94.994 z m 65.052,-25.385 817.372,2094.236 -19.515,7.617 L 2360.939,69.609 z m -523.654,204.35 817.372,2094.236 -19.514,7.616 -817.372,-2094.236 z m -131.184,51.194 817.373,2094.237 -19.516,7.617 L 1706.1,325.153 z m 196.233,-76.579 817.373,2094.237 -19.514,7.616 -817.373,-2094.237 z m -130.098,50.771 817.372,2094.236 -19.514,7.616 -817.372,-2094.236 z m 196.234,-76.579 817.373,2094.237 -19.516,7.617 L 1968.469,222.766 z M 219.707,905.2 1037.08,2999.437 1017.564,3007.054 200.191,912.817 z M 88.523,956.392 905.895,3050.627 886.38,3058.244 69.008,964.009 z m 196.234,-76.576 817.372,2094.236 -19.514,7.616 L 265.243,887.432 z m -130.099,50.769 817.373,2094.237 -19.516,7.617 L 135.142,938.202 z m 196.233,-76.576 817.372,2094.236 -19.514,7.616 L 331.377,861.625 z m 65.05,-25.387 817.373,2094.237 -19.514,7.616 L 396.427,836.238 z m -523.652,204.35 817.373,2094.237 -19.516,7.617 -817.373,-2094.237 z m -131.185,51.196 817.372,2094.236 -19.514,7.616 -817.372,-2094.236 z m 196.235,-76.58 817.372,2094.236 -19.515,7.617 -817.372,-2094.236 z m -130.1,50.768 817.372,2094.235 -19.516,7.617 -817.372,-2094.235 z M 23.473,981.779 840.845,3076.015 821.331,3083.631 3.959,989.395 z m 851.072,-332.121 817.372,2094.236 -19.515,7.617 L 855.03,657.275 z m -131.185,51.192 817.372,2094.236 -19.515,7.617 L 723.845,708.467 z m 196.235,-76.577 817.372,2094.236 -19.514,7.616 L 920.081,631.889 z m -130.101,50.769 817.372,2094.236 -19.515,7.617 L 789.979,682.659 z m 196.235,-76.578 817.373,2094.238 -19.514,7.616 L 986.215,606.08 z m 65.05,-25.386 817.373,2094.237 -19.516,7.617 -817.373,-2094.237 z m -523.652,204.352 817.372,2094.234 -19.515,7.617 L 527.612,785.047 z m -131.186,51.192 817.373,2094.237 -19.514,7.616 L 396.427,836.238 z m 196.235,-76.578 817.372,2094.236 -19.515,7.617 L 592.661,759.661 z m -130.1,50.77 817.373,2094.238 -19.516,7.617 L 462.56,810.431 z m 196.234,-76.577 817.372,2094.236 -19.514,7.616 L 658.796,733.853 z m 851.073,-332.122 817.372,2094.236 -19.515,7.617 -817.372,-2094.236 z m -131.185,51.193 817.373,2094.237 -19.516,7.617 -817.373,-2094.237 z m 196.235,-76.578 817.372,2094.236 -19.514,7.616 -817.372,-2094.236 z m -130.1,50.769 817.372,2094.236 -19.516,7.617 -817.372,-2094.236 z m 196.232,-76.579 817.373,2094.238 -19.514,7.616 -817.373,-2094.238 z m 65.051,-25.384 817.373,2094.237 -19.516,7.617 L 1706.1,325.153 z m -523.652,204.35 817.372,2094.234 -19.515,7.617 -817.372,-2094.234 z m -131.185,51.192 817.373,2094.237 -19.516,7.617 -817.373,-2094.237 z m 196.234,-76.578 817.372,2094.235 -19.515,7.617 -817.372,-2094.235 z m -130.099,50.771 817.372,2094.235 -19.516,7.617 -817.372,-2094.235 z m 196.233,-76.578 817.372,2094.236 -19.515,7.617 L 1313.632,478.31 z m 851.073,-332.122 817.372,2094.236 -19.515,7.617 -817.372,-2094.236 z m -131.184,51.194 817.372,2094.236 -19.514,7.616 -817.372,-2094.236 z m 196.235,-76.58 817.373,2094.238 -19.515,7.617 -817.373,-2094.238 z m -130.101,50.771 817.373,2094.238 -19.514,7.616 -817.373,-2094.238 z m 196.232,-76.579 817.373,2094.237 -19.515,7.617 L 2295.887,94.994 z m 65.052,-25.385 817.372,2094.236 -19.515,7.617 L 2360.939,69.609 z m -523.654,204.35 817.372,2094.236 -19.514,7.616 -817.372,-2094.236 z m -131.184,51.194 817.373,2094.237 -19.516,7.617 L 1706.1,325.153 z m 196.233,-76.579 817.373,2094.237 -19.514,7.616 -817.373,-2094.237 z m -130.098,50.771 817.372,2094.236 -19.514,7.616 -817.372,-2094.236 z m 196.234,-76.579 817.373,2094.237 -19.516,7.617 L 1968.469,222.766 z M 219.707,905.2 1037.08,2999.437 1017.564,3007.054 200.191,912.817 z M 88.523,956.392 905.895,3050.627 886.38,3058.244 69.008,964.009 z m 196.234,-76.576 817.372,2094.236 -19.514,7.616 L 265.243,887.432 z m -130.099,50.769 817.373,2094.237 -19.516,7.617 L 135.142,938.202 z m 196.233,-76.576 817.372,2094.236 -19.514,7.616 L 331.377,861.625 z m 65.05,-25.387 817.373,2094.237 -19.514,7.616 L 396.427,836.238 z m -523.652,204.35 817.373,2094.237 -19.516,7.617 -817.373,-2094.237 z m -131.185,51.196 817.372,2094.236 -19.514,7.616 -817.372,-2094.236 z m 196.235,-76.58 817.372,2094.236 -19.515,7.617 -817.372,-2094.236 z m -130.1,50.768 817.372,2094.235 -19.516,7.617 -817.372,-2094.235 z M 23.473,981.779 840.845,3076.015 821.331,3083.631 3.959,989.395 z m 851.072,-332.121 817.372,2094.236 -19.515,7.617 L 855.03,657.275 z m -131.185,51.192 817.372,2094.236 -19.515,7.617 L 723.845,708.467 z m 196.235,-76.577 817.372,2094.236 -19.514,7.616 L 920.081,631.889 z m -130.101,50.769 817.372,2094.236 -19.515,7.617 L 789.979,682.659 z m 196.235,-76.578 817.373,2094.238 -19.514,7.616 L 986.215,606.08 z m 65.05,-25.386 817.373,2094.237 -19.516,7.617 -817.373,-2094.237 z m -523.652,204.352 817.372,2094.234 -19.515,7.617 L 527.612,785.047 z m -131.186,51.192 817.373,2094.237 -19.514,7.616 L 396.427,836.238 z m 196.235,-76.578 817.372,2094.236 -19.515,7.617 L 592.661,759.661 z m -130.1,50.77 817.373,2094.238 -19.516,7.617 L 462.56,810.431 z m 196.234,-76.577 817.372,2094.236 -19.514,7.616 L 658.796,733.853 z"
         id="path16"
         inkscape:connector-curvature="0" />
    </g>
  </g>
  <g
     id="g18"
     transform="translate(-970.796,-757.145)">
    <path
       stroke-miterlimit="10"
       d="m 1094.805,1092.232 240.612,440.12 383.257,-219.547 166.033,311.101"
       id="path20"
       inkscape:connector-curvature="0"
       style="fill:none;stroke:#f7f4ec;stroke-width:20;stroke-miterlimit:10" />
    <g
       stroke-miterlimit="10"
       id="g22"
       style="fill:none;stroke:#f7f4ec;stroke-width:9;stroke-miterlimit:10">
      <path
         d="m 1604.94,985.727 -2.971,-5.213"
         id="path24"
         inkscape:connector-curvature="0" />
      <path
         d="m 1596.011,970.057 -56.604,-99.336"
         id="path26"
         inkscape:connector-curvature="0"
         style="stroke-dasharray:12.0349, 12.0349" />
      <path
         d="m 1536.428,865.492 -2.971,-5.213"
         id="path28"
         inkscape:connector-curvature="0" />
    </g>
  </g>
  <g
     id="g30"
     transform="translate(-970.796,-757.145)">
    <path
       d="m 1921.318,1134.395 c 0.266,0.461 0.324,0.971 0.174,1.529 l -7.459,27.839 12.075,3.235 c 1.061,0.284 1.858,0.887 2.391,1.809 0.532,0.922 0.655,1.914 0.372,2.976 -0.285,1.062 -0.888,1.859 -1.809,2.392 l -23.816,13.75 c -0.922,0.532 -1.914,0.655 -2.975,0.371 -1.062,-0.285 -1.86,-0.889 -2.392,-1.81 l -13.75,-23.815 c -0.532,-0.921 -0.655,-1.913 -0.371,-2.976 0.285,-1.062 0.887,-1.858 1.809,-2.392 0.921,-0.531 1.914,-0.654 2.975,-0.371 l 12.075,3.236 7.46,-27.84 c 0.149,-0.558 0.454,-0.971 0.915,-1.237 0.46,-0.266 0.971,-0.323 1.53,-0.174 l 9.559,2.562 c 0.558,0.15 0.971,0.455 1.237,0.916 z m 15,-69.902 13.75,23.815 c 0.533,0.922 0.656,1.914 0.372,2.976 -0.285,1.062 -0.888,1.859 -1.81,2.392 -0.922,0.531 -1.914,0.656 -2.975,0.371 l -12.075,-3.235 -7.459,27.839 c -0.15,0.559 -0.456,0.972 -0.916,1.237 -0.461,0.266 -0.972,0.324 -1.53,0.175 l -9.559,-2.562 c -0.559,-0.148 -0.971,-0.454 -1.237,-0.916 -0.266,-0.459 -0.325,-0.97 -0.175,-1.529 l 7.459,-27.839 -12.075,-3.235 c -1.062,-0.283 -1.858,-0.887 -2.391,-1.809 -0.532,-0.922 -0.656,-1.913 -0.371,-2.976 0.284,-1.062 0.887,-1.858 1.809,-2.392 l 23.815,-13.75 c 0.922,-0.531 1.914,-0.654 2.976,-0.371 1.063,0.285 1.86,0.888 2.392,1.809 z"
       id="path32"
       inkscape:connector-curvature="0"
       style="fill:#0a3e60" />
    <g
       id="g34"
       style="fill:#0a3e60">
      <path
         d="m 1382.101,1242.027 c 2.662,0.715 4.687,2.27 6.07,4.666 1.384,2.397 1.719,4.928 1.006,7.59 -0.714,2.664 -2.269,4.687 -4.666,6.071 -2.397,1.384 -4.927,1.72 -7.59,1.006 -2.663,-0.713 -4.687,-2.269 -6.07,-4.666 -1.384,-2.396 -1.719,-4.927 -1.005,-7.59 0.713,-2.663 2.269,-4.687 4.666,-6.071 2.396,-1.384 4.926,-1.719 7.589,-1.006 z m 40.01,26.309 c 0.595,1.031 0.74,2.117 0.436,3.254 -0.306,1.14 -0.974,2.006 -2.004,2.602 -1.314,0.759 -2.666,0.8 -4.053,0.123 l -16.388,-8.116 -1.739,1.005 2.947,5.104 18.723,10.376 c 0.456,0.253 0.816,0.61 1.084,1.075 0.387,0.67 0.477,1.392 0.27,2.163 -0.207,0.772 -0.646,1.353 -1.316,1.739 l -7.422,4.286 6.071,10.517 c 0.684,1.185 0.847,2.449 0.487,3.791 -0.359,1.341 -1.132,2.354 -2.317,3.039 l -6.186,3.571 c -1.186,0.685 -2.449,0.848 -3.791,0.488 -1.341,-0.36 -2.355,-1.133 -3.039,-2.317 l -6.072,-10.517 -7.423,4.286 c -0.67,0.387 -1.391,0.478 -2.164,0.271 -0.772,-0.207 -1.352,-0.646 -1.739,-1.315 -0.268,-0.465 -0.397,-0.957 -0.389,-1.478 l 0.375,-21.403 -2.946,-5.104 -1.74,1.004 -1.164,18.252 c -0.108,1.54 -0.818,2.688 -2.133,3.448 -1.031,0.595 -2.116,0.74 -3.254,0.435 -1.139,-0.305 -2.005,-0.972 -2.601,-2.003 -0.432,-0.748 -0.62,-1.55 -0.564,-2.407 l 1.326,-20.561 c 0.289,-3.844 1.761,-6.533 4.416,-8.066 l 14.847,-8.572 c 2.653,-1.532 5.718,-1.463 9.192,0.208 l 18.469,9.132 c 0.768,0.379 1.37,0.943 1.801,1.69 z m 49.051,-46.469 9.286,16.083 c 0.595,1.032 0.74,2.116 0.436,3.255 -0.305,1.139 -0.974,2.005 -2.004,2.6 -1.031,0.596 -2.116,0.742 -3.254,0.436 -1.139,-0.304 -2.005,-0.973 -2.601,-2.004 l -7.857,-13.608 -2.475,1.429 20.357,35.26 c 0.684,1.186 0.847,2.449 0.488,3.791 -0.359,1.342 -1.132,2.354 -2.317,3.039 -1.186,0.685 -2.449,0.848 -3.792,0.488 -1.341,-0.359 -2.354,-1.133 -3.039,-2.318 l -10.357,-17.938 -2.475,1.429 10.357,17.938 c 0.684,1.186 0.847,2.449 0.487,3.791 -0.36,1.342 -1.132,2.355 -2.317,3.04 -1.186,0.685 -2.45,0.847 -3.791,0.487 -1.342,-0.359 -2.355,-1.132 -3.039,-2.317 l -20.357,-35.26 -2.475,1.429 7.857,13.608 c 0.595,1.032 0.74,2.117 0.436,3.255 -0.305,1.139 -0.974,2.005 -2.004,2.601 -1.031,0.595 -2.116,0.74 -3.254,0.436 -1.139,-0.305 -2.005,-0.973 -2.601,-2.004 l -9.286,-16.084 c -1.19,-2.062 -1.48,-4.23 -0.871,-6.508 0.61,-2.276 1.945,-4.011 4.008,-5.201 l 24.743,-14.287 c 2.062,-1.19 4.231,-1.48 6.508,-0.871 2.279,0.608 4.012,1.943 5.203,4.005 z m -27.205,-15.556 c 2.662,0.714 4.687,2.269 6.07,4.666 1.384,2.396 1.719,4.927 1.006,7.59 -0.714,2.663 -2.269,4.686 -4.666,6.07 -2.397,1.384 -4.927,1.72 -7.59,1.006 -2.663,-0.713 -4.687,-2.269 -6.07,-4.666 -1.384,-2.396 -1.719,-4.926 -1.005,-7.59 0.713,-2.662 2.269,-4.687 4.666,-6.07 2.396,-1.385 4.926,-1.719 7.589,-1.006 z"
         id="path36"
         inkscape:connector-curvature="0" />
    </g>
    <path
       d="m 1698.932,787.96 c 4.574,1.226 8.043,3.887 10.409,7.985 2.366,4.099 2.937,8.434 1.711,13.008 -1.225,4.574 -3.887,8.044 -7.985,10.41 l -2.475,1.429 0.714,1.237 c 1.369,2.371 1.694,4.898 0.976,7.581 -0.719,2.684 -2.264,4.71 -4.635,6.079 l -27.217,15.716 c -2.372,1.37 -4.899,1.694 -7.583,0.976 -2.683,-0.719 -4.708,-2.264 -6.078,-4.635 L 1640.34,819.29 c -0.387,-0.67 -0.478,-1.391 -0.27,-2.164 0.207,-0.771 0.645,-1.352 1.315,-1.738 l 44.537,-25.717 c 4.1,-2.366 8.437,-2.937 13.01,-1.711 z m -44.202,79.11 69.28,-40.004 c 1.578,2.732 1.958,5.623 1.141,8.672 -0.817,3.05 -2.592,5.363 -5.324,6.94 l -49.485,28.574 c -2.732,1.578 -5.623,1.958 -8.672,1.141 -3.049,-0.816 -5.363,-2.59 -6.94,-5.323 z m 48.059,-60.33 c 0.61,-2.277 0.32,-4.446 -0.871,-6.508 -1.19,-2.062 -2.924,-3.397 -5.201,-4.008 -2.277,-0.609 -4.446,-0.32 -6.508,0.871 l -2.475,1.429 8.572,14.846 2.475,-1.429 c 2.063,-1.191 3.398,-2.924 4.008,-5.201 z m -377.222,523.805 c 3.155,5.464 3.915,11.246 2.282,17.344 -1.634,6.099 -5.183,10.726 -10.647,13.881 -5.464,3.154 -11.245,3.915 -17.343,2.281 -6.099,-1.633 -10.724,-5.182 -13.879,-10.646 -2.157,-3.737 -3.16,-7.885 -3.007,-12.44 0.02,-0.321 0.153,-1.952 0.396,-4.895 0.243,-2.94 0.421,-5.638 0.534,-8.093 0.113,-2.453 0.071,-5.487 -0.126,-9.103 -0.197,-3.616 -0.626,-6.829 -1.289,-9.644 -0.214,-0.907 -0.126,-1.766 0.266,-2.576 0.391,-0.81 0.921,-1.408 1.592,-1.796 0.67,-0.387 1.46,-0.551 2.371,-0.492 0.91,0.06 1.691,0.415 2.344,1.069 2.105,1.98 4.674,3.96 7.707,5.938 3.032,1.979 5.639,3.532 7.82,4.66 2.18,1.13 4.606,2.324 7.275,3.584 2.669,1.26 4.147,1.961 4.437,2.104 3.975,2.068 7.065,5.009 9.267,8.824 z m -16.937,16.378 c -0.536,-0.928 -1.307,-1.668 -2.313,-2.222 -0.041,-0.01 -0.408,-0.185 -1.102,-0.523 l -1.834,-0.899 c -0.529,-0.262 -1.179,-0.643 -1.948,-1.144 -0.771,-0.5 -1.417,-0.994 -1.939,-1.483 -0.342,-0.353 -0.732,-0.402 -1.169,-0.149 -0.439,0.253 -0.59,0.615 -0.455,1.087 0.162,0.698 0.267,1.505 0.315,2.421 0.048,0.918 0.053,1.671 0.016,2.26 l -0.138,2.038 c -0.054,0.771 -0.087,1.177 -0.098,1.216 -0.024,1.148 0.231,2.187 0.768,3.114 0.789,1.366 1.945,2.253 3.47,2.662 1.525,0.408 2.969,0.218 4.336,-0.571 1.366,-0.788 2.253,-1.945 2.662,-3.47 0.408,-1.526 0.217,-2.971 -0.571,-4.337 z"
       id="path38"
       inkscape:connector-curvature="0"
       style="fill:#0a3e60" />
  </g>
  <g
     id="g40"
     transform="translate(-970.796,-757.145)">
    <g
       id="g42"
       style="fill:#0a3e60">
      <path
         d="m 1370.578,1134.246 c 3.738,-2.158 7.27,-2.878 10.594,-2.158 3.324,0.719 5.973,2.787 7.946,6.204 2.285,3.958 2.83,7.765 1.637,11.419 -1.194,3.655 -4.074,6.801 -8.641,9.438 -4.145,2.393 -7.786,3.604 -10.925,3.636 l -3.12,-5.404 c 1.819,-0.013 3.739,-0.32 5.759,-0.923 2.02,-0.603 3.792,-1.344 5.313,-2.223 2.689,-1.553 4.389,-3.334 5.1,-5.347 0.71,-2.011 0.397,-4.175 -0.941,-6.493 -2.559,-4.432 -6.663,-5.016 -12.312,-1.755 -0.795,0.46 -1.73,1.106 -2.804,1.94 -1.074,0.835 -1.993,1.607 -2.755,2.318 l -3.572,-0.035 -9.038,-18.936 19.283,-11.133 3.062,5.303 -14.031,8.1 4.465,9.669 c 0.533,-0.443 1.188,-0.979 1.964,-1.608 0.776,-0.628 1.782,-1.299 3.016,-2.012 z m 44.885,-19.758 c 3.721,6.445 5.448,11.83 5.183,16.155 -0.265,4.326 -2.529,7.719 -6.792,10.18 -4.127,2.383 -8.189,2.574 -12.185,0.574 -3.997,-2 -7.797,-6.121 -11.4,-12.362 -3.779,-6.547 -5.529,-11.969 -5.249,-16.27 0.279,-4.3 2.542,-7.676 6.788,-10.127 4.145,-2.393 8.219,-2.58 12.226,-0.563 4.006,2.018 7.816,6.155 11.429,12.413 z m -19.156,11.061 c 2.92,5.058 5.525,8.368 7.815,9.933 2.29,1.565 4.577,1.688 6.86,0.369 2.284,-1.318 3.319,-3.382 3.107,-6.191 -0.213,-2.809 -1.759,-6.708 -4.64,-11.698 -2.871,-4.974 -5.478,-8.267 -7.819,-9.881 -2.341,-1.613 -4.654,-1.762 -6.938,-0.443 -2.283,1.318 -3.315,3.369 -3.096,6.151 0.219,2.782 1.791,6.702 4.711,11.76 z m 38.592,2.447 -3.689,-40.258 -19.283,11.133 -3.032,-5.252 25.651,-14.809 2.402,4.16 4.396,41.305 -6.445,3.721 z"
         id="path44"
         inkscape:connector-curvature="0" />
    </g>
    <g
       id="g46"
       style="fill:#0a3e60">
      <path
         d="m 1667.073,961.898 c 3.738,-2.158 7.27,-2.877 10.594,-2.159 3.325,0.72 5.973,2.788 7.946,6.204 2.285,3.958 2.831,7.765 1.637,11.42 -1.194,3.655 -4.074,6.801 -8.642,9.438 -4.145,2.393 -7.786,3.604 -10.925,3.635 l -3.12,-5.404 c 1.819,-0.013 3.739,-0.32 5.759,-0.923 2.02,-0.603 3.792,-1.344 5.314,-2.223 2.689,-1.553 4.389,-3.334 5.1,-5.346 0.711,-2.012 0.397,-4.176 -0.941,-6.493 -2.559,-4.432 -6.663,-5.017 -12.312,-1.755 -0.795,0.459 -1.729,1.105 -2.804,1.94 -1.074,0.834 -1.993,1.607 -2.755,2.318 l -3.572,-0.035 -9.038,-18.936 19.283,-11.133 3.062,5.303 -14.031,8.101 4.465,9.668 c 0.534,-0.443 1.188,-0.979 1.964,-1.607 0.776,-0.629 1.782,-1.3 3.016,-2.013 z m 44.886,-19.757 c 3.721,6.444 5.448,11.83 5.183,16.155 -0.265,4.325 -2.529,7.719 -6.792,10.18 -4.127,2.383 -8.189,2.574 -12.186,0.573 -3.997,-2 -7.796,-6.121 -11.4,-12.362 -3.779,-6.546 -5.529,-11.969 -5.249,-16.27 0.28,-4.299 2.542,-7.675 6.789,-10.127 4.144,-2.393 8.219,-2.58 12.225,-0.562 4.006,2.016 7.816,6.154 11.43,12.413 z m -19.157,11.059 c 2.92,5.058 5.525,8.369 7.815,9.933 2.291,1.565 4.577,1.688 6.861,0.369 2.283,-1.318 3.319,-3.382 3.106,-6.191 -0.213,-2.809 -1.759,-6.708 -4.64,-11.698 -2.871,-4.973 -5.478,-8.266 -7.819,-9.88 -2.341,-1.614 -4.654,-1.762 -6.937,-0.443 -2.284,1.318 -3.315,3.369 -3.096,6.152 0.221,2.781 1.791,6.701 4.71,11.758 z m 25.22,-39.932 c 3.518,-2.031 6.767,-2.83 9.746,-2.396 2.979,0.434 5.25,2.004 6.813,4.71 2.197,3.806 1.662,8.152 -1.606,13.039 3.749,-0.225 6.7,0.112 8.855,1.011 2.154,0.899 3.802,2.338 4.945,4.316 1.768,3.062 2.058,6.164 0.874,9.307 -1.185,3.143 -3.698,5.822 -7.537,8.039 -4.026,2.324 -7.645,3.263 -10.856,2.817 -3.212,-0.446 -5.731,-2.25 -7.557,-5.414 -1.191,-2.063 -1.684,-4.254 -1.478,-6.572 0.206,-2.318 1.258,-4.882 3.155,-7.691 -3.048,-0.044 -5.488,-0.541 -7.322,-1.49 -1.834,-0.949 -3.292,-2.362 -4.376,-4.239 -1.553,-2.689 -1.734,-5.444 -0.542,-8.263 1.191,-2.82 3.486,-5.212 6.886,-7.174 z m 2.601,4.622 c -1.691,0.977 -2.812,2.182 -3.36,3.614 -0.548,1.433 -0.407,2.868 0.423,4.306 0.508,0.88 1.148,1.559 1.92,2.038 0.772,0.479 1.677,0.796 2.715,0.953 1.038,0.157 2.632,0.145 4.782,-0.038 1.512,-2.068 2.401,-3.839 2.667,-5.312 0.266,-1.473 0.018,-2.869 -0.744,-4.188 -0.83,-1.438 -2.007,-2.274 -3.53,-2.511 -1.524,-0.238 -3.148,0.142 -4.873,1.138 z m 6.666,27.307 c 1.016,1.76 2.422,2.769 4.218,3.028 1.795,0.26 3.751,-0.221 5.866,-1.441 2.182,-1.26 3.587,-2.742 4.215,-4.446 0.628,-1.705 0.445,-3.42 -0.551,-5.146 -0.791,-1.37 -2.072,-2.299 -3.843,-2.788 -1.771,-0.488 -4.067,-0.561 -6.891,-0.216 l -0.926,0.095 c -1.667,2.27 -2.651,4.276 -2.953,6.018 -0.302,1.742 -0.014,3.374 0.865,4.896 z"
         id="path48"
         inkscape:connector-curvature="0" />
    </g>
  </g>
</svg>
