<?xml version="1.0" encoding="UTF-8" standalone="no"?>
<svg
   xmlns:dc="http://purl.org/dc/elements/1.1/"
   xmlns:cc="http://creativecommons.org/ns#"
   xmlns:rdf="http://www.w3.org/1999/02/22-rdf-syntax-ns#"
   xmlns:svg="http://www.w3.org/2000/svg"
   xmlns="http://www.w3.org/2000/svg"
   xmlns:xlink="http://www.w3.org/1999/xlink"
   xmlns:sodipodi="http://sodipodi.sourceforge.net/DTD/sodipodi-0.dtd"
   xmlns:inkscape="http://www.inkscape.org/namespaces/inkscape"
   viewBox="0 0 1795.003 1246.082"
   id="svg2"
   version="1.1"
   inkscape:version="0.48.2 r9819"
   width="100%"
   height="100%"
   sodipodi:docname="floor_7.svg">
  <metadata
     id="metadata94">
    <rdf:RDF>
      <cc:Work
         rdf:about="">
        <dc:format>image/svg+xml</dc:format>
        <dc:type
           rdf:resource="http://purl.org/dc/dcmitype/StillImage" />
      </cc:Work>
    </rdf:RDF>
  </metadata>
  <defs
     id="defs92" />
  <sodipodi:namedview
     pagecolor="#ffffff"
     bordercolor="#666666"
     borderopacity="1"
     objecttolerance="10"
     gridtolerance="10"
     guidetolerance="10"
     inkscape:pageopacity="0"
     inkscape:pageshadow="2"
     inkscape:window-width="640"
     inkscape:window-height="480"
     id="namedview90"
     showgrid="false"
     fit-margin-top="0"
     fit-margin-left="0"
     fit-margin-right="0"
     fit-margin-bottom="0"
     inkscape:zoom="0.092637576"
     inkscape:cx="929.08402"
     inkscape:cy="811.26845"
     inkscape:window-x="0"
     inkscape:window-y="0"
     inkscape:window-maximized="0"
     inkscape:current-layer="svg2" />
  <path
     d="m 428.517,886.545 107.817,195.205 489.372,-277.347 -154.826,-257.84 231,-140.904 168,-36.912 h 274.426 L 1545,307.083 h 211 l 0,-64 v -28 h 39 v -45 h -39 V 32.082998 h -51 V 243.521 l -298.001,2.562 -1.002,62 h -137 l 0,-124 -234.002,67 L 919.327,320.415 740.296,-2.0650498e-6 128.705,343.743 z"
     id="path4"
     inkscape:connector-curvature="0"
     style="fill:#f9cc0f" />
  <g
     id="g6"
     transform="translate(-970.793,-757.146)">
    <path
       d="m 2241.309,1010.245 c 0.266,0.461 0.324,0.972 0.174,1.529 l -7.459,27.839 12.074,3.235 c 1.062,0.284 1.859,0.888 2.392,1.81 0.532,0.921 0.655,1.913 0.371,2.975 -0.285,1.062 -0.888,1.859 -1.81,2.392 l -23.815,13.75 c -0.922,0.532 -1.914,0.655 -2.976,0.371 -1.062,-0.284 -1.859,-0.888 -2.391,-1.81 l -13.75,-23.815 c -0.532,-0.921 -0.656,-1.913 -0.371,-2.976 0.284,-1.061 0.887,-1.858 1.809,-2.391 0.922,-0.533 1.913,-0.655 2.976,-0.371 l 12.075,3.235 7.459,-27.839 c 0.149,-0.559 0.455,-0.972 0.916,-1.237 0.459,-0.266 0.971,-0.324 1.529,-0.175 l 9.559,2.562 c 0.558,0.15 0.972,0.456 1.238,0.916 z m 15,-69.901 13.75,23.816 c 0.532,0.922 0.656,1.914 0.371,2.975 -0.284,1.062 -0.888,1.859 -1.81,2.392 -0.922,0.533 -1.913,0.656 -2.976,0.371 l -12.074,-3.235 -7.459,27.839 c -0.15,0.56 -0.456,0.972 -0.916,1.237 -0.461,0.267 -0.971,0.325 -1.529,0.175 l -9.559,-2.562 c -0.561,-0.149 -0.973,-0.455 -1.238,-0.916 -0.266,-0.46 -0.324,-0.97 -0.174,-1.529 l 7.459,-27.839 -12.075,-3.236 c -1.062,-0.284 -1.858,-0.887 -2.391,-1.809 -0.532,-0.921 -0.655,-1.913 -0.372,-2.975 0.285,-1.061 0.889,-1.859 1.81,-2.391 l 23.815,-13.75 c 0.922,-0.532 1.914,-0.655 2.977,-0.371 1.061,0.284 1.858,0.887 2.391,1.808 z"
       id="path8"
       inkscape:connector-curvature="0"
       style="fill:#0a3e60" />
    <g
       id="g10"
       style="fill:#0a3e60">
      <path
         d="m 1429.193,1259.574 c 2.662,0.715 4.687,2.27 6.07,4.666 1.384,2.397 1.719,4.928 1.006,7.59 -0.714,2.664 -2.27,4.687 -4.666,6.071 -2.396,1.384 -4.928,1.72 -7.59,1.006 -2.662,-0.713 -4.687,-2.269 -6.07,-4.666 -1.384,-2.396 -1.719,-4.927 -1.006,-7.59 0.713,-2.663 2.27,-4.687 4.666,-6.071 2.397,-1.384 4.927,-1.719 7.59,-1.006 z m 40.01,26.309 c 0.596,1.031 0.74,2.117 0.436,3.254 -0.305,1.14 -0.973,2.006 -2.004,2.602 -1.314,0.759 -2.666,0.8 -4.053,0.123 l -16.388,-8.116 -1.739,1.005 2.947,5.104 18.723,10.376 c 0.455,0.253 0.816,0.61 1.084,1.075 0.387,0.67 0.477,1.392 0.27,2.163 -0.207,0.772 -0.646,1.353 -1.315,1.739 l -7.422,4.286 6.071,10.517 c 0.684,1.185 0.847,2.449 0.486,3.791 -0.359,1.341 -1.132,2.354 -2.316,3.039 l -6.186,3.571 c -1.186,0.685 -2.449,0.848 -3.791,0.488 -1.342,-0.36 -2.355,-1.133 -3.039,-2.317 l -6.072,-10.517 -7.423,4.286 c -0.67,0.387 -1.392,0.478 -2.163,0.271 -0.772,-0.207 -1.352,-0.646 -1.739,-1.315 -0.269,-0.465 -0.397,-0.957 -0.39,-1.478 l 0.376,-21.403 -2.946,-5.104 -1.74,1.004 -1.164,18.252 c -0.107,1.54 -0.818,2.688 -2.133,3.448 -1.031,0.595 -2.116,0.74 -3.254,0.435 -1.139,-0.305 -2.005,-0.972 -2.601,-2.003 -0.432,-0.748 -0.62,-1.55 -0.564,-2.407 l 1.325,-20.561 c 0.289,-3.844 1.762,-6.533 4.416,-8.066 l 14.847,-8.572 c 2.653,-1.532 5.718,-1.463 9.192,0.208 l 18.469,9.132 c 0.768,0.379 1.369,0.943 1.8,1.69 z m 49.051,-46.469 9.286,16.083 c 0.595,1.032 0.74,2.116 0.436,3.255 -0.306,1.139 -0.974,2.005 -2.004,2.6 -1.031,0.596 -2.116,0.742 -3.254,0.436 -1.139,-0.304 -2.005,-0.973 -2.601,-2.004 l -7.857,-13.608 -2.475,1.429 20.357,35.26 c 0.684,1.186 0.847,2.449 0.488,3.791 -0.359,1.342 -1.133,2.354 -2.318,3.039 -1.185,0.685 -2.449,0.848 -3.791,0.488 -1.341,-0.359 -2.354,-1.133 -3.039,-2.318 l -10.356,-17.938 -2.475,1.429 10.357,17.938 c 0.685,1.186 0.847,2.449 0.487,3.791 -0.36,1.342 -1.133,2.355 -2.317,3.04 -1.187,0.685 -2.45,0.847 -3.791,0.487 -1.342,-0.359 -2.354,-1.132 -3.039,-2.317 l -20.357,-35.26 -2.475,1.429 7.857,13.608 c 0.595,1.032 0.74,2.117 0.436,3.255 -0.306,1.139 -0.974,2.005 -2.004,2.601 -1.031,0.595 -2.116,0.74 -3.254,0.436 -1.139,-0.305 -2.005,-0.973 -2.601,-2.004 l -9.285,-16.084 c -1.191,-2.062 -1.48,-4.23 -0.871,-6.508 0.609,-2.276 1.945,-4.011 4.008,-5.201 l 24.743,-14.287 c 2.062,-1.19 4.231,-1.48 6.508,-0.871 2.277,0.608 4.011,1.943 5.201,4.005 z m -27.204,-15.557 c 2.662,0.714 4.687,2.269 6.07,4.666 1.384,2.396 1.719,4.927 1.006,7.59 -0.714,2.663 -2.269,4.686 -4.666,6.07 -2.397,1.384 -4.927,1.72 -7.59,1.006 -2.663,-0.713 -4.687,-2.269 -6.07,-4.666 -1.384,-2.396 -1.719,-4.926 -1.005,-7.59 0.713,-2.662 2.268,-4.687 4.665,-6.07 2.397,-1.384 4.927,-1.718 7.59,-1.006 z"
         id="path12"
         inkscape:connector-curvature="0" />
    </g>
    <path
       d="m 1362.524,1354.115 c 3.155,5.464 3.915,11.246 2.282,17.344 -1.635,6.099 -5.184,10.726 -10.648,13.881 -5.463,3.154 -11.244,3.915 -17.343,2.281 -6.099,-1.633 -10.724,-5.182 -13.88,-10.646 -2.156,-3.737 -3.159,-7.885 -3.006,-12.44 0.02,-0.321 0.152,-1.952 0.396,-4.895 0.242,-2.94 0.421,-5.638 0.533,-8.093 0.113,-2.453 0.07,-5.487 -0.127,-9.103 -0.197,-3.616 -0.626,-6.829 -1.289,-9.644 -0.213,-0.907 -0.125,-1.766 0.267,-2.576 0.391,-0.81 0.921,-1.408 1.592,-1.796 0.67,-0.387 1.46,-0.551 2.37,-0.492 0.91,0.06 1.691,0.415 2.345,1.069 2.105,1.98 4.675,3.96 7.706,5.938 3.033,1.979 5.639,3.532 7.82,4.66 2.181,1.13 4.606,2.324 7.275,3.584 2.669,1.26 4.147,1.961 4.437,2.104 3.978,2.068 7.068,5.01 9.27,8.824 z m -16.936,16.378 c -0.536,-0.928 -1.308,-1.668 -2.313,-2.222 -0.041,-0.01 -0.408,-0.185 -1.102,-0.523 l -1.835,-0.899 c -0.529,-0.262 -1.178,-0.643 -1.947,-1.144 -0.771,-0.5 -1.418,-0.994 -1.939,-1.483 -0.342,-0.353 -0.732,-0.402 -1.17,-0.149 -0.438,0.253 -0.59,0.615 -0.454,1.087 0.161,0.698 0.267,1.505 0.315,2.421 0.048,0.918 0.053,1.671 0.016,2.26 l -0.138,2.038 c -0.054,0.771 -0.087,1.177 -0.098,1.216 -0.024,1.148 0.231,2.187 0.768,3.114 0.789,1.366 1.945,2.253 3.47,2.662 1.525,0.408 2.969,0.218 4.336,-0.571 1.365,-0.788 2.254,-1.945 2.662,-3.47 0.408,-1.525 0.217,-2.971 -0.571,-4.337 z m 554.09,-264.909 c 7.922,4.525 14.216,10.828 18.881,18.908 4.665,8.081 6.977,16.684 6.934,25.805 -0.042,9.123 -2.326,17.646 -6.851,25.567 -4.525,7.922 -10.827,14.216 -18.907,18.881 -8.081,4.665 -16.684,6.977 -25.806,6.935 -9.122,-0.042 -17.646,-2.326 -25.567,-6.852 -7.922,-4.523 -14.215,-10.826 -18.881,-18.907 -4.665,-8.08 -6.977,-16.682 -6.934,-25.806 0.042,-9.121 2.326,-17.645 6.851,-25.566 4.525,-7.921 10.827,-14.216 18.908,-18.881 8.08,-4.665 16.682,-6.976 25.805,-6.935 9.121,0.044 17.645,2.328 25.567,6.851 z m -32.164,16.211 -5.356,-9.278 c -0.312,-0.541 -0.743,-0.886 -1.292,-1.032 -0.549,-0.147 -1.094,-0.064 -1.636,0.248 l -11.134,6.428 c -0.543,0.313 -0.886,0.744 -1.033,1.293 -0.146,0.549 -0.064,1.094 0.248,1.635 l 5.357,9.279 c 0.312,0.542 0.743,0.885 1.292,1.032 0.549,0.147 1.093,0.064 1.636,-0.248 l 11.134,-6.429 c 0.542,-0.312 0.886,-0.743 1.033,-1.292 0.146,-0.549 0.064,-1.093 -0.249,-1.636 z m 37.424,47.677 -5.357,-9.278 c -0.312,-0.541 -0.742,-0.886 -1.292,-1.033 -0.549,-0.146 -1.095,-0.064 -1.636,0.248 l -5.566,3.215 -17.144,-29.693 c -0.312,-0.54 -0.743,-0.885 -1.291,-1.032 -0.55,-0.146 -1.095,-0.063 -1.636,0.249 l -18.558,10.714 c -0.542,0.312 -0.886,0.743 -1.033,1.292 -0.146,0.549 -0.063,1.094 0.249,1.635 l 5.357,9.279 c 0.312,0.542 0.742,0.885 1.291,1.032 0.549,0.147 1.094,0.065 1.636,-0.248 l 5.567,-3.214 10.714,18.558 -5.567,3.214 c -0.542,0.312 -0.885,0.743 -1.033,1.292 -0.146,0.549 -0.062,1.095 0.249,1.636 l 5.357,9.278 c 0.312,0.542 0.743,0.886 1.292,1.033 0.549,0.146 1.093,0.064 1.635,-0.249 l 25.98,-15 c 0.541,-0.312 0.886,-0.742 1.033,-1.291 0.148,-0.551 0.065,-1.095 -0.247,-1.637 z"
       id="path14"
       inkscape:connector-curvature="0"
       style="fill:#0a3e60" />
  </g>
  <g
     id="g16"
     transform="translate(-970.793,-757.146)">
    <defs
       id="defs18">
      <path
         id="a"
         d="m 1099.503,1100.889 -128.71,72.34 152.958,829.999 261.042,-95 122.334,-69.332 z"
         inkscape:connector-curvature="0" />
    </defs>
    <clipPath
       id="b">
      <use
         xlink:href="#a"
         overflow="visible"
         id="use22"
         style="overflow:visible"
         x="0"
         y="0"
         width="3799.7539"
         height="2383.9189" />
    </clipPath>
    <g
       clip-path="url(#b)"
       id="g24"
       style="fill:#f9cc0f">
      <path
         d="m 1529.381,394.114 817.372,2094.235 -19.514,7.616 L 1509.867,401.73 z m -131.185,51.192 817.371,2094.233 -19.517,7.617 -817.371,-2094.233 z m 196.235,-76.578 817.372,2094.234 -19.514,7.616 -817.372,-2094.234 z m -130.101,50.771 817.372,2094.235 -19.516,7.617 -817.372,-2094.235 z m 196.234,-76.578 817.372,2094.235 -19.513,7.616 -817.372,-2094.235 z m 65.051,-25.385 817.373,2094.237 -19.516,7.617 -817.373,-2094.237 z m -523.653,204.35 817.371,2094.232 -19.514,7.616 -817.371,-2094.232 z m -131.187,51.191 817.372,2094.235 -19.514,7.616 -817.372,-2094.235 z m 196.236,-76.576 817.371,2094.232 -19.513,7.616 -817.371,-2094.232 z m -130.099,50.768 817.371,2094.233 -19.516,7.617 -817.371,-2094.233 z m 196.234,-76.576 817.371,2094.232 -19.515,7.617 L 1313.631,478.31 z m 851.072,-332.121 817.372,2094.236 -19.513,7.616 -817.372,-2094.236 z m -131.183,51.192 817.372,2094.234 -19.515,7.617 L 2033.52,197.381 z m 196.231,-76.578 817.372,2094.236 -19.514,7.616 -817.372,-2094.236 z m -130.096,50.771 817.372,2094.235 -19.513,7.616 -817.372,-2094.235 z m 196.23,-76.58 817.372,2094.235 -19.515,7.617 L 2295.885,94.994 z m 65.053,-25.385 817.372,2094.235 -19.516,7.617 L 2360.937,69.609 z m -523.655,204.35 817.372,2094.236 -19.513,7.616 -817.372,-2094.236 z m -131.183,51.194 817.373,2094.237 -19.516,7.617 -817.373,-2094.237 z m 196.233,-76.578 817.372,2094.235 -19.514,7.616 -817.372,-2094.235 z m -130.098,50.77 817.372,2094.234 -19.515,7.617 -817.372,-2094.234 z m 196.233,-76.579 817.372,2094.235 -19.516,7.617 L 1968.467,222.766 z M 219.707,905.2 l 817.372,2094.234 -19.516,7.617 L 200.191,912.817 z M 88.521,956.395 905.893,3050.629 886.379,3058.245 69.007,964.011 z m 196.236,-76.58 817.372,2094.234 -19.515,7.617 L 265.242,887.432 z m -130.1,50.769 817.372,2094.235 -19.517,7.617 L 135.14,938.201 z m 196.231,-76.577 817.373,2094.237 -19.514,7.616 L 331.374,861.623 z m 65.05,-25.387 817.373,2094.237 -19.514,7.616 L 396.424,836.236 z m -523.65,204.353 817.373,2094.237 -19.516,7.617 -817.373,-2094.237 z m -131.185,51.194 817.372,2094.234 -19.515,7.617 -817.372,-2094.234 z m 196.235,-76.577 817.371,2094.233 -19.515,7.617 -817.371,-2094.233 z m -130.102,50.768 817.372,2094.235 -19.514,7.616 -817.372,-2094.235 z M 23.47,981.781 840.841,3076.014 821.328,3083.63 3.957,989.397 z m 851.072,-332.125 817.372,2094.235 -19.515,7.617 L 855.027,657.273 z m -131.184,51.193 817.372,2094.235 -19.516,7.617 L 723.842,708.466 z m 196.232,-76.579 817.372,2094.235 -19.515,7.617 L 920.075,631.887 z m -130.098,50.772 817.373,2094.237 -19.514,7.616 L 789.978,682.658 z m 196.232,-76.58 817.372,2094.236 -19.514,7.616 L 986.21,606.078 z m 65.051,-25.385 817.372,2094.235 -19.514,7.616 -817.372,-2094.235 z m -523.653,204.35 817.372,2094.235 -19.515,7.617 L 527.607,785.044 z m -131.184,51.193 817.373,2094.237 -19.514,7.616 L 396.424,836.236 z m 196.235,-76.578 817.373,2094.237 -19.514,7.616 L 592.659,759.658 z m -130.1,50.768 817.373,2094.238 -19.517,7.617 L 462.556,810.427 z m 196.233,-76.574 817.372,2094.235 -19.514,7.616 L 658.792,733.852 z m 851.075,-332.122 817.372,2094.235 -19.514,7.616 L 1509.867,401.73 z m -131.185,51.192 817.371,2094.233 -19.517,7.617 -817.371,-2094.233 z m 196.235,-76.578 817.372,2094.234 -19.514,7.616 -817.372,-2094.234 z m -130.101,50.771 817.372,2094.235 -19.516,7.617 -817.372,-2094.235 z m 196.234,-76.578 817.372,2094.235 -19.513,7.616 -817.372,-2094.235 z m 65.051,-25.385 817.373,2094.237 -19.516,7.617 -817.373,-2094.237 z m -523.653,204.35 817.371,2094.232 -19.514,7.616 -817.371,-2094.232 z m -131.187,51.191 817.372,2094.235 -19.514,7.616 -817.372,-2094.235 z m 196.236,-76.576 817.371,2094.232 -19.513,7.616 -817.371,-2094.232 z m -130.099,50.768 817.371,2094.233 -19.516,7.617 -817.371,-2094.233 z m 196.234,-76.576 817.371,2094.232 -19.515,7.617 L 1313.631,478.31 z m 851.072,-332.121 817.372,2094.236 -19.513,7.616 -817.372,-2094.236 z m -131.183,51.192 817.372,2094.234 -19.515,7.617 L 2033.52,197.381 z m 196.231,-76.578 817.372,2094.236 -19.514,7.616 -817.372,-2094.236 z m -130.096,50.771 817.372,2094.235 -19.513,7.616 -817.372,-2094.235 z m 196.23,-76.58 817.372,2094.235 -19.515,7.617 L 2295.885,94.994 z m 65.053,-25.385 817.372,2094.235 -19.516,7.617 L 2360.937,69.609 z m -523.655,204.35 817.372,2094.236 -19.513,7.616 -817.372,-2094.236 z m -131.183,51.194 817.373,2094.237 -19.516,7.617 -817.373,-2094.237 z m 196.233,-76.578 817.372,2094.235 -19.514,7.616 -817.372,-2094.235 z m -130.098,50.77 817.372,2094.234 -19.515,7.617 -817.372,-2094.234 z m 196.233,-76.579 817.372,2094.235 -19.516,7.617 L 1968.467,222.766 z M 219.707,905.2 l 817.372,2094.234 -19.516,7.617 L 200.191,912.817 z M 88.521,956.395 905.893,3050.629 886.379,3058.245 69.007,964.011 z m 196.236,-76.58 817.372,2094.234 -19.515,7.617 L 265.242,887.432 z m -130.1,50.769 817.372,2094.235 -19.517,7.617 L 135.14,938.201 z m 196.231,-76.577 817.373,2094.237 -19.514,7.616 L 331.374,861.623 z m 65.05,-25.387 817.373,2094.237 -19.514,7.616 L 396.424,836.236 z m -523.65,204.353 817.373,2094.237 -19.516,7.617 -817.373,-2094.237 z m -131.185,51.194 817.372,2094.234 -19.515,7.617 -817.372,-2094.234 z m 196.235,-76.577 817.371,2094.233 -19.515,7.617 -817.371,-2094.233 z m -130.102,50.768 817.372,2094.235 -19.514,7.616 -817.372,-2094.235 z M 23.47,981.781 840.841,3076.014 821.328,3083.63 3.957,989.397 z m 851.072,-332.125 817.372,2094.235 -19.515,7.617 L 855.027,657.273 z m -131.184,51.193 817.372,2094.235 -19.516,7.617 L 723.842,708.466 z m 196.232,-76.579 817.372,2094.235 -19.515,7.617 L 920.075,631.887 z m -130.098,50.772 817.373,2094.237 -19.514,7.616 L 789.978,682.658 z m 196.232,-76.58 817.372,2094.236 -19.514,7.616 L 986.21,606.078 z m 65.051,-25.385 817.372,2094.235 -19.514,7.616 -817.372,-2094.235 z m -523.653,204.35 817.372,2094.235 -19.515,7.617 L 527.607,785.044 z m -131.184,51.193 817.373,2094.237 -19.514,7.616 L 396.424,836.236 z m 196.235,-76.578 817.373,2094.237 -19.514,7.616 L 592.659,759.658 z m -130.1,50.768 817.373,2094.238 -19.517,7.617 L 462.556,810.427 z m 196.233,-76.574 817.372,2094.235 -19.514,7.616 L 658.792,733.852 z"
         id="path26"
         inkscape:connector-curvature="0" />
    </g>
    <defs
       id="defs28">
      <path
         id="c"
         d="m 2515.099,1125.893 h -274.426 l -168,36.912 -228.763,141.838 143.763,255.599 249.584,-136.293 278.536,-7.609 z"
         inkscape:connector-curvature="0" />
    </defs>
    <clipPath
       id="d">
      <use
         xlink:href="#c"
         overflow="visible"
         id="use32"
         style="overflow:visible"
         x="0"
         y="0"
         width="3799.7539"
         height="2383.9189" />
    </clipPath>
    <g
       clip-path="url(#d)"
       id="g34"
       style="fill:#f9cc0f">
      <path
         d="m 2566.751,-31.865 817.372,2094.236 -19.514,7.616 -817.372,-2094.236 z m -131.184,51.193 817.372,2094.235 -19.516,7.617 L 2416.051,26.945 z m 196.236,-76.578 817.372,2094.236 -19.515,7.617 -817.372,-2094.236 z m -130.103,50.77 817.373,2094.237 -19.516,7.617 L 2482.184,1.137 z m 196.232,-76.578 817.373,2094.237 -19.514,7.616 -817.373,-2094.237 z m 65.051,-25.385 817.373,2094.237 -19.515,7.617 -817.373,-2094.237 z m -523.65,204.351 817.372,2094.234 -19.514,7.616 -817.372,-2094.234 z m -131.189,51.192 817.373,2094.237 -19.514,7.616 L 2088.63,154.716 z m 196.238,-76.578 817.372,2094.234 -19.514,7.616 L 2284.868,78.138 z m -130.099,50.768 817.372,2094.235 -19.517,7.617 -817.372,-2094.235 z m 196.234,-76.576 817.372,2094.234 -19.515,7.617 L 2351.002,52.331 z m 851.073,-332.122 817.373,2094.238 -19.514,7.616 -817.373,-2094.238 z m -131.183,51.194 817.372,2094.236 -19.516,7.617 -817.372,-2094.236 z m 196.231,-76.579 817.373,2094.237 -19.515,7.617 -817.373,-2094.237 z m -130.1,50.771 817.373,2094.238 -19.514,7.616 -817.373,-2094.238 z m 196.231,-76.58 817.372,2094.236 -19.514,7.616 -817.372,-2094.236 z m 65.053,-25.385 817.372,2094.235 -19.516,7.617 -817.372,-2094.235 z m -523.652,204.351 817.372,2094.236 -19.512,7.616 -817.372,-2094.236 z m -131.187,51.193 817.373,2094.237 -19.515,7.617 -817.373,-2094.237 z m 196.233,-76.577 817.373,2094.237 -19.513,7.616 -817.373,-2094.237 z m -130.095,50.769 817.372,2094.234 -19.515,7.617 -817.372,-2094.234 z m 196.233,-76.578 817.372,2094.236 -19.516,7.617 -817.372,-2094.236 z M 2054.9,2580.933 1237.594,486.774 l 19.517,-7.617 817.301,2094.16 z m -929.01,-2050.519 817.371,2094.233 -19.514,7.616 L 1106.376,538.03 z m 196.236,-76.578 817.371,2094.232 -19.515,7.617 -817.371,-2094.232 z m -130.1,50.77 817.371,2094.233 -19.516,7.617 L 1172.51,512.223 z m 196.235,-76.577 817.372,2094.234 -19.514,7.616 -817.372,-2094.234 z m 65.048,-25.387 817.372,2094.235 -19.514,7.616 -817.372,-2094.235 z m -523.654,204.349 817.372,2094.235 -19.516,7.617 L 910.139,614.608 z m -131.184,51.194 817.372,2094.235 -19.516,7.617 L 778.955,665.802 z m 196.234,-76.577 817.371,2094.233 -19.515,7.617 L 975.19,589.225 z m -130.101,50.768 817.372,2094.236 -19.515,7.617 L 845.089,639.993 z m 196.238,-76.575 817.371,2094.232 -19.514,7.616 -817.371,-2094.232 z m 851.07,-332.122 817.372,2094.235 -19.516,7.617 -817.372,-2094.235 z m -131.183,51.193 817.372,2094.234 -19.515,7.617 -817.372,-2094.234 z m 196.236,-76.578 817.372,2094.236 -19.514,7.616 L 1957.451,205.91 z m -130.102,50.769 817.372,2094.236 -19.514,7.616 -817.372,-2094.236 z m 196.233,-76.577 817.372,2094.236 -19.513,7.616 -817.372,-2094.236 z m 65.048,-25.386 817.373,2094.237 -19.514,7.616 L 2088.63,154.716 z m -523.649,204.351 817.371,2094.232 -19.514,7.616 -817.371,-2094.232 z m -131.186,51.191 817.372,2094.235 -19.514,7.616 -817.372,-2094.235 z m 196.234,-76.578 817.373,2094.237 -19.516,7.617 -817.373,-2094.237 z m -130.099,50.769 817.372,2094.235 -19.516,7.617 L 1499.928,384.45 z m 196.235,-76.575 817.372,2094.235 -19.516,7.617 -817.372,-2094.235 z m 851.072,-332.123 817.372,2094.236 -19.514,7.616 -817.372,-2094.236 z m -131.184,51.193 817.372,2094.235 -19.516,7.617 L 2416.051,26.945 z m 196.236,-76.578 817.372,2094.236 -19.515,7.617 -817.372,-2094.236 z m -130.103,50.77 817.373,2094.237 -19.516,7.617 L 2482.184,1.137 z m 196.232,-76.578 817.373,2094.237 -19.514,7.616 -817.373,-2094.237 z m 65.051,-25.385 817.373,2094.237 -19.515,7.617 -817.373,-2094.237 z m -523.65,204.351 817.372,2094.234 -19.514,7.616 -817.372,-2094.234 z m -131.189,51.192 817.373,2094.237 -19.514,7.616 L 2088.63,154.716 z m 196.238,-76.578 817.372,2094.234 -19.514,7.616 L 2284.868,78.138 z m -130.099,50.768 817.372,2094.235 -19.517,7.617 -817.372,-2094.235 z m 196.234,-76.576 817.372,2094.234 -19.515,7.617 L 2351.002,52.331 z m 851.073,-332.122 817.373,2094.238 -19.514,7.616 -817.373,-2094.238 z m -131.183,51.194 817.372,2094.236 -19.516,7.617 -817.372,-2094.236 z m 196.231,-76.579 817.373,2094.237 -19.515,7.617 -817.373,-2094.237 z m -130.1,50.771 817.373,2094.238 -19.514,7.616 -817.373,-2094.238 z m 196.231,-76.58 817.372,2094.236 -19.514,7.616 -817.372,-2094.236 z m 65.053,-25.385 817.372,2094.235 -19.516,7.617 -817.372,-2094.235 z m -523.652,204.351 817.372,2094.236 -19.512,7.616 -817.372,-2094.236 z m -131.187,51.193 817.373,2094.237 -19.515,7.617 -817.373,-2094.237 z m 196.233,-76.577 817.373,2094.237 -19.513,7.616 -817.373,-2094.237 z m -130.095,50.769 817.372,2094.234 -19.515,7.617 -817.372,-2094.234 z m 196.233,-76.578 817.372,2094.236 -19.516,7.617 -817.372,-2094.236 z M 2054.9,2580.933 1237.594,486.774 l 19.517,-7.617 817.301,2094.16 z m -929.01,-2050.519 817.371,2094.233 -19.514,7.616 L 1106.376,538.03 z m 196.236,-76.578 817.371,2094.232 -19.515,7.617 -817.371,-2094.232 z m -130.1,50.77 817.371,2094.233 -19.516,7.617 L 1172.51,512.223 z m 196.235,-76.577 817.372,2094.234 -19.514,7.616 -817.372,-2094.234 z m 65.048,-25.387 817.372,2094.235 -19.514,7.616 -817.372,-2094.235 z m -523.654,204.349 817.372,2094.235 -19.516,7.617 L 910.139,614.608 z m -131.184,51.194 817.372,2094.235 -19.516,7.617 L 778.955,665.802 z m 196.234,-76.577 817.371,2094.233 -19.515,7.617 L 975.19,589.225 z m -130.101,50.768 817.372,2094.236 -19.515,7.617 L 845.089,639.993 z m 196.238,-76.575 817.371,2094.232 -19.514,7.616 -817.371,-2094.232 z m 851.07,-332.122 817.372,2094.235 -19.516,7.617 -817.372,-2094.235 z m -131.183,51.193 817.372,2094.234 -19.515,7.617 -817.372,-2094.234 z m 196.236,-76.578 817.372,2094.236 -19.514,7.616 L 1957.451,205.91 z m -130.102,50.769 817.372,2094.236 -19.514,7.616 -817.372,-2094.236 z m 196.233,-76.577 817.372,2094.236 -19.513,7.616 -817.372,-2094.236 z m 65.048,-25.386 817.373,2094.237 -19.514,7.616 L 2088.63,154.716 z m -523.649,204.351 817.371,2094.232 -19.514,7.616 -817.371,-2094.232 z m -131.186,51.191 817.372,2094.235 -19.514,7.616 -817.372,-2094.235 z m 196.234,-76.578 817.373,2094.237 -19.516,7.617 -817.373,-2094.237 z m -130.099,50.769 817.372,2094.235 -19.516,7.617 L 1499.928,384.45 z m 196.235,-76.575 817.372,2094.235 -19.516,7.617 -817.372,-2094.235 z"
         id="path36"
         inkscape:connector-curvature="0" />
    </g>
  </g>
  <g
     id="g38"
     transform="translate(-970.793,-757.146)">
    <path
       stroke-miterlimit="10"
       d="m 1094.673,1092.137 417,754.669"
       id="path40"
       inkscape:connector-curvature="0"
       style="fill:none;stroke:#f7f4ec;stroke-width:20;stroke-miterlimit:10" />
    <g
       stroke-miterlimit="10"
       id="g42"
       style="fill:none;stroke:#f7f4ec;stroke-width:9;stroke-miterlimit:10">
      <path
         d="m 1579.925,1457.635 3.073,5.153"
         id="path44"
         inkscape:connector-curvature="0" />
      <path
         d="m 1589.295,1473.35 135.402,227.062"
         id="path46"
         inkscape:connector-curvature="0"
         style="stroke-dasharray:12.2962, 12.2962" />
      <path
         d="m 1727.846,1705.692 3.073,5.154"
         id="path48"
         inkscape:connector-curvature="0" />
    </g>
    <g
       stroke-miterlimit="10"
       id="g50"
       style="fill:none;stroke:#f7f4ec;stroke-width:9;stroke-miterlimit:10">
      <path
         d="m 1540.185,852.772 2.902,5.251"
         id="path52"
         inkscape:connector-curvature="0" />
      <path
         d="m 1548.875,868.496 78.144,141.373"
         id="path54"
         inkscape:connector-curvature="0"
         style="stroke-dasharray:11.9654, 11.9654" />
      <path
         d="m 1629.913,1015.105 2.902,5.251"
         id="path56"
         inkscape:connector-curvature="0" />
    </g>
    <path
       stroke-miterlimit="10"
       d="m 2515.099,1125.893 h -274.426 l -168,36.912 -228.763,141.838 154.666,260.668"
       id="path58"
       inkscape:connector-curvature="0"
       style="fill:none;stroke:#f7f4ec;stroke-width:20;stroke-miterlimit:10" />
  </g>
  <g
     id="g60"
     transform="translate(-970.793,-757.146)">
    <g
       id="g62"
       style="fill:#0a3e60">
      <path
         d="m 1747.715,1550.676 -3.689,-40.258 -19.283,11.133 -3.032,-5.252 25.651,-14.81 2.402,4.161 4.396,41.305 -6.445,3.721 z m 39.883,-47.756 c 3.721,6.444 5.448,11.83 5.184,16.155 -0.266,4.325 -2.529,7.719 -6.792,10.18 -4.127,2.383 -8.188,2.574 -12.186,0.573 -3.997,-2 -7.796,-6.121 -11.399,-12.362 -3.779,-6.546 -5.529,-11.969 -5.25,-16.269 0.28,-4.3 2.543,-7.676 6.789,-10.127 4.145,-2.393 8.219,-2.58 12.226,-0.563 4.007,2.017 7.814,6.155 11.428,12.413 z m -19.156,11.059 c 2.92,5.058 5.524,8.369 7.815,9.933 2.29,1.565 4.576,1.688 6.86,0.369 2.284,-1.319 3.319,-3.381 3.106,-6.191 -0.213,-2.809 -1.759,-6.708 -4.64,-11.698 -2.871,-4.973 -5.478,-8.266 -7.819,-9.88 -2.341,-1.613 -4.652,-1.762 -6.937,-0.443 -2.285,1.319 -3.315,3.369 -3.096,6.151 0.219,2.782 1.791,6.702 4.711,11.759 z m 59.524,-9.636 -25.144,14.517 -2.607,-4.516 4.014,-15.139 c 1.154,-4.523 1.844,-7.655 2.067,-9.397 0.224,-1.741 0.239,-3.268 0.047,-4.577 -0.192,-1.309 -0.64,-2.573 -1.343,-3.791 -0.967,-1.675 -2.232,-2.703 -3.795,-3.087 -1.562,-0.383 -3.232,-0.062 -5.009,0.964 -1.421,0.82 -2.644,1.876 -3.669,3.167 -1.025,1.291 -2.014,3.124 -2.965,5.5 l -5.492,-2.072 c 1.058,-2.934 2.35,-5.325 3.875,-7.176 1.524,-1.851 3.387,-3.411 5.586,-4.681 3.45,-1.992 6.736,-2.688 9.856,-2.088 3.12,0.601 5.56,2.423 7.317,5.468 0.967,1.675 1.584,3.438 1.854,5.29 0.269,1.853 0.242,3.937 -0.078,6.252 -0.32,2.316 -1.141,5.672 -2.461,10.064 l -2.84,9.963 0.146,0.253 17.607,-10.166 3.034,5.252 z"
         id="path64"
         inkscape:connector-curvature="0" />
    </g>
    <g
       id="g66"
       style="fill:#0a3e60">
      <path
         d="m 1517.992,1684.96 -3.689,-40.258 -19.283,11.133 -3.032,-5.252 25.651,-14.81 2.402,4.161 4.395,41.305 -6.444,3.721 z m 39.883,-47.756 c 3.721,6.444 5.448,11.83 5.184,16.155 -0.266,4.325 -2.529,7.719 -6.793,10.18 -4.127,2.383 -8.188,2.574 -12.185,0.574 -3.997,-2 -7.797,-6.121 -11.4,-12.363 -3.779,-6.546 -5.528,-11.969 -5.249,-16.27 0.279,-4.299 2.543,-7.675 6.789,-10.127 4.145,-2.393 8.219,-2.58 12.225,-0.562 4.006,2.018 7.816,6.155 11.429,12.413 z m -19.156,11.06 c 2.92,5.058 5.525,8.369 7.816,9.934 2.289,1.564 4.576,1.688 6.859,0.369 2.284,-1.318 3.32,-3.383 3.107,-6.191 -0.213,-2.81 -1.76,-6.709 -4.641,-11.699 -2.871,-4.973 -5.477,-8.266 -7.818,-9.88 -2.341,-1.614 -4.653,-1.762 -6.938,-0.443 -2.283,1.318 -3.314,3.368 -3.096,6.151 0.221,2.781 1.791,6.702 4.711,11.759 z m 41.635,-37.4 c 1.357,2.351 1.803,4.704 1.336,7.06 -0.467,2.356 -1.787,4.522 -3.961,6.499 l 0.117,0.203 c 3.191,-1.347 5.959,-1.71 8.303,-1.089 2.342,0.621 4.222,2.157 5.638,4.609 2.061,3.569 2.39,7.05 0.987,10.441 -1.402,3.393 -4.429,6.431 -9.08,9.116 -4.11,2.373 -7.963,3.707 -11.56,4.001 l -3.062,-5.303 c 2.021,-0.13 4.035,-0.491 6.038,-1.084 2.003,-0.593 3.817,-1.357 5.44,-2.295 2.876,-1.66 4.717,-3.434 5.521,-5.319 0.807,-1.886 0.564,-3.945 -0.725,-6.179 -1.143,-1.979 -2.77,-2.979 -4.879,-3.001 -2.11,-0.022 -4.85,0.938 -8.215,2.882 l -3.223,1.86 -2.797,-4.847 3.272,-1.89 c 5.921,-3.418 7.698,-7.173 5.335,-11.267 -0.918,-1.59 -2.142,-2.519 -3.672,-2.785 -1.529,-0.268 -3.301,0.181 -5.313,1.343 -1.404,0.811 -2.642,1.79 -3.716,2.939 -1.072,1.15 -2.164,2.812 -3.277,4.987 l -5.319,-2.476 c 1.954,-4.466 5.181,-7.998 9.681,-10.597 3.738,-2.158 7.119,-3.039 10.145,-2.643 3.026,0.396 5.355,2.01 6.986,4.835 z"
         id="path68"
         inkscape:connector-curvature="0" />
    </g>
    <g
       id="g70"
       style="fill:#0a3e60">
      <path
         d="m 1649.254,938.329 -3.689,-40.258 -19.283,11.133 -3.031,-5.252 25.65,-14.81 2.402,4.161 4.396,41.305 -6.445,3.721 z m 39.883,-47.756 c 3.721,6.444 5.449,11.83 5.184,16.155 -0.266,4.326 -2.529,7.719 -6.792,10.18 -4.127,2.383 -8.188,2.574 -12.185,0.574 -3.997,-2 -7.797,-6.121 -11.4,-12.363 -3.779,-6.546 -5.529,-11.969 -5.249,-16.269 0.279,-4.299 2.542,-7.675 6.788,-10.127 4.145,-2.393 8.219,-2.58 12.226,-0.563 4.007,2.017 7.814,6.155 11.428,12.413 z m -19.156,11.06 c 2.92,5.058 5.524,8.369 7.815,9.933 2.29,1.565 4.577,1.688 6.86,0.369 2.284,-1.318 3.319,-3.382 3.106,-6.191 -0.213,-2.809 -1.759,-6.708 -4.64,-11.699 -2.871,-4.973 -5.478,-8.266 -7.818,-9.88 -2.341,-1.614 -4.653,-1.762 -6.938,-0.443 -2.283,1.318 -3.315,3.369 -3.096,6.151 0.222,2.782 1.792,6.703 4.711,11.76 z m 48.816,-28.184 c 3.721,6.444 5.448,11.83 5.184,16.155 -0.266,4.326 -2.529,7.719 -6.792,10.18 -4.128,2.383 -8.188,2.574 -12.186,0.574 -3.997,-2 -7.796,-6.121 -11.399,-12.363 -3.779,-6.546 -5.529,-11.969 -5.25,-16.269 0.28,-4.299 2.543,-7.675 6.789,-10.127 4.145,-2.393 8.219,-2.58 12.226,-0.563 4.005,2.017 7.815,6.155 11.428,12.413 z m -19.155,11.06 c 2.92,5.058 5.524,8.369 7.815,9.933 2.29,1.565 4.576,1.688 6.86,0.369 2.283,-1.318 3.319,-3.382 3.106,-6.191 -0.213,-2.809 -1.759,-6.708 -4.64,-11.699 -2.871,-4.973 -5.478,-8.266 -7.819,-9.88 -2.341,-1.614 -4.653,-1.762 -6.937,-0.443 -2.284,1.318 -3.315,3.369 -3.097,6.151 0.222,2.782 1.792,6.703 4.712,11.76 z"
         id="path72"
         inkscape:connector-curvature="0" />
    </g>
    <g
       id="g74"
       style="fill:#0a3e60">
      <path
         d="m 1349.037,1112.092 -3.69,-40.258 -19.282,11.133 -3.033,-5.252 25.652,-14.81 2.402,4.161 4.395,41.305 -6.444,3.721 z m 39.883,-47.756 c 3.721,6.445 5.448,11.83 5.184,16.155 -0.266,4.325 -2.529,7.719 -6.793,10.18 -4.127,2.383 -8.188,2.574 -12.186,0.574 -3.996,-2.001 -7.796,-6.121 -11.399,-12.363 -3.779,-6.546 -5.528,-11.969 -5.249,-16.269 0.279,-4.3 2.543,-7.676 6.789,-10.127 4.144,-2.393 8.219,-2.58 12.225,-0.563 4.006,2.017 7.816,6.155 11.429,12.413 z m -19.156,11.06 c 2.92,5.058 5.525,8.369 7.816,9.934 2.289,1.564 4.576,1.688 6.859,0.369 2.284,-1.318 3.32,-3.382 3.107,-6.191 -0.213,-2.809 -1.76,-6.709 -4.641,-11.699 -2.871,-4.973 -5.477,-8.266 -7.818,-9.88 -2.341,-1.613 -4.653,-1.762 -6.938,-0.443 -2.283,1.318 -3.314,3.369 -3.096,6.151 0.221,2.781 1.791,6.702 4.711,11.759 z m 25.355,-10.986 c -8.379,-14.513 -6.656,-25.182 5.168,-32.008 1.859,-1.074 3.516,-1.839 4.968,-2.294 l 2.871,4.974 c -1.501,0.37 -3.097,1.043 -4.788,2.02 -3.975,2.295 -6.346,5.084 -7.11,8.367 -0.766,3.284 0.124,7.326 2.671,12.126 l 0.304,-0.176 c 0,-1.829 0.508,-3.535 1.511,-5.118 1.003,-1.582 2.478,-2.936 4.423,-4.059 3.365,-1.943 6.583,-2.425 9.652,-1.445 3.069,0.98 5.624,3.237 7.665,6.771 2.246,3.891 2.934,7.593 2.064,11.105 -0.87,3.513 -3.183,6.354 -6.938,8.521 -2.656,1.533 -5.333,2.228 -8.033,2.084 -2.699,-0.145 -5.283,-1.133 -7.751,-2.968 -2.468,-1.831 -4.694,-4.466 -6.677,-7.9 z m 19.518,3.922 c 2.047,-1.182 3.243,-2.752 3.59,-4.711 0.346,-1.959 -0.189,-4.165 -1.605,-6.617 -1.23,-2.132 -2.717,-3.506 -4.461,-4.123 -1.743,-0.617 -3.654,-0.326 -5.735,0.875 -1.286,0.742 -2.312,1.701 -3.076,2.876 -0.764,1.175 -1.185,2.421 -1.259,3.737 -0.074,1.317 0.177,2.475 0.753,3.473 1.377,2.385 3.184,4.021 5.42,4.905 2.235,0.886 4.359,0.747 6.373,-0.415 z"
         id="path76"
         inkscape:connector-curvature="0" />
    </g>
  </g>
  <g
     id="g78"
     transform="translate(-970.793,-757.146)">
    <defs
       id="defs80">
      <path
         id="e"
         d="m -1598.75,3842.192 h -274.426 l -140,36.245 -250.513,139.039 152.472,256.867 234.625,-134.094 278.537,0 z"
         inkscape:connector-curvature="0" />
    </defs>
    <clipPath
       id="f">
      <use
         xlink:href="#e"
         overflow="visible"
         id="use84"
         style="overflow:visible"
         x="0"
         y="0"
         width="3799.7539"
         height="2383.9189" />
    </clipPath>
    <g
       clip-path="url(#f)"
       id="g86"
       style="fill:#f9cc0f">
      <path
         d="M -761.293,2377.644 56.079,4471.88 36.564,4479.497 -780.808,2385.261 z m 65.052,-25.386 817.372,2094.236 -19.516,7.617 -817.372,-2094.236 z m -65.052,25.386 817.372,2094.236 -19.515,7.617 -817.372,-2094.236 z m 65.052,-25.386 817.372,2094.236 -19.516,7.617 -817.372,-2094.236 z"
         id="path88"
         inkscape:connector-curvature="0" />
    </g>
  </g>
</svg>
