<?xml version="1.0" encoding="UTF-8" standalone="no"?>
<svg
   xmlns:dc="http://purl.org/dc/elements/1.1/"
   xmlns:cc="http://creativecommons.org/ns#"
   xmlns:rdf="http://www.w3.org/1999/02/22-rdf-syntax-ns#"
   xmlns:svg="http://www.w3.org/2000/svg"
   xmlns="http://www.w3.org/2000/svg"
   xmlns:xlink="http://www.w3.org/1999/xlink"
   xmlns:sodipodi="http://sodipodi.sourceforge.net/DTD/sodipodi-0.dtd"
   xmlns:inkscape="http://www.inkscape.org/namespaces/inkscape"
   viewBox="0 0 1279.422 842.30698"
   id="svg2"
   version="1.1"
   inkscape:version="0.48.2 r9819"
   width="100%"
   height="100%"
   sodipodi:docname="floor_m.svg">
  <metadata
     id="metadata52">
    <rdf:RDF>
      <cc:Work
         rdf:about="">
        <dc:format>image/svg+xml</dc:format>
        <dc:type
           rdf:resource="http://purl.org/dc/dcmitype/StillImage" />
      </cc:Work>
    </rdf:RDF>
  </metadata>
  <defs
     id="defs50" />
  <sodipodi:namedview
     pagecolor="#ffffff"
     bordercolor="#666666"
     borderopacity="1"
     objecttolerance="10"
     gridtolerance="10"
     guidetolerance="10"
     inkscape:pageopacity="0"
     inkscape:pageshadow="2"
     inkscape:window-width="1440"
     inkscape:window-height="852"
     id="namedview48"
     showgrid="false"
     inkscape:zoom="0.18527515"
     inkscape:cx="-86.6137"
     inkscape:cy="553.78007"
     inkscape:window-x="0"
     inkscape:window-y="0"
     inkscape:window-maximized="1"
     inkscape:current-layer="svg2"
     fit-margin-top="0"
     fit-margin-left="0"
     fit-margin-right="0"
     fit-margin-bottom="0" />
  <g
     id="g4"
     transform="translate(-1791.596,-581.338)">
    <path
       d="m 1848.796,1291.074 m -0.954,3.592 m -52.046,-93.437"
       id="path6"
       inkscape:connector-curvature="0"
       style="fill:#e12526" />
    <path
       d="m 1847.842,1299.082 411.454,-232.437 h 257 v 357 h 156 v -359.333 h 398.721 l 0,-329.982 h -218.99 V 581.338 h -191.99 V 952.75 l -278.74,2.395 v 56.5 l -150.5,4 -184.001,50 -127.333,69.666 -123.667,70.334 z"
       id="path8"
       inkscape:connector-curvature="0"
       style="fill:#f9cc0f" />
  </g>
  <path
     stroke-miterlimit="10"
     d="M 907.50899,148.485 1061.431,147.746"
     id="path10"
     inkscape:connector-curvature="0"
     style="fill:none;stroke:#f7f4ec;stroke-width:9;stroke-miterlimit:10" />
  <path
     d="m 37.709988,684.998 c 0.266,0.461 0.324,0.971 0.174,1.53 l -7.459,27.839 12.074,3.235 c 1.062,0.284 1.859,0.887 2.391,1.809 0.532,0.921 0.656,1.914 0.372,2.975 -0.285,1.062 -0.888,1.859 -1.81,2.392 l -23.815,13.75 c -0.922,0.532 -1.914,0.655 -2.976,0.371 -1.062,-0.285 -1.859,-0.888 -2.391,-1.81 L 0.51998792,713.274 c -0.532,-0.921 -0.656,-1.913 -0.371,-2.976 0.284,-1.062 0.88699998,-1.858 1.80899998,-2.391 0.922,-0.532 1.914,-0.655 2.975,-0.371 l 12.0760001,3.235 7.459,-27.839 c 0.15,-0.558 0.455,-0.971 0.916,-1.238 0.46,-0.266 0.971,-0.323 1.529,-0.174 l 9.559,2.561 c 0.558,0.152 0.972,0.457 1.238,0.917 z m 15,-69.9 13.75,23.815 c 0.533,0.922 0.656,1.914 0.371,2.976 -0.285,1.062 -0.888,1.859 -1.809,2.391 -0.922,0.532 -1.914,0.657 -2.976,0.371 l -12.075,-3.235 -7.459,27.839 c -0.15,0.559 -0.455,0.972 -0.916,1.237 -0.461,0.265 -0.971,0.324 -1.529,0.174 l -9.56,-2.562 c -0.559,-0.149 -0.971,-0.455 -1.237,-0.916 -0.266,-0.46 -0.324,-0.97 -0.174,-1.53 l 7.459,-27.839 -12.074,-3.235 c -1.062,-0.284 -1.859,-0.887 -2.392,-1.809 -0.532,-0.921 -0.656,-1.913 -0.371,-2.975 0.284,-1.062 0.888,-1.859 1.81,-2.391 l 23.814,-13.75 c 0.922,-0.532 1.914,-0.655 2.977,-0.372 1.062,0.286 1.859,0.889 2.391,1.811 z"
     id="path12"
     inkscape:connector-curvature="0"
     style="fill:#0a3e60" />
  <g
     id="g14"
     transform="translate(-1791.596,-581.338)">
    <defs
       id="defs16">
      <path
         id="a"
         d="m -1439.374,3342.806 v -150.848 l -393.877,2.272 -404.001,109 -113.744,63.932 108.914,194.761 114.208,-63.617 72,115.5 227,-61 h 153.5 v -209.965 z"
         inkscape:connector-curvature="0" />
    </defs>
    <clipPath
       id="b">
      <use
         xlink:href="#a"
         overflow="visible"
         id="use20"
         style="overflow:visible"
         x="0"
         y="0"
         width="3799.7539"
         height="2383.9189" />
    </clipPath>
    <g
       clip-path="url(#b)"
       id="g22"
       style="fill:#f9cc0f">
      <path
         d="M -794.973,1767.561 22.4,3861.798 2.886,3869.414 -814.487,1775.177 z m 65.051,-25.384 817.373,2094.237 -19.516,7.617 -817.373,-2094.237 z m 458.602,-178.963 817.372,2094.236 -19.514,7.616 -817.372,-2094.236 z m -131.184,51.193 817.372,2094.236 -19.514,7.616 -817.372,-2094.236 z m 196.235,-76.578 817.373,2094.237 -19.515,7.617 -817.373,-2094.237 z m -130.101,50.769 817.373,2094.237 -19.514,7.616 -817.373,-2094.237 z m 196.234,-76.58 817.372,2094.236 -19.515,7.617 -817.372,-2094.236 z m 65.05,-25.385 817.372,2094.236 -19.515,7.617 L -94.601,1494.25 z m -523.653,204.352 817.373,2094.237 -19.514,7.616 -817.373,-2094.237 z m -131.183,51.192 817.373,2094.237 -19.516,7.617 -817.373,-2094.237 z m 196.232,-76.58 817.373,2094.237 -19.514,7.616 -817.373,-2094.237 z m -130.099,50.774 817.372,2094.236 -19.514,7.616 -817.372,-2094.236 z m 196.236,-76.581 817.372,2094.236 -19.516,7.617 -817.372,-2094.236 z M -794.973,1767.561 22.4,3861.798 2.886,3869.414 -814.487,1775.177 z m 65.051,-25.384 817.373,2094.237 -19.516,7.617 -817.373,-2094.237 z m 458.602,-178.963 817.372,2094.236 -19.514,7.616 -817.372,-2094.236 z m -131.184,51.193 817.372,2094.236 -19.514,7.616 -817.372,-2094.236 z m 196.235,-76.578 817.373,2094.237 -19.515,7.617 -817.373,-2094.237 z m -130.101,50.769 817.373,2094.237 -19.514,7.616 -817.373,-2094.237 z m 196.234,-76.58 817.372,2094.236 -19.515,7.617 -817.372,-2094.236 z m 65.05,-25.385 817.372,2094.236 -19.515,7.617 L -94.601,1494.25 z m -523.653,204.352 817.373,2094.237 -19.514,7.616 -817.373,-2094.237 z m -131.183,51.192 817.373,2094.237 -19.516,7.617 -817.373,-2094.237 z m 196.232,-76.58 817.373,2094.237 -19.514,7.616 -817.373,-2094.237 z m -130.099,50.774 817.372,2094.236 -19.514,7.616 -817.372,-2094.236 z m 196.236,-76.581 817.372,2094.236 -19.516,7.617 -817.372,-2094.236 z"
         id="path24"
         inkscape:connector-curvature="0" />
    </g>
    <defs
       id="defs26">
      <path
         id="c"
         d="m -1546.25,3675.23 h 287.624 v 358.721 h -287.624 z"
         inkscape:connector-curvature="0" />
    </defs>
    <clipPath
       id="d">
      <use
         xlink:href="#c"
         overflow="visible"
         id="use30"
         style="overflow:visible"
         x="0"
         y="0"
         width="3799.7539"
         height="2383.9189" />
    </clipPath>
    <g
       clip-path="url(#d)"
       id="g32"
       style="fill:#f9cc0f">
      <path
         d="M -748.343,2314.903 69.03,4409.14 49.514,4416.757 -767.859,2322.52 z m 65.051,-25.386 817.373,2094.237 -19.516,7.617 -817.373,-2094.237 z m -130.1,50.772 817.373,2094.237 -19.515,7.617 -817.373,-2094.237 z m 196.234,-76.577 817.372,2094.236 -19.514,7.616 -817.372,-2094.236 z m 65.049,-25.384 817.373,2094.237 -19.514,7.616 -817.373,-2094.237 z m 458.603,-178.968 817.373,2094.238 -19.516,7.617 -817.373,-2094.238 z m -131.184,51.196 817.372,2094.236 -19.514,7.616 -817.372,-2094.236 z m 196.234,-76.58 817.373,2094.237 -19.515,7.617 -817.373,-2094.237 z m -130.099,50.771 817.373,2094.237 -19.515,7.617 L -178.07,2092.364 z M 37.678,2008.168 855.05,4102.404 835.536,4110.02 18.164,2015.784 z m 65.051,-25.387 817.372,2094.236 -19.514,7.616 L 83.215,1990.397 z m -523.653,204.35 817.373,2094.237 -19.516,7.617 -817.373,-2094.237 z m -131.185,51.197 817.373,2094.237 -19.514,7.616 -817.373,-2094.237 z m 196.235,-76.578 817.372,2094.236 -19.514,7.616 -817.372,-2094.236 z m -130.101,50.767 817.372,2094.236 -19.514,7.616 -817.372,-2094.236 z m 196.235,-76.578 817.372,2094.236 -19.515,7.617 -817.372,-2094.236 z M -748.343,2314.903 69.03,4409.14 49.514,4416.757 -767.859,2322.52 z m 65.051,-25.386 817.373,2094.237 -19.516,7.617 -817.373,-2094.237 z m -130.1,50.772 817.373,2094.237 -19.515,7.617 -817.373,-2094.237 z m 196.234,-76.577 817.372,2094.236 -19.514,7.616 -817.372,-2094.236 z m 65.049,-25.384 817.373,2094.237 -19.514,7.616 -817.373,-2094.237 z m 458.603,-178.968 817.373,2094.238 -19.516,7.617 -817.373,-2094.238 z m -131.184,51.196 817.372,2094.236 -19.514,7.616 -817.372,-2094.236 z m 196.234,-76.58 817.373,2094.237 -19.515,7.617 -817.373,-2094.237 z m -130.099,50.771 817.373,2094.237 -19.515,7.617 L -178.07,2092.364 z M 37.678,2008.168 855.05,4102.404 835.536,4110.02 18.164,2015.784 z m 65.051,-25.387 817.372,2094.236 -19.514,7.616 L 83.215,1990.397 z m -523.653,204.35 817.373,2094.237 -19.516,7.617 -817.373,-2094.237 z m -131.185,51.197 817.373,2094.237 -19.514,7.616 -817.373,-2094.237 z m 196.235,-76.578 817.372,2094.236 -19.514,7.616 -817.372,-2094.236 z m -130.101,50.767 817.372,2094.236 -19.514,7.616 -817.372,-2094.236 z m 196.235,-76.578 817.372,2094.236 -19.515,7.617 -817.372,-2094.236 z"
         id="path34"
         inkscape:connector-curvature="0" />
    </g>
  </g>
  <g
     id="g36"
     transform="translate(-1791.596,-581.338)">
    <defs
       id="defs38">
      <path
         id="e"
         d="m 1996.5,4171.549 -99.576,-178.5 -49.128,27.18 -165,-302 170.782,-95.208 -141.404,-255.876 -741.378,416.084 152.957,830 261.043,-95 213.356,-120.918 233.59,-132.387 z"
         inkscape:connector-curvature="0" />
    </defs>
    <clipPath
       id="f">
      <use
         xlink:href="#e"
         overflow="visible"
         id="use42"
         style="overflow:visible"
         x="0"
         y="0"
         width="3799.7539"
         height="2383.9189" />
    </clipPath>
    <g
       clip-path="url(#f)"
       id="g44"
       style="fill:#f9cc0f">
      <path
         d="m 3177.984,2374.212 817.373,2094.237 -19.515,7.617 -817.373,-2094.237 z m 65.052,-25.386 817.372,2094.236 -19.515,7.617 -817.372,-2094.236 z m -65.052,25.386 817.373,2094.237 -19.515,7.617 -817.373,-2094.237 z m 65.052,-25.386 817.372,2094.236 -19.515,7.617 -817.372,-2094.236 z"
         id="path46"
         inkscape:connector-curvature="0" />
    </g>
  </g>
</svg>
