<?xml version="1.0" encoding="UTF-8" standalone="no"?>
<svg
   xmlns:dc="http://purl.org/dc/elements/1.1/"
   xmlns:cc="http://creativecommons.org/ns#"
   xmlns:rdf="http://www.w3.org/1999/02/22-rdf-syntax-ns#"
   xmlns:svg="http://www.w3.org/2000/svg"
   xmlns="http://www.w3.org/2000/svg"
   xmlns:sodipodi="http://sodipodi.sourceforge.net/DTD/sodipodi-0.dtd"
   xmlns:inkscape="http://www.inkscape.org/namespaces/inkscape"
   viewBox="0 0 1297.4085 911.82999"
   id="svg2"
   version="1.1"
   inkscape:version="0.48.2 r9819"
   width="100%"
   height="100%"
   sodipodi:docname="floor_8.svg">
  <metadata
     id="metadata74">
    <rdf:RDF>
      <cc:Work
         rdf:about="">
        <dc:format>image/svg+xml</dc:format>
        <dc:type
           rdf:resource="http://purl.org/dc/dcmitype/StillImage" />
      </cc:Work>
    </rdf:RDF>
  </metadata>
  <defs
     id="defs72" />
  <sodipodi:namedview
     pagecolor="#ffffff"
     bordercolor="#666666"
     borderopacity="1"
     objecttolerance="10"
     gridtolerance="10"
     guidetolerance="10"
     inkscape:pageopacity="0"
     inkscape:pageshadow="2"
     inkscape:window-width="640"
     inkscape:window-height="480"
     id="namedview70"
     showgrid="false"
     fit-margin-top="0"
     fit-margin-left="0"
     fit-margin-right="0"
     fit-margin-bottom="0"
     inkscape:zoom="0.065504658"
     inkscape:cx="177.60964"
     inkscape:cy="1182.7771"
     inkscape:window-x="0"
     inkscape:window-y="0"
     inkscape:window-maximized="0"
     inkscape:current-layer="svg2" />
  <path
     d="m 1021.1685,906.93899 -707.31396,0.703 v -358.72 H 36.852544 l 0,-123.332 H 168.86254 V 66.922989 l 847.98996,-6 280.556,48.928001 z"
     id="path16"
     inkscape:connector-curvature="0"
     style="fill:#f9cc0f" />
  <g
     id="g18"
     transform="translate(-2201.9435,-516.30601)">
    <path
       d="m 2239.652,1017.802 c 0.266,0.461 0.324,0.972 0.174,1.53 l -7.459,27.839 12.075,3.235 c 1.061,0.284 1.858,0.888 2.391,1.81 0.532,0.921 0.655,1.913 0.372,2.975 -0.285,1.062 -0.888,1.859 -1.809,2.392 l -23.816,13.75 c -0.922,0.532 -1.914,0.655 -2.975,0.371 -1.062,-0.285 -1.86,-0.888 -2.392,-1.81 l -13.75,-23.815 c -0.532,-0.921 -0.655,-1.913 -0.371,-2.976 0.285,-1.062 0.887,-1.858 1.809,-2.391 0.921,-0.532 1.914,-0.655 2.975,-0.371 l 12.075,3.234 7.46,-27.838 c 0.149,-0.559 0.454,-0.972 0.915,-1.238 0.46,-0.266 0.971,-0.323 1.53,-0.174 l 9.559,2.561 c 0.558,0.151 0.971,0.456 1.237,0.916 z m 15,-69.901 13.75,23.815 c 0.533,0.923 0.656,1.914 0.372,2.976 -0.285,1.062 -0.888,1.859 -1.81,2.391 -0.922,0.533 -1.914,0.657 -2.975,0.371 l -12.075,-3.234 -7.459,27.839 c -0.15,0.559 -0.456,0.972 -0.916,1.237 -0.461,0.266 -0.972,0.324 -1.53,0.174 l -9.559,-2.561 c -0.559,-0.149 -0.971,-0.455 -1.237,-0.916 -0.266,-0.461 -0.325,-0.971 -0.175,-1.53 l 7.459,-27.839 -12.075,-3.235 c -1.062,-0.284 -1.858,-0.887 -2.391,-1.81 -0.532,-0.921 -0.656,-1.912 -0.371,-2.975 0.284,-1.062 0.887,-1.859 1.809,-2.391 l 23.815,-13.75 c 0.922,-0.532 1.914,-0.656 2.976,-0.372 1.063,0.286 1.86,0.888 2.392,1.81 z"
       id="path20"
       inkscape:connector-curvature="0"
       style="fill:#0a3e60" />
    <g
       id="g22"
       style="fill:#0a3e60">
      <path
         d="m 2811.544,879.673 c 2.662,0.715 4.687,2.27 6.07,4.666 1.384,2.397 1.719,4.928 1.006,7.59 -0.714,2.664 -2.269,4.687 -4.666,6.071 -2.397,1.384 -4.927,1.72 -7.59,1.006 -2.663,-0.713 -4.687,-2.269 -6.07,-4.666 -1.384,-2.396 -1.719,-4.927 -1.005,-7.59 0.713,-2.663 2.269,-4.687 4.666,-6.071 2.396,-1.384 4.926,-1.719 7.589,-1.006 z m 40.01,26.308 c 0.595,1.031 0.74,2.117 0.436,3.254 -0.306,1.14 -0.974,2.006 -2.004,2.602 -1.314,0.759 -2.666,0.8 -4.053,0.123 l -16.388,-8.116 -1.739,1.005 2.947,5.104 18.723,10.376 c 0.456,0.253 0.816,0.61 1.084,1.075 0.387,0.67 0.477,1.392 0.27,2.163 -0.207,0.772 -0.646,1.353 -1.316,1.739 l -7.422,4.286 6.071,10.517 c 0.684,1.185 0.847,2.449 0.487,3.791 -0.359,1.341 -1.132,2.354 -2.317,3.039 l -6.186,3.571 c -1.186,0.685 -2.449,0.848 -3.791,0.488 -1.341,-0.36 -2.355,-1.133 -3.039,-2.317 l -6.072,-10.517 -7.423,4.286 c -0.67,0.387 -1.391,0.478 -2.164,0.271 -0.772,-0.207 -1.352,-0.646 -1.739,-1.315 -0.268,-0.465 -0.397,-0.957 -0.389,-1.478 l 0.375,-21.403 -2.946,-5.104 -1.74,1.004 -1.164,18.252 c -0.108,1.54 -0.818,2.688 -2.133,3.448 -1.031,0.595 -2.116,0.74 -3.254,0.435 -1.139,-0.305 -2.005,-0.972 -2.601,-2.003 -0.432,-0.748 -0.62,-1.55 -0.564,-2.407 l 1.326,-20.561 c 0.289,-3.844 1.761,-6.533 4.416,-8.066 l 14.847,-8.572 c 2.653,-1.532 5.718,-1.463 9.192,0.208 l 18.469,9.132 c 0.768,0.38 1.37,0.943 1.801,1.69 z m 49.051,-46.468 9.286,16.083 c 0.595,1.032 0.74,2.116 0.436,3.255 -0.305,1.139 -0.974,2.005 -2.004,2.6 -1.031,0.596 -2.116,0.742 -3.254,0.436 -1.139,-0.304 -2.005,-0.973 -2.601,-2.004 l -7.857,-13.608 -2.475,1.429 20.357,35.26 c 0.684,1.186 0.847,2.449 0.488,3.791 -0.359,1.342 -1.132,2.354 -2.317,3.039 -1.186,0.685 -2.449,0.848 -3.792,0.488 -1.341,-0.359 -2.354,-1.133 -3.039,-2.318 l -10.357,-17.938 -2.475,1.429 10.357,17.938 c 0.684,1.186 0.847,2.449 0.487,3.791 -0.36,1.342 -1.132,2.355 -2.317,3.04 -1.186,0.685 -2.45,0.847 -3.791,0.487 -1.342,-0.359 -2.355,-1.132 -3.039,-2.317 l -20.357,-35.26 -2.475,1.429 7.857,13.608 c 0.595,1.032 0.74,2.117 0.436,3.255 -0.305,1.139 -0.974,2.005 -2.004,2.601 -1.031,0.595 -2.116,0.74 -3.254,0.436 -1.139,-0.305 -2.005,-0.973 -2.601,-2.004 l -9.286,-16.084 c -1.19,-2.062 -1.48,-4.23 -0.871,-6.508 0.61,-2.276 1.945,-4.011 4.008,-5.201 l 24.743,-14.287 c 2.062,-1.19 4.231,-1.48 6.508,-0.871 2.279,0.607 4.013,1.942 5.203,4.005 z M 2873.4,843.956 c 2.662,0.714 4.687,2.269 6.07,4.666 1.384,2.396 1.719,4.927 1.006,7.59 -0.714,2.663 -2.269,4.686 -4.666,6.07 -2.397,1.384 -4.927,1.72 -7.59,1.006 -2.663,-0.713 -4.687,-2.269 -6.07,-4.666 -1.384,-2.396 -1.719,-4.926 -1.005,-7.59 0.713,-2.662 2.269,-4.687 4.666,-6.07 2.397,-1.385 4.926,-1.719 7.589,-1.006 z"
         id="path24"
         inkscape:connector-curvature="0" />
    </g>
    <path
       d="m 3149.707,1165.351 c 3.155,5.464 3.915,11.246 2.282,17.344 -1.634,6.099 -5.183,10.726 -10.647,13.881 -5.464,3.154 -11.245,3.915 -17.343,2.281 -6.099,-1.633 -10.724,-5.182 -13.879,-10.646 -2.157,-3.737 -3.16,-7.885 -3.007,-12.44 0.02,-0.321 0.153,-1.952 0.396,-4.895 0.243,-2.94 0.421,-5.638 0.534,-8.093 0.113,-2.453 0.071,-5.487 -0.126,-9.103 -0.197,-3.616 -0.626,-6.829 -1.289,-9.644 -0.214,-0.907 -0.126,-1.766 0.266,-2.576 0.391,-0.81 0.921,-1.408 1.592,-1.796 0.67,-0.387 1.46,-0.551 2.371,-0.492 0.91,0.06 1.691,0.415 2.344,1.069 2.105,1.98 4.674,3.96 7.707,5.938 3.032,1.979 5.639,3.532 7.82,4.66 2.18,1.13 4.606,2.324 7.275,3.584 2.669,1.26 4.147,1.961 4.437,2.104 3.975,2.068 7.064,5.009 9.267,8.824 z m -16.937,16.378 c -0.536,-0.928 -1.307,-1.668 -2.313,-2.222 -0.041,-0.01 -0.408,-0.185 -1.102,-0.523 l -1.834,-0.899 c -0.529,-0.262 -1.179,-0.643 -1.948,-1.144 -0.771,-0.5 -1.417,-0.994 -1.939,-1.483 -0.342,-0.353 -0.732,-0.402 -1.169,-0.149 -0.439,0.253 -0.59,0.615 -0.455,1.087 0.162,0.698 0.267,1.505 0.315,2.421 0.048,0.918 0.053,1.671 0.016,2.26 l -0.138,2.038 c -0.054,0.771 -0.087,1.177 -0.098,1.216 -0.024,1.148 0.231,2.187 0.768,3.114 0.789,1.366 1.945,2.253 3.47,2.662 1.525,0.408 2.969,0.218 4.336,-0.571 1.366,-0.788 2.253,-1.945 2.662,-3.47 0.408,-1.526 0.217,-2.971 -0.571,-4.337 z M 2483.139,918.057 c 7.921,4.526 14.216,10.828 18.881,18.908 4.665,8.081 6.976,16.683 6.934,25.805 -0.042,9.124 -2.327,17.646 -6.851,25.567 -4.525,7.922 -10.827,14.216 -18.907,18.881 -8.081,4.666 -16.684,6.977 -25.806,6.934 -9.123,-0.041 -17.646,-2.325 -25.567,-6.851 -7.922,-4.523 -14.215,-10.827 -18.881,-18.907 -4.665,-8.08 -6.976,-16.682 -6.934,-25.806 0.042,-9.121 2.326,-17.645 6.851,-25.567 4.525,-7.92 10.827,-14.215 18.908,-18.88 8.08,-4.665 16.682,-6.976 25.805,-6.935 9.122,0.043 17.645,2.327 25.567,6.851 z m -32.163,16.212 -5.357,-9.279 c -0.312,-0.541 -0.743,-0.886 -1.292,-1.032 -0.549,-0.147 -1.094,-0.064 -1.636,0.248 l -11.134,6.429 c -0.542,0.312 -0.885,0.742 -1.033,1.292 -0.146,0.549 -0.064,1.094 0.248,1.635 l 5.357,9.279 c 0.312,0.542 0.743,0.886 1.292,1.032 0.549,0.146 1.093,0.064 1.635,-0.248 l 11.134,-6.429 c 0.542,-0.312 0.886,-0.743 1.033,-1.292 0.148,-0.55 0.066,-1.094 -0.247,-1.635 z m 37.423,47.675 -5.357,-9.279 c -0.312,-0.541 -0.743,-0.885 -1.292,-1.032 -0.549,-0.147 -1.094,-0.064 -1.635,0.248 l -5.567,3.214 -17.143,-29.691 c -0.312,-0.541 -0.743,-0.886 -1.291,-1.033 -0.549,-0.146 -1.095,-0.064 -1.636,0.248 l -18.557,10.715 c -0.542,0.312 -0.886,0.743 -1.033,1.292 -0.146,0.549 -0.063,1.095 0.249,1.635 l 5.357,9.279 c 0.313,0.542 0.743,0.886 1.292,1.032 0.549,0.147 1.093,0.064 1.636,-0.248 l 5.567,-3.214 10.714,18.558 -5.567,3.214 c -0.542,0.313 -0.886,0.743 -1.033,1.292 -0.146,0.549 -0.063,1.095 0.249,1.636 l 5.357,9.278 c 0.312,0.542 0.743,0.886 1.292,1.033 0.549,0.146 1.093,0.064 1.636,-0.249 l 25.98,-15 c 0.541,-0.312 0.885,-0.743 1.033,-1.292 0.148,-0.549 0.061,-1.094 -0.251,-1.636 z"
       id="path26"
       inkscape:connector-curvature="0"
       style="fill:#0a3e60" />
  </g>
  <g
     id="g28"
     transform="translate(-2201.9435,-516.30601)">
    <g
       stroke-miterlimit="10"
       id="g30"
       style="fill:none;stroke:#f7f4ec;stroke-width:9;stroke-miterlimit:10">
      <path
         d="m 2800.868,1084.153 v 6"
         id="path32"
         inkscape:connector-curvature="0" />
      <path
         d="M 2800.868,1101.986 V 1403.72"
         id="path34"
         inkscape:connector-curvature="0"
         style="stroke-dasharray:11.8327, 11.8327" />
      <path
         d="m 2800.868,1409.636 v 6"
         id="path36"
         inkscape:connector-curvature="0" />
    </g>
    <path
       stroke-miterlimit="10"
       d="m 3078.354,1128.638 v 294.998 m 273.768,-363.985 H 3136.509 M 3008.675,787.806 v 221"
       id="path38"
       inkscape:connector-curvature="0"
       style="fill:none;stroke:#f7f4ec;stroke-width:9;stroke-miterlimit:10" />
    <path
       d="m 3231.661,794.669 m 193.49,30.627"
       id="path40"
       inkscape:connector-curvature="0"
       style="fill:none" />
    <path
       stroke-miterlimit="10"
       d="m 3008.675,520.806 v 221"
       id="path42"
       inkscape:connector-curvature="0"
       style="fill:none;stroke:#f7f4ec;stroke-width:9;stroke-miterlimit:10" />
  </g>
  <g
     id="g44"
     transform="translate(-2201.9435,-516.30601)">
    <g
       id="g46"
       style="fill:#0a3e60">
      <path
         d="m 2612.618,1263.088 c 3.518,-2.031 6.767,-2.83 9.747,-2.396 2.979,0.435 5.25,2.004 6.812,4.71 2.197,3.806 1.662,8.152 -1.606,13.038 3.749,-0.225 6.701,0.112 8.855,1.011 2.154,0.899 3.802,2.338 4.945,4.316 1.768,3.062 2.059,6.164 0.874,9.307 -1.185,3.143 -3.697,5.822 -7.537,8.039 -4.026,2.324 -7.645,3.264 -10.856,2.817 -3.212,-0.446 -5.731,-2.25 -7.557,-5.413 -1.191,-2.064 -1.684,-4.255 -1.478,-6.573 0.207,-2.317 1.258,-4.882 3.155,-7.69 -3.048,-0.044 -5.488,-0.541 -7.322,-1.49 -1.833,-0.948 -3.292,-2.361 -4.376,-4.239 -1.553,-2.689 -1.733,-5.443 -0.542,-8.263 1.19,-2.821 3.486,-5.211 6.886,-7.174 z m 2.6,4.621 c -1.691,0.977 -2.812,2.182 -3.36,3.614 -0.548,1.434 -0.407,2.869 0.423,4.307 0.508,0.879 1.148,1.559 1.92,2.037 0.772,0.479 1.677,0.797 2.715,0.953 1.038,0.156 2.632,0.144 4.782,-0.038 1.512,-2.068 2.401,-3.839 2.667,-5.312 0.266,-1.474 0.018,-2.869 -0.744,-4.188 -0.83,-1.438 -2.007,-2.275 -3.531,-2.512 -1.522,-0.237 -3.146,0.143 -4.872,1.139 z m 6.667,27.308 c 1.016,1.76 2.421,2.77 4.218,3.029 1.796,0.26 3.751,-0.221 5.866,-1.441 2.182,-1.26 3.587,-2.742 4.215,-4.447 0.628,-1.704 0.445,-3.42 -0.551,-5.145 -0.791,-1.37 -2.072,-2.3 -3.843,-2.789 -1.771,-0.488 -4.067,-0.561 -6.891,-0.216 l -0.926,0.095 c -1.667,2.271 -2.651,4.276 -2.953,6.019 -0.302,1.743 -0.014,3.373 0.865,4.895 z m 43.989,-37.305 c 3.721,6.445 5.448,11.83 5.183,16.155 -0.265,4.325 -2.529,7.719 -6.792,10.18 -4.127,2.383 -8.189,2.574 -12.185,0.574 -3.997,-2 -7.797,-6.121 -11.4,-12.363 -3.779,-6.546 -5.529,-11.969 -5.249,-16.269 0.279,-4.3 2.542,-7.676 6.788,-10.127 4.145,-2.393 8.22,-2.58 12.226,-0.563 4.006,2.017 7.816,6.155 11.429,12.413 z m -19.156,11.059 c 2.92,5.058 5.525,8.369 7.815,9.934 2.29,1.565 4.577,1.688 6.86,0.369 2.284,-1.318 3.319,-3.382 3.107,-6.191 -0.213,-2.81 -1.759,-6.709 -4.64,-11.699 -2.871,-4.973 -5.478,-8.266 -7.819,-9.88 -2.341,-1.613 -4.654,-1.762 -6.938,-0.443 -2.283,1.318 -3.315,3.369 -3.096,6.151 0.219,2.782 1.791,6.703 4.711,11.759 z m 33.591,-25.549 c 3.738,-2.158 7.27,-2.878 10.594,-2.158 3.325,0.719 5.973,2.787 7.946,6.203 2.285,3.959 2.831,7.766 1.637,11.42 -1.194,3.655 -4.074,6.801 -8.641,9.438 -4.145,2.393 -7.786,3.604 -10.925,3.635 l -3.12,-5.404 c 1.819,-0.012 3.739,-0.32 5.759,-0.923 2.02,-0.603 3.791,-1.343 5.313,-2.222 2.689,-1.553 4.389,-3.335 5.1,-5.347 0.71,-2.011 0.397,-4.176 -0.941,-6.493 -2.559,-4.432 -6.663,-5.017 -12.312,-1.755 -0.795,0.459 -1.729,1.106 -2.804,1.94 -1.074,0.835 -1.993,1.607 -2.755,2.318 l -3.572,-0.035 -9.039,-18.937 19.283,-11.133 3.062,5.303 -14.031,8.101 4.466,9.668 c 0.533,-0.443 1.188,-0.979 1.964,-1.607 0.775,-0.629 1.781,-1.299 3.016,-2.012 z"
         id="path48"
         inkscape:connector-curvature="0" />
    </g>
    <g
       id="g50"
       style="fill:#0a3e60">
      <path
         d="m 2896.099,1254.798 c 3.518,-2.031 6.767,-2.83 9.747,-2.396 2.979,0.434 5.25,2.004 6.812,4.71 2.197,3.806 1.662,8.151 -1.606,13.038 3.749,-0.225 6.701,0.112 8.855,1.011 2.154,0.899 3.802,2.338 4.945,4.317 1.768,3.062 2.059,6.164 0.874,9.306 -1.185,3.143 -3.697,5.822 -7.537,8.039 -4.025,2.324 -7.645,3.263 -10.856,2.817 -3.212,-0.446 -5.731,-2.25 -7.557,-5.414 -1.191,-2.062 -1.684,-4.254 -1.477,-6.572 0.206,-2.318 1.258,-4.881 3.154,-7.69 -3.048,-0.044 -5.488,-0.541 -7.322,-1.49 -1.833,-0.948 -3.292,-2.362 -4.375,-4.239 -1.553,-2.689 -1.734,-5.443 -0.542,-8.263 1.189,-2.821 3.485,-5.211 6.885,-7.174 z m 2.6,4.621 c -1.691,0.977 -2.812,2.182 -3.359,3.614 -0.549,1.433 -0.408,2.868 0.422,4.306 0.508,0.881 1.148,1.56 1.92,2.038 0.772,0.479 1.678,0.796 2.715,0.952 1.038,0.157 2.631,0.145 4.782,-0.037 1.512,-2.068 2.401,-3.839 2.667,-5.312 0.266,-1.473 0.018,-2.869 -0.744,-4.188 -0.83,-1.438 -2.007,-2.275 -3.531,-2.512 -1.522,-0.237 -3.146,0.143 -4.872,1.139 z m 6.667,27.309 c 1.016,1.759 2.421,2.769 4.218,3.027 1.796,0.261 3.751,-0.221 5.866,-1.441 2.182,-1.26 3.587,-2.741 4.216,-4.446 0.628,-1.704 0.444,-3.42 -0.552,-5.146 -0.791,-1.369 -2.072,-2.299 -3.842,-2.788 -1.771,-0.488 -4.068,-0.561 -6.891,-0.216 l -0.926,0.095 c -1.666,2.271 -2.651,4.276 -2.953,6.019 -0.304,1.741 -0.015,3.372 0.864,4.896 z m 43.989,-37.306 c 3.721,6.444 5.448,11.83 5.183,16.155 -0.265,4.326 -2.529,7.719 -6.792,10.18 -4.127,2.383 -8.189,2.574 -12.186,0.574 -3.997,-2 -7.796,-6.121 -11.4,-12.363 -3.779,-6.546 -5.529,-11.969 -5.249,-16.27 0.28,-4.299 2.542,-7.675 6.789,-10.127 4.144,-2.393 8.219,-2.58 12.226,-0.562 4.006,2.017 7.816,6.155 11.429,12.413 z m -19.156,11.059 c 2.92,5.058 5.525,8.369 7.815,9.934 2.291,1.564 4.577,1.688 6.861,0.369 2.283,-1.318 3.319,-3.383 3.106,-6.191 -0.213,-2.81 -1.759,-6.709 -4.64,-11.699 -2.871,-4.973 -5.478,-8.266 -7.819,-9.88 -2.341,-1.614 -4.654,-1.762 -6.937,-0.443 -2.284,1.318 -3.315,3.368 -3.096,6.151 0.22,2.782 1.79,6.703 4.71,11.759 z m 56.17,-18.492 -4.998,2.886 4.673,8.094 -5.811,3.354 -4.673,-8.094 -16.948,9.785 -2.651,-4.592 2.798,-34.295 5.811,-3.354 13.945,24.154 4.998,-2.886 2.856,4.948 z m -13.665,1.293 -5.376,-9.312 c -1.914,-3.315 -3.396,-6.079 -4.448,-8.291 l -0.203,0.117 c 0.171,1.39 0.208,3.173 0.111,5.349 l -1.476,18.714 11.392,-6.577 z"
         id="path52"
         inkscape:connector-curvature="0" />
    </g>
    <g
       id="g54"
       style="fill:#0a3e60">
      <path
         d="m 3155.902,1246.094 c 3.518,-2.03 6.767,-2.829 9.747,-2.396 2.979,0.435 5.25,2.005 6.812,4.71 2.197,3.807 1.662,8.152 -1.606,13.039 3.749,-0.225 6.7,0.112 8.854,1.011 2.154,0.899 3.802,2.337 4.945,4.316 1.768,3.062 2.059,6.164 0.874,9.306 -1.186,3.144 -3.698,5.822 -7.538,8.039 -4.025,2.324 -7.645,3.264 -10.856,2.818 -3.212,-0.446 -5.731,-2.251 -7.557,-5.414 -1.191,-2.063 -1.684,-4.254 -1.477,-6.572 0.206,-2.318 1.258,-4.882 3.154,-7.691 -3.048,-0.044 -5.488,-0.541 -7.322,-1.489 -1.833,-0.948 -3.292,-2.362 -4.375,-4.239 -1.553,-2.689 -1.734,-5.443 -0.542,-8.264 1.192,-2.82 3.488,-5.211 6.887,-7.174 z m 2.601,4.622 c -1.692,0.977 -2.812,2.182 -3.36,3.614 -0.548,1.433 -0.408,2.868 0.422,4.306 0.508,0.88 1.148,1.559 1.92,2.037 0.772,0.479 1.678,0.797 2.715,0.953 1.037,0.156 2.631,0.145 4.782,-0.037 1.512,-2.068 2.401,-3.84 2.667,-5.312 0.266,-1.472 0.018,-2.869 -0.744,-4.188 -0.83,-1.438 -2.007,-2.274 -3.531,-2.512 -1.521,-0.237 -3.145,0.143 -4.871,1.139 z m 6.666,27.307 c 1.016,1.76 2.421,2.769 4.218,3.028 1.796,0.26 3.751,-0.221 5.866,-1.441 2.182,-1.26 3.587,-2.742 4.216,-4.447 0.628,-1.703 0.444,-3.419 -0.552,-5.145 -0.791,-1.37 -2.072,-2.299 -3.842,-2.788 -1.771,-0.488 -4.068,-0.561 -6.891,-0.217 l -0.926,0.095 c -1.666,2.271 -2.651,4.277 -2.953,6.019 -0.303,1.742 -0.014,3.374 0.864,4.896 z m 43.99,-37.304 c 3.721,6.444 5.448,11.83 5.183,16.155 -0.265,4.325 -2.529,7.719 -6.792,10.18 -4.127,2.383 -8.189,2.574 -12.186,0.573 -3.997,-2 -7.796,-6.121 -11.4,-12.362 -3.779,-6.546 -5.529,-11.969 -5.249,-16.27 0.28,-4.299 2.542,-7.676 6.789,-10.127 4.144,-2.393 8.219,-2.58 12.226,-0.562 4.005,2.016 7.815,6.154 11.429,12.413 z m -19.156,11.059 c 2.92,5.058 5.525,8.369 7.815,9.933 2.291,1.565 4.577,1.688 6.861,0.369 2.283,-1.318 3.319,-3.382 3.106,-6.191 -0.213,-2.809 -1.759,-6.708 -4.64,-11.698 -2.871,-4.973 -5.478,-8.266 -7.819,-9.881 -2.341,-1.613 -4.654,-1.762 -6.937,-0.443 -2.284,1.318 -3.315,3.369 -3.096,6.152 0.22,2.782 1.79,6.702 4.71,11.759 z m 41.634,-37.4 c 1.357,2.352 1.803,4.705 1.336,7.061 -0.467,2.356 -1.787,4.521 -3.961,6.498 l 0.117,0.203 c 3.192,-1.346 5.959,-1.709 8.302,-1.089 2.343,0.621 4.223,2.158 5.639,4.61 2.061,3.569 2.39,7.05 0.987,10.441 -1.403,3.391 -4.429,6.43 -9.081,9.115 -4.11,2.373 -7.963,3.707 -11.56,4.002 l -3.062,-5.303 c 2.022,-0.13 4.035,-0.491 6.039,-1.084 2.003,-0.593 3.816,-1.358 5.44,-2.296 2.875,-1.66 4.716,-3.433 5.521,-5.319 0.806,-1.886 0.564,-3.945 -0.725,-6.178 -1.143,-1.979 -2.769,-2.979 -4.879,-3.002 -2.11,-0.021 -4.849,0.939 -8.214,2.883 l -3.222,1.859 -2.798,-4.846 3.273,-1.89 c 5.92,-3.418 7.698,-7.173 5.335,-11.267 -0.918,-1.59 -2.142,-2.519 -3.671,-2.785 -1.53,-0.268 -3.301,0.18 -5.314,1.342 -1.405,0.812 -2.643,1.791 -3.715,2.94 -1.074,1.149 -2.166,2.812 -3.277,4.987 l -5.32,-2.477 c 1.955,-4.466 5.181,-7.998 9.681,-10.596 3.738,-2.158 7.12,-3.039 10.145,-2.643 3.025,0.399 5.353,2.01 6.984,4.834 z"
         id="path56"
         inkscape:connector-curvature="0" />
    </g>
    <g
       id="g58"
       style="fill:#0a3e60">
      <path
         d="m 3182.399,786.071 c 3.518,-2.031 6.767,-2.83 9.747,-2.396 2.979,0.435 5.25,2.004 6.812,4.711 2.197,3.806 1.662,8.151 -1.606,13.038 3.749,-0.225 6.7,0.112 8.854,1.011 2.154,0.899 3.803,2.338 4.945,4.316 1.768,3.062 2.058,6.164 0.874,9.307 -1.186,3.143 -3.698,5.822 -7.538,8.039 -4.025,2.324 -7.645,3.263 -10.856,2.816 -3.212,-0.445 -5.731,-2.25 -7.557,-5.413 -1.191,-2.063 -1.684,-4.255 -1.477,-6.572 0.206,-2.318 1.258,-4.882 3.154,-7.69 -3.048,-0.045 -5.488,-0.541 -7.321,-1.49 -1.833,-0.949 -3.292,-2.362 -4.376,-4.239 -1.553,-2.689 -1.734,-5.444 -0.542,-8.263 1.192,-2.82 3.488,-5.212 6.887,-7.175 z m 2.601,4.622 c -1.692,0.977 -2.812,2.182 -3.36,3.614 -0.548,1.433 -0.408,2.868 0.422,4.306 0.508,0.88 1.148,1.56 1.92,2.038 0.772,0.479 1.678,0.796 2.715,0.952 1.038,0.157 2.631,0.145 4.782,-0.038 1.512,-2.067 2.401,-3.838 2.667,-5.312 0.266,-1.473 0.018,-2.869 -0.744,-4.188 -0.83,-1.438 -2.007,-2.274 -3.531,-2.512 -1.521,-0.236 -3.146,0.144 -4.871,1.14 z m 6.666,27.308 c 1.016,1.76 2.421,2.77 4.218,3.028 1.796,0.261 3.751,-0.221 5.866,-1.441 2.182,-1.26 3.587,-2.741 4.216,-4.446 0.628,-1.705 0.444,-3.42 -0.552,-5.146 -0.791,-1.37 -2.072,-2.299 -3.842,-2.788 -1.771,-0.488 -4.068,-0.561 -6.891,-0.217 l -0.926,0.096 c -1.666,2.27 -2.651,4.276 -2.953,6.018 -0.303,1.742 -0.015,3.374 0.864,4.896 z m 43.989,-37.305 c 3.721,6.444 5.448,11.83 5.183,16.155 -0.266,4.325 -2.53,7.719 -6.792,10.18 -4.127,2.383 -8.189,2.574 -12.186,0.573 -3.997,-2 -7.796,-6.121 -11.4,-12.362 -3.779,-6.546 -5.529,-11.969 -5.249,-16.27 0.28,-4.3 2.542,-7.675 6.789,-10.127 4.144,-2.393 8.219,-2.58 12.226,-0.562 4.006,2.017 7.816,6.155 11.429,12.413 z m -19.155,11.06 c 2.92,5.058 5.525,8.368 7.815,9.933 2.291,1.564 4.577,1.688 6.861,0.369 2.283,-1.318 3.319,-3.382 3.106,-6.191 -0.212,-2.809 -1.759,-6.708 -4.64,-11.698 -2.871,-4.973 -5.478,-8.266 -7.819,-9.88 -2.341,-1.614 -4.654,-1.762 -6.937,-0.443 -2.284,1.318 -3.315,3.368 -3.096,6.151 0.22,2.781 1.79,6.701 4.71,11.759 z m 59.523,-9.637 -25.144,14.517 -2.607,-4.516 4.014,-15.139 c 1.155,-4.523 1.843,-7.655 2.067,-9.397 0.224,-1.741 0.239,-3.268 0.047,-4.577 -0.193,-1.31 -0.64,-2.574 -1.343,-3.791 -0.967,-1.675 -2.232,-2.703 -3.795,-3.087 -1.563,-0.383 -3.232,-0.062 -5.008,0.964 -1.421,0.82 -2.644,1.876 -3.669,3.166 -1.025,1.292 -2.014,3.125 -2.964,5.501 l -5.493,-2.072 c 1.058,-2.934 2.349,-5.325 3.875,-7.177 1.525,-1.85 3.387,-3.41 5.586,-4.68 3.451,-1.992 6.736,-2.688 9.857,-2.088 3.121,0.601 5.56,2.423 7.317,5.468 0.967,1.675 1.584,3.438 1.854,5.29 0.269,1.852 0.243,3.936 -0.078,6.252 -0.321,2.316 -1.141,5.672 -2.461,10.064 l -2.841,9.962 0.146,0.254 17.608,-10.166 3.032,5.252 z"
         id="path60"
         inkscape:connector-curvature="0" />
    </g>
    <g
       id="g62"
       style="fill:#0a3e60">
      <path
         d="m 2737.633,714.329 c 3.518,-2.031 6.767,-2.83 9.746,-2.396 2.979,0.434 5.25,2.004 6.813,4.71 2.197,3.806 1.662,8.152 -1.606,13.038 3.749,-0.225 6.7,0.112 8.855,1.011 2.154,0.899 3.802,2.338 4.945,4.317 1.768,3.062 2.059,6.164 0.874,9.306 -1.185,3.143 -3.698,5.822 -7.537,8.039 -4.026,2.324 -7.645,3.264 -10.856,2.817 -3.212,-0.445 -5.731,-2.25 -7.557,-5.414 -1.191,-2.062 -1.684,-4.254 -1.478,-6.572 0.206,-2.317 1.258,-4.881 3.155,-7.69 -3.048,-0.044 -5.488,-0.541 -7.322,-1.49 -1.833,-0.948 -3.292,-2.362 -4.376,-4.239 -1.553,-2.689 -1.734,-5.443 -0.542,-8.263 1.192,-2.82 3.486,-5.211 6.886,-7.174 z m 2.601,4.621 c -1.691,0.977 -2.812,2.182 -3.36,3.614 -0.548,1.434 -0.407,2.869 0.423,4.307 0.508,0.88 1.148,1.559 1.92,2.037 0.772,0.479 1.677,0.796 2.715,0.952 1.038,0.157 2.632,0.145 4.782,-0.037 1.512,-2.068 2.401,-3.839 2.667,-5.312 0.266,-1.473 0.019,-2.868 -0.743,-4.188 -0.83,-1.438 -2.007,-2.275 -3.531,-2.512 -1.524,-0.236 -3.148,0.143 -4.873,1.139 z m 6.666,27.309 c 1.016,1.759 2.422,2.769 4.218,3.027 1.796,0.261 3.751,-0.22 5.866,-1.441 2.182,-1.26 3.587,-2.741 4.215,-4.446 0.628,-1.704 0.445,-3.42 -0.551,-5.145 -0.791,-1.37 -2.072,-2.3 -3.843,-2.788 -1.771,-0.489 -4.067,-0.562 -6.891,-0.217 l -0.926,0.095 c -1.667,2.271 -2.651,4.276 -2.953,6.019 -0.302,1.743 -0.014,3.373 0.865,4.896 z m 43.989,-37.306 c 3.721,6.444 5.448,11.83 5.183,16.155 -0.265,4.326 -2.529,7.719 -6.792,10.18 -4.127,2.383 -8.189,2.574 -12.185,0.574 -3.997,-2 -7.797,-6.121 -11.4,-12.363 -3.779,-6.546 -5.529,-11.969 -5.249,-16.269 0.279,-4.3 2.542,-7.676 6.788,-10.127 4.144,-2.393 8.219,-2.581 12.226,-0.563 4.007,2.018 7.816,6.155 11.429,12.413 z m -19.156,11.06 c 2.92,5.059 5.525,8.369 7.815,9.934 2.29,1.564 4.577,1.688 6.86,0.369 2.284,-1.318 3.319,-3.383 3.107,-6.191 -0.213,-2.809 -1.759,-6.709 -4.64,-11.699 -2.871,-4.973 -5.478,-8.266 -7.818,-9.88 -2.341,-1.614 -4.654,-1.762 -6.938,-0.443 -2.283,1.318 -3.315,3.369 -3.096,6.151 0.221,2.781 1.79,6.702 4.71,11.759 z m 51.887,-5.228 -5.962,3.442 -13.828,-23.951 c -1.65,-2.857 -2.892,-5.164 -3.723,-6.916 -0.155,0.631 -0.374,1.354 -0.657,2.172 -0.284,0.818 -1.284,3.471 -3,7.957 l -5.177,-2.052 5.959,-14.875 4.973,-2.871 21.415,37.094 z"
         id="path64"
         inkscape:connector-curvature="0" />
    </g>
    <g
       id="g66"
       style="fill:#0a3e60">
      <path
         d="m 2462.123,735.343 c 3.518,-2.031 6.767,-2.83 9.746,-2.396 2.979,0.434 5.25,2.004 6.812,4.71 2.197,3.806 1.662,8.152 -1.606,13.038 3.749,-0.225 6.7,0.112 8.854,1.011 2.154,0.899 3.803,2.338 4.945,4.317 1.768,3.062 2.058,6.164 0.874,9.306 -1.186,3.143 -3.698,5.822 -7.538,8.039 -4.025,2.324 -7.645,3.264 -10.856,2.817 -3.212,-0.445 -5.731,-2.25 -7.557,-5.414 -1.191,-2.062 -1.684,-4.254 -1.477,-6.572 0.206,-2.317 1.258,-4.881 3.154,-7.69 -3.048,-0.044 -5.488,-0.541 -7.321,-1.49 -1.833,-0.948 -3.292,-2.362 -4.376,-4.239 -1.553,-2.689 -1.734,-5.443 -0.542,-8.263 1.192,-2.821 3.488,-5.211 6.888,-7.174 z m 2.6,4.621 c -1.692,0.977 -2.812,2.182 -3.36,3.614 -0.548,1.434 -0.408,2.869 0.422,4.307 0.508,0.88 1.148,1.559 1.92,2.037 0.772,0.479 1.678,0.796 2.715,0.952 1.038,0.157 2.631,0.145 4.782,-0.037 1.512,-2.068 2.401,-3.839 2.667,-5.312 0.266,-1.473 0.018,-2.868 -0.744,-4.188 -0.83,-1.438 -2.007,-2.275 -3.531,-2.512 -1.521,-0.236 -3.146,0.143 -4.871,1.139 z m 6.666,27.308 c 1.016,1.759 2.421,2.769 4.218,3.027 1.796,0.261 3.751,-0.22 5.866,-1.441 2.182,-1.26 3.587,-2.741 4.215,-4.446 0.628,-1.704 0.444,-3.42 -0.552,-5.145 -0.791,-1.37 -2.072,-2.3 -3.842,-2.788 -1.771,-0.489 -4.068,-0.562 -6.891,-0.217 l -0.926,0.095 c -1.666,2.271 -2.651,4.276 -2.953,6.019 -0.302,1.742 -0.014,3.374 0.865,4.896 z m 43.989,-37.305 c 3.721,6.444 5.448,11.83 5.183,16.155 -0.266,4.326 -2.53,7.719 -6.792,10.18 -4.127,2.383 -8.189,2.574 -12.186,0.574 -3.997,-2 -7.796,-6.121 -11.4,-12.363 -3.779,-6.546 -5.529,-11.969 -5.249,-16.269 0.28,-4.3 2.542,-7.676 6.789,-10.127 4.144,-2.393 8.219,-2.581 12.226,-0.563 4.007,2.018 7.816,6.155 11.429,12.413 z m -19.155,11.059 c 2.92,5.059 5.525,8.369 7.815,9.934 2.291,1.564 4.577,1.688 6.861,0.369 2.283,-1.318 3.319,-3.383 3.106,-6.191 -0.213,-2.808 -1.759,-6.709 -4.64,-11.699 -2.871,-4.973 -5.478,-8.266 -7.819,-9.88 -2.341,-1.614 -4.654,-1.762 -6.937,-0.443 -2.284,1.318 -3.315,3.369 -3.096,6.151 0.22,2.782 1.79,6.703 4.71,11.759 z m 48.815,-28.183 c 3.721,6.445 5.448,11.83 5.183,16.155 -0.266,4.325 -2.529,7.719 -6.792,10.18 -4.127,2.383 -8.189,2.574 -12.186,0.574 -3.996,-2.001 -7.796,-6.121 -11.4,-12.363 -3.779,-6.546 -5.529,-11.969 -5.249,-16.269 0.28,-4.3 2.542,-7.676 6.789,-10.127 4.144,-2.393 8.219,-2.58 12.226,-0.563 4.006,2.017 7.816,6.155 11.429,12.413 z m -19.156,11.059 c 2.92,5.058 5.525,8.369 7.815,9.934 2.29,1.564 4.577,1.688 6.86,0.369 2.284,-1.318 3.319,-3.382 3.107,-6.191 -0.213,-2.81 -1.759,-6.709 -4.64,-11.699 -2.871,-4.973 -5.478,-8.266 -7.818,-9.88 -2.341,-1.613 -4.654,-1.762 -6.938,-0.443 -2.283,1.318 -3.315,3.369 -3.096,6.151 0.221,2.782 1.79,6.703 4.71,11.759 z"
         id="path68"
         inkscape:connector-curvature="0" />
    </g>
  </g>
</svg>
