<?xml version="1.0" encoding="UTF-8" standalone="no"?>
<svg
   xmlns:dc="http://purl.org/dc/elements/1.1/"
   xmlns:cc="http://creativecommons.org/ns#"
   xmlns:rdf="http://www.w3.org/1999/02/22-rdf-syntax-ns#"
   xmlns:svg="http://www.w3.org/2000/svg"
   xmlns="http://www.w3.org/2000/svg"
   xmlns:xlink="http://www.w3.org/1999/xlink"
   xmlns:sodipodi="http://sodipodi.sourceforge.net/DTD/sodipodi-0.dtd"
   xmlns:inkscape="http://www.inkscape.org/namespaces/inkscape"
   viewBox="0 0 2528.5579 1439.897"
   id="svg2"
   version="1.1"
   inkscape:version="0.48.2 r9819"
   width="100%"
   height="100%"
   sodipodi:docname="floor_0.svg">
  <metadata
     id="metadata86">
    <rdf:RDF>
      <cc:Work
         rdf:about="">
        <dc:format>image/svg+xml</dc:format>
        <dc:type
           rdf:resource="http://purl.org/dc/dcmitype/StillImage" />
      </cc:Work>
    </rdf:RDF>
  </metadata>
  <defs
     id="defs84" />
  <sodipodi:namedview
     pagecolor="#ffffff"
     bordercolor="#666666"
     borderopacity="1"
     objecttolerance="10"
     gridtolerance="10"
     guidetolerance="10"
     inkscape:pageopacity="0"
     inkscape:pageshadow="2"
     inkscape:window-width="640"
     inkscape:window-height="480"
     id="namedview82"
     showgrid="false"
     fit-margin-top="0"
     fit-margin-left="0"
     fit-margin-right="0"
     fit-margin-bottom="0"
     inkscape:zoom="0.092637576"
     inkscape:cx="1792.6615"
     inkscape:cy="379.48023"
     inkscape:window-x="0"
     inkscape:window-y="0"
     inkscape:window-maximized="0"
     inkscape:current-layer="svg2" />
  <g
     id="g4"
     transform="translate(-970.796,-563.333)">
    <defs
       id="defs6">
      <path
         id="a"
         d="m 3499.354,626.158 -280.558,-47.928 -842,5.103 v 633.897 h 286.001 v 206.577 l 560.315,-0.559 z"
         inkscape:connector-curvature="0" />
    </defs>
    <clipPath
       id="b">
      <use
         xlink:href="#a"
         overflow="visible"
         id="use10"
         style="overflow:visible"
         x="0"
         y="0"
         width="3799.7539"
         height="2383.9189" />
    </clipPath>
    <g
       clip-path="url(#b)"
       id="g12"
       style="fill:#f9cc0f">
      <path
         d="m 2392.05,70.868 817.373,2094.237 -19.515,7.617 L 2372.535,78.485 z m -131.185,51.195 817.373,2094.237 -19.515,7.617 L 2241.35,129.68 z m 196.235,-76.579 817.373,2094.237 -19.515,7.617 L 2437.585,53.101 z m -130.1,50.77 817.372,2094.236 -19.515,7.617 -817.372,-2094.236 z m 196.234,-76.579 817.373,2094.237 -19.514,7.616 L 2503.72,27.291 z m 65.05,-25.383 817.373,2094.237 -19.515,7.617 L 2568.769,1.909 z m -523.652,204.349 817.372,2094.236 -19.515,7.617 -817.372,-2094.236 z m -131.185,51.193 817.373,2094.237 -19.515,7.617 -817.373,-2094.237 z m 196.234,-76.578 817.372,2094.236 -19.515,7.617 -817.372,-2094.236 z m -130.1,50.77 817.372,2094.236 -19.515,7.617 -817.372,-2094.236 z m 196.234,-76.578 817.372,2094.236 -19.515,7.617 L 2176.3,155.065 z m 851.072,-332.122 817.373,2094.237 -19.515,7.617 -817.373,-2094.237 z m -131.183,51.193 817.373,2094.237 -19.514,7.616 -817.373,-2094.237 z m 196.235,-76.579 817.373,2094.237 -19.515,7.617 -817.373,-2094.237 z m -130.102,50.771 817.373,2094.237 -19.515,7.617 -817.373,-2094.237 z m 196.233,-76.578 817.372,2094.236 -19.515,7.617 -817.372,-2094.236 z m 65.05,-25.386 817.372,2094.236 -19.515,7.617 -817.372,-2094.236 z m -523.652,204.351 817.373,2094.237 -19.515,7.617 -817.373,-2094.237 z m -131.184,51.194 817.373,2094.237 -19.515,7.617 L 2568.769,1.909 z m 196.235,-76.579 817.373,2094.237 -19.514,7.616 -817.373,-2094.237 z m -130.101,50.77 817.373,2094.237 -19.514,7.616 -817.373,-2094.237 z m 196.234,-76.578 817.372,2094.236 -19.515,7.617 -817.372,-2094.236 z m -1768.276,690.051 817.372,2094.236 -19.515,7.617 -817.372,-2094.236 z m -131.186,51.193 817.372,2094.236 -19.514,7.616 L 931.676,640.765 z m 196.236,-76.578 817.373,2094.237 -19.515,7.617 -817.373,-2094.237 z m -130.1,50.77 817.372,2094.236 -19.515,7.617 L 997.811,614.958 z M 1213.56,530.763 2030.933,2625 l -19.514,7.616 -817.373,-2094.237 z m 65.049,-25.385 817.373,2094.237 -19.514,7.616 -817.373,-2094.237 z m -523.653,204.349 817.373,2094.237 -19.515,7.617 L 735.441,717.344 z m -131.184,51.193 817.372,2094.236 -19.515,7.617 L 604.257,768.537 z m 196.234,-76.578 817.372,2094.236 -19.514,7.616 L 800.492,691.958 z m -130.1,50.771 817.372,2094.236 -19.514,7.616 L 670.392,742.729 z m 196.235,-76.578 817.373,2094.237 -19.515,7.617 L 866.626,666.152 z m 851.07,-332.123 817.372,2094.236 -19.515,7.617 -817.372,-2094.236 z m -131.182,51.194 817.372,2094.236 -19.515,7.617 -817.372,-2094.236 z m 196.233,-76.578 817.373,2094.237 -19.514,7.616 -817.373,-2094.237 z m -130.1,50.77 817.373,2094.237 -19.514,7.616 -817.373,-2094.237 z m 196.234,-76.578 817.373,2094.237 -19.514,7.616 -817.373,-2094.237 z m 65.051,-25.386 817.373,2094.237 -19.515,7.617 -817.373,-2094.237 z m -523.653,204.35 817.372,2094.236 -19.514,7.616 L 1390.28,461.8 z m -131.185,51.194 817.373,2094.237 -19.514,7.616 -817.373,-2094.237 z m 196.235,-76.579 817.373,2094.237 -19.515,7.617 -817.373,-2094.237 z m -130.1,50.77 817.373,2094.237 -19.515,7.617 -817.373,-2094.237 z m 196.233,-76.578 817.373,2094.237 -19.515,7.617 -817.373,-2094.237 z m 851.073,-332.123 817.373,2094.237 -19.515,7.617 L 2372.535,78.485 z m -131.185,51.195 817.373,2094.237 -19.515,7.617 L 2241.35,129.68 z m 196.235,-76.579 817.373,2094.237 -19.515,7.617 L 2437.585,53.101 z m -130.1,50.77 817.372,2094.236 -19.515,7.617 -817.372,-2094.236 z m 196.234,-76.579 817.373,2094.237 -19.514,7.616 L 2503.72,27.291 z m 65.05,-25.383 817.373,2094.237 -19.515,7.617 L 2568.769,1.909 z m -523.652,204.349 817.372,2094.236 -19.515,7.617 -817.372,-2094.236 z m -131.185,51.193 817.373,2094.237 -19.515,7.617 -817.373,-2094.237 z m 196.234,-76.578 817.372,2094.236 -19.515,7.617 -817.372,-2094.236 z m -130.1,50.77 817.372,2094.236 -19.515,7.617 -817.372,-2094.236 z m 196.234,-76.578 817.372,2094.236 -19.515,7.617 L 2176.3,155.065 z m 851.072,-332.122 817.373,2094.237 -19.515,7.617 -817.373,-2094.237 z m -131.183,51.193 817.373,2094.237 -19.514,7.616 -817.373,-2094.237 z m 196.235,-76.579 817.373,2094.237 -19.515,7.617 -817.373,-2094.237 z m -130.102,50.771 817.373,2094.237 -19.515,7.617 -817.373,-2094.237 z m 196.233,-76.578 817.372,2094.236 -19.515,7.617 -817.372,-2094.236 z m 65.05,-25.386 817.372,2094.236 -19.515,7.617 -817.372,-2094.236 z m -523.652,204.351 817.373,2094.237 -19.515,7.617 -817.373,-2094.237 z m -131.184,51.194 817.373,2094.237 -19.515,7.617 L 2568.769,1.909 z m 196.235,-76.579 817.373,2094.237 -19.514,7.616 -817.373,-2094.237 z m -130.101,50.77 817.373,2094.237 -19.514,7.616 -817.373,-2094.237 z m 196.234,-76.578 817.372,2094.236 -19.515,7.617 -817.372,-2094.236 z m -1768.276,690.051 817.372,2094.236 -19.515,7.617 -817.372,-2094.236 z m -131.186,51.193 817.372,2094.236 -19.514,7.616 L 931.676,640.765 z m 196.236,-76.578 817.373,2094.237 -19.515,7.617 -817.373,-2094.237 z m -130.1,50.77 817.372,2094.236 -19.515,7.617 L 997.811,614.958 z M 1213.56,530.763 2030.933,2625 l -19.514,7.616 -817.373,-2094.237 z m 65.049,-25.385 817.373,2094.237 -19.514,7.616 -817.373,-2094.237 z m -523.653,204.349 817.373,2094.237 -19.515,7.617 L 735.441,717.344 z m -131.184,51.193 817.372,2094.236 -19.515,7.617 L 604.257,768.537 z m 196.234,-76.578 817.372,2094.236 -19.514,7.616 L 800.492,691.958 z m -130.1,50.771 817.372,2094.236 -19.514,7.616 L 670.392,742.729 z m 196.235,-76.578 817.373,2094.237 -19.515,7.617 L 866.626,666.152 z m 851.07,-332.123 817.372,2094.236 -19.515,7.617 -817.372,-2094.236 z m -131.182,51.194 817.372,2094.236 -19.515,7.617 -817.372,-2094.236 z m 196.233,-76.578 817.373,2094.237 -19.514,7.616 -817.373,-2094.237 z m -130.1,50.77 817.373,2094.237 -19.514,7.616 -817.373,-2094.237 z m 196.234,-76.578 817.373,2094.237 -19.514,7.616 -817.373,-2094.237 z m 65.051,-25.386 817.373,2094.237 -19.515,7.617 -817.373,-2094.237 z m -523.653,204.35 817.372,2094.236 -19.514,7.616 L 1390.28,461.8 z m -131.185,51.194 817.373,2094.237 -19.514,7.616 -817.373,-2094.237 z m 196.235,-76.579 817.373,2094.237 -19.515,7.617 -817.373,-2094.237 z m -130.1,50.77 817.373,2094.237 -19.515,7.617 -817.373,-2094.237 z m 196.233,-76.578 817.373,2094.237 -19.515,7.617 -817.373,-2094.237 z"
         id="path14"
         inkscape:connector-curvature="0" />
    </g>
    <defs
       id="defs16">
      <path
         id="c"
         d="m 1482.796,1375.23 102,185 263,-150 -165,-302 173.553,-96.753 -141.158,-256.643 -744.395,418.396 152.957,830 261.043,-95 213.357,-120.919 -201.357,-363.505 z"
         inkscape:connector-curvature="0" />
    </defs>
    <clipPath
       id="d">
      <use
         xlink:href="#c"
         overflow="visible"
         id="use20"
         style="overflow:visible"
         x="0"
         y="0"
         width="3799.7539"
         height="2383.9189" />
    </clipPath>
    <g
       clip-path="url(#d)"
       id="g22"
       style="fill:#f9cc0f">
      <path
         d="m 2392.05,70.868 817.373,2094.237 -19.515,7.617 L 2372.535,78.485 z m -131.185,51.195 817.373,2094.237 -19.515,7.617 L 2241.35,129.68 z m 196.235,-76.579 817.373,2094.237 -19.515,7.617 L 2437.585,53.101 z m -130.1,50.77 817.372,2094.236 -19.515,7.617 -817.372,-2094.236 z m 196.234,-76.579 817.373,2094.237 -19.514,7.616 L 2503.72,27.291 z m 65.05,-25.383 817.373,2094.237 -19.515,7.617 L 2568.769,1.909 z m -523.652,204.349 817.372,2094.236 -19.515,7.617 -817.372,-2094.236 z m -131.185,51.193 817.373,2094.237 -19.515,7.617 -817.373,-2094.237 z m 196.234,-76.578 817.372,2094.236 -19.515,7.617 -817.372,-2094.236 z m -130.1,50.77 817.372,2094.236 -19.515,7.617 -817.372,-2094.236 z m 196.234,-76.578 817.372,2094.236 -19.515,7.617 L 2176.3,155.065 z m 851.072,-332.122 817.373,2094.237 -19.515,7.617 -817.373,-2094.237 z m -131.183,51.193 817.373,2094.237 -19.514,7.616 -817.373,-2094.237 z m 196.235,-76.579 817.373,2094.237 -19.515,7.617 -817.373,-2094.237 z m -130.102,50.771 817.373,2094.237 -19.515,7.617 -817.373,-2094.237 z m 196.233,-76.578 817.372,2094.236 -19.515,7.617 -817.372,-2094.236 z m 65.05,-25.386 817.372,2094.236 -19.515,7.617 -817.372,-2094.236 z m -523.652,204.351 817.373,2094.237 -19.515,7.617 -817.373,-2094.237 z m -131.184,51.194 817.373,2094.237 -19.515,7.617 L 2568.769,1.909 z m 196.235,-76.579 817.373,2094.237 -19.514,7.616 -817.373,-2094.237 z m -130.101,50.77 817.373,2094.237 -19.514,7.616 -817.373,-2094.237 z m 196.234,-76.578 817.372,2094.236 -19.515,7.617 -817.372,-2094.236 z m -1768.276,690.051 817.372,2094.236 -19.515,7.617 -817.372,-2094.236 z m -131.186,51.193 817.372,2094.236 -19.514,7.616 L 931.676,640.765 z m 196.236,-76.578 817.373,2094.237 -19.515,7.617 -817.373,-2094.237 z m -130.1,50.77 817.372,2094.236 -19.515,7.617 L 997.811,614.958 z M 1213.56,530.763 2030.933,2625 l -19.514,7.616 -817.373,-2094.237 z m 65.049,-25.385 817.373,2094.237 -19.514,7.616 -817.373,-2094.237 z m -523.653,204.349 817.373,2094.237 -19.515,7.617 L 735.441,717.344 z m -131.184,51.193 817.372,2094.236 -19.515,7.617 L 604.257,768.537 z m 196.234,-76.578 817.372,2094.236 -19.514,7.616 L 800.492,691.958 z m -130.1,50.771 817.372,2094.236 -19.514,7.616 L 670.392,742.729 z m 196.235,-76.578 817.373,2094.237 -19.515,7.617 L 866.626,666.152 z m 851.07,-332.123 817.372,2094.236 -19.515,7.617 -817.372,-2094.236 z m -131.182,51.194 817.372,2094.236 -19.515,7.617 -817.372,-2094.236 z m 196.233,-76.578 817.373,2094.237 -19.514,7.616 -817.373,-2094.237 z m -130.1,50.77 817.373,2094.237 -19.514,7.616 -817.373,-2094.237 z m 196.234,-76.578 817.373,2094.237 -19.514,7.616 -817.373,-2094.237 z m 65.051,-25.386 817.373,2094.237 -19.515,7.617 -817.373,-2094.237 z m -523.653,204.35 817.372,2094.236 -19.514,7.616 L 1390.28,461.8 z m -131.185,51.194 817.373,2094.237 -19.514,7.616 -817.373,-2094.237 z m 196.235,-76.579 817.373,2094.237 -19.515,7.617 -817.373,-2094.237 z m -130.1,50.77 817.373,2094.237 -19.515,7.617 -817.373,-2094.237 z m 196.233,-76.578 817.373,2094.237 -19.515,7.617 -817.373,-2094.237 z m 851.073,-332.123 817.373,2094.237 -19.515,7.617 L 2372.535,78.485 z m -131.185,51.195 817.373,2094.237 -19.515,7.617 L 2241.35,129.68 z m 196.235,-76.579 817.373,2094.237 -19.515,7.617 L 2437.585,53.101 z m -130.1,50.77 817.372,2094.236 -19.515,7.617 -817.372,-2094.236 z m 196.234,-76.579 817.373,2094.237 -19.514,7.616 L 2503.72,27.291 z m 65.05,-25.383 817.373,2094.237 -19.515,7.617 L 2568.769,1.909 z m -523.652,204.349 817.372,2094.236 -19.515,7.617 -817.372,-2094.236 z m -131.185,51.193 817.373,2094.237 -19.515,7.617 -817.373,-2094.237 z m 196.234,-76.578 817.372,2094.236 -19.515,7.617 -817.372,-2094.236 z m -130.1,50.77 817.372,2094.236 -19.515,7.617 -817.372,-2094.236 z m 196.234,-76.578 817.372,2094.236 -19.515,7.617 L 2176.3,155.065 z m 851.072,-332.122 817.373,2094.237 -19.515,7.617 -817.373,-2094.237 z m -131.183,51.193 817.373,2094.237 -19.514,7.616 -817.373,-2094.237 z m 196.235,-76.579 817.373,2094.237 -19.515,7.617 -817.373,-2094.237 z m -130.102,50.771 817.373,2094.237 -19.515,7.617 -817.373,-2094.237 z m 196.233,-76.578 817.372,2094.236 -19.515,7.617 -817.372,-2094.236 z m 65.05,-25.386 817.372,2094.236 -19.515,7.617 -817.372,-2094.236 z m -523.652,204.351 817.373,2094.237 -19.515,7.617 -817.373,-2094.237 z m -131.184,51.194 817.373,2094.237 -19.515,7.617 L 2568.769,1.909 z m 196.235,-76.579 817.373,2094.237 -19.514,7.616 -817.373,-2094.237 z m -130.101,50.77 817.373,2094.237 -19.514,7.616 -817.373,-2094.237 z m 196.234,-76.578 817.372,2094.236 -19.515,7.617 -817.372,-2094.236 z m -1768.276,690.051 817.372,2094.236 -19.515,7.617 -817.372,-2094.236 z m -131.186,51.193 817.372,2094.236 -19.514,7.616 L 931.676,640.765 z m 196.236,-76.578 817.373,2094.237 -19.515,7.617 -817.373,-2094.237 z m -130.1,50.77 817.372,2094.236 -19.515,7.617 L 997.811,614.958 z M 1213.56,530.763 2030.933,2625 l -19.514,7.616 -817.373,-2094.237 z m 65.049,-25.385 817.373,2094.237 -19.514,7.616 -817.373,-2094.237 z m -523.653,204.349 817.373,2094.237 -19.515,7.617 L 735.441,717.344 z m -131.184,51.193 817.372,2094.236 -19.515,7.617 L 604.257,768.537 z m 196.234,-76.578 817.372,2094.236 -19.514,7.616 L 800.492,691.958 z m -130.1,50.771 817.372,2094.236 -19.514,7.616 L 670.392,742.729 z m 196.235,-76.578 817.373,2094.237 -19.515,7.617 L 866.626,666.152 z m 851.07,-332.123 817.372,2094.236 -19.515,7.617 -817.372,-2094.236 z m -131.182,51.194 817.372,2094.236 -19.515,7.617 -817.372,-2094.236 z m 196.233,-76.578 817.373,2094.237 -19.514,7.616 -817.373,-2094.237 z m -130.1,50.77 817.373,2094.237 -19.514,7.616 -817.373,-2094.237 z m 196.234,-76.578 817.373,2094.237 -19.514,7.616 -817.373,-2094.237 z m 65.051,-25.386 817.373,2094.237 -19.515,7.617 -817.373,-2094.237 z m -523.653,204.35 817.372,2094.236 -19.514,7.616 L 1390.28,461.8 z m -131.185,51.194 817.373,2094.237 -19.514,7.616 -817.373,-2094.237 z m 196.235,-76.579 817.373,2094.237 -19.515,7.617 -817.373,-2094.237 z m -130.1,50.77 817.373,2094.237 -19.515,7.617 -817.373,-2094.237 z m 196.233,-76.578 817.373,2094.237 -19.515,7.617 -817.373,-2094.237 z"
         id="path24"
         inkscape:connector-curvature="0" />
    </g>
  </g>
  <path
     d="M 1406,653.897 V 19.999998 l -148,0.897 L 854,129.897 744.395,191.501 885.553,448.144 712,544.897 l 165,302 -263,150 -102,-185 -86,48.576 201.357,363.505 L 1268,860.897 1692.001,860.474 V 653.897 z"
     id="path26"
     inkscape:connector-curvature="0"
     style="fill:#f9cc0f" />
  <g
     stroke-miterlimit="10"
     id="g28"
     style="fill:none;stroke:#f7f4ec;stroke-width:20;stroke-miterlimit:10"
     transform="translate(-970.796,-563.333)">
    <path
       d="M 2662.797,1433.806 V 1217.23 H 2376.796 V 573.333 m -750.224,1265.283 -229.776,-414.81 86,-48.576 102,185 263,-150 -165,-302 173.553,-96.753 -179.675,-326.671"
       id="path30"
       inkscape:connector-curvature="0" />
  </g>
  <g
     id="g32"
     transform="translate(-970.796,-563.333)">
    <path
       d="m 2239.223,1345.417 82.94,144.085 -149.939,86.31 -82.94,-144.085 z"
       id="path34"
       inkscape:connector-curvature="0"
       style="fill:none" />
    <path
       d="m 2137.274,1429.811 44.262,-25.48 c 4.988,-2.872 10.272,-3.555 15.853,-2.052 5.582,1.503 9.807,4.748 12.678,9.735 l 11.582,20.119 c 0.313,0.545 0.387,1.131 0.217,1.759 -0.168,0.628 -0.526,1.098 -1.071,1.411 -0.167,0.096 -0.574,0.359 -1.221,0.787 -0.646,0.428 -1.196,0.759 -1.648,0.99 -0.452,0.233 -0.98,0.454 -1.586,0.662 -0.604,0.209 -1.134,0.234 -1.588,0.077 -0.453,-0.158 -0.836,-0.509 -1.15,-1.054 l -11.582,-20.119 c -1.592,-2.766 -3.94,-4.567 -7.045,-5.403 -3.104,-0.835 -6.04,-0.458 -8.806,1.135 l -44.262,25.48 c -2.766,1.593 -4.566,3.941 -5.403,7.045 -0.835,3.105 -0.458,6.04 1.135,8.806 l 10.423,18.107 0.398,0.692 0.47,0.817 c 0.072,0.125 0.191,0.379 0.354,0.759 0.164,0.38 0.24,0.657 0.228,0.831 l -0.056,0.702 c -0.026,0.295 -0.13,0.55 -0.313,0.766 -0.181,0.216 -0.44,0.421 -0.776,0.614 -0.167,0.096 -0.574,0.359 -1.221,0.787 -0.646,0.428 -1.195,0.759 -1.648,0.991 -0.452,0.233 -0.98,0.454 -1.586,0.662 -0.604,0.209 -1.134,0.234 -1.588,0.077 -0.453,-0.157 -0.837,-0.508 -1.15,-1.053 l -11.582,-20.119 c -2.871,-4.987 -3.555,-10.271 -2.052,-15.853 1.502,-5.581 4.746,-9.807 9.734,-12.678 z m 34.871,9.39 c 1.09,-0.627 2.263,-0.771 3.517,-0.434 l 53.891,14.513 c 1.255,0.338 2.196,1.052 2.823,2.142 0.627,1.091 0.773,2.263 0.434,3.517 -0.337,1.254 -1.051,2.195 -2.142,2.823 l -18.107,10.424 16.214,28.167 c 0.628,1.09 0.773,2.263 0.435,3.517 -0.337,1.254 -1.051,2.195 -2.142,2.823 l -24.143,13.898 c -1.09,0.627 -2.262,0.772 -3.517,0.434 -1.253,-0.337 -2.195,-1.051 -2.823,-2.142 l -16.215,-28.167 -18.107,10.424 c -1.089,0.627 -2.262,0.772 -3.517,0.435 -1.254,-0.338 -2.195,-1.051 -2.823,-2.142 -0.627,-1.09 -0.771,-2.262 -0.434,-3.517 l 14.513,-53.892 c 0.34,-1.253 1.053,-2.195 2.143,-2.823 z m -69.283,-234.308 c 7.921,4.526 14.215,10.828 18.88,18.908 4.666,8.081 6.977,16.683 6.935,25.805 -0.043,9.124 -2.327,17.646 -6.851,25.567 -4.525,7.922 -10.827,14.216 -18.907,18.881 -8.081,4.665 -16.684,6.976 -25.806,6.934 -9.123,-0.041 -17.646,-2.325 -25.567,-6.851 -7.922,-4.524 -14.215,-10.827 -18.881,-18.908 -4.665,-8.08 -6.977,-16.681 -6.934,-25.805 0.042,-9.122 2.325,-17.645 6.851,-25.567 4.525,-7.921 10.827,-14.215 18.908,-18.88 8.08,-4.665 16.682,-6.976 25.805,-6.934 9.122,0.042 17.645,2.326 25.567,6.85 z m -32.164,16.211 -5.357,-9.279 c -0.312,-0.541 -0.743,-0.886 -1.292,-1.033 -0.549,-0.147 -1.094,-0.064 -1.635,0.249 l -11.135,6.428 c -0.542,0.313 -0.885,0.743 -1.032,1.292 -0.147,0.549 -0.064,1.094 0.248,1.635 l 5.357,9.279 c 0.313,0.542 0.744,0.885 1.292,1.032 0.549,0.147 1.093,0.064 1.635,-0.248 l 11.135,-6.429 c 0.541,-0.312 0.886,-0.743 1.033,-1.292 0.147,-0.549 0.064,-1.092 -0.249,-1.634 z m 37.423,47.676 -5.357,-9.279 c -0.312,-0.541 -0.743,-0.885 -1.292,-1.032 -0.548,-0.147 -1.094,-0.064 -1.635,0.248 l -5.567,3.214 -17.143,-29.692 c -0.312,-0.541 -0.743,-0.885 -1.292,-1.032 -0.549,-0.147 -1.094,-0.064 -1.635,0.248 l -18.558,10.714 c -0.542,0.313 -0.885,0.744 -1.033,1.292 -0.146,0.548 -0.064,1.094 0.248,1.635 l 5.357,9.279 c 0.313,0.542 0.744,0.885 1.292,1.032 0.549,0.147 1.093,0.064 1.635,-0.248 l 5.567,-3.214 10.714,18.558 -5.567,3.214 c -0.542,0.312 -0.885,0.743 -1.033,1.292 -0.146,0.549 -0.064,1.094 0.249,1.635 l 5.357,9.279 c 0.313,0.542 0.744,0.886 1.292,1.033 0.549,0.147 1.093,0.064 1.635,-0.249 l 25.981,-15 c 0.541,-0.312 0.885,-0.743 1.032,-1.292 0.147,-0.549 0.066,-1.093 -0.247,-1.635 z m -175.599,-69.896 c 0.266,0.461 0.324,0.972 0.174,1.529 l -7.459,27.839 12.074,3.235 c 1.062,0.285 1.858,0.888 2.391,1.81 0.532,0.921 0.656,1.913 0.372,2.975 -0.285,1.062 -0.888,1.859 -1.809,2.391 l -23.815,13.75 c -0.922,0.532 -1.914,0.655 -2.976,0.371 -1.062,-0.285 -1.859,-0.888 -2.392,-1.809 l -13.75,-23.816 c -0.531,-0.921 -0.655,-1.913 -0.371,-2.976 0.285,-1.061 0.887,-1.858 1.809,-2.391 0.921,-0.532 1.913,-0.655 2.975,-0.371 l 12.075,3.235 7.46,-27.839 c 0.149,-0.559 0.454,-0.972 0.915,-1.237 0.46,-0.266 0.971,-0.324 1.53,-0.175 l 9.559,2.562 c 0.56,0.151 0.973,0.457 1.238,0.917 z m 15.001,-69.902 13.75,23.816 c 0.532,0.922 0.656,1.914 0.371,2.975 -0.285,1.062 -0.888,1.859 -1.81,2.392 -0.922,0.533 -1.913,0.656 -2.975,0.371 l -12.075,-3.235 -7.459,27.839 c -0.15,0.56 -0.456,0.972 -0.916,1.237 -0.461,0.267 -0.971,0.325 -1.53,0.175 l -9.559,-2.562 c -0.559,-0.149 -0.971,-0.455 -1.237,-0.916 -0.266,-0.46 -0.324,-0.97 -0.175,-1.529 l 7.46,-27.839 -12.075,-3.236 c -1.062,-0.284 -1.858,-0.887 -2.391,-1.809 -0.532,-0.921 -0.656,-1.913 -0.372,-2.975 0.285,-1.061 0.887,-1.859 1.809,-2.391 l 23.816,-13.75 c 0.921,-0.532 1.914,-0.655 2.976,-0.371 1.063,0.285 1.86,0.888 2.392,1.808 z"
       id="path36"
       inkscape:connector-curvature="0"
       style="fill:#0a3e60" />
    <g
       id="g38"
       style="fill:#0a3e60">
      <path
         d="m 1442.286,1464.241 c 2.663,0.714 4.686,2.269 6.07,4.666 1.384,2.396 1.719,4.928 1.005,7.59 -0.713,2.663 -2.269,4.687 -4.666,6.071 -2.397,1.384 -4.927,1.719 -7.589,1.005 -2.663,-0.712 -4.687,-2.269 -6.071,-4.665 -1.384,-2.397 -1.719,-4.927 -1.005,-7.591 0.713,-2.662 2.269,-4.687 4.666,-6.07 2.397,-1.384 4.927,-1.719 7.59,-1.006 z m 40.01,26.309 c 0.596,1.031 0.74,2.116 0.436,3.254 -0.306,1.139 -0.974,2.005 -2.004,2.601 -1.314,0.759 -2.666,0.801 -4.053,0.124 l -16.387,-8.117 -1.739,1.005 2.946,5.104 18.723,10.376 c 0.455,0.253 0.816,0.611 1.084,1.075 0.387,0.671 0.477,1.392 0.27,2.164 -0.207,0.772 -0.646,1.352 -1.315,1.739 l -7.423,4.286 6.072,10.516 c 0.684,1.186 0.846,2.449 0.487,3.791 -0.359,1.342 -1.132,2.355 -2.317,3.039 l -6.186,3.572 c -1.186,0.685 -2.449,0.847 -3.791,0.487 -1.342,-0.359 -2.355,-1.132 -3.039,-2.317 l -6.071,-10.516 -7.423,4.286 c -0.671,0.387 -1.392,0.477 -2.164,0.27 -0.772,-0.206 -1.352,-0.645 -1.739,-1.315 -0.268,-0.464 -0.397,-0.956 -0.389,-1.477 l 0.375,-21.404 -2.947,-5.104 -1.739,1.005 -1.165,18.251 c -0.108,1.54 -0.818,2.689 -2.133,3.448 -1.031,0.596 -2.116,0.741 -3.254,0.436 -1.139,-0.305 -2.005,-0.973 -2.601,-2.004 -0.431,-0.747 -0.62,-1.55 -0.564,-2.406 l 1.326,-20.562 c 0.289,-3.843 1.761,-6.532 4.416,-8.065 l 14.846,-8.572 c 2.654,-1.533 5.719,-1.463 9.192,0.208 l 18.469,9.131 c 0.769,0.379 1.37,0.944 1.801,1.691 z m 49.052,-46.47 9.286,16.083 c 0.595,1.032 0.74,2.117 0.436,3.254 -0.305,1.139 -0.974,2.005 -2.004,2.601 -1.031,0.595 -2.116,0.741 -3.254,0.436 -1.139,-0.305 -2.005,-0.973 -2.601,-2.004 l -7.857,-13.609 -2.475,1.429 20.357,35.26 c 0.684,1.186 0.847,2.449 0.488,3.791 -0.359,1.342 -1.132,2.355 -2.318,3.04 -1.186,0.685 -2.449,0.847 -3.791,0.488 -1.341,-0.359 -2.354,-1.132 -3.039,-2.317 l -10.357,-17.939 -2.475,1.429 10.357,17.939 c 0.684,1.185 0.847,2.449 0.487,3.791 -0.359,1.342 -1.132,2.355 -2.317,3.04 -1.186,0.685 -2.45,0.848 -3.791,0.487 -1.342,-0.359 -2.355,-1.132 -3.039,-2.317 l -20.357,-35.26 -2.475,1.429 7.857,13.609 c 0.595,1.031 0.74,2.116 0.436,3.254 -0.305,1.139 -0.974,2.006 -2.004,2.601 -1.031,0.595 -2.116,0.741 -3.254,0.436 -1.139,-0.305 -2.005,-0.973 -2.601,-2.004 l -9.286,-16.083 c -1.19,-2.062 -1.48,-4.231 -0.871,-6.508 0.61,-2.276 1.945,-4.01 4.008,-5.201 l 24.743,-14.287 c 2.062,-1.19 4.23,-1.48 6.508,-0.871 2.279,0.606 4.012,1.942 5.203,4.003 z m -27.205,-15.557 c 2.662,0.714 4.686,2.269 6.07,4.666 1.384,2.396 1.719,4.928 1.006,7.59 -0.714,2.663 -2.269,4.687 -4.666,6.071 -2.397,1.384 -4.927,1.719 -7.59,1.005 -2.663,-0.712 -4.687,-2.269 -6.07,-4.665 -1.384,-2.397 -1.719,-4.927 -1.006,-7.591 0.713,-2.662 2.269,-4.687 4.666,-6.07 2.397,-1.384 4.927,-1.718 7.59,-1.006 z"
         id="path40"
         inkscape:connector-curvature="0" />
    </g>
    <path
       d="m 2256.954,604.746 c 4.574,1.226 8.044,3.888 10.41,7.986 2.366,4.098 2.937,8.434 1.711,13.008 -1.226,4.574 -3.887,8.043 -7.985,10.41 l -2.475,1.429 0.714,1.237 c 1.369,2.372 1.694,4.898 0.975,7.582 -0.719,2.683 -2.264,4.709 -4.635,6.079 l -27.218,15.714 c -2.372,1.37 -4.899,1.694 -7.583,0.976 -2.683,-0.719 -4.709,-2.264 -6.078,-4.636 l -16.429,-28.455 c -0.387,-0.67 -0.477,-1.391 -0.27,-2.164 0.207,-0.771 0.645,-1.352 1.315,-1.739 l 44.539,-25.714 c 4.099,-2.368 8.435,-2.938 13.009,-1.713 z m -44.204,79.107 69.282,-40 c 1.578,2.732 1.958,5.623 1.141,8.672 -0.817,3.05 -2.592,5.363 -5.324,6.94 l -49.487,28.571 c -2.732,1.577 -5.623,1.957 -8.672,1.141 -3.049,-0.818 -5.362,-2.592 -6.94,-5.324 z m 48.062,-60.328 c 0.61,-2.276 0.32,-4.445 -0.871,-6.508 -1.19,-2.062 -2.924,-3.397 -5.201,-4.008 -2.276,-0.609 -4.446,-0.32 -6.508,0.871 l -2.475,1.429 8.572,14.847 2.475,-1.429 c 2.062,-1.191 3.398,-2.924 4.008,-5.202 z m 6.334,74.209 14.286,24.744 c 0.908,1.572 1.276,3.268 1.106,5.084 -0.171,1.817 -0.843,3.407 -2.015,4.771 l 17.389,30.118 c 0.773,1.34 0.954,2.782 0.54,4.328 -0.414,1.544 -1.292,2.704 -2.631,3.478 l -4.949,2.857 c -1.34,0.773 -2.783,0.953 -4.328,0.54 -1.545,-0.415 -2.705,-1.292 -3.478,-2.632 l -17.388,-30.118 c -1.767,0.333 -3.48,0.12 -5.139,-0.642 -1.66,-0.76 -2.942,-1.926 -3.851,-3.499 l -14.286,-24.744 c -0.387,-0.67 -0.477,-1.392 -0.27,-2.164 0.207,-0.771 0.646,-1.352 1.315,-1.739 0.67,-0.387 1.392,-0.476 2.165,-0.27 0.772,0.207 1.352,0.646 1.739,1.315 l 9.286,16.083 c 0.387,0.67 0.967,1.109 1.739,1.316 0.772,0.207 1.494,0.117 2.164,-0.27 0.67,-0.387 1.109,-0.966 1.316,-1.739 0.207,-0.772 0.117,-1.494 -0.27,-2.164 l -9.286,-16.084 c -0.387,-0.669 -0.477,-1.391 -0.27,-2.163 0.207,-0.772 0.645,-1.353 1.315,-1.739 0.669,-0.387 1.392,-0.477 2.164,-0.27 0.772,0.207 1.353,0.646 1.74,1.315 l 9.286,16.083 c 0.387,0.67 0.966,1.109 1.739,1.315 0.772,0.208 1.493,0.118 2.164,-0.27 0.669,-0.387 1.109,-0.966 1.315,-1.739 0.207,-0.771 0.117,-1.493 -0.27,-2.164 l -9.286,-16.083 c -0.387,-0.67 -0.477,-1.391 -0.27,-2.164 0.207,-0.771 0.645,-1.352 1.315,-1.739 0.67,-0.387 1.392,-0.476 2.164,-0.27 0.774,0.211 1.354,0.65 1.74,1.319 z m 29.693,-17.142 35.714,61.859 c 0.773,1.34 0.954,2.782 0.54,4.328 -0.414,1.544 -1.292,2.704 -2.631,3.478 l -4.949,2.857 c -1.341,0.773 -2.783,0.953 -4.328,0.54 -1.545,-0.415 -2.705,-1.292 -3.478,-2.632 l -11.429,-19.795 -8.66,5 c -0.335,0.193 -0.696,0.239 -1.082,0.135 -0.387,-0.103 -0.676,-0.322 -0.87,-0.658 l -17.857,-30.929 c -1.964,-3.402 -2.435,-7.014 -1.41,-10.836 1.023,-3.821 3.237,-6.715 6.639,-8.679 l 9.897,-5.714 c 0.67,-0.387 1.392,-0.477 2.164,-0.27 0.773,0.207 1.353,0.646 1.74,1.316 z"
       id="path42"
       inkscape:connector-curvature="0"
       style="fill:#0a3e60" />
    <g
       id="g44"
       style="fill:#0a3e60">
      <path
         d="m 2010.144,856.294 -6.597,3.809 -19.066,-18.491 c -0.827,-0.808 -1.969,-2.004 -3.424,-3.588 -1.456,-1.584 -2.431,-2.707 -2.926,-3.368 0.456,1.18 0.991,2.743 1.607,4.688 0.616,1.945 1.041,3.414 1.275,4.406 l 6.575,25.567 -6.597,3.809 -15.518,-15.804 -15.565,-15.709 6.191,-3.574 17.783,18.556 c 2.83,2.989 5.19,5.709 7.079,8.159 -0.644,-1.545 -1.292,-3.313 -1.946,-5.304 -0.654,-1.991 -1.145,-3.624 -1.476,-4.899 l -6.471,-25.154 6.013,-3.472 18.759,18.195 c 1.754,1.671 4.118,4.32 7.092,7.948 -1.143,-2.565 -2.311,-5.995 -3.505,-10.29 l -7.174,-24.613 6.14,-3.545 11.751,42.674 z m 37.931,-21.899 -9.652,-8.162 -14.183,8.188 2.319,12.396 -6.394,3.691 -7.625,-45.259 6.597,-3.809 35.382,29.233 -6.444,3.722 z m -14.267,-12.466 -9.306,-8.091 c -0.645,-0.53 -1.611,-1.393 -2.899,-2.589 -1.288,-1.195 -2.212,-2.083 -2.771,-2.662 0.744,2.345 1.389,5.006 1.936,7.982 l 2.232,11.601 10.808,-6.241 z m 25.608,5.918 -21.416,-37.094 6.064,-3.501 18.413,31.893 15.706,-9.067 3.003,5.201 -21.77,12.568 z m 56.478,-32.608 -7.028,4.058 -21.343,-10.072 -1.893,4.983 8.013,13.878 -6.064,3.501 -21.416,-37.094 6.064,-3.501 10.225,17.71 c 0.486,-2.987 1.007,-5.893 1.564,-8.718 l 3.181,-17.635 6.901,-3.984 c -2.084,11.352 -3.597,19.454 -4.54,24.306 l 26.336,12.568 z m 25.879,-14.941 -20.982,12.114 -21.416,-37.094 20.982,-12.114 2.959,5.125 -14.918,8.613 5.83,10.098 13.98,-8.071 2.93,5.075 -13.98,8.071 6.724,11.646 14.918,-8.613 2.973,5.15 z m 5.527,-22.947 8.555,14.817 -6.064,3.501 -21.416,-37.094 10.479,-6.05 c 4.786,-2.764 8.848,-3.913 12.184,-3.448 3.335,0.465 6.048,2.507 8.138,6.127 2.666,4.618 2.164,9.294 -1.507,14.03 l 19.957,10.366 -6.901,3.984 -17.435,-9.69 -5.99,3.457 z m -2.9,-5.024 4.212,-2.432 c 2.825,-1.631 4.569,-3.337 5.232,-5.118 0.663,-1.781 0.399,-3.703 -0.792,-5.767 -1.211,-2.098 -2.765,-3.208 -4.663,-3.33 -1.897,-0.122 -4.225,0.613 -6.982,2.204 l -4.009,2.314 7.002,12.129 z m -91.779,149.152 c 1.904,3.298 2.206,6.575 0.905,9.829 -1.301,3.255 -4.049,6.093 -8.244,8.515 -4.195,2.422 -8.004,3.753 -11.429,3.994 l -3.311,-5.734 c 2.15,-0.182 4.309,-0.594 6.476,-1.235 2.167,-0.642 4.07,-1.437 5.711,-2.384 2.401,-1.387 3.91,-2.866 4.524,-4.439 0.614,-1.572 0.477,-3.128 -0.412,-4.667 -0.801,-1.387 -2.004,-2.26 -3.609,-2.619 -1.606,-0.358 -4.43,-0.25 -8.473,0.325 -4.174,0.583 -7.462,0.396 -9.865,-0.563 -2.402,-0.958 -4.317,-2.672 -5.743,-5.142 -1.787,-3.095 -2.094,-6.166 -0.92,-9.211 1.173,-3.046 3.613,-5.638 7.317,-7.776 3.552,-2.051 7.537,-3.314 11.953,-3.789 l 0.928,6.061 c -4.099,0.518 -7.443,1.523 -10.031,3.018 -1.962,1.133 -3.204,2.419 -3.726,3.859 -0.522,1.44 -0.377,2.862 0.433,4.266 0.557,0.964 1.236,1.672 2.037,2.122 0.802,0.451 1.843,0.712 3.125,0.784 1.282,0.072 3.42,-0.091 6.416,-0.49 3.377,-0.438 5.984,-0.534 7.819,-0.285 1.835,0.249 3.404,0.819 4.71,1.712 1.307,0.891 2.442,2.174 3.409,3.849 z m 22.614,-34.132 c 2.236,3.874 2.682,7.574 1.336,11.103 -1.346,3.529 -4.362,6.646 -9.047,9.351 l -3.856,2.227 8.013,13.878 -6.064,3.501 -21.416,-37.094 10.682,-6.167 c 4.634,-2.675 8.653,-3.732 12.056,-3.171 3.402,0.56 6.167,2.684 8.296,6.372 z m -14.511,17.579 3.222,-1.86 c 3.112,-1.796 5.083,-3.656 5.913,-5.579 0.83,-1.922 0.581,-4.034 -0.748,-6.334 -1.23,-2.132 -2.8,-3.346 -4.708,-3.643 -1.909,-0.296 -4.241,0.352 -6.998,1.943 l -4.212,2.432 7.531,13.041 z m 59.874,-9.264 -9.652,-8.162 -14.183,8.188 2.319,12.396 -6.394,3.691 -7.625,-45.259 6.597,-3.809 35.382,29.233 -6.444,3.722 z m -14.267,-12.466 -9.306,-8.091 c -0.645,-0.53 -1.611,-1.393 -2.899,-2.589 -1.288,-1.196 -2.212,-2.083 -2.771,-2.662 0.744,2.344 1.389,5.005 1.936,7.982 l 2.232,11.601 10.808,-6.241 z M 2129,827.578 c -3.485,2.012 -5.512,4.829 -6.082,8.45 -0.57,3.622 0.4,7.606 2.91,11.953 2.627,4.551 5.574,7.438 8.841,8.664 3.267,1.226 6.719,0.789 10.356,-1.311 1.573,-0.908 3.005,-1.943 4.296,-3.106 1.291,-1.162 2.59,-2.448 3.896,-3.856 l 3.003,5.201 c -2.274,2.779 -5.255,5.233 -8.943,7.362 -5.43,3.135 -10.549,3.897 -15.357,2.287 -4.809,-1.61 -8.981,-5.477 -12.516,-11.601 -2.227,-3.856 -3.468,-7.639 -3.726,-11.346 -0.258,-3.707 0.505,-7.103 2.29,-10.185 1.784,-3.082 4.477,-5.663 8.08,-7.743 3.789,-2.188 7.749,-3.414 11.881,-3.68 l 0.733,6.309 c -1.594,0.131 -3.217,0.375 -4.872,0.732 -1.655,0.357 -3.251,0.981 -4.79,1.87 z m 56.854,10.408 -20.982,12.114 -21.416,-37.094 20.982,-12.114 2.959,5.125 -14.918,8.613 5.83,10.098 13.98,-8.071 2.93,5.074 -13.98,8.071 6.724,11.646 14.918,-8.613 2.973,5.151 z"
         id="path46"
         inkscape:connector-curvature="0" />
    </g>
    <g
       id="g48"
       style="fill:#0a3e60">
      <path
         d="m 1956.462,1432.35 8.555,14.817 -6.064,3.501 -21.416,-37.094 10.479,-6.05 c 4.787,-2.764 8.848,-3.913 12.184,-3.448 3.336,0.465 6.048,2.507 8.138,6.126 2.666,4.618 2.164,9.294 -1.507,14.03 l 19.956,10.366 -6.901,3.984 -17.435,-9.69 -5.989,3.458 z m -2.9,-5.024 4.211,-2.432 c 2.825,-1.631 4.569,-3.337 5.232,-5.118 0.663,-1.781 0.399,-3.703 -0.792,-5.767 -1.21,-2.097 -2.765,-3.208 -4.663,-3.33 -1.897,-0.123 -4.225,0.612 -6.981,2.204 l -4.009,2.314 7.002,12.129 z m 59.585,-7.947 -20.982,12.114 -21.416,-37.094 20.982,-12.114 2.959,5.125 -14.918,8.613 5.83,10.098 13.98,-8.071 2.93,5.075 -13.98,8.071 6.724,11.646 14.918,-8.613 2.973,5.15 z m 11.574,-33.509 13.65,-7.881 10.752,18.623 c -1.813,2.017 -3.659,3.77 -5.538,5.261 -1.879,1.491 -4.012,2.925 -6.396,4.302 -5.616,3.243 -10.906,4.081 -15.869,2.514 -4.964,-1.565 -9.193,-5.376 -12.689,-11.432 -3.447,-5.971 -4.429,-11.635 -2.943,-16.992 1.485,-5.356 5.239,-9.773 11.261,-13.25 3.873,-2.236 7.974,-3.611 12.3,-4.125 l 0.784,6.279 c -3.812,0.352 -7.224,1.396 -10.234,3.134 -3.958,2.285 -6.37,5.335 -7.234,9.15 -0.864,3.815 -0.052,7.878 2.438,12.192 2.617,4.533 5.643,7.381 9.078,8.544 3.434,1.164 7.096,0.622 10.987,-1.625 1.962,-1.133 3.918,-2.589 5.868,-4.368 l -5.522,-9.565 -7.688,4.438 -3.005,-5.199 z m 34.172,7.098 -21.416,-37.094 6.064,-3.501 21.416,37.094 -6.064,3.501 z m 31.431,-31.577 c 1.904,3.299 2.206,6.575 0.905,9.83 -1.301,3.254 -4.049,6.093 -8.244,8.515 -4.195,2.422 -8.005,3.753 -11.429,3.994 l -3.311,-5.734 c 2.15,-0.181 4.309,-0.593 6.476,-1.235 2.167,-0.642 4.07,-1.437 5.711,-2.384 2.401,-1.386 3.91,-2.866 4.524,-4.438 0.614,-1.573 0.477,-3.128 -0.412,-4.668 -0.801,-1.387 -2.003,-2.26 -3.609,-2.618 -1.606,-0.358 -4.43,-0.251 -8.473,0.324 -4.175,0.583 -7.463,0.396 -9.865,-0.562 -2.402,-0.958 -4.317,-2.672 -5.743,-5.142 -1.787,-3.095 -2.094,-6.166 -0.92,-9.211 1.173,-3.045 3.612,-5.638 7.316,-7.776 3.552,-2.051 7.537,-3.313 11.953,-3.789 l 0.928,6.061 c -4.099,0.518 -7.442,1.523 -10.031,3.017 -1.962,1.133 -3.204,2.42 -3.726,3.859 -0.521,1.44 -0.377,2.862 0.433,4.267 0.557,0.964 1.236,1.671 2.038,2.122 0.801,0.45 1.843,0.712 3.125,0.783 1.281,0.072 3.419,-0.091 6.415,-0.49 3.377,-0.439 5.984,-0.534 7.819,-0.286 1.835,0.249 3.404,0.82 4.71,1.713 1.307,0.89 2.443,2.173 3.41,3.848 z m 25.808,-1.47 -6.064,3.501 -18.413,-31.893 -10.91,6.299 -3.003,-5.201 27.884,-16.099 3.003,5.201 -10.91,6.299 18.413,31.893 z m 14.103,-27.899 8.555,14.817 -6.064,3.501 -21.416,-37.094 10.479,-6.05 c 4.786,-2.764 8.848,-3.913 12.184,-3.448 3.335,0.465 6.048,2.507 8.138,6.126 2.666,4.618 2.164,9.294 -1.507,14.03 l 19.956,10.366 -6.901,3.984 -17.435,-9.69 -5.989,3.458 z m -2.901,-5.023 4.212,-2.432 c 2.825,-1.631 4.568,-3.337 5.232,-5.118 0.663,-1.781 0.399,-3.703 -0.792,-5.767 -1.211,-2.097 -2.765,-3.208 -4.663,-3.33 -1.897,-0.123 -4.225,0.612 -6.982,2.204 l -4.009,2.314 7.002,12.129 z m 61.616,-9.119 -9.652,-8.163 -14.183,8.188 2.319,12.396 -6.394,3.691 -7.625,-45.259 6.597,-3.809 35.382,29.233 -6.444,3.723 z m -14.267,-12.466 -9.306,-8.091 c -0.645,-0.53 -1.611,-1.393 -2.899,-2.589 -1.288,-1.196 -2.212,-2.083 -2.771,-2.662 0.745,2.344 1.389,5.005 1.936,7.982 l 2.232,11.6 10.808,-6.24 z m 38.421,-1.479 -6.064,3.501 -18.413,-31.893 -10.91,6.299 -3.003,-5.201 27.884,-16.099 3.003,5.201 -10.91,6.299 18.413,31.893 z m 16.593,-9.581 -21.416,-37.094 6.064,-3.501 21.416,37.094 -6.064,3.501 z m 38.053,-46.766 c 3.486,6.038 4.687,11.604 3.601,16.696 -1.086,5.092 -4.394,9.235 -9.925,12.428 -5.599,3.232 -10.859,4.053 -15.78,2.463 -4.921,-1.59 -9.149,-5.447 -12.685,-11.57 -3.536,-6.123 -4.74,-11.697 -3.616,-16.722 1.125,-5.024 4.487,-9.153 10.085,-12.386 5.514,-3.184 10.738,-3.978 15.673,-2.384 4.936,1.595 9.151,5.419 12.647,11.475 z m -28.315,16.348 c 2.637,4.566 5.558,7.498 8.764,8.793 3.206,1.295 6.619,0.897 10.239,-1.192 3.603,-2.08 5.647,-4.816 6.136,-8.21 0.487,-3.394 -0.602,-7.4 -3.268,-12.017 -2.627,-4.55 -5.529,-7.476 -8.704,-8.777 -3.176,-1.301 -6.565,-0.912 -10.168,1.168 -3.637,2.1 -5.703,4.86 -6.197,8.28 -0.495,3.419 0.571,7.405 3.198,11.955 z m 77.922,-20.192 -7.434,4.292 -35.308,-19.026 -0.203,0.117 1.079,1.576 c 2.053,3.009 3.832,5.816 5.336,8.421 l 11.133,19.283 -5.506,3.179 -21.416,-37.094 7.358,-4.248 35.169,18.903 0.152,-0.088 c -0.259,-0.369 -1.144,-1.747 -2.657,-4.132 -1.512,-2.386 -2.664,-4.264 -3.455,-5.634 l -11.221,-19.435 5.556,-3.208 21.417,37.094 z"
         id="path50"
         inkscape:connector-curvature="0" />
    </g>
    <g
       stroke-miterlimit="10"
       id="g52"
       style="fill:none;stroke:#f7f4ec;stroke-width:9;stroke-miterlimit:10">
      <path
         d="m 1879.2,1011.102 h 6"
         id="path54"
         inkscape:connector-curvature="0" />
      <path
         d="m 1897.359,1011.102 h 455.972"
         id="path56"
         inkscape:connector-curvature="0"
         style="stroke-dasharray:12.1592, 12.1592" />
      <path
         d="m 2359.411,1011.102 h 6"
         id="path58"
         inkscape:connector-curvature="0" />
    </g>
  </g>
</svg>
