<?xml version="1.0" encoding="UTF-8" standalone="no"?>
<svg
   xmlns:dc="http://purl.org/dc/elements/1.1/"
   xmlns:cc="http://creativecommons.org/ns#"
   xmlns:rdf="http://www.w3.org/1999/02/22-rdf-syntax-ns#"
   xmlns:svg="http://www.w3.org/2000/svg"
   xmlns="http://www.w3.org/2000/svg"
   xmlns:xlink="http://www.w3.org/1999/xlink"
   xmlns:sodipodi="http://sodipodi.sourceforge.net/DTD/sodipodi-0.dtd"
   xmlns:inkscape="http://www.inkscape.org/namespaces/inkscape"
   viewBox="0 0 1788.302 884.39198"
   id="svg2"
   version="1.1"
   inkscape:version="0.48.2 r9819"
   width="100%"
   height="100%"
   sodipodi:docname="floor_2.svg">
  <metadata
     id="metadata120">
    <rdf:RDF>
      <cc:Work
         rdf:about="">
        <dc:format>image/svg+xml</dc:format>
        <dc:type
           rdf:resource="http://purl.org/dc/dcmitype/StillImage" />
      </cc:Work>
    </rdf:RDF>
  </metadata>
  <defs
     id="defs118" />
  <sodipodi:namedview
     pagecolor="#ffffff"
     bordercolor="#666666"
     borderopacity="1"
     objecttolerance="10"
     gridtolerance="10"
     guidetolerance="10"
     inkscape:pageopacity="0"
     inkscape:pageshadow="2"
     inkscape:window-width="640"
     inkscape:window-height="480"
     id="namedview116"
     showgrid="false"
     fit-margin-top="0"
     fit-margin-left="0"
     fit-margin-right="0"
     fit-margin-bottom="0"
     inkscape:zoom="0.092637576"
     inkscape:cx="188.82504"
     inkscape:cy="254.39047"
     inkscape:window-x="0"
     inkscape:window-y="0"
     inkscape:window-maximized="0"
     inkscape:current-layer="svg2" />
  <path
     d="m 1512.06,861.289 -419.69,0.417 V 503.271 H 527.744 L 355.388,551.6 112.915,689.847 51.162,578.168 174.829,507.834 107.563,387.549 l 112.728,-61.367 74.831,115.666 227,-61 h 153.5 V 165.882 l 236,-0.034 V 15.847998 l 596.123,0.424 280.557,47.928 z"
     id="path26"
     inkscape:connector-curvature="0"
     style="fill:#f9cc0f" />
  <g
     id="g28"
     transform="translate(-1711.052,-561.958)">
    <defs
       id="defs30">
      <path
         id="e"
         d="M 2622.674,732.806 V 581.958 l -393.877,2.272 -404.001,109 -113.744,63.931 108.914,194.762 114.208,-63.617 72,115.5 227,-61 h 153.5 V 732.84 z"
         inkscape:connector-curvature="0" />
    </defs>
    <clipPath
       id="f">
      <use
         xlink:href="#e"
         overflow="visible"
         id="use34"
         style="overflow:visible"
         x="0"
         y="0"
         width="3799.7539"
         height="2383.9189" />
    </clipPath>
    <g
       clip-path="url(#f)"
       id="g36"
       style="fill:#f9cc0f">
      <path
         d="m 3136.102,-791.192 817.373,2094.237 -19.514,7.616 -817.373,-2094.237 z m -131.186,51.194 817.373,2094.237 -19.516,7.617 L 2985.4,-732.381 z m 196.236,-76.578 817.373,2094.237 -19.514,7.616 -817.373,-2094.237 z m -130.101,50.769 817.373,2094.237 -19.515,7.617 -817.373,-2094.237 z m 196.233,-76.577 817.373,2094.237 -19.514,7.616 -817.373,-2094.237 z m 65.051,-25.384 817.373,2094.237 -19.516,7.617 -817.373,-2094.237 z m -523.652,204.349 817.372,2094.235 -19.514,7.616 -817.372,-2094.235 z m -131.185,51.192 817.373,2094.237 -19.515,7.617 -817.373,-2094.237 z m 196.234,-76.577 817.372,2094.236 -19.514,7.616 -817.372,-2094.236 z m -130.1,50.769 817.372,2094.236 -19.515,7.617 -817.372,-2094.236 z m 196.234,-76.577 817.372,2094.236 -19.515,7.617 -817.372,-2094.236 z m 851.073,-332.122 817.372,2094.236 -19.514,7.616 -817.372,-2094.236 z m -131.184,51.193 817.372,2094.236 -19.514,7.616 -817.372,-2094.236 z m 66.134,-25.809 817.373,2094.237 -19.514,7.616 -817.373,-2094.237 z m -262.369,102.388 817.373,2094.237 -19.514,7.616 -817.373,-2094.237 z m -131.185,51.194 817.373,2094.237 -19.516,7.617 -817.373,-2094.237 z m 196.233,-76.58 817.373,2094.237 -19.514,7.616 -817.373,-2094.237 z m -130.097,50.77 817.372,2094.236 -19.514,7.616 -817.372,-2094.236 z m 196.233,-76.578 817.372,2094.236 -19.516,7.617 -817.372,-2094.236 z m -1768.278,690.052 817.373,2094.237 -19.516,7.617 -817.373,-2094.237 z m -131.185,51.194 817.372,2094.236 -19.514,7.616 -817.372,-2094.236 z m 196.236,-76.58 817.372,2094.236 -19.515,7.617 -817.372,-2094.236 z m -130.1,50.77 817.373,2094.237 -19.516,7.617 -817.373,-2094.237 z m 196.234,-76.577 817.372,2094.236 -19.514,7.616 -817.372,-2094.236 z m 65.049,-25.386 817.373,2094.238 -19.514,7.616 -817.373,-2094.238 z m -523.652,204.349 817.373,2094.237 -19.516,7.617 -817.373,-2094.237 z m -131.185,51.194 817.372,2094.236 -19.514,7.616 -817.372,-2094.236 z m 196.236,-76.578 817.372,2094.236 -19.514,7.616 -817.372,-2094.236 z m -130.102,50.77 817.372,2094.236 -19.515,7.617 -817.372,-2094.236 z m 196.235,-76.578 817.372,2094.236 -19.514,7.616 -817.372,-2094.236 z m 851.072,-332.123 817.373,2094.237 -19.515,7.617 -817.373,-2094.237 z m -131.185,51.194 817.372,2094.236 -19.515,7.617 -817.372,-2094.236 z m 196.236,-76.579 817.373,2094.237 -19.514,7.616 -817.373,-2094.237 z m -130.101,50.771 817.373,2094.237 -19.514,7.616 L 2396.7,-502.647 z m 196.232,-76.578 817.373,2094.237 -19.514,7.616 -817.373,-2094.237 z m 65.052,-25.386 817.373,2094.237 -19.515,7.617 -817.373,-2094.237 z m -523.652,204.351 817.372,2094.235 -19.515,7.617 -817.372,-2094.235 z m -131.186,51.193 817.373,2094.238 -19.514,7.616 -817.373,-2094.238 z m 196.235,-76.579 817.373,2094.237 -19.515,7.617 -817.373,-2094.237 z m -130.1,50.771 817.373,2094.237 -19.516,7.617 -817.373,-2094.237 z m 196.234,-76.578 817.372,2094.236 -19.514,7.616 -817.372,-2094.236 z m 851.073,-332.123 817.373,2094.237 -19.514,7.616 -817.373,-2094.237 z m -131.186,51.194 817.373,2094.237 -19.516,7.617 L 2985.4,-732.381 z m 196.236,-76.578 817.373,2094.237 -19.514,7.616 -817.373,-2094.237 z m -130.101,50.769 817.373,2094.237 -19.515,7.617 -817.373,-2094.237 z m 196.233,-76.577 817.373,2094.237 -19.514,7.616 -817.373,-2094.237 z m 65.051,-25.384 817.373,2094.237 -19.516,7.617 -817.373,-2094.237 z m -523.652,204.349 817.372,2094.235 -19.514,7.616 -817.372,-2094.235 z m -131.185,51.192 817.373,2094.237 -19.515,7.617 -817.373,-2094.237 z m 196.234,-76.577 817.372,2094.236 -19.514,7.616 -817.372,-2094.236 z m -130.1,50.769 817.372,2094.236 -19.515,7.617 -817.372,-2094.236 z m 196.234,-76.577 817.372,2094.236 -19.515,7.617 -817.372,-2094.236 z m 851.073,-332.122 817.372,2094.236 -19.514,7.616 -817.372,-2094.236 z m -131.184,51.193 817.372,2094.236 -19.514,7.616 -817.372,-2094.236 z m 66.134,-25.809 817.373,2094.237 -19.514,7.616 -817.373,-2094.237 z m -262.369,102.388 817.373,2094.237 -19.514,7.616 -817.373,-2094.237 z m -131.185,51.194 817.373,2094.237 -19.516,7.617 -817.373,-2094.237 z m 196.233,-76.58 817.373,2094.237 -19.514,7.616 -817.373,-2094.237 z m -130.097,50.77 817.372,2094.236 -19.514,7.616 -817.372,-2094.236 z m 196.233,-76.578 817.372,2094.236 -19.516,7.617 -817.372,-2094.236 z m -1768.278,690.052 817.373,2094.237 -19.516,7.617 -817.373,-2094.237 z m -131.185,51.194 817.372,2094.236 -19.514,7.616 -817.372,-2094.236 z m 196.236,-76.58 817.372,2094.236 -19.515,7.617 -817.372,-2094.236 z m -130.1,50.77 817.373,2094.237 -19.516,7.617 -817.373,-2094.237 z m 196.234,-76.577 817.372,2094.236 -19.514,7.616 -817.372,-2094.236 z m 65.049,-25.386 817.373,2094.238 -19.514,7.616 -817.373,-2094.238 z m -523.652,204.349 817.373,2094.237 -19.516,7.617 -817.373,-2094.237 z m -131.185,51.194 817.372,2094.236 -19.514,7.616 -817.372,-2094.236 z m 196.236,-76.578 817.372,2094.236 -19.514,7.616 -817.372,-2094.236 z m -130.102,50.77 817.372,2094.236 -19.515,7.617 -817.372,-2094.236 z m 196.235,-76.578 817.372,2094.236 -19.514,7.616 -817.372,-2094.236 z m 851.072,-332.123 817.373,2094.237 -19.515,7.617 -817.373,-2094.237 z m -131.185,51.194 817.372,2094.236 -19.515,7.617 -817.372,-2094.236 z m 196.236,-76.579 817.373,2094.237 -19.514,7.616 -817.373,-2094.237 z m -130.101,50.771 817.373,2094.237 -19.514,7.616 L 2396.7,-502.647 z m 196.232,-76.578 817.373,2094.237 -19.514,7.616 -817.373,-2094.237 z m 65.052,-25.386 817.373,2094.237 -19.515,7.617 -817.373,-2094.237 z m -523.652,204.351 817.372,2094.235 -19.515,7.617 -817.372,-2094.235 z m -131.186,51.193 817.373,2094.238 -19.514,7.616 -817.373,-2094.238 z m 196.235,-76.579 817.373,2094.237 -19.515,7.617 -817.373,-2094.237 z m -130.1,50.771 817.373,2094.237 -19.516,7.617 -817.373,-2094.237 z m 196.234,-76.578 817.372,2094.236 -19.514,7.616 -817.372,-2094.236 z"
         id="path38"
         inkscape:connector-curvature="0" />
    </g>
    <defs
       id="defs40">
      <path
         id="g"
         d="m 2515.798,1065.229 h 287.624 v 358.721 h -287.624 z"
         inkscape:connector-curvature="0" />
    </defs>
    <clipPath
       id="h">
      <use
         xlink:href="#g"
         overflow="visible"
         id="use44"
         style="overflow:visible"
         x="0"
         y="0"
         width="3799.7539"
         height="2383.9189" />
    </clipPath>
    <g
       clip-path="url(#h)"
       id="g46"
       style="fill:#f9cc0f">
      <path
         d="m 3313.916,-295.043 817.373,2094.237 -19.516,7.617 L 3294.4,-287.426 z m -131.184,51.194 817.372,2094.236 -19.514,7.616 -817.372,-2094.236 z m 196.233,-76.579 817.373,2094.237 -19.516,7.617 -817.373,-2094.237 z m -130.099,50.769 817.373,2094.237 -19.515,7.617 -817.373,-2094.237 z m 196.235,-76.577 817.372,2094.236 -19.514,7.616 -817.372,-2094.236 z m 65.05,-25.385 817.373,2094.237 -19.514,7.616 -817.373,-2094.237 z m -523.655,204.351 817.373,2094.237 -19.515,7.617 -817.373,-2094.237 z m -131.183,51.192 817.372,2094.236 -19.514,7.616 -817.372,-2094.236 z m 196.234,-76.578 817.372,2094.235 -19.515,7.617 -817.372,-2094.235 z m -130.102,50.77 817.373,2094.237 -19.514,7.616 -817.373,-2094.237 z m 196.236,-76.578 817.372,2094.236 -19.515,7.617 -817.372,-2094.236 z m 523.652,-204.351 817.373,2094.237 -19.516,7.617 -817.373,-2094.237 z m -131.182,51.194 817.373,2094.237 -19.514,7.616 -817.373,-2094.237 z m 196.235,-76.578 817.372,2094.236 -19.514,7.616 -817.372,-2094.236 z m -130.103,50.769 817.372,2094.236 -19.514,7.616 -817.372,-2094.236 z m 196.236,-76.577 817.372,2094.236 -19.515,7.617 -817.372,-2094.236 z m -1768.278,690.052 817.372,2094.236 -19.514,7.616 -817.372,-2094.236 z m -131.184,51.192 817.372,2094.235 -19.514,7.616 -817.372,-2094.235 z m 196.235,-76.579 817.373,2094.237 -19.516,7.617 -817.373,-2094.237 z m -130.1,50.771 817.372,2094.236 -19.514,7.616 -817.372,-2094.236 z m 196.233,-76.578 817.373,2094.237 -19.515,7.617 L 2115.91,172.468 z m 65.051,-25.385 817.372,2094.236 -19.514,7.616 -817.372,-2094.236 z m -523.653,204.35 817.372,2094.236 -19.514,7.616 -817.372,-2094.236 z m -131.185,51.192 817.372,2094.236 -19.516,7.617 -817.372,-2094.236 z m 196.233,-76.578 817.372,2094.236 -19.514,7.616 -817.372,-2094.236 z m -130.098,50.771 817.372,2094.236 -19.514,7.616 -817.372,-2094.236 z m 196.234,-76.579 817.373,2094.237 -19.516,7.617 -817.373,-2094.237 z m 851.07,-332.121 817.373,2094.237 -19.514,7.616 -817.373,-2094.237 z m -131.183,51.192 817.372,2094.236 -19.515,7.617 L 2508.379,19.31 z m 196.232,-76.578 817.373,2094.237 -19.514,7.616 -817.373,-2094.237 z m -130.096,50.77 817.373,2094.237 -19.514,7.616 L 2574.516,-6.499 z m 196.233,-76.578 817.373,2094.237 -19.515,7.617 -817.373,-2094.237 z m 65.05,-25.385 817.372,2094.236 -19.514,7.616 -817.372,-2094.236 z m -523.655,204.351 817.372,2094.236 -19.514,7.616 L 2312.144,95.889 z m -131.182,51.193 817.372,2094.236 -19.514,7.616 -817.372,-2094.236 z m 196.234,-76.579 817.373,2094.237 -19.515,7.617 L 2377.195,70.504 z m -130.1,50.77 817.373,2094.237 -19.514,7.616 -817.373,-2094.237 z m 196.233,-76.578 817.373,2094.237 -19.516,7.617 L 2443.327,44.696 z m 851.073,-332.122 817.373,2094.237 -19.516,7.617 L 3294.4,-287.426 z m -131.184,51.194 817.372,2094.236 -19.514,7.616 -817.372,-2094.236 z m 196.233,-76.579 817.373,2094.237 -19.516,7.617 -817.373,-2094.237 z m -130.099,50.769 817.373,2094.237 -19.515,7.617 -817.373,-2094.237 z m 196.235,-76.577 817.372,2094.236 -19.514,7.616 -817.372,-2094.236 z m 65.05,-25.385 817.373,2094.237 -19.514,7.616 -817.373,-2094.237 z m -523.655,204.351 817.373,2094.237 -19.515,7.617 -817.373,-2094.237 z m -131.183,51.192 817.372,2094.236 -19.514,7.616 -817.372,-2094.236 z m 196.234,-76.578 817.372,2094.235 -19.515,7.617 -817.372,-2094.235 z m -130.102,50.77 817.373,2094.237 -19.514,7.616 -817.373,-2094.237 z m 196.236,-76.578 817.372,2094.236 -19.515,7.617 -817.372,-2094.236 z m 523.652,-204.351 817.373,2094.237 -19.516,7.617 -817.373,-2094.237 z m -131.182,51.194 817.373,2094.237 -19.514,7.616 -817.373,-2094.237 z m 196.235,-76.578 817.372,2094.236 -19.514,7.616 -817.372,-2094.236 z m -130.103,50.769 817.372,2094.236 -19.514,7.616 -817.372,-2094.236 z m 196.236,-76.577 817.372,2094.236 -19.515,7.617 -817.372,-2094.236 z m -1768.278,690.052 817.372,2094.236 -19.514,7.616 -817.372,-2094.236 z m -131.184,51.192 817.372,2094.235 -19.514,7.616 -817.372,-2094.235 z m 196.235,-76.579 817.373,2094.237 -19.516,7.617 -817.373,-2094.237 z m -130.1,50.771 817.372,2094.236 -19.514,7.616 -817.372,-2094.236 z m 196.233,-76.578 817.373,2094.237 -19.515,7.617 L 2115.91,172.468 z m 65.051,-25.385 817.372,2094.236 -19.514,7.616 -817.372,-2094.236 z m -523.653,204.35 817.372,2094.236 -19.514,7.616 -817.372,-2094.236 z m -131.185,51.192 817.372,2094.236 -19.516,7.617 -817.372,-2094.236 z m 196.233,-76.578 817.372,2094.236 -19.514,7.616 -817.372,-2094.236 z m -130.098,50.771 817.372,2094.236 -19.514,7.616 -817.372,-2094.236 z m 196.234,-76.579 817.373,2094.237 -19.516,7.617 -817.373,-2094.237 z m 851.07,-332.121 817.373,2094.237 -19.514,7.616 -817.373,-2094.237 z m -131.183,51.192 817.372,2094.236 -19.515,7.617 L 2508.379,19.31 z m 196.232,-76.578 817.373,2094.237 -19.514,7.616 -817.373,-2094.237 z m -130.096,50.77 817.373,2094.237 -19.514,7.616 L 2574.516,-6.499 z m 196.233,-76.578 817.373,2094.237 -19.515,7.617 -817.373,-2094.237 z m 65.05,-25.385 817.372,2094.236 -19.514,7.616 -817.372,-2094.236 z m -523.655,204.351 817.372,2094.236 -19.514,7.616 L 2312.144,95.889 z m -131.182,51.193 817.372,2094.236 -19.514,7.616 -817.372,-2094.236 z m 196.234,-76.579 817.373,2094.237 -19.515,7.617 L 2377.195,70.504 z m -130.1,50.77 817.373,2094.237 -19.514,7.616 -817.373,-2094.237 z m 196.233,-76.578 817.373,2094.237 -19.516,7.617 L 2443.327,44.696 z"
         id="path48"
         inkscape:connector-curvature="0" />
    </g>
  </g>
  <g
     id="g50"
     transform="translate(-1711.052,-561.958)">
    <path
       stroke-miterlimit="10"
       d="M 2793.422,1431.35 V 1074.806 H 2503.674"
       id="path52"
       inkscape:connector-curvature="0"
       style="fill:none;stroke:#f7f4ec;stroke-width:20;stroke-miterlimit:10" />
    <path
       stroke-miterlimit="10"
       d="M 3082.674,1068.306 V 1441.85"
       id="path54"
       inkscape:connector-curvature="0"
       style="fill:none;stroke:#f7f4ec;stroke-width:9;stroke-linecap:square;stroke-miterlimit:10" />
    <path
       stroke-miterlimit="10"
       d="m 3143.674,576.806 v 155.111 m 0,45.135 v 240.754"
       id="path56"
       inkscape:connector-curvature="0"
       style="fill:none;stroke:#f7f4ec;stroke-width:9;stroke-miterlimit:10" />
    <g
       stroke-miterlimit="10"
       id="g58"
       style="fill:none;stroke:#f7f4ec;stroke-width:9;stroke-miterlimit:10">
      <path
         d="m 3461.674,777.806 h -6"
         id="path60"
         inkscape:connector-curvature="0" />
      <path
         d="M 3443.621,777.806 H 3232.7"
         id="path62"
         inkscape:connector-curvature="0"
         style="stroke-dasharray:12.0526, 12.0526" />
      <path
         d="m 3226.674,777.806 h -6"
         id="path64"
         inkscape:connector-curvature="0" />
    </g>
    <path
       stroke-miterlimit="10"
       d="m 3355.674,1068.306 h -212 m -61.667,0 h -225.583"
       id="path66"
       inkscape:connector-curvature="0"
       style="fill:none;stroke:#f7f4ec;stroke-width:9;stroke-linecap:square;stroke-miterlimit:10" />
    <path
       stroke-miterlimit="10"
       d="m 2936.674,576.806 v 155.111 m -139,-153.687 v 156.687"
       id="path68"
       inkscape:connector-curvature="0"
       style="fill:none;stroke:#f7f4ec;stroke-width:9;stroke-miterlimit:10" />
    <path
       stroke-miterlimit="10"
       d="m 2683.674,731.917 h 114"
       id="path70"
       inkscape:connector-curvature="0"
       style="fill:none;stroke:#f7f4ec;stroke-width:9;stroke-linecap:square;stroke-miterlimit:10" />
    <path
       stroke-miterlimit="10"
       d="m 2851.424,731.917 h 96.25 m -11,0 h 153.333"
       id="path72"
       inkscape:connector-curvature="0"
       style="fill:none;stroke:#f7f4ec;stroke-width:9;stroke-miterlimit:10" />
    <path
       stroke-miterlimit="10"
       d="m 1818.615,949.507 119.059,-64.701 68.5,119 227,-61 h 153.5 V 727.84 l 236,-0.034 V 571.958"
       id="path74"
       inkscape:connector-curvature="0"
       style="fill:none;stroke:#f7f4ec;stroke-width:20;stroke-miterlimit:10" />
  </g>
  <g
     id="g76"
     transform="translate(-1711.052,-561.958)">
    <path
       d="m 1799.811,1209.04 c 0.266,0.461 0.324,0.972 0.174,1.529 l -7.459,27.839 12.075,3.235 c 1.061,0.285 1.858,0.888 2.391,1.81 0.532,0.921 0.655,1.913 0.372,2.976 -0.285,1.062 -0.888,1.859 -1.809,2.391 l -23.816,13.75 c -0.922,0.533 -1.914,0.655 -2.975,0.371 -1.062,-0.284 -1.86,-0.888 -2.392,-1.809 l -13.75,-23.816 c -0.532,-0.921 -0.655,-1.913 -0.371,-2.975 0.285,-1.061 0.887,-1.859 1.809,-2.391 0.921,-0.532 1.914,-0.655 2.975,-0.371 l 12.075,3.235 7.46,-27.839 c 0.149,-0.559 0.454,-0.972 0.915,-1.237 0.46,-0.266 0.971,-0.324 1.53,-0.175 l 9.559,2.562 c 0.558,0.149 0.972,0.455 1.237,0.915 z m 15,-69.902 13.75,23.816 c 0.533,0.922 0.656,1.914 0.372,2.975 -0.285,1.063 -0.888,1.859 -1.81,2.392 -0.922,0.532 -1.914,0.656 -2.975,0.371 l -12.075,-3.235 -7.459,27.839 c -0.15,0.56 -0.456,0.972 -0.916,1.237 -0.461,0.267 -0.972,0.325 -1.53,0.175 l -9.559,-2.562 c -0.559,-0.149 -0.971,-0.455 -1.237,-0.916 -0.266,-0.46 -0.325,-0.97 -0.175,-1.529 l 7.459,-27.839 -12.075,-3.235 c -1.062,-0.284 -1.858,-0.888 -2.391,-1.81 -0.532,-0.921 -0.656,-1.913 -0.371,-2.975 0.284,-1.061 0.887,-1.859 1.809,-2.391 l 23.815,-13.75 c 0.922,-0.532 1.914,-0.655 2.976,-0.371 1.063,0.285 1.861,0.887 2.392,1.808 z"
       id="path78"
       inkscape:connector-curvature="0"
       style="fill:#0a3e60" />
    <g
       id="g80"
       style="fill:#0a3e60">
      <path
         d="m 2868.01,868.795 c 2.662,0.714 4.687,2.27 6.07,4.666 1.384,2.397 1.719,4.928 1.006,7.59 -0.714,2.664 -2.269,4.687 -4.666,6.071 -2.397,1.384 -4.927,1.72 -7.59,1.006 -2.663,-0.713 -4.687,-2.269 -6.07,-4.666 -1.384,-2.396 -1.719,-4.927 -1.005,-7.59 0.713,-2.663 2.269,-4.687 4.666,-6.071 2.397,-1.384 4.926,-1.718 7.589,-1.006 z m 40.011,26.309 c 0.595,1.031 0.74,2.116 0.436,3.254 -0.306,1.139 -0.974,2.005 -2.004,2.601 -1.314,0.759 -2.666,0.8 -4.053,0.123 l -16.388,-8.116 -1.739,1.004 2.947,5.104 18.723,10.376 c 0.456,0.252 0.816,0.611 1.084,1.075 0.387,0.67 0.477,1.392 0.27,2.164 -0.207,0.773 -0.646,1.353 -1.316,1.739 l -7.422,4.286 6.071,10.516 c 0.684,1.185 0.847,2.449 0.487,3.791 -0.359,1.341 -1.132,2.355 -2.317,3.04 l -6.186,3.571 c -1.186,0.685 -2.449,0.848 -3.791,0.488 -1.341,-0.36 -2.355,-1.133 -3.039,-2.318 l -6.072,-10.516 -7.423,4.286 c -0.67,0.387 -1.391,0.478 -2.164,0.271 -0.772,-0.207 -1.352,-0.646 -1.739,-1.316 -0.268,-0.464 -0.397,-0.957 -0.389,-1.477 l 0.375,-21.404 -2.946,-5.104 -1.74,1.004 -1.164,18.252 c -0.108,1.54 -0.818,2.688 -2.133,3.448 -1.031,0.595 -2.116,0.74 -3.254,0.435 -1.139,-0.305 -2.005,-0.972 -2.601,-2.003 -0.432,-0.748 -0.62,-1.55 -0.564,-2.407 l 1.326,-20.561 c 0.289,-3.844 1.761,-6.533 4.416,-8.066 l 14.847,-8.572 c 2.653,-1.533 5.718,-1.463 9.192,0.208 l 18.469,9.132 c 0.768,0.381 1.37,0.945 1.801,1.692 z m 49.051,-46.469 9.286,16.083 c 0.595,1.032 0.74,2.116 0.436,3.255 -0.305,1.139 -0.974,2.005 -2.004,2.6 -1.031,0.595 -2.116,0.741 -3.254,0.436 -1.139,-0.304 -2.005,-0.973 -2.601,-2.004 l -7.857,-13.608 -2.475,1.429 20.357,35.26 c 0.684,1.186 0.847,2.449 0.488,3.791 -0.359,1.341 -1.132,2.354 -2.317,3.039 -1.186,0.685 -2.449,0.847 -3.792,0.488 -1.341,-0.359 -2.354,-1.132 -3.039,-2.317 l -10.357,-17.939 -2.475,1.428 10.357,17.939 c 0.684,1.186 0.847,2.449 0.487,3.791 -0.36,1.342 -1.132,2.355 -2.317,3.04 -1.186,0.685 -2.45,0.847 -3.791,0.488 -1.342,-0.359 -2.355,-1.132 -3.039,-2.317 l -20.357,-35.26 -2.475,1.429 7.857,13.609 c 0.595,1.032 0.74,2.116 0.436,3.254 -0.305,1.139 -0.974,2.005 -2.004,2.601 -1.031,0.595 -2.116,0.74 -3.254,0.435 -1.139,-0.304 -2.005,-0.972 -2.601,-2.004 l -9.286,-16.083 c -1.19,-2.062 -1.48,-4.23 -0.871,-6.508 0.61,-2.276 1.945,-4.011 4.008,-5.201 l 24.743,-14.287 c 2.062,-1.19 4.231,-1.48 6.508,-0.871 2.279,0.607 4.012,1.942 5.203,4.004 z m -27.205,-15.556 c 2.662,0.714 4.687,2.269 6.07,4.666 1.383,2.397 1.719,4.927 1.006,7.59 -0.714,2.663 -2.269,4.686 -4.666,6.07 -2.397,1.384 -4.927,1.72 -7.59,1.006 -2.663,-0.713 -4.687,-2.269 -6.07,-4.666 -1.383,-2.397 -1.719,-4.927 -1.005,-7.59 0.713,-2.662 2.269,-4.687 4.666,-6.07 2.396,-1.385 4.926,-1.72 7.589,-1.006 z"
         id="path82"
         inkscape:connector-curvature="0" />
    </g>
    <path
       d="m 2504.252,898.779 c 7.921,4.525 14.216,10.828 18.881,18.908 4.665,8.081 6.976,16.683 6.934,25.805 -0.042,9.124 -2.327,17.646 -6.851,25.568 -4.525,7.921 -10.827,14.215 -18.907,18.88 -8.081,4.666 -16.684,6.976 -25.806,6.934 -9.123,-0.042 -17.646,-2.325 -25.567,-6.851 -7.922,-4.524 -14.215,-10.827 -18.881,-18.908 -4.665,-8.08 -6.976,-16.682 -6.934,-25.805 0.042,-9.122 2.326,-17.645 6.851,-25.567 4.525,-7.921 10.827,-14.215 18.908,-18.881 8.08,-4.665 16.682,-6.976 25.805,-6.934 9.121,0.043 17.645,2.327 25.567,6.851 z m -32.164,16.211 -5.357,-9.279 c -0.312,-0.541 -0.743,-0.885 -1.292,-1.033 -0.549,-0.147 -1.094,-0.064 -1.636,0.248 l -11.134,6.429 c -0.542,0.312 -0.885,0.743 -1.033,1.292 -0.146,0.549 -0.064,1.095 0.248,1.636 l 5.357,9.278 c 0.312,0.542 0.743,0.886 1.292,1.033 0.549,0.147 1.093,0.064 1.635,-0.249 l 11.134,-6.428 c 0.542,-0.312 0.886,-0.743 1.033,-1.292 0.148,-0.549 0.066,-1.093 -0.247,-1.635 z m 37.423,47.676 -5.357,-9.279 c -0.312,-0.541 -0.743,-0.886 -1.292,-1.033 -0.549,-0.147 -1.094,-0.064 -1.635,0.248 l -5.567,3.214 -17.143,-29.692 c -0.312,-0.541 -0.743,-0.886 -1.291,-1.032 -0.549,-0.147 -1.095,-0.064 -1.636,0.248 l -18.557,10.714 c -0.542,0.313 -0.886,0.744 -1.033,1.292 -0.146,0.548 -0.063,1.094 0.249,1.635 l 5.357,9.279 c 0.313,0.542 0.743,0.885 1.292,1.032 0.549,0.147 1.093,0.065 1.636,-0.248 l 5.567,-3.214 10.714,18.558 -5.567,3.214 c -0.542,0.313 -0.886,0.744 -1.033,1.292 -0.146,0.549 -0.063,1.094 0.249,1.635 l 5.357,9.279 c 0.312,0.542 0.743,0.885 1.292,1.032 0.549,0.147 1.093,0.064 1.636,-0.248 l 25.98,-15 c 0.541,-0.312 0.885,-0.743 1.033,-1.292 0.148,-0.549 0.062,-1.092 -0.251,-1.634 z m 571.908,-87.554 c 3.155,5.464 3.915,11.246 2.282,17.344 -1.634,6.099 -5.183,10.726 -10.647,13.881 -5.464,3.155 -11.245,3.915 -17.343,2.281 -6.099,-1.633 -10.724,-5.182 -13.879,-10.646 -2.157,-3.737 -3.16,-7.885 -3.007,-12.44 0.02,-0.321 0.153,-1.952 0.396,-4.895 0.243,-2.941 0.421,-5.638 0.534,-8.093 0.113,-2.453 0.071,-5.487 -0.126,-9.103 -0.197,-3.616 -0.626,-6.83 -1.289,-9.644 -0.214,-0.907 -0.126,-1.766 0.266,-2.576 0.391,-0.81 0.921,-1.409 1.592,-1.796 0.67,-0.387 1.46,-0.551 2.371,-0.492 0.91,0.059 1.691,0.415 2.344,1.069 2.105,1.98 4.674,3.96 7.707,5.938 3.032,1.979 5.639,3.532 7.82,4.66 2.18,1.13 4.606,2.324 7.275,3.584 2.669,1.26 4.147,1.961 4.437,2.104 3.975,2.068 7.065,5.01 9.267,8.824 z m -16.937,16.379 c -0.536,-0.928 -1.307,-1.668 -2.313,-2.221 -0.041,-0.01 -0.408,-0.185 -1.102,-0.524 -0.694,-0.338 -1.306,-0.638 -1.834,-0.899 -0.529,-0.262 -1.179,-0.643 -1.948,-1.144 -0.771,-0.5 -1.417,-0.994 -1.939,-1.483 -0.342,-0.353 -0.732,-0.402 -1.169,-0.15 -0.439,0.253 -0.59,0.616 -0.455,1.087 0.162,0.698 0.267,1.504 0.315,2.421 0.048,0.918 0.053,1.671 0.016,2.26 l -0.138,2.038 c -0.054,0.771 -0.087,1.176 -0.098,1.216 -0.024,1.149 0.231,2.187 0.768,3.114 0.789,1.366 1.945,2.253 3.47,2.662 1.525,0.408 2.969,0.218 4.336,-0.571 1.366,-0.789 2.253,-1.945 2.662,-3.47 0.408,-1.525 0.218,-2.97 -0.571,-4.336 z"
       id="path84"
       inkscape:connector-curvature="0"
       style="fill:#0a3e60" />
  </g>
  <g
     id="g86"
     transform="translate(-1711.052,-561.958)">
    <g
       id="g88"
       style="fill:#0a3e60">
      <path
         d="m 2937.415,1261.266 -25.144,14.517 -2.607,-4.516 4.014,-15.138 c 1.155,-4.523 1.844,-7.655 2.068,-9.397 0.223,-1.742 0.239,-3.268 0.046,-4.577 -0.193,-1.309 -0.64,-2.574 -1.343,-3.792 -0.967,-1.674 -2.232,-2.703 -3.795,-3.086 -1.563,-0.383 -3.233,-0.062 -5.009,0.963 -1.421,0.82 -2.644,1.876 -3.669,3.167 -1.025,1.292 -2.014,3.125 -2.964,5.5 l -5.493,-2.072 c 1.058,-2.934 2.349,-5.326 3.875,-7.176 1.525,-1.85 3.387,-3.411 5.586,-4.68 3.45,-1.992 6.736,-2.688 9.856,-2.088 3.121,0.601 5.56,2.423 7.317,5.468 0.967,1.674 1.584,3.438 1.854,5.29 0.269,1.852 0.243,3.936 -0.078,6.252 -0.32,2.316 -1.141,5.671 -2.461,10.064 l -2.841,9.962 0.146,0.254 17.608,-10.166 3.034,5.251 z m 22.022,-12.715 -5.962,3.442 -13.828,-23.951 c -1.65,-2.858 -2.892,-5.164 -3.723,-6.917 -0.155,0.631 -0.374,1.355 -0.657,2.173 -0.283,0.818 -1.284,3.47 -3,7.957 l -5.177,-2.052 5.959,-14.875 4.973,-2.871 21.415,37.094 z m 37.297,-21.533 -25.144,14.517 -2.607,-4.516 4.014,-15.138 c 1.155,-4.523 1.843,-7.655 2.067,-9.397 0.224,-1.742 0.239,-3.268 0.047,-4.577 -0.193,-1.31 -0.64,-2.574 -1.343,-3.792 -0.967,-1.674 -2.232,-2.703 -3.795,-3.086 -1.563,-0.383 -3.232,-0.062 -5.008,0.963 -1.421,0.82 -2.644,1.876 -3.669,3.167 -1.025,1.292 -2.014,3.125 -2.964,5.5 l -5.493,-2.072 c 1.058,-2.934 2.349,-5.326 3.875,-7.176 1.525,-1.85 3.387,-3.411 5.586,-4.68 3.451,-1.992 6.736,-2.688 9.857,-2.088 3.121,0.601 5.56,2.423 7.317,5.468 0.967,1.674 1.584,3.438 1.854,5.29 0.269,1.852 0.243,3.936 -0.078,6.252 -0.32,2.316 -1.141,5.671 -2.461,10.064 l -2.841,9.962 0.146,0.254 17.608,-10.166 3.032,5.251 z"
         id="path90"
         inkscape:connector-curvature="0" />
    </g>
    <g
       id="g92"
       style="fill:#0a3e60">
      <path
         d="m 3177.197,1259.703 -25.144,14.517 -2.607,-4.516 4.013,-15.139 c 1.155,-4.523 1.844,-7.655 2.068,-9.397 0.224,-1.742 0.239,-3.267 0.047,-4.577 -0.193,-1.31 -0.64,-2.574 -1.343,-3.792 -0.967,-1.675 -2.232,-2.703 -3.795,-3.086 -1.563,-0.383 -3.232,-0.062 -5.009,0.963 -1.42,0.82 -2.644,1.876 -3.668,3.167 -1.026,1.292 -2.014,3.125 -2.964,5.5 l -5.493,-2.073 c 1.058,-2.933 2.35,-5.325 3.875,-7.176 1.525,-1.85 3.388,-3.41 5.586,-4.68 3.451,-1.992 6.736,-2.688 9.856,-2.088 3.121,0.6 5.56,2.423 7.318,5.467 0.967,1.674 1.584,3.438 1.853,5.29 0.269,1.853 0.243,3.937 -0.078,6.253 -0.321,2.316 -1.141,5.671 -2.46,10.064 l -2.841,9.962 0.146,0.253 17.608,-10.166 3.032,5.254 z m 22.023,-12.715 -5.962,3.442 -13.828,-23.951 c -1.65,-2.858 -2.892,-5.164 -3.723,-6.917 -0.155,0.631 -0.374,1.354 -0.657,2.172 -0.284,0.818 -1.283,3.471 -3,7.957 l -5.176,-2.052 5.958,-14.875 4.973,-2.871 21.415,37.095 z m 29.66,-17.124 -5.962,3.442 -13.828,-23.951 c -1.65,-2.858 -2.892,-5.164 -3.723,-6.917 -0.155,0.631 -0.374,1.354 -0.657,2.172 -0.284,0.818 -1.284,3.471 -3.001,7.957 l -5.176,-2.052 5.958,-14.875 4.973,-2.871 21.416,37.095 z"
         id="path94"
         inkscape:connector-curvature="0" />
    </g>
    <g
       id="g96"
       style="fill:#0a3e60">
      <path
         d="m 3274.051,941.705 -25.144,14.517 -2.607,-4.516 4.014,-15.139 c 1.155,-4.523 1.844,-7.655 2.068,-9.397 0.224,-1.741 0.239,-3.268 0.047,-4.577 -0.193,-1.31 -0.64,-2.573 -1.343,-3.791 -0.967,-1.675 -2.232,-2.703 -3.795,-3.087 -1.563,-0.383 -3.232,-0.062 -5.009,0.964 -1.421,0.82 -2.644,1.876 -3.669,3.167 -1.025,1.291 -2.014,3.124 -2.964,5.5 l -5.493,-2.072 c 1.058,-2.934 2.349,-5.325 3.875,-7.176 1.525,-1.85 3.387,-3.411 5.586,-4.68 3.451,-1.992 6.736,-2.688 9.856,-2.088 3.12,0.6 5.56,2.422 7.318,5.467 0.967,1.675 1.584,3.438 1.853,5.29 0.269,1.853 0.243,3.937 -0.078,6.252 -0.321,2.315 -1.141,5.671 -2.461,10.064 l -2.841,9.962 0.146,0.253 17.608,-10.166 3.033,5.253 z m 22.022,-12.715 -5.962,3.442 -13.828,-23.951 c -1.65,-2.858 -2.892,-5.164 -3.723,-6.917 -0.155,0.63 -0.374,1.355 -0.657,2.172 -0.284,0.818 -1.284,3.47 -3,7.957 l -5.177,-2.052 5.959,-14.875 4.973,-2.871 21.415,37.095 z m 26.589,-40.08 c 3.721,6.444 5.448,11.83 5.183,16.155 -0.266,4.326 -2.529,7.719 -6.792,10.18 -4.127,2.383 -8.189,2.574 -12.186,0.574 -3.996,-2 -7.796,-6.121 -11.4,-12.363 -3.779,-6.546 -5.529,-11.969 -5.249,-16.269 0.279,-4.299 2.542,-7.675 6.788,-10.127 4.144,-2.393 8.219,-2.58 12.226,-0.563 4.007,2.017 7.817,6.155 11.43,12.413 z m -19.155,11.059 c 2.92,5.058 5.525,8.369 7.815,9.933 2.29,1.565 4.577,1.688 6.86,0.369 2.284,-1.318 3.319,-3.382 3.107,-6.191 -0.213,-2.809 -1.759,-6.708 -4.64,-11.699 -2.871,-4.973 -5.478,-8.266 -7.818,-9.88 -2.341,-1.614 -4.654,-1.762 -6.938,-0.443 -2.283,1.318 -3.315,3.369 -3.096,6.151 0.22,2.783 1.79,6.703 4.71,11.76 z"
         id="path98"
         inkscape:connector-curvature="0" />
    </g>
    <g
       id="g100"
       style="fill:#0a3e60">
      <path
         d="m 3296.202,714.461 -25.144,14.517 -2.607,-4.516 4.013,-15.139 c 1.155,-4.523 1.844,-7.655 2.068,-9.397 0.224,-1.741 0.239,-3.267 0.047,-4.577 -0.193,-1.31 -0.641,-2.574 -1.344,-3.792 -0.967,-1.675 -2.232,-2.703 -3.795,-3.086 -1.563,-0.383 -3.232,-0.062 -5.009,0.963 -1.421,0.82 -2.643,1.876 -3.668,3.167 -1.026,1.291 -2.014,3.125 -2.965,5.5 l -5.493,-2.072 c 1.059,-2.933 2.35,-5.325 3.875,-7.176 1.525,-1.85 3.388,-3.41 5.586,-4.68 3.451,-1.992 6.736,-2.688 9.856,-2.088 3.121,0.6 5.561,2.423 7.318,5.467 0.967,1.674 1.584,3.438 1.853,5.29 0.269,1.853 0.243,3.937 -0.077,6.253 -0.32,2.316 -1.141,5.671 -2.461,10.064 l -2.841,9.962 0.146,0.253 17.608,-10.166 3.034,5.253 z m 18.952,-35.671 c 3.721,6.445 5.448,11.83 5.184,16.155 -0.266,4.326 -2.529,7.719 -6.792,10.18 -4.127,2.383 -8.189,2.574 -12.186,0.574 -3.997,-2 -7.797,-6.121 -11.4,-12.363 -3.779,-6.546 -5.528,-11.969 -5.249,-16.269 0.28,-4.3 2.543,-7.676 6.789,-10.127 4.144,-2.393 8.219,-2.58 12.226,-0.563 4.005,2.017 7.815,6.155 11.428,12.413 z m -19.156,11.06 c 2.92,5.058 5.525,8.369 7.815,9.933 2.29,1.564 4.577,1.688 6.86,0.369 2.283,-1.319 3.319,-3.382 3.106,-6.191 -0.212,-2.809 -1.759,-6.709 -4.64,-11.699 -2.871,-4.973 -5.478,-8.266 -7.818,-9.88 -2.342,-1.613 -4.654,-1.762 -6.938,-0.443 -2.284,1.319 -3.315,3.369 -3.096,6.151 0.221,2.782 1.791,6.702 4.711,11.76 z m 47.198,-30.87 c 4.219,7.307 5.896,13.612 5.033,18.914 -0.862,5.302 -4.254,9.662 -10.175,13.08 -2.249,1.299 -3.943,2.097 -5.08,2.392 l -2.886,-4.999 c 1.75,-0.446 3.386,-1.108 4.908,-1.987 4.024,-2.324 6.403,-5.14 7.132,-8.448 0.729,-3.307 -0.152,-7.332 -2.642,-12.074 l -0.304,0.176 c -0.12,2.099 -0.69,3.894 -1.712,5.386 -1.021,1.492 -2.479,2.785 -4.374,3.879 -3.282,1.895 -6.452,2.36 -9.511,1.397 -3.059,-0.962 -5.619,-3.229 -7.68,-6.798 -2.236,-3.873 -2.929,-7.583 -2.079,-11.13 0.85,-3.547 3.153,-6.404 6.908,-8.572 2.639,-1.523 5.31,-2.208 8.015,-2.056 2.704,0.153 5.295,1.144 7.771,2.972 2.478,1.829 4.703,4.452 6.676,7.868 z m -19.502,-3.896 c -2.064,1.191 -3.257,2.777 -3.58,4.756 -0.323,1.98 0.219,4.187 1.625,6.623 1.221,2.115 2.691,3.481 4.413,4.1 1.722,0.619 3.622,0.327 5.703,-0.874 2.013,-1.162 3.358,-2.739 4.034,-4.731 0.677,-1.992 0.552,-3.791 -0.376,-5.398 -0.869,-1.505 -1.974,-2.745 -3.314,-3.719 -1.34,-0.974 -2.755,-1.539 -4.243,-1.695 -1.489,-0.155 -2.91,0.157 -4.262,0.938 z"
         id="path102"
         inkscape:connector-curvature="0" />
    </g>
    <g
       id="g104"
       style="fill:#0a3e60">
      <path
         d="m 3032.094,682.923 -25.144,14.517 -2.607,-4.516 4.014,-15.138 c 1.154,-4.523 1.844,-7.655 2.067,-9.397 0.224,-1.742 0.239,-3.268 0.047,-4.577 -0.192,-1.309 -0.641,-2.574 -1.344,-3.792 -0.967,-1.674 -2.231,-2.703 -3.794,-3.086 -1.563,-0.383 -3.233,-0.062 -5.009,0.963 -1.421,0.82 -2.644,1.876 -3.669,3.167 -1.025,1.292 -2.014,3.125 -2.965,5.5 l -5.492,-2.072 c 1.058,-2.934 2.349,-5.326 3.874,-7.176 1.525,-1.85 3.388,-3.41 5.587,-4.68 3.45,-1.992 6.735,-2.688 9.856,-2.088 3.12,0.601 5.56,2.423 7.317,5.468 0.967,1.674 1.584,3.438 1.854,5.29 0.269,1.852 0.242,3.936 -0.078,6.252 -0.32,2.316 -1.14,5.671 -2.461,10.064 l -2.841,9.962 0.146,0.254 17.608,-10.166 3.034,5.251 z m 18.952,-35.671 c 3.721,6.444 5.448,11.83 5.183,16.155 -0.265,4.325 -2.529,7.719 -6.792,10.18 -4.127,2.383 -8.188,2.574 -12.186,0.573 -3.996,-2 -7.796,-6.121 -11.399,-12.362 -3.779,-6.546 -5.529,-11.969 -5.249,-16.269 0.28,-4.3 2.542,-7.675 6.788,-10.127 4.145,-2.393 8.22,-2.581 12.226,-0.563 4.005,2.017 7.816,6.155 11.429,12.413 z m -19.156,11.06 c 2.92,5.058 5.525,8.369 7.815,9.933 2.291,1.565 4.577,1.688 6.86,0.37 2.283,-1.318 3.319,-3.382 3.106,-6.191 -0.212,-2.809 -1.758,-6.708 -4.64,-11.699 -2.871,-4.973 -5.478,-8.266 -7.818,-9.88 -2.341,-1.614 -4.654,-1.762 -6.938,-0.443 -2.284,1.319 -3.315,3.368 -3.096,6.151 0.222,2.781 1.791,6.702 4.711,11.759 z m 25.22,-39.933 c 3.518,-2.031 6.767,-2.83 9.746,-2.396 2.979,0.434 5.25,2.004 6.812,4.71 2.197,3.806 1.662,8.152 -1.606,13.038 3.75,-0.225 6.701,0.112 8.855,1.011 2.154,0.899 3.802,2.338 4.944,4.316 1.768,3.062 2.059,6.164 0.874,9.307 -1.185,3.143 -3.698,5.822 -7.537,8.039 -4.026,2.324 -7.645,3.263 -10.856,2.817 -3.213,-0.446 -5.731,-2.25 -7.558,-5.414 -1.191,-2.063 -1.684,-4.254 -1.478,-6.572 0.206,-2.318 1.259,-4.882 3.155,-7.69 -3.048,-0.044 -5.488,-0.541 -7.322,-1.49 -1.833,-0.949 -3.292,-2.362 -4.376,-4.239 -1.553,-2.689 -1.733,-5.444 -0.541,-8.263 1.192,-2.819 3.487,-5.211 6.888,-7.174 z m 2.6,4.622 c -1.691,0.977 -2.812,2.182 -3.36,3.614 -0.548,1.433 -0.407,2.868 0.423,4.306 0.508,0.88 1.148,1.56 1.921,2.038 0.772,0.479 1.677,0.796 2.715,0.953 1.038,0.157 2.632,0.145 4.782,-0.037 1.512,-2.068 2.401,-3.839 2.667,-5.312 0.266,-1.473 0.019,-2.869 -0.743,-4.188 -0.83,-1.438 -2.008,-2.274 -3.531,-2.511 -1.523,-0.237 -3.148,0.141 -4.874,1.137 z m 6.666,27.308 c 1.016,1.76 2.422,2.769 4.218,3.028 1.796,0.26 3.751,-0.221 5.866,-1.441 2.182,-1.26 3.587,-2.742 4.215,-4.446 0.628,-1.704 0.445,-3.42 -0.551,-5.146 -0.791,-1.37 -2.072,-2.299 -3.843,-2.788 -1.771,-0.488 -4.067,-0.561 -6.891,-0.216 l -0.927,0.095 c -1.666,2.27 -2.65,4.276 -2.953,6.018 -0.301,1.742 -0.013,3.374 0.866,4.896 z"
         id="path106"
         inkscape:connector-curvature="0" />
    </g>
    <g
       id="g108"
       style="fill:#0a3e60">
      <path
         d="m 2704.219,686.922 -25.144,14.517 -2.607,-4.516 4.014,-15.139 c 1.155,-4.523 1.844,-7.655 2.067,-9.397 0.224,-1.741 0.239,-3.268 0.047,-4.577 -0.192,-1.309 -0.64,-2.573 -1.343,-3.791 -0.967,-1.675 -2.232,-2.703 -3.795,-3.087 -1.562,-0.383 -3.232,-0.062 -5.009,0.964 -1.421,0.82 -2.643,1.876 -3.669,3.167 -1.025,1.291 -2.014,3.124 -2.964,5.5 l -5.493,-2.072 c 1.058,-2.934 2.35,-5.325 3.875,-7.176 1.525,-1.85 3.387,-3.41 5.586,-4.68 3.45,-1.992 6.736,-2.688 9.856,-2.088 3.121,0.6 5.56,2.423 7.317,5.467 0.967,1.675 1.585,3.438 1.854,5.29 0.269,1.853 0.243,3.937 -0.077,6.252 -0.32,2.315 -1.141,5.671 -2.461,10.064 l -2.841,9.962 0.146,0.253 17.607,-10.166 3.034,5.253 z m 18.952,-35.671 c 3.721,6.445 5.448,11.83 5.183,16.155 -0.265,4.326 -2.529,7.719 -6.791,10.18 -4.128,2.383 -8.189,2.574 -12.186,0.574 -3.997,-2 -7.797,-6.121 -11.4,-12.363 -3.779,-6.546 -5.528,-11.969 -5.249,-16.269 0.28,-4.3 2.543,-7.676 6.789,-10.127 4.144,-2.393 8.219,-2.581 12.226,-0.563 4.005,2.017 7.815,6.156 11.428,12.413 z m -19.155,11.06 c 2.92,5.058 5.525,8.369 7.814,9.933 2.291,1.565 4.577,1.688 6.861,0.37 2.283,-1.318 3.319,-3.382 3.106,-6.191 -0.213,-2.809 -1.759,-6.709 -4.64,-11.699 -2.871,-4.973 -5.478,-8.266 -7.819,-9.88 -2.341,-1.614 -4.653,-1.762 -6.937,-0.443 -2.284,1.318 -3.315,3.369 -3.097,6.151 0.222,2.781 1.792,6.702 4.712,11.759 z m 25.355,-10.985 c -8.379,-14.513 -6.657,-25.182 5.166,-32.008 1.861,-1.074 3.517,-1.838 4.969,-2.293 l 2.871,4.973 c -1.5,0.371 -3.097,1.043 -4.788,2.02 -3.975,2.295 -6.346,5.084 -7.11,8.368 -0.766,3.284 0.125,7.326 2.67,12.125 l 0.305,-0.176 c 0,-1.829 0.508,-3.535 1.511,-5.118 1.003,-1.582 2.478,-2.936 4.423,-4.059 3.365,-1.943 6.583,-2.425 9.652,-1.445 3.069,0.98 5.624,3.237 7.665,6.772 2.246,3.89 2.934,7.592 2.064,11.105 -0.87,3.513 -3.183,6.354 -6.938,8.521 -2.655,1.533 -5.333,2.228 -8.032,2.083 -2.7,-0.144 -5.284,-1.133 -7.752,-2.967 -2.468,-1.833 -4.693,-4.467 -6.676,-7.901 z m 19.517,3.922 c 2.046,-1.182 3.243,-2.752 3.589,-4.711 0.346,-1.958 -0.188,-4.165 -1.604,-6.617 -1.23,-2.131 -2.717,-3.505 -4.461,-4.123 -1.743,-0.618 -3.655,-0.326 -5.735,0.875 -1.286,0.742 -2.311,1.701 -3.076,2.875 -0.765,1.175 -1.185,2.421 -1.259,3.737 -0.074,1.317 0.177,2.475 0.753,3.473 1.377,2.385 3.184,4.021 5.42,4.905 2.236,0.886 4.359,0.748 6.373,-0.414 z"
         id="path110"
         inkscape:connector-curvature="0" />
    </g>
    <g
       id="g112"
       style="fill:#0a3e60">
      <path
         d="m 2860.118,689.675 -25.144,14.517 -2.607,-4.516 4.013,-15.139 c 1.155,-4.523 1.844,-7.655 2.068,-9.397 0.224,-1.742 0.239,-3.267 0.047,-4.577 -0.193,-1.31 -0.64,-2.574 -1.343,-3.792 -0.967,-1.675 -2.232,-2.703 -3.795,-3.086 -1.563,-0.383 -3.232,-0.062 -5.009,0.963 -1.421,0.82 -2.644,1.876 -3.668,3.167 -1.026,1.292 -2.014,3.125 -2.965,5.5 l -5.493,-2.073 c 1.058,-2.933 2.35,-5.325 3.875,-7.176 1.525,-1.85 3.388,-3.41 5.586,-4.68 3.451,-1.992 6.736,-2.688 9.856,-2.088 3.121,0.6 5.56,2.423 7.318,5.467 0.967,1.674 1.584,3.438 1.853,5.29 0.269,1.853 0.243,3.937 -0.078,6.253 -0.321,2.316 -1.141,5.671 -2.46,10.064 l -2.841,9.962 0.146,0.253 17.608,-10.166 3.033,5.254 z m 18.952,-35.671 c 3.721,6.445 5.448,11.83 5.183,16.155 -0.266,4.326 -2.529,7.719 -6.792,10.18 -4.127,2.383 -8.189,2.574 -12.186,0.574 -3.997,-2 -7.796,-6.121 -11.4,-12.363 -3.779,-6.546 -5.529,-11.969 -5.249,-16.269 0.28,-4.3 2.542,-7.676 6.789,-10.127 4.144,-2.393 8.219,-2.58 12.226,-0.563 4.006,2.017 7.815,6.155 11.429,12.413 z m -19.156,11.059 c 2.92,5.058 5.525,8.369 7.815,9.933 2.29,1.564 4.577,1.688 6.86,0.369 2.284,-1.318 3.319,-3.382 3.107,-6.191 -0.213,-2.809 -1.759,-6.708 -4.64,-11.699 -2.871,-4.973 -5.478,-8.266 -7.818,-9.88 -2.342,-1.613 -4.654,-1.762 -6.938,-0.443 -2.283,1.318 -3.315,3.369 -3.096,6.151 0.22,2.783 1.79,6.703 4.71,11.76 z m 38.592,2.449 -3.689,-40.258 -19.283,11.133 -3.032,-5.252 25.651,-14.81 2.402,4.161 4.396,41.305 -6.445,3.721 z"
         id="path114"
         inkscape:connector-curvature="0" />
    </g>
  </g>
</svg>
